<?xml version="1.0" encoding="UTF-8"?>
<svg width="64" height="64" version="1.1" xmlns="http://www.w3.org/2000/svg" xmlns:cc="http://creativecommons.org/ns#" xmlns:dc="http://purl.org/dc/elements/1.1/" xmlns:rdf="http://www.w3.org/1999/02/22-rdf-syntax-ns#" xmlns:xlink="http://www.w3.org/1999/xlink">
 <metadata>
  <rdf:RDF>
   <cc:Work rdf:about="">
    <dc:format>image/svg+xml</dc:format>
    <dc:type rdf:resource="http://purl.org/dc/dcmitype/StillImage"/>
    <dc:title/>
   </cc:Work>
  </rdf:RDF>
 </metadata>
 <defs>
  <linearGradient id="linearGradient905" x1="25.034" x2="25.034" y1="38.623" y2="2.8263" gradientUnits="userSpaceOnUse">
   <stop stop-color="#ff7832" offset="0"/>
   <stop stop-color="#ffdc32" offset="1"/>
  </linearGradient>
  <linearGradient id="linearGradient913" x1="26.502" x2="26.59" y1="59.602" y2="18.949" gradientUnits="userSpaceOnUse">
   <stop stop-color="#14a03c" offset="0"/>
   <stop stop-color="#14dc78" offset="1"/>
  </linearGradient>
  <linearGradient id="linearGradient921" x1="43.067" x2="42.579" y1="59.41" y2="28.346" gradientUnits="userSpaceOnUse">
   <stop stop-color="#3250e6" offset="0"/>
   <stop stop-color="#0a82f0" offset="1"/>
  </linearGradient>
  <filter id="filter1025" x="-.12462" y="-.12462" width="1.2492" height="1.2492" color-interpolation-filters="sRGB">
   <feGaussianBlur stdDeviation="1.3487305"/>
  </filter>
  <filter id="filter1029" x="-.12462" y="-.12462" width="1.2492" height="1.2492" color-interpolation-filters="sRGB">
   <feGaussianBlur stdDeviation="1.3487305"/>
  </filter>
  <filter id="filter1033" x="-.12462" y="-.12462" width="1.2492" height="1.2492" color-interpolation-filters="sRGB">
   <feGaussianBlur stdDeviation="1.3487305"/>
  </filter>
  <filter id="filter1139" x="-.2494" y="-.18634" width="1.4988" height="1.3727" color-interpolation-filters="sRGB">
   <feGaussianBlur stdDeviation="0.77642176"/>
  </filter>
  <filter id="filter1143" x="-.23972" y="-.18634" width="1.4794" height="1.3727" color-interpolation-filters="sRGB">
   <feGaussianBlur stdDeviation="0.77642176"/>
  </filter>
  <filter id="filter1147" x="-.22342" y="-.18634" width="1.4468" height="1.3727" color-interpolation-filters="sRGB">
   <feGaussianBlur stdDeviation="0.77642176"/>
  </filter>
  <filter id="filter11290" x="-.024" y="-.024" width="1.048" height="1.048" color-interpolation-filters="sRGB">
   <feGaussianBlur stdDeviation="0.15875313"/>
  </filter>
 </defs>
 <circle transform="matrix(3.7796 0 0 3.7796 -.1028 .024568)" cx="8.4937" cy="8.46" r="7.9377" filter="url(#filter11290)" opacity=".25" stroke-width=".14032"/>
 <path d="m62.03 32c0 3.5964-0.63304 7.0448-1.794 10.24-0.80698 2.2212-1.8686 4.3212-3.1519 6.2636-0.53754 0.8167-1.1155 1.6054-1.729 2.3633-1.9641 2.4257-4.2982 4.5382-6.9186 6.2526-0.96493 0.63187-1.9678 1.2098-3.0061 1.7277-4.0321 2.0179-8.5839 3.153-13.401 3.153-4.8171 0-9.3689-1.1351-13.401-3.1531-1.0384-0.518-2.0425-1.096-3.0074-1.7277-2.6535-1.7376-5.0155-3.8832-6.9957-6.349-0.61468-0.76408-1.1915-1.56-1.729-2.3841-1.249-1.9102-2.2837-3.9712-3.0747-6.1494-1.1608-3.1949-1.7927-6.6419-1.7927-10.237 0-16.569 13.432-30.001 30.001-30.001 8.317 0 15.843 3.3846 21.277 8.8507 1.5661 1.5747 2.9584 3.3234 4.1436 5.214 1.1205 1.7805 2.0572 3.6882 2.7857 5.6951 1.161 3.196 1.7941 6.6442 1.7941 10.24z" fill="#fafafa" stroke-width=".11719"/>
 <circle cx="-1248.7" cy="-1241.1" r="0" fill="#5e4aa6"/>
 <g transform="translate(107.77 .00031962)">
  <g transform="translate(-107.77)" stroke-width=".53072">
   <path d="m31 5.0254c-14.158 0.51113-25.463 11.816-25.975 25.975h25.975z" enable-background="new" filter="url(#filter1025)" opacity=".15"/>
   <path d="m31 5.0254c-14.158 0.51113-25.463 11.816-25.975 25.975h25.975z" enable-background="new" fill="url(#linearGradient905)"/>
   <path d="m33 33v25.975c14.158-0.51112 25.463-11.816 25.975-25.975z" enable-background="new" filter="url(#filter1029)" opacity=".15"/>
   <path d="m33 33v25.975c14.158-0.51112 25.463-11.816 25.975-25.975z" enable-background="new" fill="url(#linearGradient921)"/>
   <path d="m5.0254 33c0.51113 14.158 11.816 25.463 25.975 25.975v-25.975z" enable-background="new" filter="url(#filter1033)" opacity=".15"/>
   <path d="m5.0254 33c0.51113 14.158 11.816 25.463 25.975 25.975v-25.975z" enable-background="new" fill="url(#linearGradient913)"/>
  </g>
  <path d="m-86.078 23.869c1.9319-1.3779 3.0398-2.9688 3.0398-4.7016 0-1.9887-1.4205-3.1677-3.8068-3.1677-1.2074 0-2.3722 0.2983-3.395 0.85229l0.55398 1.8608c0.93751-0.42614 1.6478-0.61082 2.3296-0.61082 1.1222 0 1.7614 0.49718 1.7614 1.3921 0 1.1364-0.99435 2.4006-4.2755 4.9573v1.5483h7.1023v-2.1307z" enable-background="new" filter="url(#filter1139)" opacity=".15" stroke-width=".38045px" style="font-feature-settings:normal;font-variant-caps:normal;font-variant-ligatures:normal;font-variant-numeric:normal"/>
  <path d="m-86.078 23.869c1.9319-1.3779 3.0398-2.9688 3.0398-4.7016 0-1.9887-1.4205-3.1677-3.8068-3.1677-1.2074 0-2.3722 0.2983-3.395 0.85229l0.55398 1.8608c0.93751-0.42614 1.6478-0.61082 2.3296-0.61082 1.1222 0 1.7614 0.49718 1.7614 1.3921 0 1.1364-0.99435 2.4006-4.2755 4.9573v1.5483h7.1023v-2.1307z" enable-background="new" fill="#fff" stroke-width=".38045px" style="font-feature-settings:normal;font-variant-caps:normal;font-variant-ligatures:normal;font-variant-numeric:normal"/>
  <path d="m-62.83 42.608c0.9804-0.50419 1.5126-1.2605 1.5126-2.1568 0-1.4706-1.4146-2.451-3.5014-2.451-2.2129 0-3.6835 1.1905-3.6835 2.9692 0 1.0784 0.54621 1.7227 1.2885 2.1709-0.9944 0.42017-1.5546 1.1765-1.5546 2.1289 0 1.6387 1.5406 2.7311 3.8517 2.7311 2.353 0 3.9215-1.2045 3.9215-3.0252 0-1.2745-0.84034-1.9328-1.8347-2.3669zm-2.0728-2.535c0.65825 0 1.0925 0.32213 1.0925 0.82634 0 0.50419-0.36414 0.91037-0.92436 1.0504-0.72829-0.2661-1.2745-0.54621-1.2745-1.0644 0-0.4902 0.43416-0.81231 1.1064-0.81231zm0.11204 5.8544c-0.89634 0-1.4846-0.43416-1.4846-1.0784 0-0.46218 0.29412-0.82634 0.79832-0.9944 1.0504 0.33613 1.9888 0.58822 1.9888 1.2465 0 0.4902-0.53221 0.82634-1.3025 0.82634z" enable-background="new" filter="url(#filter1143)" opacity=".15" stroke-width=".37512px" style="font-feature-settings:normal;font-variant-caps:normal;font-variant-ligatures:normal;font-variant-numeric:normal"/>
  <path d="m-62.83 42.608c0.9804-0.50419 1.5126-1.2605 1.5126-2.1568 0-1.4706-1.4146-2.451-3.5014-2.451-2.2129 0-3.6835 1.1905-3.6835 2.9692 0 1.0784 0.54621 1.7227 1.2885 2.1709-0.9944 0.42017-1.5546 1.1765-1.5546 2.1289 0 1.6387 1.5406 2.7311 3.8517 2.7311 2.353 0 3.9215-1.2045 3.9215-3.0252 0-1.2745-0.84034-1.9328-1.8347-2.3669zm-2.0728-2.535c0.65825 0 1.0925 0.32213 1.0925 0.82634 0 0.50419-0.36414 0.91037-0.92436 1.0504-0.72829-0.2661-1.2745-0.54621-1.2745-1.0644 0-0.4902 0.43416-0.81231 1.1064-0.81231zm0.11204 5.8544c-0.89634 0-1.4846-0.43416-1.4846-1.0784 0-0.46218 0.29412-0.82634 0.79832-0.9944 1.0504 0.33613 1.9888 0.58822 1.9888 1.2465 0 0.4902-0.53221 0.82634-1.3025 0.82634z" enable-background="new" fill="#fff" stroke-width=".37512px" style="font-feature-settings:normal;font-variant-caps:normal;font-variant-ligatures:normal;font-variant-numeric:normal"/>
  <path d="m-82.768 43.908h-1.3448v-5.9084h-2.3748l-4.621 5.9084v2.1459h4.5064v1.9456h2.4893v-1.9456h1.3448zm-6.0801-0.02862 2.2461-2.9328v2.9471z" enable-background="new" filter="url(#filter1147)" opacity=".15" stroke-width=".38317px" style="font-feature-settings:normal;font-variant-caps:normal;font-variant-ligatures:normal;font-variant-numeric:normal"/>
  <path d="m-82.768 43.908h-1.3448v-5.9084h-2.3748l-4.621 5.9084v2.1459h4.5064v1.9456h2.4893v-1.9456h1.3448zm-6.0801-0.02862 2.2461-2.9328v2.9471z" enable-background="new" fill="#fff" stroke-width=".38317px" style="font-feature-settings:normal;font-variant-caps:normal;font-variant-ligatures:normal;font-variant-numeric:normal"/>
 </g>
</svg>
