<?xml version="1.0" encoding="UTF-8"?>
<svg width="64" height="64" version="1.1" viewBox="0 0 16.933 16.933" xmlns="http://www.w3.org/2000/svg" xmlns:cc="http://creativecommons.org/ns#" xmlns:dc="http://purl.org/dc/elements/1.1/" xmlns:rdf="http://www.w3.org/1999/02/22-rdf-syntax-ns#">
 <metadata>
  <rdf:RDF>
   <cc:Work rdf:about="">
    <dc:format>image/svg+xml</dc:format>
    <dc:type rdf:resource="http://purl.org/dc/dcmitype/StillImage"/>
    <dc:title/>
   </cc:Work>
  </rdf:RDF>
 </metadata>
 <defs>
  <filter id="filter1010" x="-.064831" y="-.055839" width="1.1297" height="1.1117" color-interpolation-filters="sRGB">
   <feGaussianBlur stdDeviation="0.264714"/>
  </filter>
  <filter id="filter11290" x="-.024" y="-.024" width="1.048" height="1.048" color-interpolation-filters="sRGB">
   <feGaussianBlur stdDeviation="0.15875313"/>
  </filter>
 </defs>
 <circle cx="8.4665" cy="8.4665" r="7.9377" filter="url(#filter11290)" opacity=".25" stroke-width=".14032"/>
 <path d="m16.404 8.4664c0 0.95154-0.16749 1.8639-0.47464 2.7094-0.21351 0.58768-0.49439 1.1433-0.83393 1.6572-0.14222 0.21608-0.29514 0.42475-0.45746 0.62529-0.51966 0.64179-1.1372 1.2007-1.8305 1.6543-0.2553 0.16718-0.52065 0.3201-0.79536 0.45712-1.0668 0.53389-2.2711 0.83421-3.5456 0.83421s-2.4788-0.30032-3.5456-0.83424c-0.27474-0.13705-0.5404-0.28997-0.7957-0.45712-0.70207-0.45973-1.327-1.0274-1.8509-1.6798-0.16263-0.20216-0.31524-0.41275-0.45746-0.63078-0.33046-0.5054-0.60421-1.0507-0.8135-1.627-0.30711-0.84529-0.4743-1.7573-0.4743-2.7085 0-4.3838 3.5537-7.9375 7.9375-7.9375 2.2005 0 4.1917 0.89548 5.6295 2.3417 0.41436 0.41662 0.78274 0.87929 1.0963 1.3795 0.29645 0.47107 0.54428 0.97582 0.73704 1.5068 0.30718 0.84559 0.47467 1.7579 0.47467 2.7094z" fill="#fafafa" stroke-width=".031006"/>
 <g transform="matrix(1.0405 0 0 1.0405 1.5625 16.997)" filter="url(#filter1010)">
  <path d="m7.5314-11.798 3.4462-0.8128c0.30058-0.07089 0.55745 0.25257 0.55745 0.5663v7.6895c0 0.31373-0.25687 0.63718-0.55745 0.5663l-3.4462-0.81268c-0.30058-0.07088-0.55745-0.25257-0.55745-0.5663v-6.064c0-0.31373 0.25687-0.4954 0.55745-0.5663z" fill="#4b9fca"/>
  <path d="m4.9214-12.461 4.0812-0.96256c0.35596-0.08395 0.66016 0.2991 0.66016 0.67064v9.1063c0 0.37153-0.3042 0.75458-0.66016 0.67064l-4.0812-0.96242c-0.35597-0.08394-0.66016-0.29911-0.66016-0.67064v-7.1813c0-0.37153 0.3042-0.58668 0.66016-0.67064z" fill="#7026c7" opacity=".95"/>
  <path d="m2.4529-12.83 4.4346-1.0459c0.38678-0.09122 0.71732 0.325 0.71732 0.72871v9.8948c0 0.4037-0.33054 0.81992-0.71732 0.72871l-4.4346-1.0458c-0.38679-0.09121-0.71732-0.325-0.71732-0.72871v-7.8031c0-0.4037 0.33054-0.63748 0.71732-0.72871z" fill="#d92c4f" opacity=".95"/>
 </g>
 <g transform="matrix(1.0405 0 0 1.0405 1.5625 16.997)">
  <path d="m7.5314-11.798 3.4462-0.8128c0.30058-0.07089 0.55745 0.25257 0.55745 0.5663v7.6895c0 0.31373-0.25687 0.63718-0.55745 0.5663l-3.4462-0.81268c-0.30058-0.07088-0.55745-0.25257-0.55745-0.5663v-6.064c0-0.31373 0.25687-0.4954 0.55745-0.5663z" fill="#4b9fca"/>
  <path d="m4.9214-12.461 4.0812-0.96256c0.35596-0.08395 0.66016 0.2991 0.66016 0.67064v9.1063c0 0.37153-0.3042 0.75458-0.66016 0.67064l-4.0812-0.96242c-0.35597-0.08394-0.66016-0.29911-0.66016-0.67064v-7.1813c0-0.37153 0.3042-0.58668 0.66016-0.67064z" fill="#7026c7" opacity=".95"/>
  <path d="m2.4529-12.83 4.4346-1.0459c0.38678-0.09122 0.71732 0.325 0.71732 0.72871v9.8948c0 0.4037-0.33054 0.81992-0.71732 0.72871l-4.4346-1.0458c-0.38679-0.09121-0.71732-0.325-0.71732-0.72871v-7.8031c0-0.4037 0.33054-0.63748 0.71732-0.72871z" fill="#d92c4f" opacity=".95"/>
 </g>
 <g transform="translate(7.5495 .22687)" style="font-feature-settings:normal;font-variant-caps:normal;font-variant-ligatures:normal;font-variant-numeric:normal" aria-label="T">
  <path d="m-0.26137 6.5232v5.7136l-1.8439-0.4124v-4.8885l-1.4495 0.33021v-1.8884l4.8326-1.1449v1.8884z" fill="#fff" stroke-width=".22351" style="font-feature-settings:normal;font-variant-caps:normal;font-variant-ligatures:normal;font-variant-numeric:normal"/>
 </g>
 <circle cx="-302.25" cy="-334.83" r="0" fill="#5e4aa6" stroke-width=".26458"/>
</svg>
