<?xml version="1.0" encoding="UTF-8"?>
<!-- Created with Inkscape (http://www.inkscape.org/) -->
<svg width="64" height="64" version="1.1" viewBox="0 0 16.933 16.933" xmlns="http://www.w3.org/2000/svg" xmlns:cc="http://creativecommons.org/ns#" xmlns:dc="http://purl.org/dc/elements/1.1/" xmlns:rdf="http://www.w3.org/1999/02/22-rdf-syntax-ns#">
 <defs>
  <filter id="filter11290" x="-.024" y="-.024" width="1.048" height="1.048" color-interpolation-filters="sRGB">
   <feGaussianBlur stdDeviation="0.15875313"/>
  </filter>
  <filter id="filter894" x="-.064641" y="-.055981" width="1.1293" height="1.112" color-interpolation-filters="sRGB">
   <feGaussianBlur stdDeviation="0.20621212"/>
  </filter>
 </defs>
 <metadata>
  <rdf:RDF>
   <cc:Work rdf:about="">
    <dc:format>image/svg+xml</dc:format>
    <dc:type rdf:resource="http://purl.org/dc/dcmitype/StillImage"/>
    <dc:title/>
   </cc:Work>
  </rdf:RDF>
 </metadata>
 <circle cx="8.4937" cy="8.46" r="7.9377" filter="url(#filter11290)" opacity=".25" stroke-width=".14032"/>
 <path d="m16.439 8.46c0 0.95154-0.16749 1.8639-0.47464 2.7094-0.21351 0.58768-0.49439 1.1433-0.83393 1.6572-0.14222 0.21608-0.29514 0.42475-0.45746 0.62529-0.51966 0.64179-1.1372 1.2007-1.8305 1.6543-0.2553 0.16718-0.52065 0.3201-0.79536 0.45712-1.0668 0.53389-2.2711 0.83421-3.5456 0.83421s-2.4788-0.30032-3.5456-0.83424c-0.27474-0.13705-0.5404-0.28997-0.7957-0.45712-0.70207-0.45973-1.327-1.0274-1.8509-1.6798-0.16263-0.20216-0.31524-0.41275-0.45746-0.63078-0.33046-0.5054-0.60421-1.0507-0.8135-1.627-0.30711-0.84529-0.4743-1.7573-0.4743-2.7085 0-4.3838 3.5537-7.9375 7.9375-7.9375 2.2005 0 4.1917 0.89548 5.6295 2.3417 0.41436 0.41662 0.78274 0.87929 1.0963 1.3795 0.29645 0.47107 0.54428 0.97582 0.73704 1.5068 0.30718 0.84559 0.47467 1.7579 0.47467 2.7094z" fill="#fafafa" stroke-width=".031006"/>
 <circle cx="-330.35" cy="-328.38" r="0" fill="#5e4aa6" stroke-width=".26458"/>
 <g transform="translate(.38388 .40559)">
  <g transform="matrix(1.3386 0 0 1.3386 4.2294 14.951)" filter="url(#filter894)">
   <path d="m6.7328-7.3624s-1.7461-0.94303-3.9324 0.72314l1.3397 2.3204c2.5361-1.0603 2.5927-3.0435 2.5927-3.0435z" fill="#fbd708"/>
   <path d="m6.7327-2.9422s-0.05636-1.9837-2.5925-3.044l-1.3397 2.3204c2.1863 1.6662 3.9322 0.72359 3.9322 0.72359z" fill="#07dc9b"/>
   <path d="m2.9048-0.73216s-1.6897-1.0406-1.3399-3.7671h2.6794c0.34978 2.7265-1.3394 3.7671-1.3394 3.7671z" fill="#0294f7"/>
   <path d="m-0.92342-2.9421s0.05635-1.9837 2.5925-3.044l1.3397 2.3204c-2.1863 1.6662-3.9321 0.72359-3.9321 0.72359z" fill="#aa01f6"/>
   <path d="m-0.92353-7.3625s1.7461-0.94303 3.9324 0.72314l-1.3397 2.3204c-2.5361-1.0603-2.5927-3.0435-2.5927-3.0435z" fill="#f825c0"/>
   <path d="m2.9048-9.5728s-1.6897 1.0406-1.3399 3.7671h2.6794c0.34978-2.7265-1.3394-3.7671-1.3394-3.7671z" fill="#fd8338"/>
   <path d="m4.2215-7.4196c-0.4414 0.15245-0.91962 0.39406-1.4227 0.77744l0.48642 0.84275h0.97337c0.08045-0.6271 0.051445-1.1618-0.037096-1.6202z" fill="#fbd708"/>
   <path d="m4.1421-5.9892-0.10988 0.18965h0.23027c0.0057-0.044343 0.00694-0.084744 0.011567-0.12818-0.045134-0.020142-0.085183-0.041922-0.13196-0.061465z" fill="#07dc9b"/>
  </g>
  <g transform="matrix(1.3386 0 0 1.3386 4.2294 14.951)">
   <path d="m6.7328-7.3624s-1.7461-0.94303-3.9324 0.72314l1.3397 2.3204c2.5361-1.0603 2.5927-3.0435 2.5927-3.0435z" fill="#fbd708"/>
   <path d="m6.7327-2.9422s-0.05636-1.9837-2.5925-3.044l-1.3397 2.3204c2.1863 1.6662 3.9322 0.72359 3.9322 0.72359z" fill="#07dc9b"/>
   <path d="m2.9048-0.73216s-1.6897-1.0406-1.3399-3.7671h2.6794c0.34978 2.7265-1.3394 3.7671-1.3394 3.7671z" fill="#0294f7"/>
   <path d="m-0.92342-2.9421s0.05635-1.9837 2.5925-3.044l1.3397 2.3204c-2.1863 1.6662-3.9321 0.72359-3.9321 0.72359z" fill="#aa01f6"/>
   <path d="m-0.92353-7.3625s1.7461-0.94303 3.9324 0.72314l-1.3397 2.3204c-2.5361-1.0603-2.5927-3.0435-2.5927-3.0435z" fill="#f825c0"/>
   <path d="m2.9048-9.5728s-1.6897 1.0406-1.3399 3.7671h2.6794c0.34978-2.7265-1.3394-3.7671-1.3394-3.7671z" fill="#fd8338"/>
   <path d="m4.2215-7.4196c-0.4414 0.15245-0.91962 0.39406-1.4227 0.77744l0.48642 0.84275h0.97337c0.08045-0.6271 0.051445-1.1618-0.037096-1.6202z" fill="#fbd708"/>
   <path d="m4.1421-5.9892-0.10988 0.18965h0.23027c0.0057-0.044343 0.00694-0.084744 0.011567-0.12818-0.045134-0.020142-0.085183-0.041922-0.13196-0.061465z" fill="#07dc9b"/>
  </g>
 </g>
</svg>
