<?xml version="1.0" encoding="UTF-8"?>
<!-- Created with Inkscape (http://www.inkscape.org/) -->
<svg width="64" height="64" version="1.1" viewBox="0 0 16.933 16.933" xmlns="http://www.w3.org/2000/svg" xmlns:cc="http://creativecommons.org/ns#" xmlns:dc="http://purl.org/dc/elements/1.1/" xmlns:rdf="http://www.w3.org/1999/02/22-rdf-syntax-ns#">
 <defs>
  <filter id="filter11290" x="-.024" y="-.024" width="1.048" height="1.048" color-interpolation-filters="sRGB">
   <feGaussianBlur stdDeviation="0.15875313"/>
  </filter>
  <linearGradient id="linearGradient1195" x1="-9.2997" x2="-.93244" y1="32.176" y2="32.176" gradientTransform="translate(1.8475,-2.1749)" gradientUnits="userSpaceOnUse">
   <stop stop-color="#1478e6" offset="0"/>
   <stop stop-color="#3c50e6" offset="1"/>
  </linearGradient>
 </defs>
 <metadata>
  <rdf:RDF>
   <cc:Work rdf:about="">
    <dc:format>image/svg+xml</dc:format>
    <dc:type rdf:resource="http://purl.org/dc/dcmitype/StillImage"/>
    <dc:title/>
   </cc:Work>
  </rdf:RDF>
 </metadata>
 <circle cx="8.4937" cy="8.46" r="7.9377" filter="url(#filter11290)" opacity=".25" stroke-width=".14032"/>
 <path d="m16.439 8.46c0 0.95154-0.16749 1.8639-0.47464 2.7094-0.21351 0.58768-0.49439 1.1433-0.83393 1.6572-0.14222 0.21608-0.29514 0.42475-0.45746 0.62529-0.51966 0.64179-1.1372 1.2007-1.8305 1.6543-0.2553 0.16718-0.52065 0.3201-0.79536 0.45712-1.0668 0.53389-2.2711 0.83421-3.5456 0.83421s-2.4788-0.30032-3.5456-0.83424c-0.27474-0.13705-0.5404-0.28997-0.7957-0.45712-0.70207-0.45973-1.327-1.0274-1.8509-1.6798-0.16263-0.20216-0.31524-0.41275-0.45746-0.63078-0.33046-0.5054-0.60421-1.0507-0.8135-1.627-0.30711-0.84529-0.4743-1.7573-0.4743-2.7085 0-4.3838 3.5537-7.9375 7.9375-7.9375 2.2005 0 4.1917 0.89548 5.6295 2.3417 0.41436 0.41662 0.78274 0.87929 1.0963 1.3795 0.29645 0.47107 0.54428 0.97582 0.73704 1.5068 0.30718 0.84559 0.47467 1.7579 0.47467 2.7094z" fill="#fafafa" stroke-width=".031006"/>
 <circle cx="-330.35" cy="-328.38" r="0" fill="#5e4aa6" stroke-width=".26458"/>
 <g transform="matrix(1.2481 0 0 1.2481 12.581 -28.985)">
  <path d="m-4.9811 27.761h-1.029l-0.24555-0.24555h-0.62611v0.25708s-0.5705-0.01654-0.5705 0.39687v4.2167s-0.0083 0.52916 0.40514 0.52916h7.5157s0.44648 0 0.44648-0.44648v-4.2829s-0.01654-0.43408-0.43407-0.43408h-2.0794l-0.38329-0.66387h-2.5684z" fill="none" stroke="#f0f0f0" stroke-width=".66145"/>
  <path d="m-4.9811 27.761h-1.029l-0.24555-0.24555h-0.62611v0.25708s-0.5705-0.01654-0.5705 0.39687v4.2167s-0.0083 0.52916 0.40514 0.52916h7.5157s0.44648 0 0.44648-0.44648v-4.2829s-0.01654-0.43408-0.43407-0.43408h-2.0794l-0.38329-0.66387h-2.5684z" fill="url(#linearGradient1195)"/>
  <circle cx="-3.2686" cy="30.305" r="1.7967" fill="none" opacity=".8" stroke="#32ffaa" stroke-width=".22586"/>
  <circle cx=".20706" cy="28.325" r=".23386" fill="#ff1e32" opacity=".8"/>
  <rect x="-6.9782" y="28.157" width="1.0348" height=".3379" fill="#4ba4f7" opacity=".8"/>
 </g>
</svg>
