<?xml version="1.0" encoding="UTF-8"?>
<!-- Created with Inkscape (http://www.inkscape.org/) -->
<svg width="64" height="64" version="1.1" viewBox="0 0 16.933 16.933" xmlns="http://www.w3.org/2000/svg" xmlns:cc="http://creativecommons.org/ns#" xmlns:dc="http://purl.org/dc/elements/1.1/" xmlns:rdf="http://www.w3.org/1999/02/22-rdf-syntax-ns#">
 <defs>
  <filter id="filter11290" x="-.024" y="-.024" width="1.048" height="1.048" color-interpolation-filters="sRGB">
   <feGaussianBlur stdDeviation="0.15875313"/>
  </filter>
  <linearGradient id="b" x1="45.094" x2="45.094" y1="50" y2="14" gradientTransform="matrix(.26458 0 0 .26458 27.829 18.943)" gradientUnits="userSpaceOnUse">
   <stop offset="0"/>
   <stop stop-opacity="0" offset="1"/>
  </linearGradient>
 </defs>
 <metadata>
  <rdf:RDF>
   <cc:Work rdf:about="">
    <dc:format>image/svg+xml</dc:format>
    <dc:type rdf:resource="http://purl.org/dc/dcmitype/StillImage"/>
    <dc:title/>
   </cc:Work>
  </rdf:RDF>
 </metadata>
 <circle cx="8.4937" cy="8.46" r="7.9377" filter="url(#filter11290)" opacity=".25" stroke-width=".14032"/>
 <path d="m16.439 8.46c0 0.95154-0.16749 1.8639-0.47464 2.7094-0.21351 0.58768-0.49439 1.1433-0.83393 1.6572-0.14222 0.21608-0.29514 0.42475-0.45746 0.62529-0.51966 0.64179-1.1372 1.2007-1.8305 1.6543-0.2553 0.16718-0.52065 0.3201-0.79536 0.45712-1.0668 0.53389-2.2711 0.83421-3.5456 0.83421s-2.4788-0.30032-3.5456-0.83424c-0.27474-0.13705-0.5404-0.28997-0.7957-0.45712-0.70207-0.45973-1.327-1.0274-1.8509-1.6798-0.16263-0.20216-0.31524-0.41275-0.45746-0.63078-0.33046-0.5054-0.60421-1.0507-0.8135-1.627-0.30711-0.84529-0.4743-1.7573-0.4743-2.7085 0-4.3838 3.5537-7.9375 7.9375-7.9375 2.2005 0 4.1917 0.89548 5.6295 2.3417 0.41436 0.41662 0.78274 0.87929 1.0963 1.3795 0.29645 0.47107 0.54428 0.97582 0.73704 1.5068 0.30718 0.84559 0.47467 1.7579 0.47467 2.7094z" fill="#fafafa" stroke-width=".031006"/>
 <circle cx="-330.35" cy="-328.38" r="0" fill="#5e4aa6" stroke-width=".26458"/>
 <g transform="matrix(.72112 0 0 .72112 -17.671 -11.305)" fill-rule="evenodd">
  <path d="m41.805 33.428c-0.054 0.2-0.27 0.316-0.48 0.26l-12.524-3.356c-0.212-0.057-0.34-0.267-0.287-0.465l2.272-8.476c0.053-0.2 0.27-0.316 0.48-0.26l12.523 3.357c0.211 0.057 0.34 0.267 0.286 0.465z" fill="#ffc771"/>
  <path d="m43.175 31.797c0 0.207-0.18 0.375-0.397 0.375h-12.965c-0.219 0-0.397-0.17-0.397-0.375v-8.774c0-0.207 0.18-0.375 0.397-0.375h12.966c0.22 0 0.397 0.17 0.397 0.375z" fill="#a75dfa"/>
  <path d="m39.206 28.865v-3.308a0.397 0.397 0 0 0-0.394-0.396h-4.633v-1.059c0-0.132-0.132-0.397-0.397-0.397-0.264 0-0.397 0.265-0.397 0.397v1.059h-1.058c-0.132 0-0.397 0.132-0.397 0.397 0 0.264 0.265 0.396 0.397 0.396h1.058v3.308c0 0.22 0.18 0.397 0.395 0.397h4.632v1.058c0 0.132 0.133 0.397 0.397 0.397 0.265 0 0.397-0.265 0.397-0.397v-1.058h1.058c0.133 0 0.397-0.133 0.397-0.397 0-0.265-0.264-0.397-0.397-0.397zm-5.027 0v-2.91h4.233v2.91z" fill="#fff9f9"/>
  <path d="m41.279 22.647a15.346 14.023 0 0 1-4.9339 9.5249h6.4325c0.21801 0 0.39687-0.16774 0.39687-0.37464v-8.7756c0-0.20478-0.17753-0.37464-0.39687-0.37464z" fill="url(#b)" opacity=".15" stroke-width=".26458"/>
 </g>
</svg>
