<?xml version="1.0" encoding="UTF-8"?>
<!-- Created with Inkscape (http://www.inkscape.org/) -->
<svg width="64" height="64" version="1.1" viewBox="0 0 16.933 16.933" xmlns="http://www.w3.org/2000/svg" xmlns:cc="http://creativecommons.org/ns#" xmlns:dc="http://purl.org/dc/elements/1.1/" xmlns:rdf="http://www.w3.org/1999/02/22-rdf-syntax-ns#" xmlns:xlink="http://www.w3.org/1999/xlink">
 <defs>
  <filter id="filter11290" x="-.024" y="-.024" width="1.048" height="1.048" color-interpolation-filters="sRGB">
   <feGaussianBlur stdDeviation="0.15875313"/>
  </filter>
  <linearGradient id="linearGradient1153" x1="22.053" x2="33.441" y1="10.438" y2="10.438" gradientTransform="rotate(-45,17.349,30.119)" gradientUnits="userSpaceOnUse">
   <stop stop-color="#faf1a5" offset="0"/>
   <stop stop-color="#faf7c8" offset="1"/>
  </linearGradient>
  <linearGradient id="linearGradient1161" x1="22.053" x2="33.441" y1="9.3051" y2="9.3051" gradientTransform="rotate(-45,17.349,30.119)" gradientUnits="userSpaceOnUse">
   <stop stop-color="#ffc85a" offset="0"/>
   <stop stop-color="#faf6c3" offset="1"/>
  </linearGradient>
  <linearGradient id="linearGradient13510-3" x1="8.7643" x2="8.7643" y1="287.18" y2="287.64" gradientTransform="matrix(.57232 0 0 .33584 3.6217 -89.534)" gradientUnits="userSpaceOnUse" xlink:href="#linearGradient991"/>
  <linearGradient id="linearGradient991">
   <stop stop-color="#969696" offset="0"/>
   <stop stop-color="#e6e6e6" stop-opacity=".90196" offset="1"/>
  </linearGradient>
  <linearGradient id="linearGradient13512" x1="8.3178" x2="8.3178" y1="289.36" y2="289.81" gradientTransform="matrix(.55154 0 0 .33584 3.7873 -92.234)" gradientUnits="userSpaceOnUse" xlink:href="#linearGradient991"/>
  <linearGradient id="linearGradient1206" x1="8.7643" x2="8.7643" y1="287.18" y2="287.64" gradientTransform="matrix(.57232 0 0 .33584 3.6217 -87.562)" gradientUnits="userSpaceOnUse" xlink:href="#linearGradient991"/>
  <linearGradient id="linearGradient1210" x1="8.7643" x2="8.7643" y1="287.18" y2="287.64" gradientTransform="matrix(.57232 0 0 .33584 3.6217 -85.59)" gradientUnits="userSpaceOnUse" xlink:href="#linearGradient991"/>
  <linearGradient id="linearGradient1307" x1="16.393" x2=".60977" y1=".69761" y2="16.375" gradientUnits="userSpaceOnUse">
   <stop stop-color="#ffdc32" offset="0"/>
   <stop stop-color="#ff7832" offset="1"/>
  </linearGradient>
 </defs>
 <metadata>
  <rdf:RDF>
   <cc:Work rdf:about="">
    <dc:format>image/svg+xml</dc:format>
    <dc:type rdf:resource="http://purl.org/dc/dcmitype/StillImage"/>
    <dc:title/>
   </cc:Work>
  </rdf:RDF>
 </metadata>
 <circle cx="8.4937" cy="8.46" r="7.9377" filter="url(#filter11290)" opacity=".25" stroke-width=".14032"/>
 <path d="m16.439 8.46c0 0.95154-0.16749 1.8639-0.47464 2.7094-0.21351 0.58768-0.49439 1.1433-0.83393 1.6572-0.14222 0.21608-0.29514 0.42475-0.45746 0.62529-0.51966 0.64179-1.1372 1.2007-1.8305 1.6543-0.2553 0.16718-0.52065 0.3201-0.79536 0.45712-1.0668 0.53389-2.2711 0.83421-3.5456 0.83421s-2.4788-0.30032-3.5456-0.83424c-0.27474-0.13705-0.5404-0.28997-0.7957-0.45712-0.70207-0.45973-1.327-1.0274-1.8509-1.6798-0.16263-0.20216-0.31524-0.41275-0.45746-0.63078-0.33046-0.5054-0.60421-1.0507-0.8135-1.627-0.30711-0.84529-0.4743-1.7573-0.4743-2.7085 0-4.3838 3.5537-7.9375 7.9375-7.9375 2.2005 0 4.1917 0.89548 5.6295 2.3417 0.41436 0.41662 0.78274 0.87929 1.0963 1.3795 0.29645 0.47107 0.54428 0.97582 0.73704 1.5068 0.30718 0.84559 0.47467 1.7579 0.47467 2.7094z" fill="url(#linearGradient1307)" stroke-width=".031006"/>
 <circle cx="-330.35" cy="-328.38" r="0" fill="#5e4aa6" stroke-width=".26458"/>
 <g transform="translate(.037096)">
  <path d="m9.9012 3.7967c2.8233 0 3.2267 0.43123 3.2267 3.4533v2.4202c0 3.0221-0.40348 3.4533-3.2267 3.4533h-2.8734c-2.8233 0-3.2268-0.43121-3.2268-3.4533v-2.4202c0-3.0221 0.40348-3.4533 3.2268-3.4533z" enable-background="new" fill="#fafafa" stroke-width=".64092"/>
  <g transform="matrix(.97058 0 0 1 .24621 .4913)">
   <path d="m3.9856 6.9374c-0.00585 0.029589-0.00947 0.060448-0.015081 0.09077h8.9931c-0.0053-0.030317-0.0092-0.061202-0.01567-0.09077z" fill="url(#linearGradient13510-3)" opacity=".6" stroke-width=".60512" style="paint-order:normal"/>
   <path d="m4.1332 4.9655c0.00521 0.030317 0.010173 0.060579 0.015962 0.09077h8.6371c0.0054-0.032616 0.01-0.058576 0.01482-0.09077z" fill="url(#linearGradient13512)" opacity=".6" stroke-width=".59404" style="paint-order:normal"/>
   <path d="m3.9856 8.9093c-0.00585 0.029589-0.00947 0.060448-0.015081 0.09077h8.9931c-0.0053-0.030317-0.0092-0.061202-0.01567-0.09077z" fill="url(#linearGradient1206)" opacity=".6" stroke-width=".60512" style="paint-order:normal"/>
   <path d="m3.9856 10.881c-0.00585 0.02959-0.00947 0.06045-0.015081 0.09077h8.9931c-0.0053-0.03032-0.0092-0.0612-0.01567-0.09077z" fill="url(#linearGradient1210)" opacity=".6" stroke-width=".60512" style="paint-order:normal"/>
  </g>
 </g>
 <g transform="matrix(.92924 0 0 .92924 .7179 .42701)">
  <path d="m6.3569 12.475 2.2584-0.60513 6.6213-6.6213-0.85084-0.85084z" fill="url(#linearGradient1153)"/>
  <path d="m6.3582 12.477 0.60513-2.2584 6.6213-6.6213 0.85084 0.85084z" fill="url(#linearGradient1161)"/>
 </g>
</svg>
