<?xml version="1.0" encoding="UTF-8" standalone="no"?>
<svg
   xmlns:dc="http://purl.org/dc/elements/1.1/"
   xmlns:cc="http://creativecommons.org/ns#"
   xmlns:rdf="http://www.w3.org/1999/02/22-rdf-syntax-ns#"
   xmlns:svg="http://www.w3.org/2000/svg"
   xmlns="http://www.w3.org/2000/svg"
   xmlns:sodipodi="http://sodipodi.sourceforge.net/DTD/sodipodi-0.dtd"
   xmlns:inkscape="http://www.inkscape.org/namespaces/inkscape"
   width="64"
   height="64"
   version="1.1"
   id="svg14"
   sodipodi:docname="accessories-character-map.svg"
   inkscape:version="0.92.4 5da689c313, 2019-01-14">
  <metadata
     id="metadata20">
    <rdf:RDF>
      <cc:Work
         rdf:about="">
        <dc:format>image/svg+xml</dc:format>
        <dc:type
           rdf:resource="http://purl.org/dc/dcmitype/StillImage" />
        <dc:title></dc:title>
      </cc:Work>
    </rdf:RDF>
  </metadata>
  <defs
     id="defs18">
    <filter
       color-interpolation-filters="sRGB"
       height="1.048"
       width="1.048"
       y="-.024"
       x="-.024"
       id="filter11290">
      <feGaussianBlur
         id="feGaussianBlur827"
         stdDeviation="0.15875313" />
    </filter>
    <linearGradient
       gradientUnits="userSpaceOnUse"
       gradientTransform="translate(1.8475,-2.1749)"
       y2="32.176"
       y1="32.176"
       x2="-.93244"
       x1="-9.2997"
       id="linearGradient1195">
      <stop
         id="stop830"
         offset="0"
         stop-color="#1478e6" />
      <stop
         id="stop832"
         offset="1"
         stop-color="#3c50e6" />
    </linearGradient>
  </defs>
  <sodipodi:namedview
     pagecolor="#ffffff"
     bordercolor="#666666"
     borderopacity="1"
     objecttolerance="10"
     gridtolerance="10"
     guidetolerance="10"
     inkscape:pageopacity="0"
     inkscape:pageshadow="2"
     inkscape:window-width="1920"
     inkscape:window-height="1005"
     id="namedview16"
     showgrid="false"
     inkscape:zoom="2.6074563"
     inkscape:cx="-70.861874"
     inkscape:cy="10.810792"
     inkscape:window-x="0"
     inkscape:window-y="45"
     inkscape:window-maximized="1"
     inkscape:current-layer="svg14" />
  <circle
     style="opacity:0.25;stroke-width:0.14032;filter:url(#filter11290)"
     cx="8.4937"
     cy="8.46"
     r="7.9376998"
     id="circle839"
     transform="matrix(3.779602,0,0,3.779602,-0.10280494,0.02456761)" />
  <path
     style="fill:#fafafa;stroke-width:0.11719034"
     inkscape:connector-curvature="0"
     d="m 62.030072,32.000001 c 0,3.596442 -0.633045,7.0448 -1.79395,10.240453 -0.806983,2.221197 -1.868597,4.321219 -3.151923,6.263557 -0.537535,0.816696 -1.115512,1.605386 -1.729017,2.363347 -1.964108,2.425711 -4.298164,4.538168 -6.918562,6.252596 -0.964932,0.631873 -1.967849,1.20985 -3.006144,1.727731 -4.032079,2.017892 -8.583854,3.152982 -13.400957,3.152982 -4.817102,0 -9.368877,-1.13509 -13.400957,-3.153095 C 17.590155,58.329577 16.586065,57.751601 15.621133,57.11984 12.967588,55.382244 10.605601,53.236677 8.6254678,50.770865 8.0107911,50.00678 7.433986,49.210834 6.896451,48.386767 5.6474437,46.476557 4.6127777,44.41554 3.8217448,42.237355 2.6609912,39.042495 2.0290796,35.59546 2.0290796,32.000303 c 0,-16.569019 13.4315714,-30.000591 30.0005904,-30.000591 8.317015,0 15.842958,3.384558 21.27727,8.850694 1.566116,1.574658 2.958446,3.323366 4.143578,5.213961 1.120463,1.780457 2.057161,3.688211 2.785717,5.695104 1.161019,3.195994 1.794064,6.644163 1.794064,10.240454 z"
     id="path841" />
  <circle
     style="fill:#5e4aa6;stroke-width:1.00000715"
     cx="-1248.6943"
     cy="-1241.1212"
     r="0"
     id="circle843" />
  <g
     transform="matrix(0.15595,0,0,0.15595,15.937176,15.937522)"
     id="g12"
     style="stroke-width:15.93799973">
    <path
       d="m 103,61.363 c 22.958,0 41.635,18.678 41.635,41.635 0,3.313 2.687,6 6,6 3.313,0 6,-2.687 6,-6 0,-29.574 -24.061,-53.635 -53.635,-53.635 -29.574,0 -53.636,24.061 -53.636,53.635 0,29.574 24.061,53.635 53.635,53.635 18.99,0 36.745,-10.195 46.336,-26.607 1.672,-2.861 0.708,-6.535 -2.153,-8.208 -2.86,-1.67 -6.535,-0.707 -8.208,2.153 -7.448,12.745 -21.233,20.662 -35.976,20.662 -22.958,0 -41.635,-18.678 -41.635,-41.635 0,-22.957 18.679,-41.635 41.637,-41.635 z"
       id="path6"
       inkscape:connector-curvature="0"
       style="fill:#333333" />
    <path
       d="M 205.7,95.053 C 201.94,44.994 161.374,4.271 111.341,0.326 81.097,-2.059 51.512,8.817 30.165,30.165 8.817,51.513 -2.059,81.1 0.326,111.341 c 3.931,49.847 44.483,90.399 94.329,94.329 2.747,0.217 5.484,0.323 8.214,0.323 27.329,0 53.553,-10.753 72.962,-30.161 2.343,-2.344 2.343,-6.143 0,-8.485 -2.343,-2.342 -6.142,-2.344 -8.485,-0.001 -18.862,18.861 -45.012,28.47 -71.747,26.361 C 51.576,190.236 15.761,154.421 12.289,110.397 10.181,83.662 19.789,57.51 38.65,38.65 57.511,19.789 83.658,10.177 110.397,12.289 c 44.189,3.483 80.016,39.451 83.337,83.662 0.455,6.057 0.321,12.142 -0.397,18.086 -0.762,6.304 -4.578,11.805 -10.208,14.713 -5.095,2.633 -10.819,2.623 -15.706,-0.026 -2.913,-1.582 -6.556,-0.499 -8.134,2.415 -1.58,2.913 -0.499,6.555 2.415,8.134 8.435,4.573 18.251,4.623 26.933,0.139 9.164,-4.734 15.375,-13.682 16.613,-23.935 0.812,-6.719 0.963,-13.59 0.45,-20.424 z"
       id="path10"
       inkscape:connector-curvature="0"
       style="fill:#333333" />
  </g>
</svg>
