<?xml version="1.0" encoding="UTF-8"?>
<!-- Created with Inkscape (http://www.inkscape.org/) -->
<svg width="64" height="64" version="1.1" viewBox="0 0 16.933 16.933" xmlns="http://www.w3.org/2000/svg" xmlns:cc="http://creativecommons.org/ns#" xmlns:dc="http://purl.org/dc/elements/1.1/" xmlns:rdf="http://www.w3.org/1999/02/22-rdf-syntax-ns#" xmlns:xlink="http://www.w3.org/1999/xlink">
 <defs>
  <filter id="filter11290" x="-.024" y="-.024" width="1.048" height="1.048" color-interpolation-filters="sRGB">
   <feGaussianBlur stdDeviation="0.15875313"/>
  </filter>
  <linearGradient id="linearGradient1307" x1="16.393" x2=".60977" y1=".69761" y2="16.375" gradientUnits="userSpaceOnUse">
   <stop stop-color="#ffdc32" offset="0"/>
   <stop stop-color="#ff7832" offset="1"/>
  </linearGradient>
  <filter id="filter871" x="-.07393" y="-.050487" width="1.1479" height="1.101" color-interpolation-filters="sRGB">
   <feGaussianBlur stdDeviation="0.12698534"/>
  </filter>
  <filter id="filter917" x="-.061735" y="-.05836" width="1.1235" height="1.1167" color-interpolation-filters="sRGB">
   <feGaussianBlur stdDeviation="0.23673972"/>
  </filter>
 </defs>
 <metadata>
  <rdf:RDF>
   <cc:Work rdf:about="">
    <dc:format>image/svg+xml</dc:format>
    <dc:type rdf:resource="http://purl.org/dc/dcmitype/StillImage"/>
    <dc:title/>
   </cc:Work>
  </rdf:RDF>
 </metadata>
 <circle cx="8.4937" cy="8.46" r="7.9377" filter="url(#filter11290)" opacity=".25" stroke-width=".14032"/>
 <path d="m16.439 8.46c0 0.95154-0.16749 1.8639-0.47464 2.7094-0.21351 0.58768-0.49439 1.1433-0.83393 1.6572-0.14222 0.21608-0.29514 0.42475-0.45746 0.62529-0.51966 0.64179-1.1372 1.2007-1.8305 1.6543-0.2553 0.16718-0.52065 0.3201-0.79536 0.45712-1.0668 0.53389-2.2711 0.83421-3.5456 0.83421s-2.4788-0.30032-3.5456-0.83424c-0.27474-0.13705-0.5404-0.28997-0.7957-0.45712-0.70207-0.45973-1.327-1.0274-1.8509-1.6798-0.16263-0.20216-0.31524-0.41275-0.45746-0.63078-0.33046-0.5054-0.60421-1.0507-0.8135-1.627-0.30711-0.84529-0.4743-1.7573-0.4743-2.7085 0-4.3838 3.5537-7.9375 7.9375-7.9375 2.2005 0 4.1917 0.89548 5.6295 2.3417 0.41436 0.41662 0.78274 0.87929 1.0963 1.3795 0.29645 0.47107 0.54428 0.97582 0.73704 1.5068 0.30718 0.84559 0.47467 1.7579 0.47467 2.7094z" fill="url(#linearGradient1307)" stroke-width=".031006"/>
 <circle cx="-330.35" cy="-328.38" r="0" fill="#5e4aa6" stroke-width=".26458"/>
 <g transform="translate(-11.843 1.9278)">
  <g transform="translate(95.603 -1.0309)" fill="#ff7832" filter="url(#filter917)">
   <path d="m-76.691 7.6728s0.918 1.1876 0.12426 1.5875c-0.79374 0.39984-2.8512 1.1717-2.9331 1.3704s-0.83052 1.7188 0.1049 1.7539c0.93346 0.03501 4.1191 0.04646 4.1325 0.04651h0.0072c0.01344-5e-5 3.1985-0.0115 4.132-0.04651 0.93542-0.03508 0.18727-1.5551 0.10542-1.7539s-2.1399-0.9706-2.9336-1.3704c-0.79374-0.39984 0.1418-1.5875 0.1418-1.5875h-1.4647z"/>
   <path d="m-73.274 5.839c-0.26458 1.8862-0.88842 2.8929-1.9843 2.8929-1.0959 1e-7 -1.7198-1.0067-1.9843-2.8929-0.2414-1.7209 0-3.1436 1.9843-3.1436s2.2257 1.4227 1.9843 3.1436z"/>
   <path d="m-73.234 5.4073s0.6201-0.024804 0.45474 0.5953c-0.16536 0.6201-0.47955 1.2816-0.82681 1.356-0.34726 0.074413 0.27285-1.9265 0.37206-1.9513z"/>
   <path d="m-77.298 5.3489s-0.6201-0.024804-0.45474 0.5953c0.16536 0.6201 0.47955 1.2816 0.82681 1.356 0.34726 0.074413-0.27285-1.9265-0.37206-1.9513z"/>
   <path transform="matrix(.93263 0 0 1.0034 -5.07 .31107)" d="m-73.274 5.839c-0.26458 1.8862-0.88842 2.8929-1.9843 2.8929-1.0959 1e-7 -1.7198-1.0067-1.9843-2.8929-0.2414-1.7209 0-3.1436 1.9843-3.1436s2.2257 1.4227 1.9843 3.1436z" filter="url(#filter871)" opacity=".3"/>
   <path d="m-73.274 5.839c-0.26458 1.8862-0.88842 2.8929-1.9843 2.8929-1.0959 1e-7 -1.7198-1.0067-1.9843-2.8929-0.2414-1.7209 0-3.1436 1.9843-3.1436s2.2257 1.4227 1.9843 3.1436z"/>
  </g>
  <g transform="translate(95.603 -1.0309)">
   <path d="m-76.691 7.6728s0.918 1.1876 0.12426 1.5875c-0.79374 0.39984-2.8512 1.1717-2.9331 1.3704s-0.83052 1.7188 0.1049 1.7539c0.93346 0.03501 4.1191 0.04646 4.1325 0.04651h0.0072c0.01344-5e-5 3.1985-0.0115 4.132-0.04651 0.93542-0.03508 0.18727-1.5551 0.10542-1.7539s-2.1399-0.9706-2.9336-1.3704c-0.79374-0.39984 0.1418-1.5875 0.1418-1.5875h-1.4647z" fill="#fff"/>
   <path d="m-73.274 5.839c-0.26458 1.8862-0.88842 2.8929-1.9843 2.8929-1.0959 1e-7 -1.7198-1.0067-1.9843-2.8929-0.2414-1.7209 0-3.1436 1.9843-3.1436s2.2257 1.4227 1.9843 3.1436z" fill="#f0f0f0"/>
   <path d="m-73.234 5.4073s0.6201-0.024804 0.45474 0.5953c-0.16536 0.6201-0.47955 1.2816-0.82681 1.356-0.34726 0.074413 0.27285-1.9265 0.37206-1.9513z" fill="#fafafa"/>
   <path d="m-77.298 5.3489s-0.6201-0.024804-0.45474 0.5953c0.16536 0.6201 0.47955 1.2816 0.82681 1.356 0.34726 0.074413-0.27285-1.9265-0.37206-1.9513z" fill="#fafafa"/>
   <path transform="matrix(.93263 0 0 1.0034 -5.07 .31107)" d="m-73.274 5.839c-0.26458 1.8862-0.88842 2.8929-1.9843 2.8929-1.0959 1e-7 -1.7198-1.0067-1.9843-2.8929-0.2414-1.7209 0-3.1436 1.9843-3.1436s2.2257 1.4227 1.9843 3.1436z" fill="#3232c8" filter="url(#filter871)" opacity=".3"/>
   <path d="m-73.274 5.839c-0.26458 1.8862-0.88842 2.8929-1.9843 2.8929-1.0959 1e-7 -1.7198-1.0067-1.9843-2.8929-0.2414-1.7209 0-3.1436 1.9843-3.1436s2.2257 1.4227 1.9843 3.1436z" fill="#fff"/>
  </g>
 </g>
</svg>
