<?xml version="1.0" encoding="UTF-8"?>
<svg width="64" height="64" version="1.1" xmlns="http://www.w3.org/2000/svg" xmlns:cc="http://creativecommons.org/ns#" xmlns:dc="http://purl.org/dc/elements/1.1/" xmlns:rdf="http://www.w3.org/1999/02/22-rdf-syntax-ns#">
 <metadata>
  <rdf:RDF>
   <cc:Work rdf:about="">
    <dc:format>image/svg+xml</dc:format>
    <dc:type rdf:resource="http://purl.org/dc/dcmitype/StillImage"/>
    <dc:title/>
   </cc:Work>
  </rdf:RDF>
 </metadata>
 <defs>
  <filter id="b" x="-.06" y="-.06" width="1.12" height="1.12" color-interpolation-filters="sRGB">
   <feGaussianBlur stdDeviation="0.79999998"/>
  </filter>
  <filter id="filter11290" x="-.024" y="-.024" width="1.048" height="1.048" color-interpolation-filters="sRGB">
   <feGaussianBlur stdDeviation="0.15875313"/>
  </filter>
  <linearGradient id="linearGradient1307" x1="16.393" x2=".60977" y1=".69761" y2="16.375" gradientTransform="matrix(3.7796 0 0 3.7796 111.08 -18.145)" gradientUnits="userSpaceOnUse">
   <stop stop-color="#ffdc32" offset="0"/>
   <stop stop-color="#ff7832" offset="1"/>
  </linearGradient>
 </defs>
 <g transform="translate(-111.19 18.169)">
  <circle transform="matrix(3.7796 0 0 3.7796 111.08 -18.145)" cx="8.4937" cy="8.46" r="7.9377" filter="url(#filter11290)" opacity=".25" stroke-width=".14032"/>
  <path d="m173.22 13.831c0 3.5964-0.63305 7.0448-1.794 10.24-0.80699 2.2212-1.8686 4.3212-3.1519 6.2636-0.53753 0.8167-1.1155 1.6054-1.729 2.3633-1.9641 2.4257-4.2982 4.5382-6.9186 6.2526-0.96494 0.63187-1.9678 1.2099-3.0062 1.7277-4.0321 2.0179-8.5838 3.153-13.401 3.153-4.8171 0-9.3689-1.1351-13.401-3.1531-1.0384-0.51799-2.0425-1.096-3.0074-1.7277-2.6536-1.7376-5.0155-3.8832-6.9957-6.349-0.61467-0.76408-1.1915-1.56-1.729-2.3841-1.249-1.9102-2.2837-3.9712-3.0747-6.1494-1.1608-3.1949-1.7927-6.6419-1.7927-10.237 0-16.569 13.432-30.001 30.001-30.001 8.317 0 15.843 3.3846 21.277 8.8507 1.5661 1.5747 2.9584 3.3234 4.1436 5.214 1.1205 1.7805 2.0572 3.6882 2.7857 5.6951 1.161 3.196 1.7941 6.6442 1.7941 10.24z" fill="url(#linearGradient1307)" stroke-width=".11719"/>
 </g>
 <circle cx="-1137.5" cy="-1259.3" r="0" fill="#5e4aa6"/>
 <path d="m21.333 16v5.3333c11.783 0 21.333 9.5507 21.333 21.333h5.3333c0-14.733-11.939-26.667-26.667-26.667m0 10.667v5.3333c5.8907 0 10.667 4.776 10.667 10.667h5.3333c0-8.836-7.164-16-16-16m0 10.667c-2.9453 0-5.3333 2.388-5.3333 5.3333s2.388 5.3333 5.3333 5.3333 5.3333-2.388 5.3333-5.3333-2.388-5.3333-5.3333-5.3333" filter="url(#b)" opacity=".15"/>
 <path d="m21.333 16v5.3333c11.783 0 21.333 9.5507 21.333 21.333h5.3333c0-14.733-11.939-26.667-26.667-26.667m0 10.667v5.3333c5.8907 0 10.667 4.776 10.667 10.667h5.3333c0-8.836-7.164-16-16-16m0 10.667c-2.9453 0-5.3333 2.388-5.3333 5.3333s2.388 5.3333 5.3333 5.3333 5.3333-2.388 5.3333-5.3333-2.388-5.3333-5.3333-5.3333" fill="#fff"/>
</svg>
