<?xml version="1.0" encoding="UTF-8"?>
<svg width="64" height="64" version="1.1" xmlns="http://www.w3.org/2000/svg" xmlns:cc="http://creativecommons.org/ns#" xmlns:dc="http://purl.org/dc/elements/1.1/" xmlns:rdf="http://www.w3.org/1999/02/22-rdf-syntax-ns#" xmlns:xlink="http://www.w3.org/1999/xlink">
 <metadata>
  <rdf:RDF>
   <cc:Work rdf:about="">
    <dc:format>image/svg+xml</dc:format>
    <dc:type rdf:resource="http://purl.org/dc/dcmitype/StillImage"/>
    <dc:title/>
   </cc:Work>
  </rdf:RDF>
 </metadata>
 <defs>
  <filter id="filter11290" x="-.024" y="-.024" width="1.048" height="1.048" color-interpolation-filters="sRGB">
   <feGaussianBlur stdDeviation="0.15875313"/>
  </filter>
  <linearGradient id="linearGradient894" x1="2.0339" x2="61.458" y1="62.136" y2="2.7119" gradientUnits="userSpaceOnUse">
   <stop stop-color="#328796" offset="0"/>
   <stop stop-color="#46b4aa" offset="1"/>
  </linearGradient>
 </defs>
 <circle transform="matrix(3.7796 0 0 3.7796 -.1028 .024568)" cx="8.4937" cy="8.46" r="7.9377" filter="url(#filter11290)" opacity=".25" stroke-width=".14032"/>
 <path d="m62 32c0 3.5964-0.63305 7.0448-1.794 10.24-0.80699 2.2212-1.8686 4.3212-3.1519 6.2636-0.53753 0.8167-1.1155 1.6054-1.729 2.3633-1.9641 2.4257-4.2982 4.5382-6.9186 6.2526-0.96494 0.63187-1.9678 1.2099-3.0062 1.7277-4.0321 2.0179-8.5838 3.153-13.401 3.153-4.8171 0-9.3689-1.1351-13.401-3.1531-1.0384-0.51799-2.0425-1.096-3.0074-1.7277-2.6536-1.7376-5.0155-3.8832-6.9957-6.349-0.61467-0.76408-1.1915-1.56-1.729-2.3841-1.249-1.9102-2.2837-3.9712-3.0747-6.1494-1.1608-3.1949-1.7927-6.6419-1.7927-10.237 0-16.569 13.432-30.001 30.001-30.001 8.317 0 15.843 3.3846 21.277 8.8507 1.5661 1.5747 2.9584 3.3234 4.1436 5.214 1.1205 1.7805 2.0572 3.6882 2.7857 5.6951 1.161 3.196 1.7941 6.6442 1.7941 10.24z" fill="url(#linearGradient894)" stroke-width=".11719"/>
 <path d="m25.535 13.697a1.0724 1.0724 0 0 0-0.74831 1.8401l1.9058 1.9058a9.6796 9.6796 0 0 0-4.1313 5.9434h18.875a9.6828 9.6828 0 0 0-4.8032-6.3482l1.5031-1.5009a1.0724 1.0724 0 0 0-0.74831-1.8412 1.0724 1.0724 0 0 0-0.76769 0.32409l-2.1513 2.1513a9.6473 9.6473 0 0 0-5.7582 0.25626l-2.4075-2.4075a1.0724 1.0724 0 0 0-0.76769-0.32301zm3.2344 5.3835a1.0767 1.0767 0 0 1 1.0767 1.0767 1.0767 1.0767 0 0 1-1.0767 1.0767 1.0767 1.0767 0 0 1-1.0767-1.0767 1.0767 1.0767 0 0 1 1.0767-1.0767zm6.4602 0a1.0767 1.0767 0 0 1 1.0767 1.0767 1.0767 1.0767 0 0 1-1.0767 1.0767 1.0767 1.0767 0 0 1-1.0767-1.0767 1.0767 1.0767 0 0 1 1.0767-1.0767zm-17.227 6.4602c-1.193 0-2.1534 0.96042-2.1534 2.1534v7.5369c0 1.193 0.96042 2.1534 2.1534 2.1534s2.1534-0.96042 2.1534-2.1534v-7.5369c0-1.193-0.96042-2.1534-2.1534-2.1534zm4.3068 0v15.074c0 1.7895 1.4406 3.2301 3.2301 3.2301h1.0767v4.3068c0 1.193 0.96042 2.1534 2.1534 2.1534s2.1534-0.96042 2.1534-2.1534v-4.3068h2.1534v4.3068c0 1.193 0.96042 2.1534 2.1534 2.1534s2.1534-0.96042 2.1534-2.1534v-4.3068h1.0767c1.7895 0 3.2301-1.4406 3.2301-3.2301v-15.074zm23.687 0c-1.193 0-2.1534 0.96042-2.1534 2.1534v7.5369c0 1.193 0.96042 2.1534 2.1534 2.1534s2.1534-0.96042 2.1534-2.1534v-7.5369c0-1.193-0.96042-2.1534-2.1534-2.1534z" fill="#d7f1f1" stroke-width="1.0767"/>
 <circle cx="-1143.5" cy="-1259" r="0" fill="#5e4aa6"/>
</svg>
