<?xml version="1.0" encoding="UTF-8"?>
<svg width="64" height="64" version="1.1" viewBox="0 0 64 64" xmlns="http://www.w3.org/2000/svg" xmlns:cc="http://creativecommons.org/ns#" xmlns:dc="http://purl.org/dc/elements/1.1/" xmlns:rdf="http://www.w3.org/1999/02/22-rdf-syntax-ns#">
 <metadata>
  <rdf:RDF>
   <cc:Work rdf:about="">
    <dc:format>image/svg+xml</dc:format>
    <dc:type rdf:resource="http://purl.org/dc/dcmitype/StillImage"/>
    <dc:title/>
   </cc:Work>
  </rdf:RDF>
 </metadata>
 <defs>
  <linearGradient id="linearGradient1047" x1="149.02" x2="149.02" y1="59.192" y2="25.95" gradientTransform="matrix(1.0742 0 0 1.0742 -127.87 -1.9189)" gradientUnits="userSpaceOnUse">
   <stop stop-color="#16a085" offset="0"/>
   <stop stop-color="#2ecc85" offset="1"/>
  </linearGradient>
  <filter id="filter11290" x="-.024" y="-.024" width="1.048" height="1.048" color-interpolation-filters="sRGB">
   <feGaussianBlur stdDeviation="0.15875313"/>
  </filter>
 </defs>
 <circle transform="scale(3.7796)" cx="8.4665" cy="8.4665" r="7.9377" filter="url(#filter11290)" opacity=".25" stroke-width=".14032"/>
 <path d="m62 32c0 3.5964-0.63304 7.0448-1.794 10.24-0.80698 2.2212-1.8686 4.3212-3.1519 6.2636-0.53754 0.8167-1.1155 1.6054-1.729 2.3633-1.9641 2.4257-4.2982 4.5382-6.9186 6.2526-0.96493 0.63187-1.9678 1.2099-3.0062 1.7277-4.0321 2.0179-8.5838 3.153-13.401 3.153s-9.3689-1.1351-13.401-3.1531c-1.0384-0.518-2.0425-1.096-3.0074-1.7277-2.6535-1.7376-5.0155-3.8832-6.9957-6.349-0.61468-0.76408-1.1915-1.56-1.729-2.3841-1.249-1.9102-2.2837-3.9712-3.0747-6.1494-1.1608-3.1949-1.7927-6.6419-1.7927-10.237 0-16.569 13.432-30.001 30.001-30.001 8.317 0 15.843 3.3846 21.277 8.8507 1.5661 1.5747 2.9584 3.3234 4.1436 5.214 1.1205 1.7805 2.0572 3.6882 2.7857 5.6951 1.161 3.196 1.7941 6.6442 1.7941 10.24z" fill="#fafafa" stroke-width=".11719"/>
 <path d="m45.428 25.859c-0.48084 0.03331-0.93493 0.29706-1.1953 0.74805l-5.2578 9.1074c-2.0694-0.53509-4.375-0.84961-6.9766-0.84961-2.6015 0-4.9071 0.31452-6.9766 0.84961l-5.2539-9.1074c-0.31244-0.54126-0.90667-0.81317-1.4883-0.74023-0.19386 0.024059-0.38602 0.087785-0.56641 0.19141-0.72154 0.41658-0.96736 1.3331-0.55078 2.0547l4.9434 8.5625c-7.4513 3.0783-10.966 9.5046-12.633 15.104 1.7919 2.0391 3.8397 3.8472 6.1191 5.3398 0.96493 0.63176 1.9694 1.2105 3.0078 1.7285 3.4902 1.7468 7.3707 2.8277 11.475 3.0879h3.8516c4.104-0.26016 7.9845-1.3412 11.475-3.0879 1.0383-0.51788 2.0409-1.0966 3.0059-1.7285 2.2808-1.4923 4.3293-3.3004 6.1211-5.3398-1.6677-5.5986-5.1852-12.027-12.633-15.105l4.9434-8.5625c0.41658-0.72157 0.16881-1.6362-0.55274-2.0527-0.27058-0.15621-0.56892-0.2192-0.85742-0.19922z" enable-background="new" fill="url(#linearGradient1047)" stroke-width="4.0601"/>
 <g fill="#fff">
  <rect x="17.99" y="54.462" width="28" height="2.8" rx="1.4" ry="1.4"/>
  <circle cx="23.59" cy="47.462" r="2.8"/>
  <circle cx="40.39" cy="47.462" r="2.8"/>
 </g>
 <rect x="22.78" y="12.746" width="3.661" height="10.034" ry="1.8305" fill="#2ecc85" fill-rule="evenodd" style="paint-order:stroke fill markers"/>
 <rect x="37.559" y="12.746" width="3.661" height="10.034" ry="1.8305" fill="#2ecc85" fill-rule="evenodd" style="paint-order:stroke fill markers"/>
 <circle cx="-1014.7" cy="-1299.4" r="0" fill="#5e4aa6"/>
</svg>
