<?xml version="1.0" encoding="UTF-8"?>
<svg width="64" height="64" version="1.1" viewBox="0 0 64 64" xmlns="http://www.w3.org/2000/svg" xmlns:cc="http://creativecommons.org/ns#" xmlns:dc="http://purl.org/dc/elements/1.1/" xmlns:rdf="http://www.w3.org/1999/02/22-rdf-syntax-ns#" xmlns:xlink="http://www.w3.org/1999/xlink">
 <metadata>
  <rdf:RDF>
   <cc:Work rdf:about="">
    <dc:format>image/svg+xml</dc:format>
    <dc:type rdf:resource="http://purl.org/dc/dcmitype/StillImage"/>
    <dc:title/>
   </cc:Work>
  </rdf:RDF>
 </metadata>
 <defs>
  <filter id="filter11290" x="-.024" y="-.024" width="1.048" height="1.048" color-interpolation-filters="sRGB">
   <feGaussianBlur stdDeviation="0.15875313"/>
  </filter>
  <linearGradient id="linearGradient919" x1="2.9831" x2="62.001" y1="61.458" y2="2.4407" gradientUnits="userSpaceOnUse">
   <stop stop-color="#16a085" offset="0"/>
   <stop stop-color="#2ecc85" offset="1"/>
  </linearGradient>
 </defs>
 <circle transform="scale(3.7796)" cx="8.4665" cy="8.4665" r="7.9377" filter="url(#filter11290)" opacity=".25" stroke-width=".14032"/>
 <path d="m62 32c0 3.5964-0.63304 7.0448-1.794 10.24-0.80698 2.2212-1.8686 4.3212-3.1519 6.2636-0.53754 0.8167-1.1155 1.6054-1.729 2.3633-1.9641 2.4257-4.2982 4.5382-6.9186 6.2526-0.96493 0.63187-1.9678 1.2099-3.0062 1.7277-4.0321 2.0179-8.5838 3.153-13.401 3.153s-9.3689-1.1351-13.401-3.1531c-1.0384-0.518-2.0425-1.096-3.0074-1.7277-2.6535-1.7376-5.0155-3.8832-6.9957-6.349-0.61468-0.76408-1.1915-1.56-1.729-2.3841-1.249-1.9102-2.2837-3.9712-3.0747-6.1494-1.1608-3.1949-1.7927-6.6419-1.7927-10.237 0-16.569 13.432-30.001 30.001-30.001 8.317 0 15.843 3.3846 21.277 8.8507 1.5661 1.5747 2.9584 3.3234 4.1436 5.214 1.1205 1.7805 2.0572 3.6882 2.7857 5.6951 1.161 3.196 1.7941 6.6442 1.7941 10.24z" fill="url(#linearGradient919)" stroke-width=".11719"/>
 <g transform="translate(-.95688 -3.5082)" stroke-width=".99997">
  <path d="m31.776 18.514-3.7527 2.1666 19.499 33.774 4.0429 2.6693-0.29019-4.8359z" fill="#fff"/>
  <path d="m48.678 25.448c0 5.7896-1.7204 7.1629-3.8142 9.6094-1.0821 1.2468-2.3525 2.3054-3.8109 3.1052-1.9761 1.1057-4.9803 1.7174-7.4034 1.7174-2.423 0-4.7048-0.63525-6.6574-1.7174-1.4245-1.1474-4.3133 3.1858-2.3994 3.7539 2.6818 1.5056 5.787 2.3207 9.0804 2.3207s7.121-0.81508 9.8029-2.3207c1.435-0.79976 2.7523-1.7877 3.9051-2.917 3.4816-3.3876 5.6694-8.2816 5.6694-13.528-1.4854-0.01444-3.055 0-4.3723-0.01444z" fill="#f0f0f0"/>
  <path d="m33.803 18.514 3.7527 2.1666-19.499 33.774-4.0429 2.6693 0.2902-4.8359z" fill="#f0f0f0"/>
  <path d="m37.288 18.226h-1.6088v-4.3335h-5.7776v4.3335h-1.6323c-1.4796 0-2.7009 1.2227-2.7009 2.6854v7.0711h0.0235c-0.0235 0.23226 0.11739 0.48777 0.42275 0.78951l5.4253 4.7852c0.37578 0.3715 0.86899 0.55725 1.3387 0.55725v-0.02311l0.0235 0.02311c0.4932 0 0.98641-0.18575 1.3387-0.55725l5.4253-4.7852c0.30532-0.30174 0.42275-0.5805 0.42275-0.78951h0.0235v-7.0478c-0.0235-1.4859-1.2213-2.7087-2.7244-2.7087z" fill="#3c3c3c"/>
  <path d="m32.8 26.892h-0.01884c-1.5809 0-2.8794-1.2858-2.8794-2.8696 0-1.5839 1.2985-2.8697 2.8794-2.8697v-0.03755l0.01884 0.03755c1.5809 0.01878 2.8794 1.2858 2.8794 2.8697 0 1.5838-1.2985 2.851-2.8794 2.8696z" fill="#fff"/>
 </g>
 <circle cx="-1040.7" cy="-1311.9" r="0" fill="#5e4aa6"/>
</svg>
