<?xml version="1.0" encoding="UTF-8" standalone="no"?>
<svg
   xmlns:dc="http://purl.org/dc/elements/1.1/"
   xmlns:cc="http://creativecommons.org/ns#"
   xmlns:rdf="http://www.w3.org/1999/02/22-rdf-syntax-ns#"
   xmlns:svg="http://www.w3.org/2000/svg"
   xmlns="http://www.w3.org/2000/svg"
   xmlns:xlink="http://www.w3.org/1999/xlink"
   xmlns:sodipodi="http://sodipodi.sourceforge.net/DTD/sodipodi-0.dtd"
   xmlns:inkscape="http://www.inkscape.org/namespaces/inkscape"
   width="64"
   height="64"
   version="1.1"
   viewBox="0 0 16.933 16.933"
   id="svg28"
   sodipodi:docname="appimagekit-gravit-designer.svg"
   inkscape:version="0.92.4 5da689c313, 2019-01-14">
  <metadata
     id="metadata32">
    <rdf:RDF>
      <cc:Work
         rdf:about="">
        <dc:format>image/svg+xml</dc:format>
        <dc:type
           rdf:resource="http://purl.org/dc/dcmitype/StillImage" />
        <dc:title></dc:title>
      </cc:Work>
    </rdf:RDF>
  </metadata>
  <sodipodi:namedview
     pagecolor="#ffffff"
     bordercolor="#666666"
     borderopacity="1"
     objecttolerance="10"
     gridtolerance="10"
     guidetolerance="10"
     inkscape:pageopacity="0"
     inkscape:pageshadow="2"
     inkscape:window-width="1920"
     inkscape:window-height="1005"
     id="namedview30"
     showgrid="false"
     inkscape:zoom="3.6875"
     inkscape:cx="42.872942"
     inkscape:cy="50.279247"
     inkscape:window-x="0"
     inkscape:window-y="45"
     inkscape:window-maximized="1"
     inkscape:current-layer="svg28" />
  <defs
     id="defs14">
    <linearGradient
       id="b">
      <stop
         stop-color="#faed1c"
         offset="0"
         id="stop2" />
      <stop
         stop-color="#fad31c"
         offset="1"
         id="stop4" />
    </linearGradient>
    <linearGradient
       id="a"
       x1="6.576"
       x2="6.576"
       y1="1.58"
       y2="15.33"
       gradientTransform="matrix(1.1538,0,0,1.1532,-1.3019,-1.2927)"
       gradientUnits="userSpaceOnUse">
      <stop
         stop-color="#f10166"
         offset="0"
         id="stop7" />
      <stop
         stop-color="#fc3d4a"
         offset="1"
         id="stop9" />
    </linearGradient>
    <linearGradient
       id="c"
       x1="18.124"
       x2="18.124"
       y1="2.282"
       y2="18.157"
       gradientTransform="translate(-0.40135,-11.7978)"
       gradientUnits="userSpaceOnUse"
       xlink:href="#b" />
    <linearGradient
       id="d"
       x1="8.5518"
       x2="8.9409"
       y1="3.2215"
       y2="13.052"
       gradientTransform="matrix(1.1538,0,0,1.1532,-1.3019,-1.2927)"
       gradientUnits="userSpaceOnUse"
       xlink:href="#b" />
    <filter
       color-interpolation-filters="sRGB"
       height="1.12"
       width="1.12"
       y="-.06"
       x="-.06"
       id="b-3">
      <feGaussianBlur
         id="feGaussianBlur841"
         stdDeviation="0.79999998" />
    </filter>
    <filter
       color-interpolation-filters="sRGB"
       height="1.048"
       width="1.048"
       y="-.024"
       x="-.024"
       id="filter11290">
      <feGaussianBlur
         id="feGaussianBlur844"
         stdDeviation="0.15875313" />
    </filter>
    <linearGradient
       gradientUnits="userSpaceOnUse"
       gradientTransform="translate(-0.02719543,0.00650471)"
       y2="16.375"
       y1=".69761"
       x2=".60977"
       x1="16.393"
       id="linearGradient1307">
      <stop
         id="stop847"
         offset="0"
         stop-color="#ffdc32" />
      <stop
         id="stop849"
         offset="1"
         stop-color="#ff7832" />
    </linearGradient>
  </defs>
  <circle
     id="circle854"
     r="7.9376998"
     cy="8.4665051"
     cx="8.4665051"
     style="opacity:0.25;stroke-width:0.14032;filter:url(#filter11290)" />
  <g
     id="g26"
     transform="translate(-3.415e-4,-2e-4)"
     style="stroke-width:0.86677003">
    <path
       d="M 7.2501,0.63776 A 7.9381,7.934 0 0 0 0.6423,7.20066 C 1.29304,6.50413 6.454,1.37696 7.2501,0.63776 Z m 3.5537,0.25255 0.02308,0.008072 A 7.9381,7.934 0 0 0 10.8038,0.89031 Z M 7.7855,1.0483 C 7.77742,1.04023 7.723195,1.069058 7.66435,1.112879 c -0.18115,0.13377 -1.808,1.5753 -2.3341,2.0688 -0.27345,0.25601 -0.64151,0.59159 -0.8192,0.74497 -0.17769,0.15338 -0.57459,0.5028 -0.8815,0.7761 -0.30691,0.27216 -0.62421,0.55238 -0.70613,0.62042 -0.1673,0.13838 -0.73612,0.64233 -0.97611,0.8649 -0.086535,0.079571 -0.21576,0.19028 -0.28499,0.24563 -0.06923,0.05535 -0.23768,0.20181 -0.37383,0.3252 -0.25614,0.23179 -0.5019,0.42899 -0.66459,0.56161 a 7.9381,7.934 0 0 0 -0.094612,1.1509 7.9381,7.934 0 0 0 0.58498,2.9753 c 0.10038,-0.16721 0.24576,-0.39093 0.41768,-0.65617 l 1.4584,-2.258 1.4538,-2.251 a 14969,14962 0 0 0 2.896,-4.4859 c 0.36114,-0.557 0.46267,-0.72882 0.44537,-0.74612 z m 4.1687,0.3079 c -0.04615,0.08303 -0.11538,0.17413 -0.19384,0.33904 -2.1865,4.5678 -3.5652,9.4885 -3.7914,13.536 -0.020768,0.37018 -0.049613,0.82569 -0.062305,1.0102 l -0.00462,0.13377 a 7.9381,7.934 0 0 0 0.56536,0.02883 7.9381,7.934 0 0 0 7.937,-7.934 7.9381,7.934 0 0 0 -4.4502,-7.1152 z m -10.583,10.665 a 7.9381,7.934 0 0 0 0.084227,0.15799 C 1.427736,12.12614 1.397737,12.0754 1.3712,12.0212 Z m 0.35768,0.63195 a 7.9381,7.934 0 0 0 0.1073,0.17298 L 1.72772,12.65315 Z m 0.50536,0.72882 a 7.9381,7.934 0 0 0 0.08192,0.09802 C 2.289623,13.44539 2.260778,13.41541 2.23424,13.38197 Z M 2.70038,13.9159 A 7.9381,7.934 0 0 0 2.85037,14.07158 7.9266,7.9225 0 0 1 2.70038,13.9159 Z m 0.59651,0.56968 a 7.9381,7.934 0 0 0 0.069228,0.06343 z m 0.60921,0.47281 a 7.9381,7.934 0 0 0 0.18345,0.12455 7.9555,7.9513 0 0 1 -0.18461,-0.12455 z m 0.67613,0.42668 a 7.9381,7.934 0 0 0 0.10384,0.05997 C 4.651456,15.426586 4.616842,15.404675 4.58223,15.38507 Z m 0.73612,0.36441 a 7.9381,7.934 0 0 0 0.15346,0.06343 C 5.421043,15.79215 5.36797,15.77255 5.31835,15.74948 Z m 0.71536,0.2687 a 7.9381,7.934 0 0 0 0.13038,0.04267 C 6.121399,16.04816 6.077555,16.03202 6.03486,16.01818 Z m 0.8192,0.21911 a 7.9381,7.934 0 0 0 0.13038,0.02306 C 6.940599,16.25225 6.896755,16.24651 6.85406,16.23729 Z m 0.73382,0.11417 a 7.9381,7.934 0 0 0 0.14999,0.01615 z"
       style="fill:url(#d);paint-order:markers stroke fill"
       id="path20"
       inkscape:connector-curvature="0" />
    <path
       d="m 8.4673,0.52936 a 7.9843,7.9801 0 0 0 -1.208,0.099175 c -0.78228,0.72652 -5.9975,5.9067 -6.6297,6.5848 a 7.7651,7.761 0 0 0 -0.017307,0.11763 c 0.16269,-0.13262 0.41537,-0.33558 0.67613,-0.57199 0.13615,-0.12339 0.3046,-0.26985 0.37383,-0.3252 0.06923,-0.05535 0.19845,-0.16606 0.28499,-0.24563 0.23999,-0.22257 0.80881,-0.72652 0.97611,-0.8649 0.080766,-0.069192 0.39921,-0.34827 0.70613,-0.62042 0.30691,-0.27331 0.70382,-0.62273 0.8815,-0.7761 0.17769,-0.15453 0.54575,-0.48896 0.8192,-0.74497 0.52613,-0.49357 2.153,-1.9351 2.333,-2.0688 0.058844,-0.042668 0.11423,-0.072652 0.1223,-0.064579 0.017307,0.017298 -0.084227,0.18912 -0.44652,0.74727 a 2035.3,2034.2 0 0 0 -2.8949,4.4848 l -1.4538,2.251 -1.4584,2.2603 c -0.17307,0.26639 -0.3196,0.49242 -0.42114,0.65848 a 7.9416,7.9375 0 0 0 6.7901,4.9357 l 0.00577,-0.14415 c 0.012691,-0.18451 0.041536,-0.64003 0.062304,-1.0102 0.2273,-4.0477 1.6061,-8.9684 3.7914,-13.536 0.08077,-0.16952 0.15115,-0.26178 0.19845,-0.34711 a 7.9485,7.9444 0 0 0 -3.4914,-0.81877 z"
       id="path22"
       style="fill:url(#a)"
       inkscape:connector-curvature="0" />
    <path
       d="M 7.9747,0.56741 A 7.9381,7.9329 0 0 0 7.46703,0.610078 7.9381,7.9329 0 0 1 7.9747,0.56741 Z M 0.6423,7.20981 0.639992,7.21327 A 7.9381,7.9329 0 0 0 0.621532,7.32859 7.9381,7.9329 0 0 1 0.6423,7.20981 Z"
       id="path24"
       inkscape:connector-curvature="0"
       style="fill:#d8d342" />
  </g>
  <circle
     style="fill:#5e4aa6;stroke-width:0.26457813"
     cx="-300.95569"
     cy="-333.18307"
     r="0"
     id="circle860" />
</svg>
