<?xml version="1.0" encoding="UTF-8"?>
<svg width="64" height="64" version="1.1" viewBox="0 0 16.933 16.933" xmlns="http://www.w3.org/2000/svg" xmlns:cc="http://creativecommons.org/ns#" xmlns:dc="http://purl.org/dc/elements/1.1/" xmlns:rdf="http://www.w3.org/1999/02/22-rdf-syntax-ns#">
 <metadata>
  <rdf:RDF>
   <cc:Work rdf:about="">
    <dc:format>image/svg+xml</dc:format>
    <dc:type rdf:resource="http://purl.org/dc/dcmitype/StillImage"/>
    <dc:title/>
   </cc:Work>
  </rdf:RDF>
 </metadata>
 <defs>
  <filter id="filter11290" x="-.024" y="-.024" width="1.048" height="1.048" color-interpolation-filters="sRGB">
   <feGaussianBlur stdDeviation="0.15875313"/>
  </filter>
  <linearGradient id="linearGradient919" x1="2.9831" x2="62.001" y1="61.458" y2="2.4407" gradientTransform="matrix(.26458 0 0 .26458 .0001325 .0001192)" gradientUnits="userSpaceOnUse">
   <stop stop-color="#16a085" offset="0"/>
   <stop stop-color="#2ecc85" offset="1"/>
  </linearGradient>
 </defs>
 <circle cx="8.4665" cy="8.4665" r="7.9377" filter="url(#filter11290)" opacity=".25" stroke-width=".14032"/>
 <path d="m16.404 8.4666c0 0.95153-0.16749 1.8639-0.47465 2.7093-0.21351 0.58768-0.49439 1.1433-0.83392 1.6572-0.14222 0.21608-0.29514 0.42475-0.45746 0.62528-0.51966 0.64179-1.1372 1.2007-1.8305 1.6543-0.2553 0.16718-0.52064 0.32011-0.79538 0.45711-1.0668 0.53389-2.2711 0.83422-3.5456 0.83422-1.2745 0-2.4788-0.30032-3.5456-0.83424-0.27474-0.13705-0.5404-0.28998-0.79569-0.45711-0.70206-0.45973-1.327-1.0274-1.8509-1.6798-0.16263-0.20216-0.31524-0.41274-0.45746-0.63078-0.33046-0.5054-0.60422-1.0507-0.8135-1.627-0.30712-0.8453-0.47431-1.7573-0.47431-2.7085 0-4.3838 3.5538-7.9376 7.9376-7.9376 2.2005 0 4.1917 0.89549 5.6294 2.3417 0.41436 0.41663 0.78273 0.8793 1.0963 1.3795 0.29646 0.47108 0.54429 0.97582 0.73704 1.5068 0.30718 0.84559 0.47468 1.7579 0.47468 2.7093z" fill="url(#linearGradient919)" stroke-width=".031006"/>
 <path d="m8.4895 3.3454c-0.22179-9.834e-4 -0.44404 0.046699-0.61354 0.14355l-3.4038 1.9452c-0.13143 0.075107-0.25282 0.19304-0.35314 0.33124l1.2048 0.70256 2.3834 1.3895c0.32255 0.18817 0.59053 0.50793 0.75932 0.86764 0.16876-0.35966 0.43677-0.67946 0.75932-0.86764l3.5844-2.0899c-0.093684-0.12308-0.20369-0.22842-0.32272-0.29788l-1.693-0.98741-1.6933-0.98786c-0.16863-0.098384-0.38989-0.14814-0.61169-0.14912zm4.5103 2.7513-1.2 0.6996-2.3819 1.3892c-0.39606 0.23106-0.76114 0.86717-0.76229 1.3272 1.4e-6 0.00258 7.178e-4 0.00524 7.178e-4 0.00779l-3.711e-4 0.12872 0.011873 2.6289 0.00596 1.3038c0.14003-0.0214 0.27307-0.06135 0.38319-0.12426l3.4038-1.9452c0.33901-0.19372 0.61552-0.66788 0.61725-1.0583l0.0089-1.9603 0.0086-1.96c6.27e-4 -0.14027-0.03527-0.29143-0.0957-0.43697zm-9.0618 0.00297c-0.051023 0.13167-0.082532 0.26637-0.083091 0.39284l-0.0089 1.9603-0.00852 1.96c-0.00172 0.39048 0.27034 0.86715 0.6076 1.0639l1.6933 0.98741 1.6933 0.98786c0.1215 0.07086 0.27059 0.11541 0.42733 0.13576l0.00596-1.3098 0.011873-2.6289-3.703e-4 -0.12872c-1.22e-5 -0.00258 7.178e-4 -0.00524 7.178e-4 -0.00779-0.0011594-0.46008-0.36624-1.0962-0.7623-1.3272l-2.3819-1.3892-1.1952-0.69664z" fill="#fff" stroke-width=".25322" style="isolation:isolate"/>
 <circle cx="-246" cy="-356.21" r="0" fill="#5e4aa6" stroke-width=".26458"/>
</svg>
