<?xml version="1.0" encoding="UTF-8" standalone="no"?>
<svg
   xmlns:dc="http://purl.org/dc/elements/1.1/"
   xmlns:cc="http://creativecommons.org/ns#"
   xmlns:rdf="http://www.w3.org/1999/02/22-rdf-syntax-ns#"
   xmlns:svg="http://www.w3.org/2000/svg"
   xmlns="http://www.w3.org/2000/svg"
   xmlns:xlink="http://www.w3.org/1999/xlink"
   xmlns:sodipodi="http://sodipodi.sourceforge.net/DTD/sodipodi-0.dtd"
   xmlns:inkscape="http://www.inkscape.org/namespaces/inkscape"
   width="64"
   height="64"
   version="1.1"
   viewBox="0 0 16.933 16.933"
   id="svg47"
   sodipodi:docname="applications-office.svg"
   inkscape:version="0.92.4 5da689c313, 2019-01-14">
  <sodipodi:namedview
     pagecolor="#ffffff"
     bordercolor="#666666"
     borderopacity="1"
     objecttolerance="10"
     gridtolerance="10"
     guidetolerance="10"
     inkscape:pageopacity="0"
     inkscape:pageshadow="2"
     inkscape:window-width="1920"
     inkscape:window-height="1005"
     id="namedview49"
     showgrid="false"
     inkscape:zoom="3.6875"
     inkscape:cx="-54.12606"
     inkscape:cy="26.090805"
     inkscape:window-x="0"
     inkscape:window-y="45"
     inkscape:window-maximized="1"
     inkscape:current-layer="svg47" />
  <metadata
     id="metadata2">
    <rdf:RDF>
      <cc:Work
         rdf:about="">
        <dc:format>image/svg+xml</dc:format>
        <dc:type
           rdf:resource="http://purl.org/dc/dcmitype/StillImage" />
        <dc:title></dc:title>
      </cc:Work>
    </rdf:RDF>
  </metadata>
  <defs
     id="defs25">
    <linearGradient
       id="a">
      <stop
         stop-color="#969696"
         offset="0"
         id="stop4" />
      <stop
         stop-color="#e6e6e6"
         stop-opacity=".90196"
         offset="1"
         id="stop6" />
    </linearGradient>
    <linearGradient
       id="linearGradient13510-3"
       x1="8.7643"
       x2="8.7643"
       y1="287.18"
       y2="287.64"
       gradientTransform="matrix(0.66048847,0,0,0.33584,2.8752494,-89.534)"
       gradientUnits="userSpaceOnUse"
       xlink:href="#a" />
    <linearGradient
       id="linearGradient13512"
       x1="8.3178"
       x2="8.3178"
       y1="289.36"
       y2="289.81"
       gradientTransform="matrix(0.55154,0,0,0.33584,3.7873,-92.234)"
       gradientUnits="userSpaceOnUse"
       xlink:href="#a" />
    <linearGradient
       id="linearGradient1206"
       x1="8.7643"
       x2="8.7643"
       y1="287.18"
       y2="287.64"
       gradientTransform="matrix(0.66048847,0,0,0.33584,2.8752494,-87.562)"
       gradientUnits="userSpaceOnUse"
       xlink:href="#a" />
    <linearGradient
       id="linearGradient1210"
       x1="8.7643"
       x2="8.7643"
       y1="287.18"
       y2="287.64"
       gradientTransform="matrix(0.57232,0,0,0.33584,3.6217,-85.59)"
       gradientUnits="userSpaceOnUse"
       xlink:href="#a" />
    <style
       type="text/css"
       id="style13" />
    <filter
       id="filter2761-3"
       x="-.024"
       y="-.024"
       width="1.048"
       height="1.048"
       color-interpolation-filters="sRGB">
      <feGaussianBlur
         stdDeviation="0.14552168"
         id="feGaussianBlur15" />
    </filter>
    <linearGradient
       id="linearGradient2645-3-6"
       x1="15.752"
       x2="1.3927"
       y1="281.24"
       y2="295.6"
       gradientTransform="translate(-26.53621,-279.93)"
       gradientUnits="userSpaceOnUse">
      <stop
         stop-color="#0a82f0"
         offset="0"
         id="stop18" />
      <stop
         stop-color="#3250e6"
         offset="1"
         id="stop20" />
    </linearGradient>
    <style
       type="text/css"
       id="style23" />
    <style
       id="style858"
       type="text/css" />
    <style
       id="style860"
       type="text/css" />
    <filter
       color-interpolation-filters="sRGB"
       height="1.048"
       width="1.048"
       y="-.024"
       x="-.024"
       id="filter11290">
      <feGaussianBlur
         id="feGaussianBlur862"
         stdDeviation="0.15875313" />
    </filter>
    <linearGradient
       gradientUnits="userSpaceOnUse"
       gradientTransform="translate(43.92,-0.46349)"
       y2="16.435"
       y1=".60248"
       x2=".60699"
       x1="16.439"
       id="linearGradient7233">
      <stop
         id="stop865"
         offset="0"
         stop-color="#0a82f0" />
      <stop
         id="stop867"
         offset="1"
         stop-color="#3250e6" />
    </linearGradient>
  </defs>
  <circle
     cx="-386.31"
     cy="-334.69"
     r="0"
     fill="#5e4aa6"
     stroke-width=".26458"
     id="circle27" />
  <circle
     style="fill:#5e4aa6;stroke-width:0.26458001"
     cx="-330.35049"
     cy="-328.38"
     r="0"
     id="circle872" />
  <circle
     style="fill:#5e4aa6;fill-rule:evenodd;stroke-width:0.26458001"
     cx="-39.434498"
     cy="6.4400001"
     r="0"
     id="circle874" />
  <g
     transform="translate(-43.947501,0.47)"
     id="g880">
    <circle
       style="opacity:0.25;stroke-width:0.14032;filter:url(#filter11290)"
       cx="52.414001"
       cy="7.9965"
       r="7.9376998"
       id="circle876" />
    <path
       style="fill:url(#linearGradient7233);stroke-width:0.031006"
       inkscape:connector-curvature="0"
       d="m 60.359,7.9965 c 0,0.95154 -0.16749,1.8639 -0.47464,2.7094 -0.21351,0.58768 -0.49439,1.1433 -0.83393,1.6572 -0.14222,0.21608 -0.29514,0.42475 -0.45746,0.62529 -0.51966,0.64179 -1.1372,1.2007 -1.8305,1.6543 -0.2553,0.16718 -0.52065,0.3201 -0.79536,0.45712 -1.0668,0.53389 -2.2711,0.83421 -3.5456,0.83421 -1.2745,0 -2.4788,-0.30032 -3.5456,-0.83424 -0.27474,-0.13705 -0.5404,-0.28997 -0.7957,-0.45712 -0.70207,-0.45973 -1.327,-1.0274 -1.8509,-1.6798 -0.16263,-0.20216 -0.31524,-0.41275 -0.45746,-0.63078 -0.33046,-0.5054 -0.60421,-1.0507 -0.8135,-1.627 -0.30711,-0.84529 -0.4743,-1.7573 -0.4743,-2.7085 0,-4.3838 3.5537,-7.9375 7.9375,-7.9375 2.2005,0 4.1917,0.89548 5.6295,2.3417 0.41436,0.41662 0.78274,0.87929 1.0963,1.3795 0.29645,0.47107 0.54428,0.97582 0.73704,1.5068 0.30718,0.84559 0.47467,1.7579 0.47467,2.7094 z"
       id="path878" />
  </g>
  <g
     style="fill:#5e4aa6;stroke-width:0.26458001"
     transform="translate(43.944499,-0.45986)"
     id="g898">
    <circle
       cx="-330.35001"
       cy="-328.38"
       r="0"
       id="circle882" />
    <circle
       cx="-299.17001"
       cy="-337.26999"
       r="0"
       id="circle884" />
    <circle
       cx="-299.81"
       cy="-339.42001"
       r="0"
       id="circle886" />
    <circle
       cx="-302.25"
       cy="-338.13"
       r="0"
       id="circle888" />
    <circle
       cx="-301.89001"
       cy="-335.91"
       r="0"
       id="circle890" />
    <circle
       cx="-304.76001"
       cy="-351.04999"
       r="0"
       id="circle892" />
    <circle
       cx="-304.82999"
       cy="-349.54001"
       r="0"
       id="circle894" />
    <circle
       cx="-359.94"
       cy="-336.91"
       r="0"
       id="circle896" />
  </g>
  <circle
     style="opacity:1;fill:#fafafa;fill-opacity:1;stroke-width:0.26457813"
     id="path953"
     cx="8.4665003"
     cy="8.4665003"
     r="6.3418636" />
  <g
     id="g43"
     transform="matrix(1.0357816,0,0,1.1741,-0.3035342,-0.88947435)">
    <path
       inkscape:connector-curvature="0"
       id="path35"
       style="opacity:0.6;fill:url(#linearGradient13510-3);stroke-width:0.65006185;paint-order:normal"
       d="m 3.2952097,6.9374 c -0.00675,0.029589 -0.010929,0.060448 -0.017404,0.09077 H 13.656333 c -0.0061,-0.030317 -0.01062,-0.061202 -0.01808,-0.09077 z" />
    <path
       inkscape:connector-curvature="0"
       id="path37"
       style="opacity:0.6;fill:url(#linearGradient13512);stroke-width:0.59403998;paint-order:normal"
       d="m 4.1332,4.9655 c 0.00521,0.030317 0.010173,0.060579 0.015962,0.09077 h 8.6371 c 0.0054,-0.032616 0.01,-0.058576 0.01482,-0.09077 z" />
    <path
       inkscape:connector-curvature="0"
       id="path39"
       style="opacity:0.6;fill:url(#linearGradient1206);stroke-width:0.65006185;paint-order:normal"
       d="m 3.2952097,8.9093 c -0.00675,0.029589 -0.010929,0.060448 -0.017404,0.09077 H 13.656333 c -0.0061,-0.030317 -0.01062,-0.061202 -0.01808,-0.09077 z" />
    <path
       inkscape:connector-curvature="0"
       id="path41"
       style="opacity:0.6;fill:url(#linearGradient1210);stroke-width:0.60512;paint-order:normal"
       d="m 3.9856,10.881 c -0.00585,0.02959 -0.00947,0.06045 -0.015081,0.09077 h 8.9931 c -0.0053,-0.03032 -0.0092,-0.0612 -0.01567,-0.09077 z" />
  </g>
</svg>
