<?xml version="1.0" encoding="UTF-8"?>
<svg width="64" height="64" version="1.1" viewBox="0 0 16.933 16.933" xmlns="http://www.w3.org/2000/svg" xmlns:cc="http://creativecommons.org/ns#" xmlns:dc="http://purl.org/dc/elements/1.1/" xmlns:rdf="http://www.w3.org/1999/02/22-rdf-syntax-ns#">
 <metadata>
  <rdf:RDF>
   <cc:Work rdf:about="">
    <dc:format>image/svg+xml</dc:format>
    <dc:type rdf:resource="http://purl.org/dc/dcmitype/StillImage"/>
    <dc:title/>
   </cc:Work>
  </rdf:RDF>
 </metadata>
 <defs>
  <style type="text/css"/>
  <filter id="filter11290" x="-.024" y="-.024" width="1.048" height="1.048" color-interpolation-filters="sRGB">
   <feGaussianBlur stdDeviation="0.15875313"/>
  </filter>
  <linearGradient id="linearGradient919" x1="2.9831" x2="62.001" y1="61.458" y2="2.4407" gradientTransform="matrix(.26458 0 0 .26458 9.2e-5 .0001242)" gradientUnits="userSpaceOnUse">
   <stop stop-color="#16a085" offset="0"/>
   <stop stop-color="#2ecc85" offset="1"/>
  </linearGradient>
 </defs>
 <circle cx="8.4665" cy="8.4665" r="7.9377" filter="url(#filter11290)" opacity=".25" stroke-width=".14032"/>
 <path d="m16.404 8.4666c0 0.95153-0.16749 1.8639-0.47465 2.7093-0.21351 0.58768-0.49439 1.1433-0.83392 1.6572-0.14222 0.21608-0.29514 0.42475-0.45746 0.62528-0.51966 0.64179-1.1372 1.2007-1.8305 1.6543-0.2553 0.16718-0.52064 0.32011-0.79538 0.45711-1.0668 0.53389-2.2711 0.83422-3.5456 0.83422s-2.4788-0.30032-3.5456-0.83424c-0.27474-0.13705-0.5404-0.28998-0.79569-0.45711-0.70206-0.45973-1.327-1.0274-1.8509-1.6798-0.16263-0.20216-0.31524-0.41274-0.45746-0.63078-0.33046-0.5054-0.60422-1.0507-0.8135-1.627-0.30712-0.8453-0.47431-1.7573-0.47431-2.7085 0-4.3838 3.5538-7.9376 7.9376-7.9376 2.2005 0 4.1917 0.89549 5.6294 2.3417 0.41436 0.41663 0.78273 0.8793 1.0963 1.3795 0.29646 0.47108 0.54429 0.97582 0.73704 1.5068 0.30718 0.84559 0.47468 1.7579 0.47468 2.7093z" fill="url(#linearGradient919)" stroke-width=".031006"/>
 <g transform="matrix(.0093025 0 0 .0093025 3.452 3.7036)" fill="#fff">
  <path d="m152.77 11.47 213.05 206.38-37.094 36.932 159.44 158.55-76.955 73.782-159.44-158.55-38.477 36.932-213.05-206.38z" p-id="3100"/>
  <path d="m1077.9 217.85h-105.75l-42.707 42.463-31.644 31.4-33.027 32.539-87.855-23.265-23.428-87.204 66.054-65.078 42.789-42.951v-105.18h-8.1347a244.04 244.04 0 0 0-178.96 68.332 234.77 234.77 0 0 0-68.738 147.65 250.71 250.71 0 0 0 10.982 95.664v2.7658a34.166 34.166 0 0 1-9.599 36.932c-17.896 16.269-525.1 497.52-525.1 497.52-42.626 35.549-38.477 102.5 0 142.11 39.86 38.233 105.75 40.674 142.93 0 0 0 478.32-504.35 498.98-524.85a33.678 33.678 0 0 1 30.18-11.145c5.5316 1.3829 10.982 4.0674 16.269 5.4503a242.17 242.17 0 0 0 87.936 9.599 237.29 237.29 0 0 0 148.46-68.332 231.68 231.68 0 0 0 68.738-177.66 14.805 14.805 0 0 0 1.6269-6.7518zm-898.89 725.78a33.352 33.352 0 0 1-48.076 0 32.539 32.539 0 0 1 0-47.832 33.352 33.352 0 0 1 48.076 0 35.467 35.467 0 0 1 0 47.832z" p-id="3101"/>
  <path d="m981.62 785.08-233.63-217.28s-130.64 34.166-221.35 185.88c5.5316 1.3829 241.93 239.16 241.93 239.16a109.98 109.98 0 0 0 152.61 0l60.441-58.733a102.82 102.82 0 0 0 0-149.03zm-127.47 166.68a29.366 29.366 0 0 1-38.477 0l-195.23-189.95-1.3829-1.3829a25.543 25.543 0 0 1 1.3829-35.549 29.366 29.366 0 0 1 38.477 0l196.54 189.95a28.797 28.797 0 0 1-1.3016 36.932zm86.635-83.381a29.366 29.366 0 0 1-38.477 0l-196.94-189.95-1.3829-1.3829a25.543 25.543 0 0 1 1.3829-35.549 29.366 29.366 0 0 1 38.477 0l196.54 189.95a24.404 24.404 0 0 1 0 37.013z" p-id="3102"/>
 </g>
 <circle cx="-225.55" cy="-365.76" r="0" fill="#5e4aa6" stroke-width=".26458"/>
</svg>
