<?xml version="1.0" encoding="UTF-8"?>
<svg width="64" height="64" version="1.1" viewBox="0 0 64 64" xmlns="http://www.w3.org/2000/svg" xmlns:cc="http://creativecommons.org/ns#" xmlns:dc="http://purl.org/dc/elements/1.1/" xmlns:rdf="http://www.w3.org/1999/02/22-rdf-syntax-ns#">
 <metadata>
  <rdf:RDF>
   <cc:Work rdf:about="">
    <dc:format>image/svg+xml</dc:format>
    <dc:type rdf:resource="http://purl.org/dc/dcmitype/StillImage"/>
    <dc:title/>
   </cc:Work>
  </rdf:RDF>
 </metadata>
 <defs>
  <filter id="filter11290" x="-.024" y="-.024" width="1.048" height="1.048" color-interpolation-filters="sRGB">
   <feGaussianBlur stdDeviation="0.15875313"/>
  </filter>
  <linearGradient id="linearGradient1307" x1="16.393" x2=".60977" y1=".69761" y2="16.375" gradientTransform="matrix(3.7796 0 0 3.7796 -.13249 .024378)" gradientUnits="userSpaceOnUse">
   <stop stop-color="#ffdc32" offset="0"/>
   <stop stop-color="#ff7832" offset="1"/>
  </linearGradient>
 </defs>
 <circle transform="matrix(3.7796 0 0 3.7796 -.1028 .024568)" cx="8.4937" cy="8.46" r="7.9377" filter="url(#filter11290)" opacity=".25" stroke-width=".14032"/>
 <path d="m62 32c0 3.5964-0.63305 7.0448-1.794 10.24-0.80699 2.2212-1.8686 4.3212-3.1519 6.2636-0.53753 0.8167-1.1155 1.6054-1.729 2.3633-1.9641 2.4257-4.2982 4.5382-6.9186 6.2526-0.96494 0.63187-1.9678 1.2099-3.0062 1.7277-4.0321 2.0179-8.5838 3.153-13.401 3.153-4.8171 0-9.3689-1.1351-13.401-3.1531-1.0384-0.51799-2.0425-1.096-3.0074-1.7277-2.6536-1.7376-5.0155-3.8832-6.9957-6.349-0.61467-0.76408-1.1915-1.56-1.729-2.3841-1.249-1.9102-2.2837-3.9712-3.0747-6.1494-1.1608-3.1949-1.7927-6.6419-1.7927-10.237 0-16.569 13.432-30.001 30.001-30.001 8.317 0 15.843 3.3846 21.277 8.8507 1.5661 1.5747 2.9584 3.3234 4.1436 5.214 1.1205 1.7805 2.0572 3.6882 2.7857 5.6951 1.161 3.196 1.7941 6.6442 1.7941 10.24z" fill="url(#linearGradient1307)" stroke-width=".11719"/>
 <path d="m31.456 13.966c-1.0061 0.03745-1.5591 0.37522-1.9196 1.1007-0.23125 0.46553-0.42026 1.2411-0.42047 1.7237-7.49e-4 1.7705-1.7883 3.3857-3.749 3.3857-0.96204 0-1.4905-0.26483-3.4386-1.7237-0.88668-0.66403-1.4464-0.49133-2.8222 0.86294-1.307 1.2868-1.34 1.903-0.18272 3.4386 0.47826 0.63476 0.96287 1.4808 1.0765 1.8822 0.28104 0.99252-0.17908 2.8093-0.91798 3.6169-0.60563 0.66196-2.1096 1.1777-3.421 1.1777-1.247 0-1.6951 0.70994-1.6951 2.6746 0 1.5299 0.0587 1.7388 0.58337 2.087 0.32062 0.21292 1.2468 0.48226 2.0605 0.59878 0.81372 0.11652 1.753 0.39185 2.0847 0.61199 0.70031 0.46483 1.512 2.1284 1.519 3.115 0.0055 0.71619-0.54572 1.9825-1.1139 2.558-0.61928 0.62728-1.0723 1.7689-0.90918 2.2894 0.20899 0.66695 1.6246 2.0931 2.3577 2.3753 0.4199 0.16174 0.72494 0.11462 1.1315-0.17391 1.1917-0.84547 3.2305-1.7634 3.9185-1.7634 1.0371 0 2.7575 0.9153 3.1347 1.6687 0.17762 0.35484 0.39906 1.182 0.49311 1.836 0.22802 1.586 0.58844 2.3323 1.1932 2.4612 0.27492 0.05826 0.7173 0.15718 0.98182 0.21794 0.26454 0.06242 0.8601 0.06242 1.323 0 1.2075-0.16216 1.8511-1.0624 2.0539-2.8728 0.18543-1.6553 0.33742-1.9216 1.5564-2.7011 1.2378-0.79151 2.2067-0.94607 3.159-0.50413 0.78959 0.36649 1.1087 0.5564 2.4039 1.4199 0.94896 0.63282 1.5403 0.52825 2.6372-0.47551 1.6494-1.5093 1.6827-2.1656 0.20473-3.8899-1.4068-1.641-1.4228-3.6599-0.03963-5.2107 0.52967-0.59384 1.0046-0.80041 2.5734-1.1139 2.3687-0.4733 2.7537-0.86011 2.7605-2.7826 7e-3 -1.9202-0.29862-2.2339-2.5228-2.5822-2.1164-0.3314-2.794-0.80955-3.5377-2.4854-0.61827-1.3935-0.44768-2.21 0.87176-4.1232 0.67662-0.981 1.0134-1.697 0.9356-1.9988-0.17391-0.67361-2.3663-2.6836-2.9279-2.6836-0.26007 0-0.95258 0.37454-1.5387 0.82773-1.617 1.2504-2.58 1.5329-3.9625 1.1623-1.6245-0.43516-2.2027-1.1213-2.6131-3.104-0.47119-2.277-0.77505-2.6868-2.1156-2.8398-0.44664-0.05133-0.83137-0.07192-1.1668-0.05943v-0.0044zm0.54374 11.271a6.7627 6.7627 0 0 1 6.7627 6.7627 6.7627 6.7627 0 0 1-6.7627 6.7627 6.7627 6.7627 0 0 1-6.7627-6.7627 6.7627 6.7627 0 0 1 6.7627-6.7627z" fill="#fff" stroke-width="1.1271"/>
 <circle cx="-1131.3" cy="-1259.3" r="0" fill="#5e4aa6"/>
</svg>
