<?xml version="1.0" encoding="UTF-8"?>
<svg width="64" height="64" version="1.1" viewBox="0 0 16.933 16.933" xmlns="http://www.w3.org/2000/svg" xmlns:cc="http://creativecommons.org/ns#" xmlns:dc="http://purl.org/dc/elements/1.1/" xmlns:rdf="http://www.w3.org/1999/02/22-rdf-syntax-ns#">
 <metadata>
  <rdf:RDF>
   <cc:Work rdf:about="">
    <dc:format>image/svg+xml</dc:format>
    <dc:type rdf:resource="http://purl.org/dc/dcmitype/StillImage"/>
    <dc:title/>
   </cc:Work>
  </rdf:RDF>
 </metadata>
 <defs>
  <filter id="filter11290" x="-.024" y="-.024" width="1.048" height="1.048" color-interpolation-filters="sRGB">
   <feGaussianBlur stdDeviation="0.15875313"/>
  </filter>
  <linearGradient id="linearGradient894" x1="2.0339" x2="61.458" y1="62.136" y2="2.7119" gradientTransform="matrix(.26458 0 0 .26458 .0001325 .0001192)" gradientUnits="userSpaceOnUse">
   <stop stop-color="#328796" offset="0"/>
   <stop stop-color="#46b4aa" offset="1"/>
  </linearGradient>
 </defs>
 <circle cx="8.4665" cy="8.4665" r="7.9377" filter="url(#filter11290)" opacity=".25" stroke-width=".14032"/>
 <path d="m16.404 8.4666c0 0.95153-0.16749 1.8639-0.47465 2.7093-0.21351 0.58768-0.49439 1.1433-0.83392 1.6572-0.14222 0.21608-0.29514 0.42475-0.45746 0.62528-0.51966 0.64179-1.1372 1.2007-1.8305 1.6543-0.2553 0.16718-0.52064 0.32011-0.79538 0.45711-1.0668 0.53389-2.2711 0.83422-3.5456 0.83422-1.2745 0-2.4788-0.30032-3.5456-0.83424-0.27474-0.13705-0.5404-0.28998-0.79569-0.45711-0.70208-0.45973-1.327-1.0274-1.8509-1.6798-0.16263-0.20216-0.31524-0.41274-0.45746-0.63078-0.33046-0.5054-0.60422-1.0507-0.8135-1.627-0.30712-0.8453-0.47431-1.7573-0.47431-2.7085 0-4.3838 3.5538-7.9376 7.9376-7.9376 2.2005 0 4.1917 0.89549 5.6294 2.3417 0.41436 0.41663 0.78273 0.8793 1.0963 1.3795 0.29646 0.47108 0.54429 0.97582 0.73704 1.5068 0.30718 0.84559 0.47468 1.7579 0.47468 2.7093z" fill="url(#linearGradient894)" stroke-width=".031006"/>
 <path d="m6.0857 6.1473a2.2115 2.2115 0 0 0-1.5912 0.67287 2.3287 2.3287 0 0 0-0.66739 1.646c0 0.30684 0.059177 0.6104 0.17424 0.89204 0.11397 0.28164 0.28274 0.53807 0.49314 0.75286a2.2169 2.2169 0 0 0 1.5726 0.67287h0.019726a2.1994 2.1994 0 0 0 1.6745-0.64656c0.28164-0.27616 0.5041-0.60054 0.70574-0.93149 0.20164 0.33095 0.42301 0.65533 0.70465 0.93149 0.41314 0.40218 0.97533 0.67944 1.6756 0.64656h0.01973c0.28822-0.0022 0.57314-0.06137 0.83944-0.17424 0.27397-0.11507 0.52273-0.28493 0.73314-0.49862l0.0011-0.0022a2.3265 2.3265 0 0 0 0.6652-1.6427c0-0.30684-0.05918-0.6104-0.17315-0.89204l-0.0022-0.00548a2.3342 2.3342 0 0 0-0.49205-0.74957 2.2159 2.2159 0 0 0-1.5923-0.67287c-0.73533 0-1.3172 0.30356-1.7468 0.72437-0.24876 0.24328-0.4504 0.52164-0.63341 0.80656a4.5479 4.5479 0 0 0-0.63232-0.80656 2.4449 2.4449 0 0 0-1.7479-0.72437zm-0.00767 0.663c0.58848 0 0.96437 0.21041 1.3074 0.55889 0.27397 0.27616 0.51287 0.65204 0.74958 1.063-0.27068 0.4778-0.5326 0.91505-0.82629 1.212-0.32438 0.32657-0.65972 0.50739-1.2087 0.47561h-0.021917c-0.20822 0-0.41972-0.04383-0.61259-0.12822a1.5978 1.5978 0 0 1-0.50958-0.35616l-0.00658-0.00548a1.6723 1.6723 0 0 1-0.45917-1.1649 1.6723 1.6723 0 0 1 0.46027-1.1638l0.00548-0.00658a1.5408 1.5408 0 0 1 1.1233-0.48437zm4.7769 0c0.20822 0 0.41972 0.043835 0.61369 0.12822 0.18959 0.083286 0.36493 0.20602 0.50958 0.35616l0.0055 0.00767a1.6712 1.6712 0 0 1 0.46027 1.1638c0 0.2137-0.04164 0.42958-0.11945 0.62793-0.07781 0.19726-0.19507 0.38356-0.34082 0.53698l-0.0066 0.00438a1.543 1.543 0 0 1-1.1233 0.48438h-0.02082c-0.54794 0.032881-0.88437-0.14794-1.2087-0.47451-0.29369-0.29589-0.55561-0.73423-0.82629-1.2131 0.2378-0.40986 0.4767-0.78574 0.74958-1.063 0.3441-0.34739 0.71999-0.55889 1.3074-0.55889zm-0.4 0.663v0.66191h-0.663v0.663h0.663v0.663h0.663v-0.663h0.66191v-0.663h-0.66191v-0.66191zm-5.3018 0.66191v0.663h1.9879v-0.663z" fill="#fff" stroke-width="1.0959"/>
 <circle cx="-272.77" cy="-341.43" r="0" fill="#5e4aa6" stroke-width=".26458"/>
</svg>
