<?xml version="1.0" encoding="UTF-8"?>
<svg width="64" height="64" version="1.1" xmlns="http://www.w3.org/2000/svg" xmlns:cc="http://creativecommons.org/ns#" xmlns:dc="http://purl.org/dc/elements/1.1/" xmlns:rdf="http://www.w3.org/1999/02/22-rdf-syntax-ns#">
 <metadata>
  <rdf:RDF>
   <cc:Work rdf:about="">
    <dc:format>image/svg+xml</dc:format>
    <dc:type rdf:resource="http://purl.org/dc/dcmitype/StillImage"/>
    <dc:title/>
   </cc:Work>
  </rdf:RDF>
 </metadata>
 <defs>
  <style type="text/css"/>
  <style type="text/css"/>
  <filter id="filter11290" x="-.024" y="-.024" width="1.048" height="1.048" color-interpolation-filters="sRGB">
   <feGaussianBlur stdDeviation="0.15875313"/>
  </filter>
  <linearGradient id="linearGradient7233" x1="16.439" x2=".60699" y1=".60248" y2="16.435" gradientTransform="translate(43.92 -.46349)" gradientUnits="userSpaceOnUse">
   <stop stop-color="#0a82f0" offset="0"/>
   <stop stop-color="#3250e6" offset="1"/>
  </linearGradient>
 </defs>
 <g transform="matrix(3.7796 0 0 3.7796 -166.1 1.7764)">
  <circle cx="52.414" cy="7.9965" r="7.9377" filter="url(#filter11290)" opacity=".25" stroke-width=".14032"/>
  <path d="m60.359 7.9965c0 0.95154-0.16749 1.8639-0.47464 2.7094-0.21351 0.58768-0.49439 1.1433-0.83393 1.6572-0.14222 0.21608-0.29514 0.42475-0.45746 0.62529-0.51966 0.64179-1.1372 1.2007-1.8305 1.6543-0.2553 0.16718-0.52065 0.3201-0.79536 0.45712-1.0668 0.53389-2.2711 0.83421-3.5456 0.83421s-2.4788-0.30032-3.5456-0.83424c-0.27474-0.13705-0.5404-0.28997-0.7957-0.45712-0.70207-0.45973-1.327-1.0274-1.8509-1.6798-0.16263-0.20216-0.31524-0.41275-0.45746-0.63078-0.33046-0.5054-0.60421-1.0507-0.8135-1.627-0.30711-0.84529-0.4743-1.7573-0.4743-2.7085 0-4.3838 3.5537-7.9375 7.9375-7.9375 2.2005 0 4.1917 0.89548 5.6295 2.3417 0.41436 0.41662 0.78274 0.87929 1.0963 1.3795 0.29645 0.47107 0.54428 0.97582 0.73704 1.5068 0.30718 0.84559 0.47467 1.7579 0.47467 2.7094z" fill="url(#linearGradient7233)" stroke-width=".031006"/>
 </g>
 <g transform="translate(-.3776)" fill="#e6f0f5">
  <path d="m28.408 17.214a14.785 14.785 0 0 0-9.9162 3.8397c0.03239 0.65986 0.09674 1.2554 0.28842 2.3716l0.15326 0.87325 0.35697-0.04438c1.6524-0.19756 3.0753-0.33859 3.9487-0.38921l1.0406-0.05647 0.17145-0.20368c1.6871-2.1645 4.0894-4.6563 5.9935-6.2316a14.785 14.785 0 0 0-2.0369-0.1593zm4.2129 0.62115c-1.1594 0.85092-2.3728 1.9123-3.6301 3.1904-0.51596 0.52256-1.2687 1.3397-1.69 1.8312l-0.78247 0.8813 0.66955 0.01837c5.6596 0.13495 10.774 0.97847 14.764 2.3575a14.785 14.785 0 0 0-9.3314-8.2786zm-15.668 4.8321a14.785 14.785 0 0 0-1.6013 2.414c0.35023-0.0939 0.70686-0.1853 1.0789-0.27027 0.70208-0.15997 0.85951-0.21874 0.83492-0.30855-0.01941-0.06369-0.10186-0.45707-0.18351-0.8914-0.05718-0.30718-0.08555-0.62845-0.12904-0.94382zm8.204 2.7991-0.48401 0.6514c-0.72001 0.97632-2.2852 3.3542-2.904 4.4187l-0.54653 0.93778 0.37512 0.86517c2.5273 5.7965 5.9855 10.985 9.2951 14.234a14.785 14.785 0 0 0 8.3836-4.5779c-0.50482-3.2527-1.7156-7.0487-3.5434-10.945-0.26775-0.56824-0.42754-0.9996-0.42754-1.1596 0-0.45881 0.3832-0.823 0.85508-0.81678 0.42126 0 0.60478 0.16653 0.9297 0.84904 1.6857 3.527 2.9056 7.0602 3.5917 10.305a14.785 14.785 0 0 0 2.5108-8.2303 14.785 14.785 0 0 0-0.48603-3.7208c-4.2762-1.7383-10.24-2.8112-16.275-2.8112zm-2.8093 0.16536c-0.94449 0.06076-2.8431 0.27263-2.9142 0.34486-0.05714 0.06376 0.13507 0.80448 0.58081 2.176 0.31185 0.99442 0.4138 1.1984 0.48402 1.1233 0.0506-0.05713 0.30745-0.44547 0.5687-0.87322v-2e-3c0.26772-0.44091 0.78338-1.2174 1.1475-1.7465 0.36409-0.53555 0.65744-0.99009 0.65744-1.0225 0-0.02418-0.20958-0.02026-0.52433 0zm-4.8705 0.72401c-0.19473 0.02382-0.52444 0.09725-1.0608 0.22788-0.71064 0.1739-1.353 0.36704-1.9602 0.57072a14.785 14.785 0 0 0-0.83492 4.8442 14.785 14.785 0 0 0 2.2123 7.7563c0.66292-2.3011 1.6725-4.8146 2.9625-7.3067l0.55458-1.0709-0.4215-1.1394c-0.40824-1.0907-1.1979-3.6186-1.1979-3.8097 0-0.07021-0.05937-0.0962-0.2541-0.07259zm12.183 4.1949c1.352 0 2.4483 1.1024 2.4483 2.4544s-1.0964 2.4503-2.4483 2.4503-2.4483-1.0983-2.4483-2.4503 1.0964-2.4544 2.4483-2.4544zm-9.4444 2.9929c-0.02-0.0086-0.03864-0.0014-0.05446 0.016-0.12742 0.13391-1.0634 2.1624-1.5549 3.374-0.6463 1.5903-1.1365 3.1169-1.4803 4.598a14.785 14.785 0 0 0 11.281 5.2535 14.785 14.785 0 0 0 0.32669-0.01235c-1.3085-1.4092-2.6253-3.0589-3.9023-4.9548-1.6001-2.3789-3.239-5.3182-4.3116-7.7281-0.15798-0.36368-0.24434-0.52098-0.30452-0.54653z" stroke-width="2.6842"/>
  <text x="43.065941" y="45.711311" font-family="AkrutiMal1" font-size="46.089px" font-weight="bold" letter-spacing="0px" stroke-width="1.1522" word-spacing="0px" style="font-feature-settings:normal;font-variant-caps:normal;font-variant-ligatures:normal;font-variant-numeric:normal;line-height:1.25" xml:space="preserve"><tspan x="43.065941" y="45.711311" stroke-width="1.1522">!</tspan></text>
 </g>
 <g transform="matrix(3.7796 0 0 3.7796 241.49 -44.857)" fill="#5e4aa6" stroke-width=".26458">
  <circle cx="-330.35" cy="-328.38" r="0"/>
  <circle cx="-299.17" cy="-337.27" r="0"/>
  <circle cx="-299.81" cy="-339.42" r="0"/>
  <circle cx="-302.25" cy="-338.13" r="0"/>
  <circle cx="-301.89" cy="-335.91" r="0"/>
  <circle cx="-304.76" cy="-351.05" r="0"/>
  <circle cx="-304.83" cy="-349.54" r="0"/>
  <circle cx="-359.94" cy="-336.91" r="0"/>
 </g>
</svg>
