<?xml version="1.0" encoding="UTF-8"?>
<svg width="64" height="64" version="1.1" viewBox="0 0 16.933 16.933" xmlns="http://www.w3.org/2000/svg" xmlns:cc="http://creativecommons.org/ns#" xmlns:dc="http://purl.org/dc/elements/1.1/" xmlns:rdf="http://www.w3.org/1999/02/22-rdf-syntax-ns#" xmlns:xlink="http://www.w3.org/1999/xlink">
 <metadata>
  <rdf:RDF>
   <cc:Work rdf:about="">
    <dc:format>image/svg+xml</dc:format>
    <dc:type rdf:resource="http://purl.org/dc/dcmitype/StillImage"/>
    <dc:title/>
   </cc:Work>
  </rdf:RDF>
 </metadata>
 <defs>
  <clipPath id="a">
   <circle cx="8.467" cy="288.53" r="6.879" fill="#d86eb0" stroke-opacity=".039" stroke-width=".491" style="paint-order:stroke markers fill"/>
  </clipPath>
  <filter id="c" x="-.059738" y="-.060265" width="1.1195" height="1.1205" color-interpolation-filters="sRGB">
   <feGaussianBlur stdDeviation="0.15945"/>
  </filter>
  <filter id="filter11290-6" x="-.024" y="-.024" width="1.048" height="1.048" color-interpolation-filters="sRGB">
   <feGaussianBlur stdDeviation="0.15875313"/>
  </filter>
  <linearGradient id="linearGradient971" x1="8.3879" x2="8.3879" y1="16.432" y2=".60259" gradientUnits="userSpaceOnUse">
   <stop stop-color="#33393e" offset="0"/>
   <stop stop-color="#1d2123" offset="1"/>
  </linearGradient>
 </defs>
 <circle cx="8.4665" cy="8.4665" r="7.9377" filter="url(#filter11290-6)" opacity=".25" stroke-width=".14032"/>
 <path d="m16.404 8.4664c0 0.95154-0.16749 1.8639-0.47464 2.7094-0.21351 0.58768-0.49439 1.1433-0.83393 1.6572-0.14222 0.21608-0.29514 0.42475-0.45746 0.62529-0.51966 0.64179-1.1372 1.2007-1.8305 1.6543-0.2553 0.16718-0.52065 0.3201-0.79536 0.45712-1.0668 0.53389-2.2711 0.83421-3.5456 0.83421s-2.4788-0.30032-3.5456-0.83424c-0.27474-0.13705-0.5404-0.28997-0.7957-0.45712-0.70207-0.45973-1.327-1.0274-1.8509-1.6798-0.16263-0.20216-0.31524-0.41275-0.45746-0.63078-0.33046-0.5054-0.60421-1.0507-0.8135-1.627-0.30711-0.84529-0.4743-1.7573-0.4743-2.7085 0-4.3838 3.5537-7.9375 7.9375-7.9375 2.2005 0 4.1917 0.89548 5.6295 2.3417 0.41436 0.41662 0.78274 0.87929 1.0963 1.3795 0.29645 0.47107 0.54428 0.97582 0.73704 1.5068 0.30718 0.84559 0.47467 1.7579 0.47467 2.7094z" fill="url(#linearGradient971)" stroke-width=".031006"/>
 <g transform="matrix(1.1538 0 0 1.1538 -1.3027 -325.77)" clip-path="url(#a)" fill="none" stroke="#fff" stroke-opacity=".937" stroke-width=".10288">
  <path d="m1.4854 287.74c0.719 0.15538 1.3906 0.6252 1.9826 1.9807 0.674 1.544 1.623 2.229 2.772 2.283 1.48 0.07 2.673-1.226 3.459-2.385 1.602-2.362 4.5188-2.1357 5.8165-1.2509" opacity=".35"/>
  <path d="m1.4927 288.13c0.89388-0.34988 2.0828-0.42377 2.8723 0.82673 0.722 1.143 1.576 2.867 4.049 2.709 1.478-0.095 2.956-0.71 3.718-2.15 0.52913-0.93299 1.2601-1.8714 2.2929-2.1036 0.38219-0.0816 0.65524-0.0703 0.97604 0.0566" opacity=".35"/>
  <path d="m1.7748 290.25c0.94712-0.44412 2.7457-0.95337 4.1972-0.52987 1.297 0.379 2.937 1.847 6.056 1.504 0.824-0.09 1.522-0.563 2.183-1.464 0.4785-0.6525 0.75018-1.0197 1.3056-1.1669" opacity=".35"/>
 </g>
 <circle cx="-330.38" cy="-328.37" r="0" fill="#5e4aa6" stroke-width=".26458"/>
 <g transform="matrix(1.1538 0 0 1.1538 -1.3028 -324.44)" font-size="11.082" font-weight="400" letter-spacing="0" stroke-width=".24008" word-spacing="0">
  <path d="m11.67 285.5h-0.82v1.075c-0.61-0.842-1.342-1.219-2.394-1.219-1.818 0-3.192 1.375-3.192 3.192s1.385 3.158 3.258 3.158c1.03 0 1.673-0.332 2.327-1.208v1.064h0.82zm-3.192 0.61c1.34 0 2.371 1.042 2.371 2.394 0 1.385-1.02 2.449-2.327 2.449-1.374 0-2.427-1.075-2.427-2.46a2.379 2.379 0 0 1 2.383-2.383z" filter="url(#c)" opacity=".25" aria-label="a"/>
  <path d="m11.67 285.5h-0.82v1.075c-0.61-0.842-1.342-1.219-2.394-1.219-1.818 0-3.192 1.375-3.192 3.192s1.385 3.158 3.258 3.158c1.03 0 1.673-0.332 2.327-1.208v1.064h0.82zm-3.192 0.61c1.34 0 2.371 1.042 2.371 2.394 0 1.385-1.02 2.449-2.327 2.449-1.374 0-2.427-1.075-2.427-2.46a2.379 2.379 0 0 1 2.383-2.383z" fill="#fff" aria-label="a"/>
 </g>
 <circle cx="-308.05" cy="-334.72" r="0" fill="#5e4aa6" stroke-width=".26458"/>
</svg>
