<?xml version="1.0" encoding="UTF-8" standalone="no"?>
<svg
   xmlns:dc="http://purl.org/dc/elements/1.1/"
   xmlns:cc="http://creativecommons.org/ns#"
   xmlns:rdf="http://www.w3.org/1999/02/22-rdf-syntax-ns#"
   xmlns:svg="http://www.w3.org/2000/svg"
   xmlns="http://www.w3.org/2000/svg"
   xmlns:sodipodi="http://sodipodi.sourceforge.net/DTD/sodipodi-0.dtd"
   xmlns:inkscape="http://www.inkscape.org/namespaces/inkscape"
   width="64"
   height="64"
   version="1.1"
   viewBox="0 0 16.933 16.933"
   id="svg32"
   sodipodi:docname="awf.svg"
   inkscape:version="0.92.4 5da689c313, 2019-01-14">
  <metadata
     id="metadata36">
    <rdf:RDF>
      <cc:Work
         rdf:about="">
        <dc:format>image/svg+xml</dc:format>
        <dc:type
           rdf:resource="http://purl.org/dc/dcmitype/StillImage" />
        <dc:title></dc:title>
      </cc:Work>
    </rdf:RDF>
  </metadata>
  <sodipodi:namedview
     pagecolor="#ffffff"
     bordercolor="#666666"
     borderopacity="1"
     objecttolerance="10"
     gridtolerance="10"
     guidetolerance="10"
     inkscape:pageopacity="0"
     inkscape:pageshadow="2"
     inkscape:window-width="1920"
     inkscape:window-height="1005"
     id="namedview34"
     showgrid="false"
     inkscape:zoom="2.6074563"
     inkscape:cx="21.104077"
     inkscape:cy="11.668433"
     inkscape:window-x="0"
     inkscape:window-y="45"
     inkscape:window-maximized="1"
     inkscape:current-layer="svg32" />
  <defs
     id="defs10">
    <linearGradient
       id="a"
       x1="8.0543"
       x2="7.8932"
       y1="282.04"
       y2="295.49"
       gradientUnits="userSpaceOnUse">
      <stop
         stop-color="#f9f9f9"
         offset="0"
         id="stop2" />
      <stop
         stop-color="#eaeaea"
         offset="1"
         id="stop4" />
    </linearGradient>
    <filter
       id="b"
       x="-.062744"
       y="-.057486"
       width="1.1255"
       height="1.115"
       color-interpolation-filters="sRGB">
      <feGaussianBlur
         stdDeviation="1.1017537"
         id="feGaussianBlur7" />
    </filter>
    <linearGradient
       gradientUnits="userSpaceOnUse"
       y2="2.8263"
       y1="38.623"
       x2="25.034"
       x1="25.034"
       id="linearGradient905">
      <stop
         id="stop845"
         offset="0"
         stop-color="#ff7832" />
      <stop
         id="stop847"
         offset="1"
         stop-color="#ffdc32" />
    </linearGradient>
    <linearGradient
       gradientUnits="userSpaceOnUse"
       y2="18.949"
       y1="59.602"
       x2="26.59"
       x1="26.502"
       id="linearGradient913">
      <stop
         id="stop850"
         offset="0"
         stop-color="#14a03c" />
      <stop
         id="stop852"
         offset="1"
         stop-color="#14dc78" />
    </linearGradient>
    <linearGradient
       gradientUnits="userSpaceOnUse"
       y2="28.346"
       y1="59.41"
       x2="42.579"
       x1="43.067"
       id="linearGradient921">
      <stop
         id="stop855"
         offset="0"
         stop-color="#3250e6" />
      <stop
         id="stop857"
         offset="1"
         stop-color="#0a82f0" />
    </linearGradient>
    <filter
       color-interpolation-filters="sRGB"
       height="1.2492"
       width="1.2492"
       y="-.12462"
       x="-.12462"
       id="filter1025">
      <feGaussianBlur
         id="feGaussianBlur860"
         stdDeviation="1.3487305" />
    </filter>
    <filter
       color-interpolation-filters="sRGB"
       height="1.2492"
       width="1.2492"
       y="-.12462"
       x="-.12462"
       id="filter1029">
      <feGaussianBlur
         id="feGaussianBlur863"
         stdDeviation="1.3487305" />
    </filter>
    <filter
       color-interpolation-filters="sRGB"
       height="1.2492"
       width="1.2492"
       y="-.12462"
       x="-.12462"
       id="filter1033">
      <feGaussianBlur
         id="feGaussianBlur866"
         stdDeviation="1.3487305" />
    </filter>
    <filter
       color-interpolation-filters="sRGB"
       height="1.3727"
       width="1.4988"
       y="-.18634"
       x="-.2494"
       id="filter1139">
      <feGaussianBlur
         id="feGaussianBlur869"
         stdDeviation="0.77642176" />
    </filter>
    <filter
       color-interpolation-filters="sRGB"
       height="1.3727"
       width="1.4794"
       y="-.18634"
       x="-.23972"
       id="filter1143">
      <feGaussianBlur
         id="feGaussianBlur872"
         stdDeviation="0.77642176" />
    </filter>
    <filter
       color-interpolation-filters="sRGB"
       height="1.3727"
       width="1.4468"
       y="-.18634"
       x="-.22342"
       id="filter1147">
      <feGaussianBlur
         id="feGaussianBlur875"
         stdDeviation="0.77642176" />
    </filter>
    <filter
       color-interpolation-filters="sRGB"
       height="1.048"
       width="1.048"
       y="-.024"
       x="-.024"
       id="filter11290">
      <feGaussianBlur
         id="feGaussianBlur878"
         stdDeviation="0.15875313" />
    </filter>
    <filter
       color-interpolation-filters="sRGB"
       height="1.048"
       width="1.048"
       y="-.024"
       x="-.024"
       id="filter11290-3">
      <feGaussianBlur
         id="feGaussianBlur963"
         stdDeviation="0.15875313" />
    </filter>
    <linearGradient
       gradientUnits="userSpaceOnUse"
       gradientTransform="translate(1.8475,-2.1749)"
       y2="32.176"
       y1="32.176"
       x2="-.93244"
       x1="-9.2997"
       id="linearGradient1195">
      <stop
         id="stop966"
         offset="0"
         stop-color="#1478e6" />
      <stop
         id="stop968"
         offset="1"
         stop-color="#3c50e6" />
    </linearGradient>
  </defs>
  <circle
     cx="8.4665003"
     cy="8.4665003"
     r="7.9376998"
     id="circle975"
     style="opacity:0.25;stroke-width:0.14032;filter:url(#filter11290-3)" />
  <path
     style="fill:#fafafa;stroke-width:0.031006"
     inkscape:connector-curvature="0"
     d="m 16.4118,8.4665001 c 0,0.95154 -0.16749,1.8638999 -0.47464,2.7093999 -0.21351,0.58768 -0.49439,1.1433 -0.83393,1.6572 -0.14222,0.21608 -0.29514,0.42475 -0.45746,0.62529 -0.51966,0.64179 -1.1372,1.2007 -1.8305,1.6543 -0.2553,0.16718 -0.52065,0.3201 -0.79536,0.45712 -1.0668,0.53389 -2.2710999,0.83421 -3.5455999,0.83421 -1.2745,0 -2.4788,-0.30032 -3.5456,-0.83424 -0.27474,-0.13705 -0.5404,-0.28997 -0.7957,-0.45712 -0.70207,-0.45973 -1.327,-1.0274 -1.8509,-1.6798 -0.16263,-0.20216 -0.31524,-0.41275 -0.45746,-0.63078 -0.33046,-0.5054 -0.60421,-1.0507 -0.8135,-1.627 C 0.70404015,10.32979 0.53685015,9.4177801 0.53685015,8.4665801 c 0,-4.3838 3.55369995,-7.93749996 7.93749995,-7.93749996 2.2004999,0 4.1916999,0.89547996 5.6294999,2.34169996 0.41436,0.41662 0.78274,0.87929 1.0963,1.3795 0.29645,0.47107 0.54428,0.97582 0.73704,1.5068 0.30718,0.84559 0.47467,1.7579 0.47467,2.7094 z"
     id="path977" />
  <circle
     style="fill:#5e4aa6;stroke-width:0.26458001"
     cx="-330.3772"
     cy="-328.3735"
     r="0"
     id="circle979" />
  <g
     transform="matrix(0.22601,0,0,0.22601,1.2342134,0.99216869)"
     id="g30"
     style="fill-rule:evenodd;stroke-width:0.056845">
    <path
       d="M 32.102,10.071 11.095,21.766 11.07214,21.75457 v 0.02515 l -0.06173,0.0343 0.06173,0.03429 -0.14404,22.311 21.074,11.91 v -0.0503 l 21.069,-11.908 -0.14176,-22.251 0.07774,-0.04115 -0.07774,-0.04344 v -0.06859 l -0.06173,0.0343 z"
       id="path22"
       inkscape:connector-curvature="0"
       style="opacity:0.15;stroke-width:0.056845;filter:url(#b)" />
    <path
       d="M 31.997,54.95 53.071,43.04 52.92755,20.635 31.99755,32.104 Z"
       id="path24"
       inkscape:connector-curvature="0"
       style="fill:#28bff8" />
    <path
       d="m 32.002,54.997 -21.074,-11.91 0.14345,-22.405 20.93,11.469 z"
       id="path26"
       inkscape:connector-curvature="0"
       style="fill:#00a7e5" />
    <path
       d="M 11.011,20.743 32.102,9 53.006,20.748 31.989,32.263 Z"
       id="path28"
       inkscape:connector-curvature="0"
       style="fill:#5fd0f9" />
  </g>
</svg>
