<?xml version="1.0" encoding="UTF-8"?>
<svg width="64" height="64" version="1.1" viewBox="0 0 16.933 16.933" xmlns="http://www.w3.org/2000/svg" xmlns:cc="http://creativecommons.org/ns#" xmlns:dc="http://purl.org/dc/elements/1.1/" xmlns:rdf="http://www.w3.org/1999/02/22-rdf-syntax-ns#">
 <metadata>
  <rdf:RDF>
   <cc:Work rdf:about="">
    <dc:format>image/svg+xml</dc:format>
    <dc:type rdf:resource="http://purl.org/dc/dcmitype/StillImage"/>
    <dc:title/>
   </cc:Work>
  </rdf:RDF>
 </metadata>
 <defs>
  <style type="text/css"/>
  <style type="text/css"/>
  <filter id="filter11290" x="-.024" y="-.024" width="1.048" height="1.048" color-interpolation-filters="sRGB">
   <feGaussianBlur stdDeviation="0.15875313"/>
  </filter>
  <linearGradient id="linearGradient7233" x1="16.439" x2=".60699" y1=".60248" y2="16.435" gradientTransform="translate(43.92 -.46349)" gradientUnits="userSpaceOnUse">
   <stop stop-color="#0a82f0" offset="0"/>
   <stop stop-color="#3250e6" offset="1"/>
  </linearGradient>
 </defs>
 <g transform="translate(-43.974 .46638)">
  <circle cx="52.414" cy="7.9965" r="7.9377" filter="url(#filter11290)" opacity=".25" stroke-width=".14032"/>
  <path d="m60.359 7.9965c0 0.95154-0.16749 1.8639-0.47464 2.7094-0.21351 0.58768-0.49439 1.1433-0.83393 1.6572-0.14222 0.21608-0.29514 0.42475-0.45746 0.62529-0.51966 0.64179-1.1372 1.2007-1.8305 1.6543-0.2553 0.16718-0.52065 0.3201-0.79536 0.45712-1.0668 0.53389-2.2711 0.83421-3.5456 0.83421s-2.4788-0.30032-3.5456-0.83424c-0.27474-0.13705-0.5404-0.28997-0.7957-0.45712-0.70207-0.45973-1.327-1.0274-1.8509-1.6798-0.16263-0.20216-0.31524-0.41275-0.45746-0.63078-0.33046-0.5054-0.60421-1.0507-0.8135-1.627-0.30711-0.84529-0.4743-1.7573-0.4743-2.7085 0-4.3838 3.5537-7.9375 7.9375-7.9375 2.2005 0 4.1917 0.89548 5.6295 2.3417 0.41436 0.41662 0.78274 0.87929 1.0963 1.3795 0.29645 0.47107 0.54428 0.97582 0.73704 1.5068 0.30718 0.84559 0.47467 1.7579 0.47467 2.7094z" fill="url(#linearGradient7233)" stroke-width=".031006"/>
 </g>
 <g transform="matrix(.012908 0 0 .012908 2.1084 1.8541)" fill="#fff">
  <path d="m448 898.77a44.16 44.16 0 0 1-20.053-4.9067 42.667 42.667 0 0 1-22.613-37.76v-688.21a42.667 42.667 0 0 1 22.613-37.76 42.667 42.667 0 0 1 43.733 2.3467l256 170.67a42.667 42.667 0 0 1 20.053 38.187 42.667 42.667 0 0 1-21.333 35.627l-254.29 135.04 253.23 135.04a42.667 42.667 0 0 1 21.333 35.627 42.667 42.667 0 0 1-18.987 37.547l-256 170.67a42.667 42.667 0 0 1-23.68 7.8933zm0-351.15v308.48l256-170.67zm0-379.73v308.48l256-137.17z" p-id="1892"/>
  <path d="m256 618.67a21.333 21.333 0 0 1-18.987-11.733 21.333 21.333 0 0 1 9.3867-28.587l170.67-85.333a21.333 21.333 0 1 1 19.2 37.973l-170.67 85.333a19.84 19.84 0 0 1-9.6 2.3467z" p-id="1893"/>
  <path d="m426.67 533.33a19.84 19.84 0 0 1-9.6-2.3467l-170.67-85.333a21.333 21.333 0 1 1 19.2-37.973l170.67 85.333a21.333 21.333 0 0 1 9.3867 28.587 21.333 21.333 0 0 1-18.987 11.733z" p-id="1894"/>
 </g>
 <g transform="translate(43.92 -.46349)" fill="#5e4aa6" stroke-width=".26458">
  <circle cx="-330.35" cy="-328.38" r="0"/>
  <circle cx="-299.17" cy="-337.27" r="0"/>
  <circle cx="-299.81" cy="-339.42" r="0"/>
  <circle cx="-302.25" cy="-338.13" r="0"/>
  <circle cx="-301.89" cy="-335.91" r="0"/>
  <circle cx="-304.76" cy="-351.05" r="0"/>
  <circle cx="-304.83" cy="-349.54" r="0"/>
  <circle cx="-359.94" cy="-336.91" r="0"/>
 </g>
</svg>
