<?xml version="1.0" encoding="UTF-8"?>
<svg width="64" height="64" version="1.1" viewBox="0 0 16.933 16.933" xmlns="http://www.w3.org/2000/svg" xmlns:cc="http://creativecommons.org/ns#" xmlns:dc="http://purl.org/dc/elements/1.1/" xmlns:rdf="http://www.w3.org/1999/02/22-rdf-syntax-ns#" xmlns:xlink="http://www.w3.org/1999/xlink">
 <metadata>
  <rdf:RDF>
   <cc:Work rdf:about="">
    <dc:format>image/svg+xml</dc:format>
    <dc:type rdf:resource="http://purl.org/dc/dcmitype/StillImage"/>
    <dc:title/>
   </cc:Work>
  </rdf:RDF>
 </metadata>
 <defs>
  <style type="text/css"/>
  <style type="text/css"/>
  <filter id="filter11290-6" x="-.024" y="-.024" width="1.048" height="1.048" color-interpolation-filters="sRGB">
   <feGaussianBlur stdDeviation="0.15875313"/>
  </filter>
  <linearGradient id="linearGradient971" x1="8.3879" x2="8.3879" y1="16.432" y2=".60259" gradientTransform="translate(-4e-6,2.193e-4)" gradientUnits="userSpaceOnUse">
   <stop stop-color="#33393e" offset="0"/>
   <stop stop-color="#1d2123" offset="1"/>
  </linearGradient>
 </defs>
 <circle cx="8.4665" cy="8.4665" r="7.9377" filter="url(#filter11290-6)" opacity=".25" stroke-width=".14032"/>
 <path d="m16.404 8.4666c0 0.95153-0.16749 1.8639-0.47465 2.7093-0.21351 0.58768-0.49439 1.1433-0.83392 1.6572-0.14222 0.21608-0.29514 0.42475-0.45746 0.62528-0.51966 0.64179-1.1372 1.2007-1.8305 1.6543-0.2553 0.16718-0.52064 0.32011-0.79535 0.45711-1.0668 0.53389-2.2711 0.83422-3.5456 0.83422s-2.4788-0.30032-3.5456-0.83424c-0.27474-0.13705-0.5404-0.28998-0.79569-0.45711-0.70206-0.45973-1.327-1.0274-1.8509-1.6798-0.16263-0.20216-0.31524-0.41274-0.45746-0.63078-0.33046-0.5054-0.60422-1.0507-0.8135-1.627-0.30712-0.8453-0.47431-1.7573-0.47431-2.7085 0-4.3838 3.5538-7.9376 7.9376-7.9376 2.2005 0 4.1917 0.89549 5.6294 2.3417 0.41436 0.41663 0.78273 0.8793 1.0963 1.3795 0.29646 0.47108 0.54429 0.97582 0.73704 1.5068 0.30718 0.84559 0.47468 1.7579 0.47468 2.7093z" fill="url(#linearGradient971)" stroke-width=".031006"/>
 <g fill="#5e4aa6" stroke-width=".26458">
  <circle cx="-356.9" cy="-328.38" r="0"/>
  <circle cx="-65.981" cy="6.44" r="0" fill-rule="evenodd"/>
  <circle cx="-330.38" cy="-328.37" r="0"/>
 </g>
 <g transform="matrix(.012908 0 0 .012908 2.1348 1.8577)" fill="#fff">
  <path d="m448 898.77a44.16 44.16 0 0 1-20.053-4.9067 42.667 42.667 0 0 1-22.613-37.76v-688.21a42.667 42.667 0 0 1 22.613-37.76 42.667 42.667 0 0 1 43.733 2.3467l256 170.67a42.667 42.667 0 0 1 20.053 38.187 42.667 42.667 0 0 1-21.333 35.627l-254.29 135.04 253.23 135.04a42.667 42.667 0 0 1 21.333 35.627 42.667 42.667 0 0 1-18.987 37.547l-256 170.67a42.667 42.667 0 0 1-23.68 7.8933zm0-351.15v308.48l256-170.67zm0-379.73v308.48l256-137.17z" p-id="1892"/>
  <path d="m256 618.67a21.333 21.333 0 0 1-18.987-11.733 21.333 21.333 0 0 1 9.3867-28.587l170.67-85.333a21.333 21.333 0 1 1 19.2 37.973l-170.67 85.333a19.84 19.84 0 0 1-9.6 2.3467z" p-id="1893"/>
  <path d="m426.67 533.33a19.84 19.84 0 0 1-9.6-2.3467l-170.67-85.333a21.333 21.333 0 1 1 19.2-37.973l170.67 85.333a21.333 21.333 0 0 1 9.3867 28.587 21.333 21.333 0 0 1-18.987 11.733z" p-id="1894"/>
 </g>
 <g fill="#5e4aa6">
  <g transform="translate(16.753 -12.801)" stroke-width=".26458">
   <circle cx="-330.35" cy="-328.38" r="0"/>
   <circle cx="-299.17" cy="-337.27" r="0"/>
   <circle cx="-299.81" cy="-339.42" r="0"/>
   <circle cx="-302.25" cy="-338.13" r="0"/>
   <circle cx="-301.89" cy="-335.91" r="0"/>
   <circle cx="-304.76" cy="-351.05" r="0"/>
   <circle cx="-304.83" cy="-349.54" r="0"/>
   <circle cx="-359.94" cy="-336.91" r="0"/>
  </g>
  <circle cx="-308.76" cy="-340.71" r="0" stroke-width=".26458"/>
  <circle cx="-281.45" cy="-340.71" r="0" stroke-width=".26458"/>
  <g transform="matrix(.26458 0 0 .26458 21.597 -12.341)">
   <circle cx="-1067.5" cy="-1273.4" r="0"/>
   <circle cx="32.006" cy="-7.8738" r="0" fill-rule="evenodd"/>
   <g transform="matrix(3.7796,0,0,3.7796,88.949,-11.39)" stroke-width=".26458">
    <circle cx="-280.67" cy="-338.3" r="0"/>
    <circle cx="10.243" cy="-3.4759" r="0" fill-rule="evenodd"/>
    <circle cx="-300.96" cy="-332.03" r="0"/>
    <circle cx="-278.63" cy="-338.38" r="0"/>
   </g>
  </g>
 </g>
</svg>
