<?xml version="1.0" encoding="UTF-8"?>
<svg width="64" height="64" version="1.1" viewBox="0 0 16.933 16.933" xmlns="http://www.w3.org/2000/svg" xmlns:cc="http://creativecommons.org/ns#" xmlns:dc="http://purl.org/dc/elements/1.1/" xmlns:rdf="http://www.w3.org/1999/02/22-rdf-syntax-ns#">
 <metadata>
  <rdf:RDF>
   <cc:Work rdf:about="">
    <dc:format>image/svg+xml</dc:format>
    <dc:type rdf:resource="http://purl.org/dc/dcmitype/StillImage"/>
    <dc:title/>
   </cc:Work>
  </rdf:RDF>
 </metadata>
 <defs>
  <filter id="filter11290" x="-.024" y="-.024" width="1.048" height="1.048" color-interpolation-filters="sRGB">
   <feGaussianBlur stdDeviation="0.15875313"/>
  </filter>
  <style type="text/css"/>
  <style type="text/css"/>
 </defs>
 <circle cx="-356.9" cy="-328.38" r="0" fill="#5e4aa6" stroke-width=".26458"/>
 <circle cx="-65.981" cy="6.44" r="0" fill="#5e4aa6" fill-rule="evenodd" stroke-width=".26458"/>
 <circle cx="8.4665" cy="8.4665" r="7.9377" filter="url(#filter11290)" opacity=".25" stroke-width=".14032"/>
 <circle cx="8.4665" cy="8.4665" r="7.9373" fill="#323232" stroke-width=".96299" style="paint-order:stroke markers fill"/>
 <circle cx="-330.38" cy="-328.37" r="0" fill="#5e4aa6" stroke-width=".26458"/>
 <g transform="matrix(.012908 0 0 .012908 2.1348 1.8577)" fill="#fff">
  <path d="m448 898.77a44.16 44.16 0 0 1-20.053-4.9067 42.667 42.667 0 0 1-22.613-37.76v-688.21a42.667 42.667 0 0 1 22.613-37.76 42.667 42.667 0 0 1 43.733 2.3467l256 170.67a42.667 42.667 0 0 1 20.053 38.187 42.667 42.667 0 0 1-21.333 35.627l-254.29 135.04 253.23 135.04a42.667 42.667 0 0 1 21.333 35.627 42.667 42.667 0 0 1-18.987 37.547l-256 170.67a42.667 42.667 0 0 1-23.68 7.8933zm0-351.15v308.48l256-170.67zm0-379.73v308.48l256-137.17z" p-id="1892"/>
  <path d="m256 618.67a21.333 21.333 0 0 1-18.987-11.733 21.333 21.333 0 0 1 9.3867-28.587l170.67-85.333a21.333 21.333 0 1 1 19.2 37.973l-170.67 85.333a19.84 19.84 0 0 1-9.6 2.3467z" p-id="1893"/>
  <path d="m426.67 533.33a19.84 19.84 0 0 1-9.6-2.3467l-170.67-85.333a21.333 21.333 0 1 1 19.2-37.973l170.67 85.333a21.333 21.333 0 0 1 9.3867 28.587 21.333 21.333 0 0 1-18.987 11.733z" p-id="1894"/>
 </g>
 <g transform="translate(16.753 -12.801)" fill="#5e4aa6" stroke-width=".26458">
  <circle cx="-330.35" cy="-328.38" r="0"/>
  <circle cx="-299.17" cy="-337.27" r="0"/>
  <circle cx="-299.81" cy="-339.42" r="0"/>
  <circle cx="-302.25" cy="-338.13" r="0"/>
  <circle cx="-301.89" cy="-335.91" r="0"/>
  <circle cx="-304.76" cy="-351.05" r="0"/>
  <circle cx="-304.83" cy="-349.54" r="0"/>
  <circle cx="-359.94" cy="-336.91" r="0"/>
 </g>
</svg>
