<?xml version="1.0" encoding="UTF-8"?>
<svg width="64" height="64" version="1.1" viewBox="0 0 16.933 16.933" xmlns="http://www.w3.org/2000/svg" xmlns:cc="http://creativecommons.org/ns#" xmlns:dc="http://purl.org/dc/elements/1.1/" xmlns:rdf="http://www.w3.org/1999/02/22-rdf-syntax-ns#" xmlns:xlink="http://www.w3.org/1999/xlink">
 <metadata>
  <rdf:RDF>
   <cc:Work rdf:about="">
    <dc:format>image/svg+xml</dc:format>
    <dc:type rdf:resource="http://purl.org/dc/dcmitype/StillImage"/>
    <dc:title/>
   </cc:Work>
  </rdf:RDF>
 </metadata>
 <defs>
  <filter id="filter11290" x="-.024" y="-.024" width="1.048" height="1.048" color-interpolation-filters="sRGB">
   <feGaussianBlur stdDeviation="0.15875313"/>
  </filter>
  <linearGradient id="linearGradient1307" x1="16.393" x2=".60977" y1=".69761" y2="16.375" gradientTransform="translate(-.0272 .0065001)" gradientUnits="userSpaceOnUse">
   <stop stop-color="#ffdc32" offset="0"/>
   <stop stop-color="#ff7832" offset="1"/>
  </linearGradient>
  <linearGradient id="linearGradient1153" x1="22.053" x2="33.441" y1="10.438" y2="10.438" gradientTransform="rotate(-45,17.349,30.119)" gradientUnits="userSpaceOnUse">
   <stop stop-color="#faf1a5" offset="0"/>
   <stop stop-color="#faf7c8" offset="1"/>
  </linearGradient>
  <linearGradient id="linearGradient1161" x1="22.053" x2="33.441" y1="9.3051" y2="9.3051" gradientTransform="rotate(-45,17.349,30.119)" gradientUnits="userSpaceOnUse">
   <stop stop-color="#ffc85a" offset="0"/>
   <stop stop-color="#faf6c3" offset="1"/>
  </linearGradient>
 </defs>
 <circle cx="-330.35" cy="-328.38" r="0" fill="#5e4aa6" stroke-width=".26458"/>
 <circle cx="-352.02" cy="-328.38" r="0" fill="#5e4aa6" stroke-width=".26458"/>
 <circle cx="8.4665" cy="8.4665" r="7.9377" filter="url(#filter11290)" opacity=".25" stroke-width=".14032"/>
 <path d="m16.412 8.4665c0 0.95154-0.16749 1.8639-0.47464 2.7094-0.21351 0.58768-0.49439 1.1433-0.83393 1.6572-0.14222 0.21608-0.29514 0.42475-0.45746 0.62529-0.51966 0.64179-1.1372 1.2007-1.8305 1.6543-0.2553 0.16718-0.52065 0.3201-0.79536 0.45712-1.0668 0.53389-2.2711 0.83421-3.5456 0.83421s-2.4788-0.30032-3.5456-0.83424c-0.27474-0.13705-0.5404-0.28997-0.7957-0.45712-0.70207-0.45973-1.327-1.0274-1.8509-1.6798-0.16263-0.20216-0.31524-0.41275-0.45746-0.63078-0.33046-0.5054-0.60421-1.0507-0.8135-1.627-0.30711-0.84529-0.4743-1.7573-0.4743-2.7085 0-4.3838 3.5537-7.9375 7.9375-7.9375 2.2005 0 4.1917 0.89548 5.6295 2.3417 0.41436 0.41662 0.78274 0.87929 1.0963 1.3795 0.29645 0.47107 0.54428 0.97582 0.73704 1.5068 0.30718 0.84559 0.47467 1.7579 0.47467 2.7094z" fill="url(#linearGradient1307)" stroke-width=".031006"/>
 <circle cx="-330.38" cy="-328.37" r="0" fill="#5e4aa6" stroke-width=".26458"/>
 <path d="m3.8046 4.1916v0.31749h9.5248v-0.31749zm0 0.95248v0.31749h9.5248v-0.31749zm0 0.95248v0.31749h9.5248v-0.31749zm0 0.95248v0.31749h9.5248v-0.31749zm0 0.95248v0.31749h9.5248v-0.31749zm0 0.95248v0.31749h9.5248v-0.31749zm0 0.95248v0.31749h9.5248v-0.31749zm0 0.95248v0.31749h9.5248v-0.31749zm0 0.95248v0.31749h9.5248v-0.31749zm0 0.95248v0.31749h9.5248v-0.31749z" enable-background="new" fill="#fff" image-rendering="optimizeSpeed" opacity=".2" stroke-width=".26458"/>
 <path d="m6.3357 0.82v5.472l-0.91674-0.91726-0.91726 0.91726v-4.7072a7.9375 7.9375 0 0 1 1.834-0.76482z" fill="#fafafa" style="paint-order:normal"/>
 <circle cx="-356.42" cy="-334.54" r="0" fill="#5e4aa6" stroke-width=".26458"/>
 <g transform="matrix(.92924 0 0 .92924 .70602 .84884)">
  <path d="m6.3569 12.475 2.2584-0.60513 6.6213-6.6213-0.85084-0.85084z" fill="url(#linearGradient1153)"/>
  <path d="m6.3582 12.477 0.60513-2.2584 6.6213-6.6213 0.85084 0.85084z" fill="url(#linearGradient1161)"/>
 </g>
</svg>
