<?xml version="1.0" encoding="UTF-8"?>
<svg width="64" height="64" version="1.1" viewBox="0 0 64 64" xmlns="http://www.w3.org/2000/svg" xmlns:cc="http://creativecommons.org/ns#" xmlns:dc="http://purl.org/dc/elements/1.1/" xmlns:rdf="http://www.w3.org/1999/02/22-rdf-syntax-ns#" xmlns:xlink="http://www.w3.org/1999/xlink">
 <metadata>
  <rdf:RDF>
   <cc:Work rdf:about="">
    <dc:format>image/svg+xml</dc:format>
    <dc:type rdf:resource="http://purl.org/dc/dcmitype/StillImage"/>
    <dc:title/>
   </cc:Work>
  </rdf:RDF>
 </metadata>
 <defs>
  <style type="text/css"/>
  <filter id="filter11290" x="-.024" y="-.024" width="1.048" height="1.048" color-interpolation-filters="sRGB">
   <feGaussianBlur stdDeviation="0.15875313"/>
  </filter>
  <linearGradient id="linearGradient930" x1="10.24" x2="1013.8" y1="512" y2="512" gradientUnits="userSpaceOnUse">
   <stop stop-color="#1478e6" offset="0"/>
   <stop stop-color="#3c50e6" offset="1"/>
  </linearGradient>
 </defs>
 <g transform="translate(-66.262 .99203)"></g>
 <circle transform="matrix(3.7796 0 0 3.7796 -.1028 .024568)" cx="8.4937" cy="8.46" r="7.9377" filter="url(#filter11290)" opacity=".25" stroke-width=".14032"/>
 <path d="m62.03 32c0 3.5964-0.63304 7.0448-1.794 10.24-0.80698 2.2212-1.8686 4.3212-3.1519 6.2636-0.53754 0.8167-1.1155 1.6054-1.729 2.3633-1.9641 2.4257-4.2982 4.5382-6.9186 6.2526-0.96493 0.63187-1.9678 1.2098-3.0061 1.7277-4.0321 2.0179-8.5839 3.153-13.401 3.153-4.8171 0-9.3689-1.1351-13.401-3.1531-1.0384-0.518-2.0425-1.096-3.0074-1.7277-2.6535-1.7376-5.0155-3.8832-6.9957-6.349-0.61468-0.76408-1.1915-1.56-1.729-2.3841-1.249-1.9102-2.2837-3.9712-3.0747-6.1494-1.1608-3.1949-1.7927-6.6419-1.7927-10.237 0-16.569 13.432-30.001 30.001-30.001 8.317 0 15.843 3.3846 21.277 8.8507 1.5661 1.5747 2.9584 3.3234 4.1436 5.214 1.1205 1.7805 2.0572 3.6882 2.7857 5.6951 1.161 3.196 1.7941 6.6442 1.7941 10.24z" fill="#fafafa" stroke-width=".11719"/>
 <circle cx="-1248.7" cy="-1241.1" r="0" fill="#5e4aa6"/>
 <g transform="matrix(.039572 0 0 .039572 11.739 11.739)" fill="none" stroke="#f0f0f0" stroke-width="75.81">
  <path d="m687.51 511.9c0-96.87-78.746-175.62-175.62-175.62s-175.62 78.746-175.62 175.62 78.746 175.62 175.62 175.62c51.098 0 96.87-22.323 128.92-57.446l-29.696-94.515 68.096 26.419c4.9152-15.872 8.2944-32.461 8.2944-50.074zm-175.62 100.35c-55.398 0-100.35-44.954-100.35-100.35s44.954-100.35 100.35-100.35 100.35 44.954 100.35 100.35-44.954 100.35-100.35 100.35z" p-id="8852"/>
  <path d="m621.67 688.44c7.0656-8.9088 11.776-15.258 15.462-20.89-34.509 27.75-77.619 45.056-125.24 45.056-110.69 0-200.7-90.01-200.7-200.7s90.01-200.7 200.7-200.7 200.7 90.01 200.7 200.7c0 20.685-4.096 40.346-9.9328 59.187l5.7344 2.1504c15.462 5.9392 30.003 13.517 43.213 22.323-2.2528-40.653 6.144-85.606 44.851-130.05l72.397-83.456 15.258 109.47c4.9152 35.123 43.008 83.149 76.698 125.64 10.547 13.312 21.094 26.726 31.334 40.346 13.926-46.08 21.606-94.925 21.606-145.51 0-277.09-224.67-501.76-501.76-501.76s-501.76 224.67-501.76 501.76 224.67 501.76 501.76 501.76c44.237 0 86.835-6.2464 127.69-17.101-44.954-45.261-72.499-107.01-72.499-173.88-0.1024-65.741 31.334-105.37 54.477-134.35z" p-id="8853"/>
  <path d="m796.47 769.64c-3.584-54.989-29.696-119.91-106.29-149.61 27.034 86.528-73.011 101.79-73.011 202.75 0 91.955 62.874 168.45 147.76 190.98-27.955-25.907 10.138-76.39-18.944-113.05 36.454 11.571 69.325 38.298 69.325 85.094 36.557-24.883-9.0112-92.877 58.573-137.83-20.685 61.338 35.123 90.931 26.01 131.38-2.6624 11.878-8.4992 20.992-15.974 28.672 75.469-28.058 129.64-100.04 129.64-185.34 0-109.47-164.86-220.67-179.3-324.4-88.269 101.99 0.7168 166.3-37.786 271.36z" p-id="8854"/>
 </g>
 <g transform="matrix(.039572 0 0 .039572 11.739 11.739)" fill="url(#linearGradient930)">
  <path d="m687.51 511.9c0-96.87-78.746-175.62-175.62-175.62s-175.62 78.746-175.62 175.62 78.746 175.62 175.62 175.62c51.098 0 96.87-22.323 128.92-57.446l-29.696-94.515 68.096 26.419c4.9152-15.872 8.2944-32.461 8.2944-50.074zm-175.62 100.35c-55.398 0-100.35-44.954-100.35-100.35s44.954-100.35 100.35-100.35 100.35 44.954 100.35 100.35-44.954 100.35-100.35 100.35z" p-id="8852"/>
  <path d="m621.67 688.44c7.0656-8.9088 11.776-15.258 15.462-20.89-34.509 27.75-77.619 45.056-125.24 45.056-110.69 0-200.7-90.01-200.7-200.7s90.01-200.7 200.7-200.7 200.7 90.01 200.7 200.7c0 20.685-4.096 40.346-9.9328 59.187l5.7344 2.1504c15.462 5.9392 30.003 13.517 43.213 22.323-2.2528-40.653 6.144-85.606 44.851-130.05l72.397-83.456 15.258 109.47c4.9152 35.123 43.008 83.149 76.698 125.64 10.547 13.312 21.094 26.726 31.334 40.346 13.926-46.08 21.606-94.925 21.606-145.51 0-277.09-224.67-501.76-501.76-501.76s-501.76 224.67-501.76 501.76 224.67 501.76 501.76 501.76c44.237 0 86.835-6.2464 127.69-17.101-44.954-45.261-72.499-107.01-72.499-173.88-0.1024-65.741 31.334-105.37 54.477-134.35z" p-id="8853"/>
  <path d="m796.47 769.64c-3.584-54.989-29.696-119.91-106.29-149.61 27.034 86.528-73.011 101.79-73.011 202.75 0 91.955 62.874 168.45 147.76 190.98-27.955-25.907 10.138-76.39-18.944-113.05 36.454 11.571 69.325 38.298 69.325 85.094 36.557-24.883-9.0112-92.877 58.573-137.83-20.685 61.338 35.123 90.931 26.01 131.38-2.6624 11.878-8.4992 20.992-15.974 28.672 75.469-28.058 129.64-100.04 129.64-185.34 0-109.47-164.86-220.67-179.3-324.4-88.269 101.99 0.7168 166.3-37.786 271.36z" p-id="8854"/>
 </g>
</svg>
