<?xml version="1.0" encoding="UTF-8"?>
<!-- Created with Inkscape (http://www.inkscape.org/) -->
<svg width="64" height="64" version="1.1" viewBox="0 0 16.933 16.933" xmlns="http://www.w3.org/2000/svg" xmlns:cc="http://creativecommons.org/ns#" xmlns:dc="http://purl.org/dc/elements/1.1/" xmlns:rdf="http://www.w3.org/1999/02/22-rdf-syntax-ns#" xmlns:xlink="http://www.w3.org/1999/xlink">
 <defs>
  <filter id="filter11290" x="-.024" y="-.024" width="1.048" height="1.048" color-interpolation-filters="sRGB">
   <feGaussianBlur stdDeviation="0.15875313"/>
  </filter>
  <linearGradient id="linearGradient7233" x1="16.439" x2=".60699" y1=".60248" y2="16.435" gradientUnits="userSpaceOnUse">
   <stop stop-color="#0a82f0" offset="0"/>
   <stop stop-color="#3250e6" offset="1"/>
  </linearGradient>
  <linearGradient id="linearGradient865" x1="4.3858" x2="15.11" y1="292.57" y2="282.02" gradientTransform="matrix(4.8356,0,0,4.8356,-8.9393,-1363.8)" gradientUnits="userSpaceOnUse">
   <stop stop-color="#fff" offset="0"/>
   <stop stop-color="#b4dcff" offset="1"/>
  </linearGradient>
 </defs>
 <metadata>
  <rdf:RDF>
   <cc:Work rdf:about="">
    <dc:format>image/svg+xml</dc:format>
    <dc:type rdf:resource="http://purl.org/dc/dcmitype/StillImage"/>
    <dc:title/>
   </cc:Work>
  </rdf:RDF>
 </metadata>
 <circle cx="8.4937" cy="8.46" r="7.9377" filter="url(#filter11290)" opacity=".25" stroke-width=".14032"/>
 <path d="m16.439 8.46c0 0.95154-0.16749 1.8639-0.47464 2.7094-0.21351 0.58768-0.49439 1.1433-0.83393 1.6572-0.14222 0.21608-0.29514 0.42475-0.45746 0.62529-0.51966 0.64179-1.1372 1.2007-1.8305 1.6543-0.2553 0.16718-0.52065 0.3201-0.79536 0.45712-1.0668 0.53389-2.2711 0.83421-3.5456 0.83421s-2.4788-0.30032-3.5456-0.83424c-0.27474-0.13705-0.5404-0.28997-0.7957-0.45712-0.70207-0.45973-1.327-1.0274-1.8509-1.6798-0.16263-0.20216-0.31524-0.41275-0.45746-0.63078-0.33046-0.5054-0.60421-1.0507-0.8135-1.627-0.30711-0.84529-0.4743-1.7573-0.4743-2.7085 0-4.3838 3.5537-7.9375 7.9375-7.9375 2.2005 0 4.1917 0.89548 5.6295 2.3417 0.41436 0.41662 0.78274 0.87929 1.0963 1.3795 0.29645 0.47107 0.54428 0.97582 0.73704 1.5068 0.30718 0.84559 0.47467 1.7579 0.47467 2.7094z" fill="url(#linearGradient7233)" stroke-width=".031006"/>
 <g fill="#5e4aa6">
  <circle cx="-330.35" cy="-328.38" r="0" stroke-width=".26458"/>
  <g stroke-width=".26458">
   <circle cx="-299.17" cy="-337.27" r="0"/>
   <circle cx="-299.81" cy="-339.42" r="0"/>
   <circle cx="-302.25" cy="-338.13" r="0"/>
   <circle cx="-301.89" cy="-335.91" r="0"/>
   <circle cx="-304.76" cy="-351.05" r="0"/>
   <circle cx="-304.83" cy="-349.54" r="0"/>
   <circle cx="-359.94" cy="-336.91" r="0"/>
  </g>
 </g>
 <circle cx="40.465" cy="-9.1299" r="7.9373" fill-opacity="0" stroke-width=".41578"/>
 <g transform="matrix(1.2794 0 0 1.2794 -27.804 3.3005)">
  <circle cx="28.377" cy="4.0348" r="3.44" opacity=".15" style="paint-order:stroke markers fill"/>
  <g transform="translate(19.91,-284.5)" fill="#fff" style="paint-order:stroke markers fill">
   <path transform="matrix(.2068 0 0 .2068 1.8486 282.03)" d="m29.445 11.615v5.998a14.072 14.072 0 0 0-5.4238 2.2402l-4.2324-4.2344-3.6172 3.6113 4.248 4.248a14.072 14.072 0 0 0-2.2461 5.4082h-6v5.1172h6.0039a14.072 14.072 0 0 0 2.2363 5.4141l-4.2422 4.2422 3.6172 3.6172 4.2539-4.252a14.072 14.072 0 0 0 5.4023 2.2441v6.0059h5.1172v-6.0078a14.072 14.072 0 0 0 5.4141-2.2324l4.2422 4.2422 3.6113-3.6133-4.248-4.252a14.072 14.072 0 0 0 2.25-5.4082h6.002v-5.1172h-6.002a14.072 14.072 0 0 0-2.2344-5.416l4.2383-4.2344-3.6172-3.623-4.2461 4.2461a14.072 14.072 0 0 0-5.4102-2.248v-5.9961h-5.1172zm2.5586 12.15a7.6741 7.6741 0 0 1 7.6738 7.6758 7.6741 7.6741 0 0 1-7.6738 7.6777 7.6741 7.6741 0 0 1-7.6797-7.6777 7.6741 7.6741 0 0 1 7.6797-7.6758z" fill="url(#linearGradient865)" stroke-width="4.8356"/>
  </g>
 </g>
</svg>
