<?xml version="1.0" encoding="UTF-8"?>
<!-- Created with Inkscape (http://www.inkscape.org/) -->
<svg width="64" height="64" version="1.1" viewBox="0 0 16.933 16.933" xmlns="http://www.w3.org/2000/svg" xmlns:cc="http://creativecommons.org/ns#" xmlns:dc="http://purl.org/dc/elements/1.1/" xmlns:rdf="http://www.w3.org/1999/02/22-rdf-syntax-ns#" xmlns:xlink="http://www.w3.org/1999/xlink">
 <defs>
  <filter id="filter11290" x="-.024" y="-.024" width="1.048" height="1.048" color-interpolation-filters="sRGB">
   <feGaussianBlur stdDeviation="0.15875313"/>
  </filter>
  <linearGradient id="linearGradient7233" x1="16.439" x2=".60699" y1=".60248" y2="16.435" gradientUnits="userSpaceOnUse">
   <stop stop-color="#0a82f0" offset="0"/>
   <stop stop-color="#3250e6" offset="1"/>
  </linearGradient>
  <filter id="filter862-5" x="-.06" y="-.06" width="1.12" height="1.12" color-interpolation-filters="sRGB">
   <feGaussianBlur stdDeviation="0.75"/>
  </filter>
  <filter id="filter868" x="-.069129" y="-.053001" width="1.1383" height="1.106" color-interpolation-filters="sRGB">
   <feGaussianBlur stdDeviation="0.201625"/>
  </filter>
  <filter id="filter892" x="-.06338" y="-.056962" width="1.1268" height="1.1139" color-interpolation-filters="sRGB">
   <feGaussianBlur stdDeviation="0.11092"/>
  </filter>
 </defs>
 <metadata>
  <rdf:RDF>
   <cc:Work rdf:about="">
    <dc:format>image/svg+xml</dc:format>
    <dc:type rdf:resource="http://purl.org/dc/dcmitype/StillImage"/>
    <dc:title/>
   </cc:Work>
  </rdf:RDF>
 </metadata>
 <circle cx="8.4937" cy="8.46" r="7.9377" filter="url(#filter11290)" opacity=".25" stroke-width=".14032"/>
 <path d="m16.439 8.46c0 0.95154-0.16749 1.8639-0.47464 2.7094-0.21351 0.58768-0.49439 1.1433-0.83393 1.6572-0.14222 0.21608-0.29514 0.42475-0.45746 0.62529-0.51966 0.64179-1.1372 1.2007-1.8305 1.6543-0.2553 0.16718-0.52065 0.3201-0.79536 0.45712-1.0668 0.53389-2.2711 0.83421-3.5456 0.83421s-2.4788-0.30032-3.5456-0.83424c-0.27474-0.13705-0.5404-0.28997-0.7957-0.45712-0.70207-0.45973-1.327-1.0274-1.8509-1.6798-0.16263-0.20216-0.31524-0.41275-0.45746-0.63078-0.33046-0.5054-0.60421-1.0507-0.8135-1.627-0.30711-0.84529-0.4743-1.7573-0.4743-2.7085 0-4.3838 3.5537-7.9375 7.9375-7.9375 2.2005 0 4.1917 0.89548 5.6295 2.3417 0.41436 0.41662 0.78274 0.87929 1.0963 1.3795 0.29645 0.47107 0.54428 0.97582 0.73704 1.5068 0.30718 0.84559 0.47467 1.7579 0.47467 2.7094z" fill="url(#linearGradient7233)" stroke-width=".031006"/>
 <g fill="#5e4aa6">
  <circle cx="-330.35" cy="-328.38" r="0" stroke-width=".26458"/>
  <g stroke-width=".26458">
   <circle cx="-299.17" cy="-337.27" r="0"/>
   <circle cx="-299.81" cy="-339.42" r="0"/>
   <circle cx="-302.25" cy="-338.13" r="0"/>
   <circle cx="-301.89" cy="-335.91" r="0"/>
   <circle cx="-304.76" cy="-351.05" r="0"/>
   <circle cx="-304.83" cy="-349.54" r="0"/>
   <circle cx="-359.94" cy="-336.91" r="0"/>
  </g>
 </g>
 <circle cx="40.465" cy="-9.1299" r="7.9373" fill-opacity="0" stroke-width=".41578"/>
 <g transform="translate(-27.699 5.9326)">
  <g transform="matrix(.34565 0 0 .34565 27.905 -5.7681)">
   <path d="m9 24c0 8.284 6.716 15 15 15 0.5-0.625 0.5-1.292 0-2-7.18 0-13-5.82-13-13z" fill="#fff" opacity=".2"/>
   <path d="m24 9a15 15 0 0 0-15 15h2a13 13 0 0 1 13-13 13 13 0 0 1 13 13 13 13 0 0 1-13 13v2a15 15 0 0 0 15-15 15 15 0 0 0-15-15z" fill="#285ae6" filter="url(#filter862-5)"/>
   <path d="M 9.559,20 A 15,15 0 0 0 9,24 15,15 0 0 0 9.916,29.13 L 16,20 H 9.559" fill="#285ae6" filter="url(#filter868)"/>
   <path d="m24 9a15 15 0 0 0-15 15h2a13 13 0 0 1 13-13 13 13 0 0 1 13 13 13 13 0 0 1-13 13v2a15 15 0 0 0 15-15 15 15 0 0 0-15-15z" fill="#f9f9f9"/>
   <path d="M 9.559,20 A 15,15 0 0 0 9,24 15,15 0 0 0 9.916,29.13 L 16,20 H 9.559" fill="#f9f9f9"/>
  </g>
  <g transform="translate(29.801 -25.854)" fill="#285ae6" filter="url(#filter892)">
   <g transform="translate(37.769,-32.675)">
    <rect x="-33.469" y="58.72" width="4.2002" height="1.3064" ry=".21497"/>
    <circle cx="-32.664" cy="59.373" r=".29817"/>
   </g>
   <g transform="translate(37.769,-30.992)">
    <rect x="-33.469" y="58.72" width="4.2002" height="1.3064" ry=".21497"/>
    <circle cx="-32.664" cy="59.373" r=".29817"/>
   </g>
   <g transform="translate(37.769,-29.308)">
    <rect x="-33.469" y="58.72" width="4.2002" height="1.3064" ry=".21497"/>
    <circle cx="-32.664" cy="59.373" r=".29817"/>
   </g>
  </g>
  <g transform="translate(29.801 -25.854)">
   <g transform="translate(37.769,-32.675)">
    <rect x="-33.469" y="58.72" width="4.2002" height="1.3064" ry=".21497" fill="#fff"/>
    <circle cx="-32.664" cy="59.373" r=".29817" fill="#2e55e7"/>
   </g>
   <g transform="translate(37.769,-30.992)">
    <rect x="-33.469" y="58.72" width="4.2002" height="1.3064" ry=".21497" fill="#fff"/>
    <circle cx="-32.664" cy="59.373" r=".29817" fill="#2e55e7"/>
   </g>
   <g transform="translate(37.769,-29.308)">
    <rect x="-33.469" y="58.72" width="4.2002" height="1.3064" ry=".21497" fill="#fff"/>
    <circle cx="-32.664" cy="59.373" r=".29817" fill="#2e55e7"/>
   </g>
  </g>
 </g>
</svg>
