<?xml version="1.0" encoding="UTF-8"?>
<!-- Created with Inkscape (http://www.inkscape.org/) -->
<svg width="64" height="64" version="1.1" viewBox="0 0 16.933 16.933" xmlns="http://www.w3.org/2000/svg" xmlns:cc="http://creativecommons.org/ns#" xmlns:dc="http://purl.org/dc/elements/1.1/" xmlns:rdf="http://www.w3.org/1999/02/22-rdf-syntax-ns#">
 <defs>
  <filter id="filter11290-3" x="-.024" y="-.024" width="1.048" height="1.048" color-interpolation-filters="sRGB">
   <feGaussianBlur stdDeviation="0.15875313"/>
  </filter>
  <linearGradient id="linearGradient1307-6" x1="16.393" x2=".60977" y1=".69761" y2="16.375" gradientTransform="matrix(3.7796 0 0 3.7796 -.13248 .024395)" gradientUnits="userSpaceOnUse">
   <stop stop-color="#ffdc32" offset="0"/>
   <stop stop-color="#ff8c32" offset="1"/>
  </linearGradient>
  <filter id="filter1016" x="-.044992" y="-.090031" width="1.09" height="1.1801" color-interpolation-filters="sRGB">
   <feGaussianBlur stdDeviation="1.0742432"/>
  </filter>
 </defs>
 <metadata>
  <rdf:RDF>
   <cc:Work rdf:about="">
    <dc:format>image/svg+xml</dc:format>
    <dc:type rdf:resource="http://purl.org/dc/dcmitype/StillImage"/>
    <dc:title/>
   </cc:Work>
  </rdf:RDF>
 </metadata>
 <circle cx="-330.35" cy="-328.38" r="0" fill="#5e4aa6" stroke-width=".26458"/>
 <g transform="scale(.26458)">
  <circle transform="matrix(3.7796 0 0 3.7796 -.10279 .024585)" cx="8.4937" cy="8.46" r="7.9377" filter="url(#filter11290-3)" opacity=".25" stroke-width=".14032"/>
  <path d="m62 32c0 3.5964-0.63305 7.0448-1.794 10.24-0.80699 2.2212-1.8686 4.3212-3.1519 6.2636-0.53753 0.8167-1.1155 1.6054-1.729 2.3633-1.9641 2.4257-4.2982 4.5382-6.9186 6.2526-0.96494 0.63187-1.9678 1.2099-3.0062 1.7277-4.0321 2.0179-8.5838 3.153-13.401 3.153-4.8171 0-9.3689-1.1351-13.401-3.1531-1.0384-0.51799-2.0425-1.096-3.0074-1.7277-2.6536-1.7376-5.0155-3.8832-6.9957-6.349-0.61467-0.76408-1.1915-1.56-1.729-2.3841-1.249-1.9102-2.2837-3.9712-3.0747-6.1494-1.1608-3.1949-1.7927-6.6419-1.7927-10.237 0-16.569 13.432-30.001 30.001-30.001 8.317 0 15.843 3.3846 21.277 8.8507 1.5661 1.5747 2.9584 3.3234 4.1436 5.214 1.1205 1.7805 2.0572 3.6882 2.7857 5.6951 1.161 3.196 1.7941 6.6442 1.7941 10.24z" fill="url(#linearGradient1307-6)" stroke-width=".11719"/>
  <circle cx="-1131.3" cy="-1259.3" r="0" fill="#5e4aa6"/>
  <path d="m32 3.998c-13.462 0-24.854 8.8676-28.652 21.08 0.20228 0.14142 0.3997 0.28564 0.60938 0.42383 2.3726 1.5664 5.2034 2.9294 8.3828 4.0332 1.1561 0.4013 2.3594 0.7686 3.6035 1.0977 4.831 1.282 10.285 2.002 16.057 2.002 5.7717 0 11.224-0.72006 16.055-2.002 1.2442-0.32894 2.4474-0.69625 3.6035-1.0977 3.1396-1.0891 5.9358-2.4317 8.2891-3.9727 0.24124-0.15801 0.47127-0.32026 0.70312-0.48242-0.13837-0.44476-0.2851-0.88661-0.44336-1.3223-0.7285-2.0069-1.6666-3.9129-2.7871-5.6934-1.1852-1.8906-2.5765-3.6401-4.1426-5.2148-5.434-5.4661-12.96-8.8516-21.277-8.8516z" fill="#ff7832" filter="url(#filter1016)" opacity=".5" stroke-width=".11719"/>
  <path d="m32 1.998c-13.462 0-24.854 8.8676-28.652 21.08 0.20228 0.14142 0.3997 0.28564 0.60938 0.42383 2.3726 1.5664 5.2034 2.9294 8.3828 4.0332 1.1561 0.4013 2.3594 0.7686 3.6035 1.0977 4.831 1.282 10.285 2.002 16.057 2.002 5.7717 0 11.224-0.72006 16.055-2.002 1.2442-0.32894 2.4474-0.69625 3.6035-1.0977 3.1396-1.0891 5.9358-2.4317 8.2891-3.9727 0.24124-0.15801 0.47127-0.32026 0.70312-0.48242-0.13837-0.44476-0.2851-0.88661-0.44336-1.3223-0.7285-2.0069-1.6666-3.9129-2.7871-5.6934-1.1852-1.8906-2.5765-3.6401-4.1426-5.2148-5.434-5.4661-12.96-8.8516-21.277-8.8516z" fill="#fec116" stroke-width=".11719"/>
  <g transform="translate(-1.9201)">
   <g transform="matrix(3.7796 0 0 3.7796 2.3879 .53085)" fill="#ffdc6e">
    <rect transform="rotate(87.722)" x="6.4269" y="-7.5526" width="4.0574" height=".17539"/>
    <rect transform="matrix(-.039335 .99923 .97494 -.22245 0 0)" x="8.2308" y="9.445" width="4.1006" height=".17976"/>
   </g>
   <g transform="matrix(3.7796 0 0 3.7796 .82968 -1.8441)">
    <g transform="translate(88.549,-24.48)">
     <circle cx="-79.794" cy="31.289" r="1.2979" fill="#fff"/>
     <circle cx="-79.794" cy="31.289" r=".71327" fill="#f8e597"/>
     <circle cx="-79.794" cy="31.289" r=".29477" fill="#da9d39"/>
    </g>
    <g transform="matrix(.83784 0 0 .83784 75.61 -15.477)">
     <circle cx="-79.794" cy="31.289" r="1.2979" fill="#fff"/>
     <circle cx="-79.794" cy="31.289" r=".71327" fill="#f8e597"/>
     <circle cx="-79.794" cy="31.289" r=".29477" fill="#da9d39"/>
    </g>
   </g>
  </g>
 </g>
</svg>
