<?xml version="1.0" encoding="UTF-8"?>
<!-- Created with Inkscape (http://www.inkscape.org/) -->
<svg width="64" height="64" version="1.1" viewBox="0 0 16.933 16.933" xmlns="http://www.w3.org/2000/svg" xmlns:cc="http://creativecommons.org/ns#" xmlns:dc="http://purl.org/dc/elements/1.1/" xmlns:rdf="http://www.w3.org/1999/02/22-rdf-syntax-ns#" xmlns:xlink="http://www.w3.org/1999/xlink">
 <defs>
  <filter id="filter11290" x="-.024" y="-.024" width="1.048" height="1.048" color-interpolation-filters="sRGB">
   <feGaussianBlur stdDeviation="0.15875313"/>
  </filter>
  <linearGradient id="c-5" x1="32.779" x2="31.947" y1="45.883" y2="18.026" gradientUnits="userSpaceOnUse">
   <stop stop-color="#707070" offset="0"/>
   <stop stop-color="#1b1b1b" offset="1"/>
  </linearGradient>
  <linearGradient id="linearGradient886" x1="32.779" x2="31.947" y1="45.883" y2="18.026" gradientUnits="userSpaceOnUse" xlink:href="#c-5"/>
 </defs>
 <metadata>
  <rdf:RDF>
   <cc:Work rdf:about="">
    <dc:format>image/svg+xml</dc:format>
    <dc:type rdf:resource="http://purl.org/dc/dcmitype/StillImage"/>
    <dc:title/>
   </cc:Work>
  </rdf:RDF>
 </metadata>
 <circle cx="8.4937" cy="8.46" r="7.9377" filter="url(#filter11290)" opacity=".25" stroke-width=".14032"/>
 <path d="m16.439 8.46c0 0.95154-0.16749 1.8639-0.47464 2.7094-0.21351 0.58768-0.49439 1.1433-0.83393 1.6572-0.14222 0.21608-0.29514 0.42475-0.45746 0.62529-0.51966 0.64179-1.1372 1.2007-1.8305 1.6543-0.2553 0.16718-0.52065 0.3201-0.79536 0.45712-1.0668 0.53389-2.2711 0.83421-3.5456 0.83421s-2.4788-0.30032-3.5456-0.83424c-0.27474-0.13705-0.5404-0.28997-0.7957-0.45712-0.70207-0.45973-1.327-1.0274-1.8509-1.6798-0.16263-0.20216-0.31524-0.41275-0.45746-0.63078-0.33046-0.5054-0.60421-1.0507-0.8135-1.627-0.30711-0.84529-0.4743-1.7573-0.4743-2.7085 0-4.3838 3.5537-7.9375 7.9375-7.9375 2.2005 0 4.1917 0.89548 5.6295 2.3417 0.41436 0.41662 0.78274 0.87929 1.0963 1.3795 0.29645 0.47107 0.54428 0.97582 0.73704 1.5068 0.30718 0.84559 0.47467 1.7579 0.47467 2.7094z" fill="#fafafa" stroke-width=".031006"/>
 <g fill="#5e4aa6">
  <circle cx="-330.35" cy="-328.38" r="0" stroke-width=".26458"/>
  <g stroke-width=".26458">
   <circle cx="-299.17" cy="-337.27" r="0"/>
   <circle cx="-299.81" cy="-339.42" r="0"/>
   <circle cx="-302.25" cy="-338.13" r="0"/>
   <circle cx="-301.89" cy="-335.91" r="0"/>
   <circle cx="-304.76" cy="-351.05" r="0"/>
  </g>
 </g>
 <g transform="matrix(.26458 0 0 .26458 .034849 -.00651)" fill="url(#linearGradient886)" aria-label="Aa">
  <path d="m18.758 34.229 1.294-4.0258c0.93457-2.9834 1.7972-5.8231 2.624-8.9144h0.14378c0.86268 3.0553 1.6894 5.9309 2.6599 8.9144l1.2581 4.0258zm11.323 10.712h3.5226l-8.9503-26.348h-3.7023l-8.9503 26.348h3.3788l2.5521-8.0517h9.6332z"/>
  <path d="m42.439 45.407c2.4083 0 4.601-1.2581 6.4701-2.8037h0.10784l0.28756 2.3364h2.6959v-12.006c0-4.8166-2.0129-8.0157-6.7577-8.0157-3.1272 0-5.895 1.4019-7.6922 2.5521l1.294 2.2645c1.5456-1.0424 3.5945-2.0848 5.859-2.0848 3.1991 0 4.0258 2.4083 4.0258 4.9245-8.3033 0.93457-12.006 3.0553-12.006 7.2968 0 3.5226 2.4443 5.5355 5.7152 5.5355zm0.93457-2.624c-1.941 0-3.4507-0.89862-3.4507-3.1272 0-2.5161 2.2286-4.1337 8.8065-4.9245v5.4636c-1.9051 1.6894-3.4507 2.588-5.3558 2.588z"/>
 </g>
</svg>
