<?xml version="1.0" encoding="UTF-8"?>
<svg width="64" height="64" version="1.1" viewBox="0 0 16.933 16.933" xmlns="http://www.w3.org/2000/svg" xmlns:cc="http://creativecommons.org/ns#" xmlns:dc="http://purl.org/dc/elements/1.1/" xmlns:rdf="http://www.w3.org/1999/02/22-rdf-syntax-ns#">
 <metadata>
  <rdf:RDF>
   <cc:Work rdf:about="">
    <dc:format>image/svg+xml</dc:format>
    <dc:type rdf:resource="http://purl.org/dc/dcmitype/StillImage"/>
    <dc:title/>
   </cc:Work>
  </rdf:RDF>
 </metadata>
 <defs>
  <filter id="filter11290" x="-.024" y="-.024" width="1.048" height="1.048" color-interpolation-filters="sRGB">
   <feGaussianBlur stdDeviation="0.15875313"/>
  </filter>
  <linearGradient id="linearGradient1307" x1="16.393" x2=".60977" y1=".69761" y2="16.375" gradientTransform="translate(-.034922 .0065691)" gradientUnits="userSpaceOnUse">
   <stop stop-color="#ffdc32" offset="0"/>
   <stop stop-color="#ff7832" offset="1"/>
  </linearGradient>
 </defs>
 <circle cx="8.4665" cy="8.4665" r="7.9377" filter="url(#filter11290)" opacity=".25" stroke-width=".14032"/>
 <path d="m16.404 8.4666c0 0.95153-0.16749 1.8639-0.47465 2.7093-0.21351 0.58768-0.49439 1.1433-0.83392 1.6572-0.14222 0.21608-0.29514 0.42475-0.45746 0.62528-0.51966 0.64179-1.1372 1.2007-1.8305 1.6543-0.2553 0.16718-0.52064 0.32011-0.79538 0.45711-1.0668 0.53389-2.2711 0.83422-3.5456 0.83422-1.2745 0-2.4788-0.30032-3.5456-0.83424-0.27474-0.13705-0.5404-0.28998-0.79569-0.45711-0.70208-0.45973-1.327-1.0274-1.8509-1.6798-0.16263-0.20216-0.31524-0.41274-0.45746-0.63078-0.33046-0.5054-0.60422-1.0507-0.8135-1.627-0.30712-0.8453-0.47431-1.7573-0.47431-2.7085 0-4.3838 3.5538-7.9376 7.9376-7.9376 2.2005 0 4.1917 0.89549 5.6294 2.3417 0.41436 0.41663 0.78273 0.8793 1.0963 1.3795 0.29646 0.47108 0.54429 0.97582 0.73704 1.5068 0.30718 0.84559 0.47468 1.7579 0.47468 2.7093z" fill="url(#linearGradient1307)" stroke-width=".031006"/>
 <g transform="translate(-.18104 -.005135)" aria-label="S">
  <path d="m10.898 4.8621v1.018q-0.59427-0.28421-1.1214-0.42374-0.52709-0.13952-1.018-0.13952-0.85264 0-1.3177 0.33072-0.45991 0.33072-0.45991 0.94049 0 0.51159 0.30488 0.77513 0.31005 0.25838 1.1679 0.41857l0.63044 0.12919q1.1679 0.2222 1.7208 0.78547 0.55809 0.55809 0.55809 1.4986 0 1.1214-0.75446 1.7001-0.74929 0.57876-2.2014 0.57876-0.54776 0-1.1679-0.12402-0.61494-0.12402-1.2764-0.3669v-1.0748q0.63561 0.35656 1.2454 0.53742t1.1989 0.18086q0.89398 0 1.3797-0.35139 0.48575-0.35139 0.48575-1.0025 0-0.56843-0.35139-0.88882-0.34623-0.32039-1.142-0.48058l-0.63561-0.12402q-1.1679-0.23254-1.6898-0.72862t-0.52192-1.3797q0-1.0232 0.71829-1.6123 0.72346-0.5891 1.9895-0.5891 0.54259 0 1.1059 0.098183 0.56326 0.098183 1.1524 0.29455z" fill="#fff" stroke-width=".26458"/>
 </g>
 <circle cx="-271.48" cy="-343.01" r="0" fill="#5e4aa6" stroke-width=".26458"/>
</svg>
