<?xml version="1.0" encoding="UTF-8"?>
<svg width="64" height="64" version="1.1" viewBox="0 0 16.933 16.933" xmlns="http://www.w3.org/2000/svg" xmlns:cc="http://creativecommons.org/ns#" xmlns:dc="http://purl.org/dc/elements/1.1/" xmlns:rdf="http://www.w3.org/1999/02/22-rdf-syntax-ns#" xmlns:xlink="http://www.w3.org/1999/xlink">
 <metadata>
  <rdf:RDF>
   <cc:Work rdf:about="">
    <dc:format>image/svg+xml</dc:format>
    <dc:type rdf:resource="http://purl.org/dc/dcmitype/StillImage"/>
    <dc:title/>
   </cc:Work>
  </rdf:RDF>
 </metadata>
 <defs>
  <linearGradient id="linearGradient888" x1="-81.49" x2="-76.144" y1="-33.072" y2="-23.812" gradientUnits="userSpaceOnUse">
   <stop stop-color="#f89f39" offset="0"/>
   <stop stop-color="#ff5f1c" offset="1"/>
  </linearGradient>
  <filter id="filter967" x="-.058135" y="-.061988" width="1.1163" height="1.124" color-interpolation-filters="sRGB">
   <feGaussianBlur stdDeviation="0.24586246"/>
  </filter>
  <linearGradient id="linearGradient1047" x1="-81.49" x2="-76.144" y1="-33.072" y2="-23.812" gradientUnits="userSpaceOnUse" xlink:href="#linearGradient888"/>
  <linearGradient id="linearGradient1049" x1="-81.49" x2="-76.144" y1="-33.072" y2="-23.812" gradientTransform="matrix(1.0922 0 0 1.0922 92.938 39.101)" gradientUnits="userSpaceOnUse" xlink:href="#linearGradient888"/>
  <filter id="filter11290" x="-.024" y="-.024" width="1.048" height="1.048" color-interpolation-filters="sRGB">
   <feGaussianBlur stdDeviation="0.15875313"/>
  </filter>
 </defs>
 <circle cx="8.4665" cy="8.4665" r="7.9377" filter="url(#filter11290)" opacity=".25" stroke-width=".14032"/>
 <path d="m16.404 8.4664c0 0.95154-0.16749 1.8639-0.47464 2.7094-0.21351 0.58768-0.49439 1.1433-0.83393 1.6572-0.14222 0.21608-0.29514 0.42475-0.45746 0.62529-0.51966 0.64179-1.1372 1.2007-1.8305 1.6543-0.2553 0.16718-0.52065 0.3201-0.79536 0.45712-1.0668 0.53389-2.2711 0.83421-3.5456 0.83421s-2.4788-0.30032-3.5456-0.83424c-0.27474-0.13705-0.5404-0.28997-0.7957-0.45712-0.70207-0.45973-1.327-1.0274-1.8509-1.6798-0.16263-0.20216-0.31524-0.41275-0.45746-0.63078-0.33046-0.5054-0.60421-1.0507-0.8135-1.627-0.30711-0.84529-0.4743-1.7573-0.4743-2.7085 0-4.3838 3.5537-7.9375 7.9375-7.9375 2.2005 0 4.1917 0.89548 5.6295 2.3417 0.41436 0.41662 0.78274 0.87929 1.0963 1.3795 0.29645 0.47107 0.54428 0.97582 0.73704 1.5068 0.30718 0.84559 0.47467 1.7579 0.47467 2.7094z" fill="#fafafa" stroke-width=".031006"/>
 <circle cx="-330.35" cy="-328.38" r="0" fill="#5e4aa6" stroke-width=".26458"/>
 <g transform="matrix(1.0922 0 0 1.0922 69.955 33.899)" filter="url(#filter967)">
  <g transform="translate(17.699,5.8148)">
   <path d="m-74.346-32.808a0.92602 0.92602 0 0 0-0.06563 0.0021 0.92602 0.92602 0 0 0-0.09198 0.01137 0.92602 0.92602 0 0 0-0.08992 0.02015 0.92602 0.92602 0 0 0-0.08785 0.02945 0.92602 0.92602 0 0 0-0.08475 0.03772 0.92602 0.92602 0 0 0-0.0801 0.04599 0.92602 0.92602 0 0 0-0.07545 0.05374 0.92602 0.92602 0 0 0-0.06925 0.06149 0.92602 0.92602 0 0 0-0.06356 0.0677 0.92602 0.92602 0 0 0-0.05581 0.07338 0.92602 0.92602 0 0 0-0.04858 0.07906 0.92602 0.92602 0 0 0-0.04031 0.0832 0.92602 0.92602 0 0 0-0.03152 0.08681 0.92602 0.92602 0 0 0-0.02274 0.08992 0.92602 0.92602 0 0 0-0.01395 0.09146 0.92602 0.92602 0 0 0-0.0047 0.0925v6.6145a0.92602 0.92602 0 0 0 0.0021 0.06563 0.92602 0.92602 0 0 0 0.01137 0.09198 0.92602 0.92602 0 0 0 0.02015 0.08992 0.92602 0.92602 0 0 0 0.02946 0.08785 0.92602 0.92602 0 0 0 0.03772 0.08475 0.92602 0.92602 0 0 0 0.04599 0.0801 0.92602 0.92602 0 0 0 0.05374 0.07545 0.92602 0.92602 0 0 0 0.06149 0.06924 0.92602 0.92602 0 0 0 0.0677 0.06356 0.92602 0.92602 0 0 0 0.07338 0.05581 0.92602 0.92602 0 0 0 0.07906 0.04857 0.92602 0.92602 0 0 0 0.0832 0.04031 0.92602 0.92602 0 0 0 0.08681 0.03152 0.92602 0.92602 0 0 0 0.08992 0.02274 0.92602 0.92602 0 0 0 0.09146 0.01395 0.92602 0.92602 0 0 0 0.0925 0.0047h4.4978a0.92602 0.92602 0 0 0 0.06563-0.0021 0.92602 0.92602 0 0 0 0.09198-0.01137 0.92602 0.92602 0 0 0 0.08992-0.02015 0.92602 0.92602 0 0 0 0.08785-0.02945 0.92602 0.92602 0 0 0 0.08475-0.03772 0.92602 0.92602 0 0 0 0.0801-0.04599 0.92602 0.92602 0 0 0 0.07545-0.05374 0.92602 0.92602 0 0 0 0.06976-0.06098 0.92602 0.92602 0 0 0 0.06304-0.06821 0.92602 0.92602 0 0 0 0.05581-0.07338 0.92602 0.92602 0 0 0 0.04858-0.07906 0.92602 0.92602 0 0 0 0.04031-0.0832 0.92602 0.92602 0 0 0 0.03152-0.08681 0.92602 0.92602 0 0 0 0.02274-0.08992 0.92602 0.92602 0 0 0 0.01395-0.09146 0.92602 0.92602 0 0 0 0.0047-0.0925v-6.6145a0.92602 0.92602 0 0 0-0.0021-0.06563 0.92602 0.92602 0 0 0-0.01137-0.09198 0.92602 0.92602 0 0 0-0.02015-0.08992 0.92602 0.92602 0 0 0-0.02946-0.08785 0.92602 0.92602 0 0 0-0.03772-0.08475 0.92602 0.92602 0 0 0-0.04599-0.0801 0.92602 0.92602 0 0 0-0.05374-0.07545 0.92602 0.92602 0 0 0-0.06098-0.06925 0.92602 0.92602 0 0 0-0.06821-0.06356 0.92602 0.92602 0 0 0-0.07338-0.05581 0.92602 0.92602 0 0 0-0.07906-0.04858 0.92602 0.92602 0 0 0-0.0832-0.04031 0.92602 0.92602 0 0 0-0.08681-0.03152 0.92602 0.92602 0 0 0-0.08992-0.02274 0.92602 0.92602 0 0 0-0.09146-0.01395 0.92602 0.92602 0 0 0-0.0925-0.0047z" fill="#fcc105"/>
   <path d="m-72.098-30.036a1.4616 1.4616 0 0 0-1.4614 1.4614 1.4616 1.4616 0 0 0 1.4614 1.4614 1.4616 1.4616 0 0 0 1.4614-1.4614 1.4616 1.4616 0 0 0-1.4614-1.4614zm0.78185 0.72036 0.24701 0.24701-1.2345 1.235-0.82319-0.82319 0.24649-0.24701 0.5767 0.57618z" fill="#fff"/>
  </g>
  <g transform="translate(21.043,4.7624)">
   <path d="m-81.49-32.808a0.92602 0.92602 0 0 0-0.06563 0.0021 0.92602 0.92602 0 0 0-0.09198 0.01137 0.92602 0.92602 0 0 0-0.08992 0.02015 0.92602 0.92602 0 0 0-0.08785 0.02945 0.92602 0.92602 0 0 0-0.08475 0.03772 0.92602 0.92602 0 0 0-0.0801 0.04599 0.92602 0.92602 0 0 0-0.07545 0.05374 0.92602 0.92602 0 0 0-0.06925 0.06149 0.92602 0.92602 0 0 0-0.06356 0.0677 0.92602 0.92602 0 0 0-0.05581 0.07338 0.92602 0.92602 0 0 0-0.04858 0.07906 0.92602 0.92602 0 0 0-0.04031 0.0832 0.92602 0.92602 0 0 0-0.03152 0.08681 0.92602 0.92602 0 0 0-0.02274 0.08992 0.92602 0.92602 0 0 0-0.01395 0.09146 0.92602 0.92602 0 0 0-0.0047 0.0925v6.6145a0.92602 0.92602 0 0 0 0.0021 0.06563 0.92602 0.92602 0 0 0 0.01137 0.09198 0.92602 0.92602 0 0 0 0.02015 0.08992 0.92602 0.92602 0 0 0 0.02946 0.08785 0.92602 0.92602 0 0 0 0.03772 0.08475 0.92602 0.92602 0 0 0 0.04599 0.0801 0.92602 0.92602 0 0 0 0.05374 0.07545 0.92602 0.92602 0 0 0 0.06149 0.06924 0.92602 0.92602 0 0 0 0.0677 0.06356 0.92602 0.92602 0 0 0 0.07338 0.05581 0.92602 0.92602 0 0 0 0.07906 0.04857 0.92602 0.92602 0 0 0 0.0832 0.04031 0.92602 0.92602 0 0 0 0.08681 0.03152 0.92602 0.92602 0 0 0 0.08992 0.02274 0.92602 0.92602 0 0 0 0.09146 0.01395 0.92602 0.92602 0 0 0 0.0925 0.0047h4.4978a0.92602 0.92602 0 0 0 0.06563-0.0021 0.92602 0.92602 0 0 0 0.09198-0.01137 0.92602 0.92602 0 0 0 0.08992-0.02015 0.92602 0.92602 0 0 0 0.08785-0.02945 0.92602 0.92602 0 0 0 0.08475-0.03772 0.92602 0.92602 0 0 0 0.0801-0.04599 0.92602 0.92602 0 0 0 0.07545-0.05374 0.92602 0.92602 0 0 0 0.06976-0.06098 0.92602 0.92602 0 0 0 0.06304-0.06821 0.92602 0.92602 0 0 0 0.05581-0.07338 0.92602 0.92602 0 0 0 0.04858-0.07906 0.92602 0.92602 0 0 0 0.04031-0.0832 0.92602 0.92602 0 0 0 0.03152-0.08681 0.92602 0.92602 0 0 0 0.02274-0.08992 0.92602 0.92602 0 0 0 0.01395-0.09146 0.92602 0.92602 0 0 0 0.0047-0.0925v-6.6145a0.92602 0.92602 0 0 0-0.0021-0.06563 0.92602 0.92602 0 0 0-0.01137-0.09198 0.92602 0.92602 0 0 0-0.02015-0.08992 0.92602 0.92602 0 0 0-0.02946-0.08785 0.92602 0.92602 0 0 0-0.03772-0.08475 0.92602 0.92602 0 0 0-0.04599-0.0801 0.92602 0.92602 0 0 0-0.05374-0.07545 0.92602 0.92602 0 0 0-0.06098-0.06925 0.92602 0.92602 0 0 0-0.06821-0.06356 0.92602 0.92602 0 0 0-0.07338-0.05581 0.92602 0.92602 0 0 0-0.07906-0.04858 0.92602 0.92602 0 0 0-0.0832-0.04031 0.92602 0.92602 0 0 0-0.08681-0.03152 0.92602 0.92602 0 0 0-0.08992-0.02274 0.92602 0.92602 0 0 0-0.09146-0.01395 0.92602 0.92602 0 0 0-0.0925-0.0047z" fill="url(#linearGradient1047)"/>
   <g transform="translate(.0010063 .094556)" fill="#fff">
    <rect x="-81.218" y="-30.891" width="3.9522" height=".4911"/>
    <rect x="-81.218" y="-29.573" width="3.9522" height=".4911"/>
    <rect x="-81.218" y="-28.256" width="3.9522" height=".4911"/>
    <rect x="-81.218" y="-26.938" width="3.9522" height=".4911"/>
   </g>
  </g>
 </g>
 <path d="m8.0853 4.4175a1.0114 1.0114 0 0 0-0.071681 0.00229 1.0114 1.0114 0 0 0-0.10046 0.012418 1.0114 1.0114 0 0 0-0.098211 0.022008 1.0114 1.0114 0 0 0-0.09595 0.032165 1.0114 1.0114 0 0 0-0.092564 0.041198 1.0114 1.0114 0 0 0-0.087485 0.05023 1.0114 1.0114 0 0 0-0.082407 0.058695 1.0114 1.0114 0 0 0-0.075635 0.067159 1.0114 1.0114 0 0 0-0.06942 0.073942 1.0114 1.0114 0 0 0-0.060956 0.080146 1.0114 1.0114 0 0 0-0.053059 0.086349 1.0114 1.0114 0 0 0-0.044027 0.090871 1.0114 1.0114 0 0 0-0.034426 0.094814 1.0114 1.0114 0 0 0-0.024837 0.098211 1.0114 1.0114 0 0 0-0.015236 0.099893 1.0114 1.0114 0 0 0-0.00513 0.10103v7.2244a1.0114 1.0114 0 0 0 0.00229 0.07168 1.0114 1.0114 0 0 0 0.012418 0.10046 1.0114 1.0114 0 0 0 0.022008 0.09821 1.0114 1.0114 0 0 0 0.032176 0.09595 1.0114 1.0114 0 0 0 0.041198 0.09256 1.0114 1.0114 0 0 0 0.05023 0.08749 1.0114 1.0114 0 0 0 0.058695 0.08241 1.0114 1.0114 0 0 0 0.067159 0.07562 1.0114 1.0114 0 0 0 0.073942 0.06942 1.0114 1.0114 0 0 0 0.080146 0.06096 1.0114 1.0114 0 0 0 0.086349 0.05305 1.0114 1.0114 0 0 0 0.090871 0.04403 1.0114 1.0114 0 0 0 0.094814 0.03443 1.0114 1.0114 0 0 0 0.098211 0.02484 1.0114 1.0114 0 0 0 0.099893 0.01524 1.0114 1.0114 0 0 0 0.10103 0.0051h4.9125a1.0114 1.0114 0 0 0 0.07168-0.0023 1.0114 1.0114 0 0 0 0.10046-0.01242 1.0114 1.0114 0 0 0 0.09821-0.02201 1.0114 1.0114 0 0 0 0.09595-0.03216 1.0114 1.0114 0 0 0 0.09256-0.0412 1.0114 1.0114 0 0 0 0.08749-0.05023 1.0114 1.0114 0 0 0 0.08241-0.0587 1.0114 1.0114 0 0 0 0.07619-0.0666 1.0114 1.0114 0 0 0 0.06885-0.0745 1.0114 1.0114 0 0 0 0.06096-0.08015 1.0114 1.0114 0 0 0 0.05306-0.08635 1.0114 1.0114 0 0 0 0.04403-0.09087 1.0114 1.0114 0 0 0 0.03443-0.09481 1.0114 1.0114 0 0 0 0.02484-0.09821 1.0114 1.0114 0 0 0 0.01524-0.09989 1.0114 1.0114 0 0 0 0.0051-0.10103v-7.2243a1.0114 1.0114 0 0 0-0.0023-0.071681 1.0114 1.0114 0 0 0-0.01242-0.10046 1.0114 1.0114 0 0 0-0.02201-0.098211 1.0114 1.0114 0 0 0-0.03218-0.09595 1.0114 1.0114 0 0 0-0.0412-0.092564 1.0114 1.0114 0 0 0-0.05023-0.087485 1.0114 1.0114 0 0 0-0.0587-0.082407 1.0114 1.0114 0 0 0-0.0666-0.075635 1.0114 1.0114 0 0 0-0.0745-0.06942 1.0114 1.0114 0 0 0-0.08015-0.060956 1.0114 1.0114 0 0 0-0.08635-0.053059 1.0114 1.0114 0 0 0-0.09087-0.044027 1.0114 1.0114 0 0 0-0.09481-0.034426 1.0114 1.0114 0 0 0-0.09821-0.024837 1.0114 1.0114 0 0 0-0.09989-0.015236 1.0114 1.0114 0 0 0-0.10103-0.00513z" fill="#fcc105" stroke-width="1.0922"/>
 <g transform="matrix(1.2615 0 0 1.2615 21.503 -1.4734)" fill="#fff" stroke-width=".26458">
  <path d="m-7.6312 7.2759c-0.21918 0-0.39687 0.17768-0.39687 0.39688 0 0.21918 0.17769 0.39686 0.39687 0.39686 0.21919 0 0.39688-0.17769 0.39688-0.39686 0-0.21919-0.17769-0.39688-0.39688-0.39688z" color="#000000"/>
  <path d="m-9.0229 7.4611-1.1217 1.9328h2.5503l-0.74537-1.4286-0.21007 0.40266z" color="#000000"/>
 </g>
 <path d="m3.9349 3.268a1.0114 1.0114 0 0 0-0.071681 0.00229 1.0114 1.0114 0 0 0-0.10046 0.012418 1.0114 1.0114 0 0 0-0.098211 0.022008 1.0114 1.0114 0 0 0-0.09595 0.032165 1.0114 1.0114 0 0 0-0.092564 0.041198 1.0114 1.0114 0 0 0-0.087485 0.05023 1.0114 1.0114 0 0 0-0.082407 0.058695 1.0114 1.0114 0 0 0-0.075635 0.067159 1.0114 1.0114 0 0 0-0.06942 0.073942 1.0114 1.0114 0 0 0-0.060956 0.080146 1.0114 1.0114 0 0 0-0.053059 0.086349 1.0114 1.0114 0 0 0-0.044027 0.090871 1.0114 1.0114 0 0 0-0.034426 0.094814 1.0114 1.0114 0 0 0-0.024837 0.098211 1.0114 1.0114 0 0 0-0.015236 0.099893 1.0114 1.0114 0 0 0-0.00513 0.10103v7.2244a1.0114 1.0114 0 0 0 0.00229 0.07168 1.0114 1.0114 0 0 0 0.012418 0.10046 1.0114 1.0114 0 0 0 0.022008 0.09821 1.0114 1.0114 0 0 0 0.032176 0.09595 1.0114 1.0114 0 0 0 0.041198 0.09256 1.0114 1.0114 0 0 0 0.05023 0.08748 1.0114 1.0114 0 0 0 0.058695 0.08241 1.0114 1.0114 0 0 0 0.067159 0.07562 1.0114 1.0114 0 0 0 0.073942 0.06942 1.0114 1.0114 0 0 0 0.080146 0.06096 1.0114 1.0114 0 0 0 0.086349 0.05305 1.0114 1.0114 0 0 0 0.090871 0.04403 1.0114 1.0114 0 0 0 0.094814 0.03443 1.0114 1.0114 0 0 0 0.098211 0.02484 1.0114 1.0114 0 0 0 0.099893 0.01524 1.0114 1.0114 0 0 0 0.10103 0.0051h4.9125a1.0114 1.0114 0 0 0 0.071681-0.0023 1.0114 1.0114 0 0 0 0.10046-0.01242 1.0114 1.0114 0 0 0 0.098211-0.02201 1.0114 1.0114 0 0 0 0.09595-0.03217 1.0114 1.0114 0 0 0 0.092564-0.0412 1.0114 1.0114 0 0 0 0.087485-0.05023 1.0114 1.0114 0 0 0 0.082406-0.0587 1.0114 1.0114 0 0 0 0.076192-0.0666 1.0114 1.0114 0 0 0 0.068852-0.0745 1.0114 1.0114 0 0 0 0.060956-0.08015 1.0114 1.0114 0 0 0 0.053059-0.08635 1.0114 1.0114 0 0 0 0.044026-0.09087 1.0114 1.0114 0 0 0 0.034426-0.09481 1.0114 1.0114 0 0 0 0.024837-0.09821 1.0114 1.0114 0 0 0 0.015236-0.09989 1.0114 1.0114 0 0 0 0.00513-0.10103v-7.2243a1.0114 1.0114 0 0 0-0.00229-0.071681 1.0114 1.0114 0 0 0-0.012418-0.10046 1.0114 1.0114 0 0 0-0.022008-0.098211 1.0114 1.0114 0 0 0-0.032176-0.09595 1.0114 1.0114 0 0 0-0.041198-0.092564 1.0114 1.0114 0 0 0-0.05023-0.087485 1.0114 1.0114 0 0 0-0.058695-0.082407 1.0114 1.0114 0 0 0-0.066602-0.075635 1.0114 1.0114 0 0 0-0.074499-0.06942 1.0114 1.0114 0 0 0-0.080146-0.060956 1.0114 1.0114 0 0 0-0.086349-0.053059 1.0114 1.0114 0 0 0-0.090871-0.044026 1.0114 1.0114 0 0 0-0.094814-0.034426 1.0114 1.0114 0 0 0-0.098211-0.024837 1.0114 1.0114 0 0 0-0.099893-0.015236 1.0114 1.0114 0 0 0-0.10103-0.00513z" fill="url(#linearGradient1049)" stroke-width="1.0922"/>
 <g transform="matrix(1.0922 0 0 1.0922 92.939 39.204)" fill="#fff">
  <rect x="-81.218" y="-30.891" width="3.9522" height=".4911"/>
  <rect x="-81.218" y="-29.573" width="3.9522" height=".4911"/>
  <rect x="-81.218" y="-28.256" width="3.9522" height=".4911"/>
  <rect x="-81.218" y="-26.938" width="3.9522" height=".4911"/>
 </g>
 <circle cx="-271.33" cy="-342.94" r="0" fill="#5e4aa6" stroke-width=".26458"/>
</svg>
