<?xml version="1.0" encoding="UTF-8"?>
<!-- Created with Inkscape (http://www.inkscape.org/) -->
<svg width="64" height="64" version="1.1" viewBox="0 0 16.933 16.933" xmlns="http://www.w3.org/2000/svg" xmlns:cc="http://creativecommons.org/ns#" xmlns:dc="http://purl.org/dc/elements/1.1/" xmlns:rdf="http://www.w3.org/1999/02/22-rdf-syntax-ns#" xmlns:xlink="http://www.w3.org/1999/xlink">
 <defs>
  <filter id="filter11290" x="-.024" y="-.024" width="1.048" height="1.048" color-interpolation-filters="sRGB">
   <feGaussianBlur stdDeviation="0.15875313"/>
  </filter>
  <linearGradient id="linearGradient1307" x1="16.393" x2=".60977" y1=".69761" y2="16.375" gradientUnits="userSpaceOnUse">
   <stop stop-color="#ffdc32" offset="0"/>
   <stop stop-color="#ff7832" offset="1"/>
  </linearGradient>
  <linearGradient id="linearGradient32549" x1="-6.1472" x2="-6.1472" y1="-137.82" y2="-100.78" gradientTransform="matrix(.074691 0 0 .074691 19.9 13.844)" gradientUnits="userSpaceOnUse">
   <stop stop-color="#32b4ff" offset="0"/>
   <stop stop-color="#3287ff" offset="1"/>
  </linearGradient>
  <linearGradient id="linearGradient32551" x1="-6.1472" x2="-6.1472" y1="-140.25" y2="-98.292" gradientTransform="matrix(.074691 0 0 .074691 22.001 19.89)" gradientUnits="userSpaceOnUse">
   <stop stop-color="#ff3c69" offset="0"/>
   <stop stop-color="#ff462b" offset="1"/>
  </linearGradient>
  <linearGradient id="linearGradient957" x1="-6.1472" x2="-6.1472" y1="-137.82" y2="-100.78" gradientTransform="matrix(.049218 0 0 .049218 17.106 12.104)" gradientUnits="userSpaceOnUse">
   <stop stop-color="#14dc78" offset="0"/>
   <stop stop-color="#14a03c" offset="1"/>
  </linearGradient>
  <linearGradient id="linearGradient961" x1="-6.1472" x2="-6.1472" y1="-137.82" y2="-100.78" gradientTransform="matrix(.049218 0 0 .049218 22.196 12.154)" gradientUnits="userSpaceOnUse">
   <stop stop-color="#dc28e6" offset="0"/>
   <stop stop-color="#8c14e6" offset="1"/>
  </linearGradient>
  <linearGradient id="linearGradient963" x1="-6.1472" x2="-6.1472" y1="-137.82" y2="-100.78" gradientTransform="matrix(.074691 0 0 .074691 16.276 17.67)" gradientUnits="userSpaceOnUse">
   <stop stop-color="#ffbe14" offset="0"/>
   <stop stop-color="#ff8214" offset="1"/>
  </linearGradient>
  <filter id="filter967" x="-.06" y="-.06" width="1.12" height="1.12" color-interpolation-filters="sRGB">
   <feGaussianBlur stdDeviation="0.30802875"/>
  </filter>
 </defs>
 <metadata>
  <rdf:RDF>
   <cc:Work rdf:about="">
    <dc:format>image/svg+xml</dc:format>
    <dc:type rdf:resource="http://purl.org/dc/dcmitype/StillImage"/>
    <dc:title/>
   </cc:Work>
  </rdf:RDF>
 </metadata>
 <circle cx="8.4937" cy="8.46" r="7.9377" filter="url(#filter11290)" opacity=".25" stroke-width=".14032"/>
 <path d="m16.439 8.46c0 0.95154-0.16749 1.8639-0.47464 2.7094-0.21351 0.58768-0.49439 1.1433-0.83393 1.6572-0.14222 0.21608-0.29514 0.42475-0.45746 0.62529-0.51966 0.64179-1.1372 1.2007-1.8305 1.6543-0.2553 0.16718-0.52065 0.3201-0.79536 0.45712-1.0668 0.53389-2.2711 0.83421-3.5456 0.83421s-2.4788-0.30032-3.5456-0.83424c-0.27474-0.13705-0.5404-0.28997-0.7957-0.45712-0.70207-0.45973-1.327-1.0274-1.8509-1.6798-0.16263-0.20216-0.31524-0.41275-0.45746-0.63078-0.33046-0.5054-0.60421-1.0507-0.8135-1.627-0.30711-0.84529-0.4743-1.7573-0.4743-2.7085 0-4.3838 3.5537-7.9375 7.9375-7.9375 2.2005 0 4.1917 0.89548 5.6295 2.3417 0.41436 0.41662 0.78274 0.87929 1.0963 1.3795 0.29645 0.47107 0.54428 0.97582 0.73704 1.5068 0.30718 0.84559 0.47467 1.7579 0.47467 2.7094z" fill="url(#linearGradient1307)" stroke-width=".031006"/>
 <circle cx="-330.35" cy="-328.38" r="0" fill="#5e4aa6" stroke-width=".26458"/>
 <g transform="translate(-10.778 -.050874)">
  <circle transform="matrix(.88561 0 0 -.88561 11.78 1.1373)" cx="8.4674" cy="-8.326" r="6.1606" color="#000000" fill="#ff7832" filter="url(#filter967)"/>
  <circle transform="scale(1,-1)" cx="19.279" cy="-8.511" r="5.4559" color="#000000" fill="#fff" stroke-width=".88561"/>
  <g transform="matrix(.88561 0 0 .88561 77.14 3.2412)" fill="#fff">
   <rect x="-65.48" y="1.0425" width=".29232" height=".71911"/>
   <rect x="-65.48" y="10.139" width=".29232" height=".71911"/>
   <rect transform="rotate(30)" x="-53.751" y="32.912" width=".29232" height=".71911"/>
   <rect transform="rotate(30)" x="-53.751" y="42.009" width=".29232" height=".71911"/>
   <rect transform="rotate(60)" x="-27.66" y="54.648" width=".29232" height=".71911"/>
   <rect transform="rotate(60)" x="-27.66" y="63.745" width=".29232" height=".71911"/>
   <rect transform="rotate(90)" x="5.8044" y="60.426" width=".29232" height=".71911"/>
   <rect transform="rotate(90)" x="5.8044" y="69.523" width=".29232" height=".71911"/>
   <rect transform="rotate(120)" x="37.674" y="48.697" width=".29232" height=".71911"/>
   <rect transform="rotate(120)" x="37.674" y="57.794" width=".29232" height=".71911"/>
   <rect transform="rotate(150)" x="59.41" y="22.605" width=".29232" height=".71911"/>
   <rect transform="rotate(150)" x="59.41" y="31.702" width=".29232" height=".71911"/>
  </g>
  <circle cx="15.848" cy="8.7228" r="1.1179" fill="url(#linearGradient963)" stroke-width=".019762"/>
  <circle cx="19.472" cy="4.8973" r="1.1179" fill="url(#linearGradient32549)" stroke-width=".88561" style="paint-order:normal"/>
  <circle cx="21.573" cy="10.943" r="1.1179" fill="url(#linearGradient32551)" stroke-width=".019762"/>
  <circle cx="16.824" cy="6.2083" r=".73665" fill="url(#linearGradient957)" stroke-width=".013023"/>
  <circle cx="21.914" cy="6.2584" r=".73665" fill="url(#linearGradient961)" stroke-width=".013023"/>
 </g>
</svg>
