<?xml version="1.0" encoding="UTF-8"?>
<svg width="64" height="64" version="1.1" viewBox="0 0 16.933 16.933" xmlns="http://www.w3.org/2000/svg" xmlns:cc="http://creativecommons.org/ns#" xmlns:dc="http://purl.org/dc/elements/1.1/" xmlns:rdf="http://www.w3.org/1999/02/22-rdf-syntax-ns#">
 <metadata>
  <rdf:RDF>
   <cc:Work rdf:about="">
    <dc:format>image/svg+xml</dc:format>
    <dc:type rdf:resource="http://purl.org/dc/dcmitype/StillImage"/>
    <dc:title/>
   </cc:Work>
  </rdf:RDF>
 </metadata>
 <defs>
  <filter id="filter855" x="-.059067" y="-.060963" width="1.1181" height="1.1219" color-interpolation-filters="sRGB">
   <feGaussianBlur stdDeviation="0.2154143"/>
  </filter>
  <filter id="filter11290" x="-.024" y="-.024" width="1.048" height="1.048" color-interpolation-filters="sRGB">
   <feGaussianBlur stdDeviation="0.15875313"/>
  </filter>
 </defs>
 <circle cx="8.4665" cy="8.4665" r="7.9377" filter="url(#filter11290)" opacity=".25" stroke-width=".14032"/>
 <path d="m16.404 8.4664c0 0.95154-0.16749 1.8639-0.47464 2.7094-0.21351 0.58768-0.49439 1.1433-0.83393 1.6572-0.14222 0.21608-0.29514 0.42475-0.45746 0.62529-0.51966 0.64179-1.1372 1.2007-1.8305 1.6543-0.2553 0.16718-0.52065 0.3201-0.79536 0.45712-1.0668 0.53389-2.2711 0.83421-3.5456 0.83421s-2.4788-0.30032-3.5456-0.83424c-0.27474-0.13705-0.5404-0.28997-0.7957-0.45712-0.70207-0.45973-1.327-1.0274-1.8509-1.6798-0.16263-0.20216-0.31524-0.41275-0.45746-0.63078-0.33046-0.5054-0.60421-1.0507-0.8135-1.627-0.30711-0.84529-0.4743-1.7573-0.4743-2.7085 0-4.3838 3.5537-7.9375 7.9375-7.9375 2.2005 0 4.1917 0.89548 5.6295 2.3417 0.41436 0.41662 0.78274 0.87929 1.0963 1.3795 0.29645 0.47107 0.54428 0.97582 0.73704 1.5068 0.30718 0.84559 0.47467 1.7579 0.47467 2.7094z" fill="#fafafa" stroke-width=".031006"/>
 <g transform="matrix(1.4186 0 0 1.4186 -7.9577 -422.12)" filter="url(#filter855)">
  <g stroke-width=".57432">
   <path d="m11.15 307.77c2.6769-0.34724 5.3572-3.7582 4.7049-5.4512-0.37742-1.607-5.0847-4.1763-6.9323-2.4509-2.5258 2.2658-0.64776 8.1044 2.2273 7.9022z" fill="#389cf4"/>
   <path d="m7.5629 305.39c1.6391 2.1446 5.9332 2.7604 7.0734 1.349 1.2029-1.1303 1.0744-6.4916-1.3436-7.229-3.2251-1.0545-7.3425 3.4912-5.7298 5.88z" fill="#dc28eb" opacity=".8"/>
  </g>
  <path d="m10.303 303.89c0 0.76057 0.01435 1.026-0.47356 1.026s-0.87538 0.15785-0.87538 0.60271c0 0.44485 0.45921 0.66011 0.74621 0.66011 0.28701 0 0.85385-0.2009 0.85385-0.80362v-2.7265l2.4395-0.56683v2.088s0.0287 0.25114-0.29418 0.25114c-0.32287 0-1.0332-0.0933-1.0332 0.58838 0 0.68162 0.68882 0.63858 0.79644 0.63858 0.10763 0 0.80362-0.11479 0.80362-0.92559v-3.8316l-2.9776 0.57402z" fill="#fff" stroke-width=".16674"/>
 </g>
 <g transform="matrix(1.4186 0 0 1.4186 -7.9577 -422.12)">
  <g stroke-width=".57432">
   <path d="m11.15 307.77c2.6769-0.34724 5.3572-3.7582 4.7049-5.4512-0.37742-1.607-5.0847-4.1763-6.9323-2.4509-2.5258 2.2658-0.64776 8.1044 2.2273 7.9022z" fill="#389cf4"/>
   <path d="m7.5629 305.39c1.6391 2.1446 5.9332 2.7604 7.0734 1.349 1.2029-1.1303 1.0744-6.4916-1.3436-7.229-3.2251-1.0545-7.3425 3.4912-5.7298 5.88z" fill="#dc28eb" opacity=".8"/>
  </g>
  <path d="m10.303 303.89c0 0.76057 0.01435 1.026-0.47356 1.026s-0.87538 0.15785-0.87538 0.60271c0 0.44485 0.45921 0.66011 0.74621 0.66011 0.28701 0 0.85385-0.2009 0.85385-0.80362v-2.7265l2.4395-0.56683v2.088s0.0287 0.25114-0.29418 0.25114c-0.32287 0-1.0332-0.0933-1.0332 0.58838 0 0.68162 0.68882 0.63858 0.79644 0.63858 0.10763 0 0.80362-0.11479 0.80362-0.92559v-3.8316l-2.9776 0.57402z" fill="#fff" stroke-width=".16674"/>
 </g>
 <circle cx="-272.47" cy="-341.36" r="0" fill="#5e4aa6" stroke-width=".26458"/>
</svg>
