<?xml version="1.0" encoding="UTF-8" standalone="no"?>
<svg
   xmlns:dc="http://purl.org/dc/elements/1.1/"
   xmlns:cc="http://creativecommons.org/ns#"
   xmlns:rdf="http://www.w3.org/1999/02/22-rdf-syntax-ns#"
   xmlns:svg="http://www.w3.org/2000/svg"
   xmlns="http://www.w3.org/2000/svg"
   xmlns:xlink="http://www.w3.org/1999/xlink"
   xmlns:sodipodi="http://sodipodi.sourceforge.net/DTD/sodipodi-0.dtd"
   xmlns:inkscape="http://www.inkscape.org/namespaces/inkscape"
   width="64"
   height="64"
   version="1.1"
   viewBox="0 0 16.933 16.933"
   id="svg78"
   sodipodi:docname="gnome-sound-recorder.svg"
   inkscape:version="0.92.4 5da689c313, 2019-01-14">
  <sodipodi:namedview
     pagecolor="#ffffff"
     bordercolor="#666666"
     borderopacity="1"
     objecttolerance="10"
     gridtolerance="10"
     guidetolerance="10"
     inkscape:pageopacity="0"
     inkscape:pageshadow="2"
     inkscape:window-width="1920"
     inkscape:window-height="1005"
     id="namedview80"
     showgrid="false"
     inkscape:zoom="1.84375"
     inkscape:cx="-124.798"
     inkscape:cy="32.546247"
     inkscape:window-x="0"
     inkscape:window-y="45"
     inkscape:window-maximized="1"
     inkscape:current-layer="svg78" />
  <metadata
     id="metadata2">
    <rdf:RDF>
      <cc:Work
         rdf:about="">
        <dc:format>image/svg+xml</dc:format>
        <dc:type
           rdf:resource="http://purl.org/dc/dcmitype/StillImage" />
        <dc:title></dc:title>
      </cc:Work>
    </rdf:RDF>
  </metadata>
  <defs
     id="defs16">
    <linearGradient
       id="linearGradient1270">
      <stop
         stop-color="#dd32ec"
         offset="0"
         id="stop4" />
      <stop
         stop-color="#389cf4"
         offset="1"
         id="stop6" />
    </linearGradient>
    <filter
       id="filter2761"
       x="-.024"
       y="-.024"
       width="1.048"
       height="1.048"
       color-interpolation-filters="sRGB">
      <feGaussianBlur
         stdDeviation="0.14552168"
         id="feGaussianBlur9" />
    </filter>
    <filter
       id="filter855-1"
       x="-.059067"
       y="-.060963"
       width="1.1181"
       height="1.1219"
       color-interpolation-filters="sRGB">
      <feGaussianBlur
         stdDeviation="0.2154143"
         id="feGaussianBlur12" />
    </filter>
    <linearGradient
       id="linearGradient1272"
       x1="-30.896"
       x2="-30.896"
       y1="29.611"
       y2="39.07"
       gradientUnits="userSpaceOnUse"
       xlink:href="#linearGradient1270" />
    <filter
       color-interpolation-filters="sRGB"
       height="1.048"
       width="1.048"
       y="-.024"
       x="-.024"
       id="filter11290">
      <feGaussianBlur
         id="feGaussianBlur887"
         stdDeviation="0.15875313" />
    </filter>
    <linearGradient
       gradientUnits="userSpaceOnUse"
       gradientTransform="translate(1.8475,-2.1749)"
       y2="32.176"
       y1="32.176"
       x2="-.93244"
       x1="-9.2997"
       id="linearGradient1195">
      <stop
         id="stop890"
         offset="0"
         stop-color="#1478e6" />
      <stop
         id="stop892"
         offset="1"
         stop-color="#3c50e6" />
    </linearGradient>
    <linearGradient
       inkscape:collect="always"
       xlink:href="#linearGradient1270"
       id="linearGradient965"
       gradientUnits="userSpaceOnUse"
       x1="-30.896"
       y1="29.611"
       x2="-30.896"
       y2="39.07" />
    <linearGradient
       inkscape:collect="always"
       xlink:href="#linearGradient1270"
       id="linearGradient967"
       gradientUnits="userSpaceOnUse"
       x1="-30.896"
       y1="29.611"
       x2="-30.896"
       y2="39.07" />
    <linearGradient
       inkscape:collect="always"
       xlink:href="#linearGradient1270"
       id="linearGradient969"
       gradientUnits="userSpaceOnUse"
       x1="-30.896"
       y1="29.611"
       x2="-30.896"
       y2="39.07" />
    <linearGradient
       inkscape:collect="always"
       xlink:href="#linearGradient1270"
       id="linearGradient971"
       gradientUnits="userSpaceOnUse"
       x1="-30.896"
       y1="29.611"
       x2="-30.896"
       y2="39.07" />
    <linearGradient
       inkscape:collect="always"
       xlink:href="#linearGradient1270"
       id="linearGradient973"
       gradientUnits="userSpaceOnUse"
       x1="-30.896"
       y1="29.611"
       x2="-30.896"
       y2="39.07" />
    <linearGradient
       inkscape:collect="always"
       xlink:href="#linearGradient1270"
       id="linearGradient975"
       gradientUnits="userSpaceOnUse"
       x1="-30.896"
       y1="29.611"
       x2="-30.896"
       y2="39.07" />
    <linearGradient
       inkscape:collect="always"
       xlink:href="#linearGradient1270"
       id="linearGradient977"
       gradientUnits="userSpaceOnUse"
       x1="-30.896"
       y1="29.611"
       x2="-30.896"
       y2="39.07" />
    <linearGradient
       inkscape:collect="always"
       xlink:href="#linearGradient1270"
       id="linearGradient979"
       gradientUnits="userSpaceOnUse"
       x1="-30.896"
       y1="29.611"
       x2="-30.896"
       y2="39.07" />
    <linearGradient
       inkscape:collect="always"
       xlink:href="#linearGradient1270"
       id="linearGradient981"
       gradientUnits="userSpaceOnUse"
       x1="-30.896"
       y1="29.611"
       x2="-30.896"
       y2="39.07" />
    <linearGradient
       inkscape:collect="always"
       xlink:href="#linearGradient1270"
       id="linearGradient983"
       gradientUnits="userSpaceOnUse"
       x1="-30.896"
       y1="29.611"
       x2="-30.896"
       y2="39.07" />
    <linearGradient
       inkscape:collect="always"
       xlink:href="#linearGradient1270"
       id="linearGradient985"
       gradientUnits="userSpaceOnUse"
       x1="-30.896"
       y1="29.611"
       x2="-30.896"
       y2="39.07" />
    <linearGradient
       inkscape:collect="always"
       xlink:href="#linearGradient1270"
       id="linearGradient987"
       gradientUnits="userSpaceOnUse"
       x1="-30.896"
       y1="29.611"
       x2="-30.896"
       y2="39.07" />
    <linearGradient
       inkscape:collect="always"
       xlink:href="#linearGradient1270"
       id="linearGradient989"
       gradientUnits="userSpaceOnUse"
       x1="-30.896"
       y1="29.611"
       x2="-30.896"
       y2="39.07" />
    <linearGradient
       inkscape:collect="always"
       xlink:href="#linearGradient1270"
       id="linearGradient991"
       gradientUnits="userSpaceOnUse"
       x1="-30.896"
       y1="29.611"
       x2="-30.896"
       y2="39.07" />
  </defs>
  <circle
     style="opacity:0.25;stroke-width:0.14032;filter:url(#filter11290)"
     cx="8.4665003"
     cy="8.4665003"
     r="7.9376998"
     id="circle899" />
  <path
     style="fill:#fafafa;stroke-width:0.031006"
     inkscape:connector-curvature="0"
     d="m 16.403945,8.46645 c 0,0.95154 -0.16749,1.8639 -0.47464,2.7094 -0.21351,0.58768 -0.49439,1.1433 -0.83393,1.6572 -0.14222,0.21608 -0.29514,0.42475 -0.45746,0.62529 -0.51966,0.64179 -1.1372,1.2007 -1.8305,1.6543 -0.2553,0.16718 -0.52065,0.3201 -0.79536,0.45712 -1.0668,0.53389 -2.2711,0.83421 -3.5456,0.83421 -1.2745,0 -2.4788,-0.30032 -3.5456,-0.83424 -0.27474,-0.13705 -0.5404,-0.28997 -0.7957,-0.45712 -0.70207,-0.45973 -1.327,-1.0274 -1.8509,-1.6798 -0.16263,-0.20216 -0.31524,-0.41275 -0.45746,-0.63078 -0.33046,-0.5054 -0.60421,-1.0507 -0.8135,-1.627 -0.30711,-0.84529 -0.4743,-1.7573 -0.4743,-2.7085 0,-4.3838 3.5537,-7.9375 7.9375,-7.9375 2.2005,0 4.1917,0.89548 5.6295,2.3417 0.41436,0.41662 0.78274,0.87929 1.0963,1.3795 0.29645,0.47107 0.54428,0.97582 0.73704,1.5068 0.30718,0.84559 0.47467,1.7579 0.47467,2.7094 z"
     id="path901" />
  <circle
     cx="-330.35"
     cy="-328.38"
     r="0"
     fill="#5e4aa6"
     stroke-width=".26458"
     id="circle20" />
  <g
     style="filter:url(#filter855-1)"
     id="g34"
     transform="matrix(1.4186,0,0,1.4186,-7.9577498,-422.11955)">
    <g
       style="stroke-width:0.57432002"
       id="g30">
      <path
         style="fill:#389cf4"
         inkscape:connector-curvature="0"
         id="path26"
         d="m 11.15,307.77 c 2.6769,-0.34724 5.3572,-3.7582 4.7049,-5.4512 -0.37742,-1.607 -5.0847,-4.1763 -6.9323,-2.4509 -2.5258,2.2658 -0.64776,8.1044 2.2273,7.9022 z" />
      <path
         style="opacity:0.8;fill:#dc28eb"
         inkscape:connector-curvature="0"
         id="path28"
         d="m 7.5629,305.39 c 1.6391,2.1446 5.9332,2.7604 7.0734,1.349 1.2029,-1.1303 1.0744,-6.4916 -1.3436,-7.229 -3.2251,-1.0545 -7.3425,3.4912 -5.7298,5.88 z" />
    </g>
    <path
       style="fill:#ffffff;stroke-width:0.16674"
       inkscape:connector-curvature="0"
       id="path32"
       d="m 10.303,303.89 c 0,0.76057 0.01435,1.026 -0.47356,1.026 -0.48791,0 -0.87538,0.15785 -0.87538,0.60271 0,0.44485 0.45921,0.66011 0.74621,0.66011 0.28701,0 0.85385,-0.2009 0.85385,-0.80362 v -2.7265 l 2.4395,-0.56683 v 2.088 c 0,0 0.0287,0.25114 -0.29418,0.25114 -0.32287,0 -1.0332,-0.0933 -1.0332,0.58838 0,0.68162 0.68882,0.63858 0.79644,0.63858 0.10763,0 0.80362,-0.11479 0.80362,-0.92559 v -3.8316 l -2.9776,0.57402 z" />
  </g>
  <g
     style="stroke-width:0.57432002"
     id="g40"
     transform="matrix(1.4186,0,0,1.4186,-7.9577498,-422.11955)">
    <path
       style="fill:#389cf4"
       inkscape:connector-curvature="0"
       id="path36"
       d="m 11.15,307.77 c 2.6769,-0.34724 5.3572,-3.7582 4.7049,-5.4512 -0.37742,-1.607 -5.0847,-4.1763 -6.9323,-2.4509 -2.5258,2.2658 -0.64776,8.1044 2.2273,7.9022 z" />
    <path
       style="opacity:0.8;fill:#dc28eb"
       inkscape:connector-curvature="0"
       id="path38"
       d="m 7.5629,305.39 c 1.6391,2.1446 5.9332,2.7604 7.0734,1.349 1.2029,-1.1303 1.0744,-6.4916 -1.3436,-7.229 -3.2251,-1.0545 -7.3425,3.4912 -5.7298,5.88 z" />
  </g>
  <g
     id="g74"
     transform="translate(-18.12385,-12.86555)">
    <circle
       style="fill:#ffffff"
       id="circle42"
       r="5.2044001"
       cy="21.332001"
       cx="26.591" />
    <g
       style="fill:url(#linearGradient1272)"
       id="g72"
       transform="translate(57.949,-12.877)">
      <path
         inkscape:connector-curvature="0"
         style="fill:url(#linearGradient965)"
         id="path44"
         d="m -34.602,32.704 h 0.3638 v 2.993 h -0.3638 z" />
      <path
         inkscape:connector-curvature="0"
         style="fill:url(#linearGradient967)"
         id="path46"
         d="m -35.282,33.365 h 0.3638 v 1.6702 h -0.3638 z" />
      <path
         inkscape:connector-curvature="0"
         style="fill:url(#linearGradient969)"
         id="path48"
         d="m -35.963,33.762 h 0.3638 v 0.87642 h -0.3638 z" />
      <path
         inkscape:connector-curvature="0"
         style="fill:url(#linearGradient971)"
         id="path50"
         d="m -33.921,33.134 h 0.3638 v 2.1332 h -0.3638 z" />
      <path
         inkscape:connector-curvature="0"
         style="fill:url(#linearGradient973)"
         id="path52"
         d="m -33.241,32.265 h 0.3638 v 3.8695 h -0.3638 z" />
      <path
         inkscape:connector-curvature="0"
         style="fill:url(#linearGradient975)"
         id="path54"
         d="m -32.56,31.356 h 0.3638 v 5.6884 H -32.56 Z" />
      <path
         inkscape:connector-curvature="0"
         style="fill:url(#linearGradient977)"
         id="path56"
         d="m -31.88,33.1 h 0.3638 v 2.1993 H -31.88 Z" />
      <path
         inkscape:connector-curvature="0"
         style="fill:url(#linearGradient979)"
         id="path58"
         d="m -31.2,31.356 h 0.36379 v 5.6884 H -31.2 Z" />
      <path
         inkscape:connector-curvature="0"
         style="fill:url(#linearGradient981)"
         id="path60"
         d="m -30.519,29.792 h 0.3638 v 8.8161 h -0.3638 z" />
      <path
         inkscape:connector-curvature="0"
         style="fill:url(#linearGradient983)"
         id="path62"
         d="m -29.839,30.996 h 0.3638 v 6.4073 h -0.3638 z" />
      <path
         inkscape:connector-curvature="0"
         style="fill:url(#linearGradient985)"
         id="path64"
         d="m -29.158,32.4 h 0.3638 v 3.6011 h -0.3638 z" />
      <path
         inkscape:connector-curvature="0"
         style="fill:url(#linearGradient987)"
         id="path66"
         d="m -28.478,33.475 h 0.3638 v 1.4496 h -0.3638 z" />
      <path
         inkscape:connector-curvature="0"
         style="fill:url(#linearGradient989)"
         id="path68"
         d="m -27.797,32.996 h 0.3638 v 2.4084 h -0.3638 z" />
      <path
         inkscape:connector-curvature="0"
         style="fill:url(#linearGradient991)"
         id="path70"
         d="m -27.117,33.627 h 0.3638 v 1.1456 h -0.3638 z" />
    </g>
  </g>
  <circle
     style="fill:#5e4aa6;stroke-width:0.26458001"
     cx="-299.02246"
     cy="-340.21225"
     r="0"
     id="circle903" />
</svg>
