<?xml version="1.0" encoding="UTF-8" standalone="no"?>
<svg
   xmlns:dc="http://purl.org/dc/elements/1.1/"
   xmlns:cc="http://creativecommons.org/ns#"
   xmlns:rdf="http://www.w3.org/1999/02/22-rdf-syntax-ns#"
   xmlns:svg="http://www.w3.org/2000/svg"
   xmlns="http://www.w3.org/2000/svg"
   xmlns:xlink="http://www.w3.org/1999/xlink"
   xmlns:sodipodi="http://sodipodi.sourceforge.net/DTD/sodipodi-0.dtd"
   xmlns:inkscape="http://www.inkscape.org/namespaces/inkscape"
   width="64"
   height="64"
   version="1.1"
   viewBox="0 0 16.933 16.933"
   id="svg40"
   sodipodi:docname="google-music.svg"
   inkscape:version="0.92.4 5da689c313, 2019-01-14">
  <sodipodi:namedview
     pagecolor="#ffffff"
     bordercolor="#666666"
     borderopacity="1"
     objecttolerance="10"
     gridtolerance="10"
     guidetolerance="10"
     inkscape:pageopacity="0"
     inkscape:pageshadow="2"
     inkscape:window-width="1920"
     inkscape:window-height="1005"
     id="namedview42"
     showgrid="false"
     inkscape:zoom="0.921875"
     inkscape:cx="57.233525"
     inkscape:cy="37.631011"
     inkscape:window-x="0"
     inkscape:window-y="45"
     inkscape:window-maximized="1"
     inkscape:current-layer="svg40" />
  <metadata
     id="metadata2">
    <rdf:RDF>
      <cc:Work
         rdf:about="">
        <dc:format>image/svg+xml</dc:format>
        <dc:type
           rdf:resource="http://purl.org/dc/dcmitype/StillImage" />
        <dc:title></dc:title>
      </cc:Work>
    </rdf:RDF>
  </metadata>
  <defs
     id="defs12">
    <filter
       id="filter2761"
       x="-.024"
       y="-.024"
       width="1.048"
       height="1.048"
       color-interpolation-filters="sRGB">
      <feGaussianBlur
         stdDeviation="0.14552168"
         id="feGaussianBlur4" />
    </filter>
    <filter
       id="filter855"
       x="-.059067"
       y="-.060963"
       width="1.1181"
       height="1.1219"
       color-interpolation-filters="sRGB">
      <feGaussianBlur
         stdDeviation="0.2154143"
         id="feGaussianBlur7" />
    </filter>
    <style
       type="text/css"
       id="style10" />
    <linearGradient
       id="linearGradient1270">
      <stop
         id="stop4"
         offset="0"
         stop-color="#dd32ec" />
      <stop
         id="stop6"
         offset="1"
         stop-color="#389cf4" />
    </linearGradient>
    <filter
       color-interpolation-filters="sRGB"
       height="1.048"
       width="1.048"
       y="-.024"
       x="-.024"
       id="filter2761-6">
      <feGaussianBlur
         id="feGaussianBlur9"
         stdDeviation="0.14552168" />
    </filter>
    <filter
       color-interpolation-filters="sRGB"
       height="1.1219"
       width="1.1181"
       y="-.060963"
       x="-.059067"
       id="filter855-1">
      <feGaussianBlur
         id="feGaussianBlur12"
         stdDeviation="0.2154143" />
    </filter>
    <linearGradient
       xlink:href="#linearGradient1270"
       gradientUnits="userSpaceOnUse"
       y2="39.07"
       y1="29.611"
       x2="-30.896"
       x1="-30.896"
       id="linearGradient1272" />
    <filter
       id="filter11290"
       x="-.024"
       y="-.024"
       width="1.048"
       height="1.048"
       color-interpolation-filters="sRGB">
      <feGaussianBlur
         stdDeviation="0.15875313"
         id="feGaussianBlur887" />
    </filter>
    <linearGradient
       id="linearGradient1195"
       x1="-9.2997"
       x2="-.93244"
       y1="32.176"
       y2="32.176"
       gradientTransform="translate(1.8475,-2.1749)"
       gradientUnits="userSpaceOnUse">
      <stop
         stop-color="#1478e6"
         offset="0"
         id="stop890" />
      <stop
         stop-color="#3c50e6"
         offset="1"
         id="stop892" />
    </linearGradient>
    <linearGradient
       gradientUnits="userSpaceOnUse"
       y2="2.8263"
       y1="38.623"
       x2="25.034"
       x1="25.034"
       id="linearGradient905">
      <stop
         id="stop1015"
         offset="0"
         stop-color="#ff7832" />
      <stop
         id="stop1017"
         offset="1"
         stop-color="#ffdc32" />
    </linearGradient>
    <linearGradient
       gradientUnits="userSpaceOnUse"
       y2="18.949"
       y1="59.602"
       x2="26.59"
       x1="26.502"
       id="linearGradient913">
      <stop
         id="stop1020"
         offset="0"
         stop-color="#14a03c" />
      <stop
         id="stop1022"
         offset="1"
         stop-color="#14dc78" />
    </linearGradient>
    <linearGradient
       gradientUnits="userSpaceOnUse"
       y2="28.346"
       y1="59.41"
       x2="42.579"
       x1="43.067"
       id="linearGradient921">
      <stop
         id="stop1025"
         offset="0"
         stop-color="#3250e6" />
      <stop
         id="stop1027"
         offset="1"
         stop-color="#0a82f0" />
    </linearGradient>
    <filter
       color-interpolation-filters="sRGB"
       height="1.2492"
       width="1.2492"
       y="-.12462"
       x="-.12462"
       id="filter1025">
      <feGaussianBlur
         id="feGaussianBlur1030"
         stdDeviation="1.3487305" />
    </filter>
    <filter
       color-interpolation-filters="sRGB"
       height="1.2492"
       width="1.2492"
       y="-.12462"
       x="-.12462"
       id="filter1029">
      <feGaussianBlur
         id="feGaussianBlur1033"
         stdDeviation="1.3487305" />
    </filter>
    <filter
       color-interpolation-filters="sRGB"
       height="1.2492"
       width="1.2492"
       y="-.12462"
       x="-.12462"
       id="filter1033">
      <feGaussianBlur
         id="feGaussianBlur1036"
         stdDeviation="1.3487305" />
    </filter>
    <filter
       color-interpolation-filters="sRGB"
       height="1.3727"
       width="1.4988"
       y="-.18634"
       x="-.2494"
       id="filter1139">
      <feGaussianBlur
         id="feGaussianBlur1039"
         stdDeviation="0.77642176" />
    </filter>
    <filter
       color-interpolation-filters="sRGB"
       height="1.3727"
       width="1.4794"
       y="-.18634"
       x="-.23972"
       id="filter1143">
      <feGaussianBlur
         id="feGaussianBlur1042"
         stdDeviation="0.77642176" />
    </filter>
    <filter
       color-interpolation-filters="sRGB"
       height="1.3727"
       width="1.4468"
       y="-.18634"
       x="-.22342"
       id="filter1147">
      <feGaussianBlur
         id="feGaussianBlur1045"
         stdDeviation="0.77642176" />
    </filter>
    <filter
       color-interpolation-filters="sRGB"
       height="1.048"
       width="1.048"
       y="-.024"
       x="-.024"
       id="filter11290-3">
      <feGaussianBlur
         id="feGaussianBlur1048"
         stdDeviation="0.15875313" />
    </filter>
    <filter
       color-interpolation-filters="sRGB"
       height="1.048"
       width="1.048"
       y="-.024"
       x="-.024"
       id="filter11290-5">
      <feGaussianBlur
         id="feGaussianBlur1133"
         stdDeviation="0.15875313" />
    </filter>
  </defs>
  <circle
     cx="8.4665003"
     cy="8.4665003"
     r="7.9376998"
     id="circle1145"
     style="opacity:0.25;stroke-width:0.14032;filter:url(#filter11290-5)" />
  <path
     style="fill:#fafafa;stroke-width:0.031006"
     inkscape:connector-curvature="0"
     d="m 16.403945,8.46645 c 0,0.95154 -0.16749,1.8639 -0.47464,2.7094 -0.21351,0.58768 -0.49439,1.1433 -0.83393,1.6572 -0.14222,0.21608 -0.29514,0.42475 -0.45746,0.62529 -0.51966,0.64179 -1.1372,1.2007 -1.8305,1.6543 -0.2553,0.16718 -0.52065,0.3201 -0.79536,0.45712 -1.0668,0.53389 -2.2711,0.83421 -3.5456,0.83421 -1.2745,0 -2.4788,-0.30032 -3.5456,-0.83424 -0.27474,-0.13705 -0.5404,-0.28997 -0.7957,-0.45712 -0.70207,-0.45973 -1.327,-1.0274 -1.8509,-1.6798 -0.16263,-0.20216 -0.31524,-0.41275 -0.45746,-0.63078 -0.33046,-0.5054 -0.60421,-1.0507 -0.8135,-1.627 -0.30711,-0.84529 -0.4743,-1.7573001 -0.4743,-2.7085001 0,-4.3838 3.5537,-7.93749985 7.9375,-7.93749985 2.2005,0 4.1917,0.89547995 5.6295,2.34169985 0.41436,0.41662 0.78274,0.87929 1.0963,1.3795 0.29645,0.47107 0.54428,0.97582 0.73704,1.5068 0.30718,0.84559 0.47467,1.7579 0.47467,2.7094 z"
     id="path1147" />
  <g
     style="filter:url(#filter855)"
     id="g26"
     transform="matrix(1.4186,0,0,1.4186,-7.9577498,-422.11955)">
    <g
       style="stroke-width:0.57432002"
       id="g22">
      <path
         style="fill:#389cf4"
         inkscape:connector-curvature="0"
         id="path18"
         d="m 11.15,307.77 c 2.6769,-0.34724 5.3572,-3.7582 4.7049,-5.4512 -0.37742,-1.607 -5.0847,-4.1763 -6.9323,-2.4509 -2.5258,2.2658 -0.64776,8.1044 2.2273,7.9022 z" />
      <path
         style="opacity:0.8;fill:#dc28eb"
         inkscape:connector-curvature="0"
         id="path20"
         d="m 7.5629,305.39 c 1.6391,2.1446 5.9332,2.7604 7.0734,1.349 1.2029,-1.1303 1.0744,-6.4916 -1.3436,-7.229 -3.2251,-1.0545 -7.3425,3.4912 -5.7298,5.88 z" />
    </g>
    <path
       style="fill:#ffffff;stroke-width:0.16674"
       inkscape:connector-curvature="0"
       id="path24"
       d="m 10.303,303.89 c 0,0.76057 0.01435,1.026 -0.47356,1.026 -0.48791,0 -0.87538,0.15785 -0.87538,0.60271 0,0.44485 0.45921,0.66011 0.74621,0.66011 0.28701,0 0.85385,-0.2009 0.85385,-0.80362 v -2.7265 l 2.4395,-0.56683 v 2.088 c 0,0 0.0287,0.25114 -0.29418,0.25114 -0.32287,0 -1.0332,-0.0933 -1.0332,0.58838 0,0.68162 0.68882,0.63858 0.79644,0.63858 0.10763,0 0.80362,-0.11479 0.80362,-0.92559 v -3.8316 l -2.9776,0.57402 z" />
  </g>
  <g
     id="g36"
     transform="matrix(1.4186,0,0,1.4186,-7.9577498,-422.11955)">
    <g
       style="stroke-width:0.57432002"
       id="g32">
      <path
         style="fill:#389cf4"
         inkscape:connector-curvature="0"
         id="path28"
         d="m 11.15,307.77 c 2.6769,-0.34724 5.3572,-3.7582 4.7049,-5.4512 -0.37742,-1.607 -5.0847,-4.1763 -6.9323,-2.4509 -2.5258,2.2658 -0.64776,8.1044 2.2273,7.9022 z" />
      <path
         style="opacity:0.8;fill:#dc28eb"
         inkscape:connector-curvature="0"
         id="path30"
         d="m 7.5629,305.39 c 1.6391,2.1446 5.9332,2.7604 7.0734,1.349 1.2029,-1.1303 1.0744,-6.4916 -1.3436,-7.229 -3.2251,-1.0545 -7.3425,3.4912 -5.7298,5.88 z" />
    </g>
    <path
       style="fill:#ffffff;stroke-width:0.16674"
       inkscape:connector-curvature="0"
       id="path34"
       d="m 10.303,303.89 c 0,0.76057 0.01435,1.026 -0.47356,1.026 -0.48791,0 -0.87538,0.15785 -0.87538,0.60271 0,0.44485 0.45921,0.66011 0.74621,0.66011 0.28701,0 0.85385,-0.2009 0.85385,-0.80362 v -2.7265 l 2.4395,-0.56683 v 2.088 c 0,0 0.0287,0.25114 -0.29418,0.25114 -0.32287,0 -1.0332,-0.0933 -1.0332,0.58838 0,0.68162 0.68882,0.63858 0.79644,0.63858 0.10763,0 0.80362,-0.11479 0.80362,-0.92559 v -3.8316 l -2.9776,0.57402 z" />
  </g>
  <circle
     style="fill:#5e4aa6;stroke-width:0.26458001"
     cx="-306.50418"
     cy="-332.78723"
     r="0"
     id="circle20" />
  <circle
     style="fill:#5e4aa6;stroke-width:0.26458001"
     cx="-275.17664"
     cy="-344.61948"
     r="0"
     id="circle903" />
  <circle
     style="fill:#5e4aa6;stroke-width:0.26458001"
     cx="-293.58817"
     cy="-320.3129"
     r="0"
     id="circle1149" />
</svg>
