<?xml version="1.0" encoding="UTF-8" standalone="no"?>
<svg
   xmlns:dc="http://purl.org/dc/elements/1.1/"
   xmlns:cc="http://creativecommons.org/ns#"
   xmlns:rdf="http://www.w3.org/1999/02/22-rdf-syntax-ns#"
   xmlns:svg="http://www.w3.org/2000/svg"
   xmlns="http://www.w3.org/2000/svg"
   xmlns:xlink="http://www.w3.org/1999/xlink"
   xmlns:sodipodi="http://sodipodi.sourceforge.net/DTD/sodipodi-0.dtd"
   xmlns:inkscape="http://www.inkscape.org/namespaces/inkscape"
   width="64"
   height="64"
   version="1.1"
   viewBox="0 0 16.933 16.933"
   id="svg48"
   sodipodi:docname="gtk3-demo.svg"
   inkscape:version="0.92.4 5da689c313, 2019-01-14">
  <sodipodi:namedview
     pagecolor="#ffffff"
     bordercolor="#666666"
     borderopacity="1"
     objecttolerance="10"
     gridtolerance="10"
     guidetolerance="10"
     inkscape:pageopacity="0"
     inkscape:pageshadow="2"
     inkscape:window-width="1920"
     inkscape:window-height="1005"
     id="namedview50"
     showgrid="false"
     inkscape:zoom="3.6875"
     inkscape:cx="32"
     inkscape:cy="32"
     inkscape:window-x="0"
     inkscape:window-y="45"
     inkscape:window-maximized="1"
     inkscape:current-layer="svg48" />
  <metadata
     id="metadata2">
    <rdf:RDF>
      <cc:Work
         rdf:about="">
        <dc:format>image/svg+xml</dc:format>
        <dc:type
           rdf:resource="http://purl.org/dc/dcmitype/StillImage" />
        <dc:title></dc:title>
      </cc:Work>
    </rdf:RDF>
  </metadata>
  <defs
     id="defs16">
    <linearGradient
       id="linearGradient1270">
      <stop
         stop-color="#dd32ec"
         offset="0"
         id="stop4" />
      <stop
         stop-color="#389cf4"
         offset="1"
         id="stop6" />
    </linearGradient>
    <filter
       id="filter2761"
       x="-.024"
       y="-.024"
       width="1.048"
       height="1.048"
       color-interpolation-filters="sRGB">
      <feGaussianBlur
         stdDeviation="0.14552168"
         id="feGaussianBlur9" />
    </filter>
    <filter
       id="filter855-1"
       x="-.059067"
       y="-.060963"
       width="1.1181"
       height="1.1219"
       color-interpolation-filters="sRGB">
      <feGaussianBlur
         stdDeviation="0.2154143"
         id="feGaussianBlur12" />
    </filter>
    <linearGradient
       id="linearGradient1052"
       x1="5.0196"
       x2="11.913"
       y1="8.4665"
       y2="8.4665"
       gradientUnits="userSpaceOnUse"
       xlink:href="#linearGradient1270" />
    <filter
       color-interpolation-filters="sRGB"
       height="1.048"
       width="1.048"
       y="-.024"
       x="-.024"
       id="filter11290">
      <feGaussianBlur
         id="feGaussianBlur860"
         stdDeviation="0.15875313" />
    </filter>
    <linearGradient
       gradientUnits="userSpaceOnUse"
       gradientTransform="translate(1.8475,-2.1749)"
       y2="32.176"
       y1="32.176"
       x2="-.93244"
       x1="-9.2997"
       id="linearGradient1195">
      <stop
         id="stop863"
         offset="0"
         stop-color="#1478e6" />
      <stop
         id="stop865"
         offset="1"
         stop-color="#3c50e6" />
    </linearGradient>
  </defs>
  <circle
     style="opacity:0.25;stroke-width:0.14032;filter:url(#filter11290)"
     cx="8.4665003"
     cy="8.4665003"
     r="7.9376998"
     id="circle872" />
  <path
     style="fill:#fafafa;stroke-width:0.031006"
     inkscape:connector-curvature="0"
     d="m 16.403945,8.46645 c 0,0.95154 -0.16749,1.8639 -0.47464,2.7094 -0.21351,0.58768 -0.49439,1.1433 -0.83393,1.6572 -0.14222,0.21608 -0.29514,0.42475 -0.45746,0.62529 -0.51966,0.64179 -1.1372,1.2007 -1.8305,1.6543 -0.2553,0.16718 -0.52065,0.3201 -0.79536,0.45712 -1.0668,0.53389 -2.2711,0.83421 -3.5456,0.83421 -1.2745,0 -2.4788,-0.30032 -3.5456,-0.83424 -0.27474,-0.13705 -0.5404,-0.28997 -0.7957,-0.45712 -0.70207,-0.45973 -1.327,-1.0274 -1.8509,-1.6798 -0.16263,-0.20216 -0.31524,-0.41275 -0.45746,-0.63078 -0.33046,-0.5054 -0.60421,-1.0507 -0.8135,-1.627 -0.30711,-0.84529 -0.4743,-1.7573 -0.4743,-2.7085 0,-4.3838 3.5537,-7.9375 7.9375,-7.9375 2.2005,0 4.1917,0.89548 5.6295,2.3417 0.41436,0.41662 0.78274,0.87929 1.0963,1.3795 0.29645,0.47107 0.54428,0.97582 0.73704,1.5068 0.30718,0.84559 0.47467,1.7579 0.47467,2.7094 z"
     id="path874" />
  <g
     transform="matrix(1.4186 0 0 1.4186 -7.9577 -422.12)"
     filter="url(#filter855-1)"
     id="g30">
    <g
       stroke-width=".57432"
       id="g26">
      <path
         d="m11.15 307.77c2.6769-0.34724 5.3572-3.7582 4.7049-5.4512-0.37742-1.607-5.0847-4.1763-6.9323-2.4509-2.5258 2.2658-0.64776 8.1044 2.2273 7.9022z"
         fill="#389cf4"
         id="path22" />
      <path
         d="m7.5629 305.39c1.6391 2.1446 5.9332 2.7604 7.0734 1.349 1.2029-1.1303 1.0744-6.4916-1.3436-7.229-3.2251-1.0545-7.3425 3.4912-5.7298 5.88z"
         fill="#dc28eb"
         opacity=".8"
         id="path24" />
    </g>
    <path
       d="m10.303 303.89c0 0.76057 0.01435 1.026-0.47356 1.026s-0.87538 0.15785-0.87538 0.60271c0 0.44485 0.45921 0.66011 0.74621 0.66011 0.28701 0 0.85385-0.2009 0.85385-0.80362v-2.7265l2.4395-0.56683v2.088s0.0287 0.25114-0.29418 0.25114c-0.32287 0-1.0332-0.0933-1.0332 0.58838 0 0.68162 0.68882 0.63858 0.79644 0.63858 0.10763 0 0.80362-0.11479 0.80362-0.92559v-3.8316l-2.9776 0.57402z"
       fill="#fff"
       stroke-width=".16674"
       id="path28" />
  </g>
  <g
     transform="matrix(1.4186 0 0 1.4186 -7.9577 -422.12)"
     stroke-width=".57432"
     id="g36">
    <path
       d="m11.15 307.77c2.6769-0.34724 5.3572-3.7582 4.7049-5.4512-0.37742-1.607-5.0847-4.1763-6.9323-2.4509-2.5258 2.2658-0.64776 8.1044 2.2273 7.9022z"
       fill="#389cf4"
       id="path32" />
    <path
       d="m7.5629 305.39c1.6391 2.1446 5.9332 2.7604 7.0734 1.349 1.2029-1.1303 1.0744-6.4916-1.3436-7.229-3.2251-1.0545-7.3425 3.4912-5.7298 5.88z"
       fill="#dc28eb"
       opacity=".8"
       id="path34" />
  </g>
  <circle
     cx="8.4671"
     cy="8.4665"
     r="5.2044"
     fill="#fff"
     id="circle38" />
  <g
     transform="translate(4e-5,-3e-6)"
     fill="url(#linearGradient1052)"
     stroke-width=".087453"
     aria-label="GTK"
     id="g46">
    <path
       d="m6.9053 9.376v-0.68493h-0.56366v-0.28354h0.90527v1.0949q-0.19984 0.14177-0.44068 0.21522-0.24084 0.071738-0.51413 0.071738-0.59782 0-0.93602-0.34844-0.33649-0.35015-0.33649-0.97359 0-0.62515 0.33649-0.97359 0.3382-0.35015 0.93602-0.35015 0.24938 0 0.47313 0.06149 0.22546 0.06149 0.41506 0.18105v0.36723q-0.1913-0.16227-0.40652-0.24425-0.21522-0.081987-0.45264-0.081987-0.46801 0-0.70372 0.26133-0.234 0.26133-0.234 0.77887 0 0.51583 0.234 0.77717 0.23571 0.26133 0.70372 0.26133 0.18276 0 0.32624-0.030745 0.14348-0.032453 0.25792-0.099067z"
       id="path40" />
    <path
       d="m7.399 7.1897h2.1573v0.29037h-0.90527v2.2598h-0.34674v-2.2598h-0.90527z"
       id="path42" />
    <path
       d="m9.8893 7.1897h0.34503v1.0778l1.1444-1.0778h0.4441l-1.2657 1.1888 1.3562 1.3613h-0.45434l-1.2247-1.2281v1.2281h-0.34503z"
       id="path44" />
  </g>
  <circle
     style="fill:#5e4aa6;stroke-width:0.26458001"
     cx="-298.87897"
     cy="-332.75024"
     r="0"
     id="circle876" />
</svg>
