<?xml version="1.0" encoding="UTF-8"?>
<!-- Created with Inkscape (http://www.inkscape.org/) -->
<svg width="64" height="64" version="1.1" viewBox="0 0 16.933 16.933" xmlns="http://www.w3.org/2000/svg" xmlns:cc="http://creativecommons.org/ns#" xmlns:dc="http://purl.org/dc/elements/1.1/" xmlns:rdf="http://www.w3.org/1999/02/22-rdf-syntax-ns#">
 <defs>
  <filter id="filter11290" x="-.024" y="-.024" width="1.048" height="1.048" color-interpolation-filters="sRGB">
   <feGaussianBlur stdDeviation="0.15875313"/>
  </filter>
  <filter id="filter5637" x="-.050309" y="-.074315" width="1.1006" height="1.1486" color-interpolation-filters="sRGB">
   <feGaussianBlur stdDeviation="0.28738091"/>
  </filter>
 </defs>
 <metadata>
  <rdf:RDF>
   <cc:Work rdf:about="">
    <dc:format>image/svg+xml</dc:format>
    <dc:type rdf:resource="http://purl.org/dc/dcmitype/StillImage"/>
    <dc:title/>
   </cc:Work>
  </rdf:RDF>
 </metadata>
 <circle cx="8.4937" cy="8.46" r="7.9377" filter="url(#filter11290)" opacity=".25" stroke-width=".14032"/>
 <path d="m16.439 8.46c0 0.95154-0.16749 1.8639-0.47464 2.7094-0.21351 0.58768-0.49439 1.1433-0.83393 1.6572-0.14222 0.21608-0.29514 0.42475-0.45746 0.62529-0.51966 0.64179-1.1372 1.2007-1.8305 1.6543-0.2553 0.16718-0.52065 0.3201-0.79536 0.45712-1.0668 0.53389-2.2711 0.83421-3.5456 0.83421s-2.4788-0.30032-3.5456-0.83424c-0.27474-0.13705-0.5404-0.28997-0.7957-0.45712-0.70207-0.45973-1.327-1.0274-1.8509-1.6798-0.16263-0.20216-0.31524-0.41275-0.45746-0.63078-0.33046-0.5054-0.60421-1.0507-0.8135-1.627-0.30711-0.84529-0.4743-1.7573-0.4743-2.7085 0-4.3838 3.5537-7.9375 7.9375-7.9375 2.2005 0 4.1917 0.89548 5.6295 2.3417 0.41436 0.41662 0.78274 0.87929 1.0963 1.3795 0.29645 0.47107 0.54428 0.97582 0.73704 1.5068 0.30718 0.84559 0.47467 1.7579 0.47467 2.7094z" fill="#fafafa" stroke-width=".031006"/>
 <g fill="#5e4aa6" stroke-width=".26458">
  <circle cx="-330.35" cy="-328.38" r="0"/>
  <circle cx="-299.17" cy="-337.27" r="0"/>
  <circle cx="-299.81" cy="-339.42" r="0"/>
  <circle cx="-302.25" cy="-338.13" r="0"/>
  <circle cx="-301.89" cy="-335.91" r="0"/>
  <circle cx="-304.76" cy="-351.05" r="0"/>
  <circle cx="-304.83" cy="-349.54" r="0"/>
  <circle cx="-359.94" cy="-336.91" r="0"/>
 </g>
 <circle cx="40.465" cy="-9.1299" r="7.9373" fill-opacity="0" stroke-width=".41578"/>
 <g transform="translate(-38.167,-4.9981)" stroke-width="1.0376">
  <path d="m41.951 7.0761c-1.8438 1.3653-3.0753 3.5097-3.207 5.9473z" fill="#ff3c50"/>
  <path d="m43.453 6.2018c-0.53554 0.2377-1.0405 0.5315-1.5058 0.87642l-3.2028 5.9401c-8e-3 0.14572-0.01291 0.29256-0.01291 0.44027 0 0.44304 0.0377 0.8769 0.10748 1.3002z" fill="#fff"/>
  <path d="m44.724 5.762c-0.4396 0.11075-0.86369 0.25911-1.2707 0.43976l-4.6141 8.5569c0.07387 0.44804 0.18552 0.88328 0.33124 1.3027z" fill="#465ad2"/>
  <path d="m45.865 5.5615c-0.38948 0.039171-0.77071 0.10709-1.1415 0.2005l-5.5536 10.299c0.01217 0.03504 0.02302 0.07061 0.03565 0.10542 0.12003 0.33051 0.26329 0.64963 0.42426 0.95806z" fill="#ff3c50"/>
  <path d="m46.669 5.5207c-0.27223 0-0.54096 0.014068-0.80614 0.040824l-6.2336 11.561c0.12006 0.23024 0.24871 0.45494 0.39015 0.67126 0.05073 0.07778 0.10425 0.1536 0.15761 0.22944l6.738-12.496c-0.08184-0.00249-0.16352-0.0062-0.24598-0.0062z" fill="#fff"/>
  <path d="m46.915 5.5269-6.738 12.496c0.0963 0.13688 0.19501 0.27188 0.29972 0.40204 0.10146 0.12635 0.20996 0.24707 0.31884 0.3669l7.1043-13.175c-0.32222-0.050177-0.65111-0.079217-0.98494-0.089398z" fill="#465ad2"/>
  <path d="m47.9 5.6163-7.1043 13.175c0.21238 0.23376 0.43884 0.45338 0.67746 0.66041l7.3508-13.632c-0.30133-0.084844-0.60924-0.15408-0.92396-0.20308z" fill="#ff3c50"/>
  <path d="m48.821 5.8188-7.3498 13.631c0.23203 0.20143 0.47521 0.38996 0.72966 0.56378l7.4919-13.895c-0.2826-0.11657-0.57386-0.21646-0.87176-0.30023z" fill="#fff"/>
  <path d="m49.693 6.1191-7.4919 13.895c0.04286 0.02928 0.08314 0.06197 0.1266 0.09043 0.21023 0.13764 0.4291 0.2629 0.65266 0.38033l7.5332-13.971c-0.2647-0.14687-0.53845-0.27842-0.8206-0.3948z" fill="#465ad2"/>
  <path d="m50.513 6.5139-7.5332 13.971c0.04793 0.02518 0.09463 0.05228 0.14314 0.07648 0.22277 0.11149 0.45262 0.21075 0.68677 0.30127l7.4733-13.86c-0.24674-0.17668-0.50326-0.34035-0.76996-0.48833z" fill="#ff3c50"/>
  <path d="m51.282 7.0007-7.4738 13.861c0.28622 0.11074 0.58039 0.2053 0.88158 0.28266l7.3131-13.563c-0.22825-0.20725-0.46957-0.40047-0.72087-0.58031z" fill="#fff"/>
  <path d="m52.002 7.5805-7.3131 13.563c0.30518 0.07841 0.61709 0.13952 0.93533 0.18138l7.0434-13.062c-0.11902-0.13731-0.24142-0.27172-0.36948-0.40048-0.096145-0.096709-0.19511-0.19047-0.2961-0.28215z" fill="#465ad2"/>
  <path d="m52.668 8.2631-7.0434 13.062c0.32646 0.04294 0.65858 0.06723 0.9963 0.06924l6.6517-12.336c-0.18522-0.27788-0.38654-0.54371-0.6046-0.79528z" fill="#ff3c50"/>
  <path d="m53.271 9.0563-6.6527 12.338c0.01699 1.07e-4 0.03363 0.0016 0.05064 0.0016 0.34515 0 0.68449-0.02394 1.018-0.06666l6.1189-11.348c-0.12415-0.2543-0.261-0.50141-0.41082-0.73948-0.039552-0.063093-0.082744-0.12363-0.12402-0.18551z" fill="#fff"/>
  <path d="m53.806 9.9813-6.1189 11.348c0.39774-0.05095 0.78567-0.13219 1.1627-0.23977l5.3949-10.005c-0.03532-0.11275-0.0725-0.22484-0.11265-0.33537-0.09535-0.26264-0.20456-0.51848-0.32607-0.76738z" fill="#465ad2"/>
  <path d="m54.244 11.084-5.3949 10.005c0.4521-0.129 0.8881-0.29586 1.3033-0.49918l4.3893-8.1415c-0.05956-0.46886-0.15992-0.92505-0.29765-1.3647z" fill="#ff3c50"/>
  <path d="m54.556 14.333-2.8168 5.2239c0.40096-0.3337 0.77232-0.70134 1.1007-1.1069 0.16232-0.20054 0.31511-0.40971 0.45733-0.62579 0.33954-0.5139 0.62053-1.069 0.83404-1.6567 0.21159-0.58247 0.35483-1.1976 0.42477-1.8345z" fill="#465ad2"/>
 </g>
 <path d="m15.722 8.4599c0 0.86553-0.15235 1.6954-0.43174 2.4645-0.19421 0.53456-0.4497 1.04-0.75855 1.5074-0.12936 0.19655-0.26846 0.38635-0.41611 0.56877-0.47269 0.58378-1.0344 1.0922-1.665 1.5048-0.23222 0.15207-0.47359 0.29116-0.72346 0.4158-0.97037 0.48563-2.0658 0.7588-3.2251 0.7588s-2.2547-0.27317-3.2251-0.75883c-0.24991-0.12466-0.49155-0.26376-0.72378-0.4158-0.63861-0.41817-1.207-0.93453-1.6836-1.528-0.14793-0.18388-0.28674-0.37544-0.41611-0.57376-0.30059-0.45972-0.54959-0.95572-0.73996-1.4799-0.27935-0.76888-0.43143-1.5985-0.43143-2.4637 0-3.9875 3.2325-7.22 7.22-7.22 2.0016 0 3.8128 0.81453 5.1206 2.13 0.3769 0.37896 0.71198 0.79981 0.9972 1.2548 0.26965 0.42849 0.49508 0.88761 0.67042 1.3706 0.27941 0.76915 0.43176 1.599 0.43176 2.4645z" fill="#f0f0f0" stroke-width=".028203"/>
 <path d="m8.595 8.1119c-0.45342 0.0052-0.79246 0.18456-1.0237 0.24236-0.26243 0.06565-3.3692 2.4226-5.2414 3.8545 0.03977 0.06528 0.07811 0.13143 0.11989 0.19533 0.12936 0.19832 0.26806 0.39023 0.41599 0.57411 0.47654 0.59343 1.045 1.1099 1.6836 1.528 0.23222 0.15204 0.47407 0.29081 0.72397 0.41547 0.97037 0.48566 2.0658 0.75911 3.2251 0.75911s2.2547-0.27348 3.2251-0.75911c0.24988-0.12463 0.49124-0.2634 0.72346-0.41547 0.63063-0.4126 1.1923-0.92101 1.665-1.5048 0.14765-0.18241 0.28663-0.3724 0.41599-0.56895 0.08119-0.12288 0.15835-0.24874 0.23202-0.37671-1.8205-1.3459-4.5865-3.3685-5.2239-3.7015-0.35563-0.18581-0.66896-0.2455-0.94101-0.24236z" enable-background="new" fill="#fff" stroke-width="1.0343"/>
 <path transform="matrix(.943 0 0 .92001 -35.505 -3.4428)" d="m46.665 6.2383c-3.1546 0-5.8347 2.024-6.8175 4.8435 2.3596 1.7968 5.3619 4.0569 5.6502 4.1289 0.47126 0.11782 1.2952 0.63117 2.5032 0 0.6862-0.35854 3.3434-2.2824 5.5561-3.9082-0.03248-0.10391-0.06687-0.20666-0.10387-0.3085-0.17534-0.48298-0.40058-0.94246-0.67023-1.3709-0.28522-0.45499-0.62043-0.87572-0.99734-1.2547-1.3078-1.3155-3.1189-2.1301-5.1205-2.1301z" enable-background="new" filter="url(#filter5637)" opacity=".25" stroke-width=".97659"/>
 <path d="m8.498 1.2402c-3.1546 0-5.8347 2.024-6.8175 4.8435 2.3596 1.7968 5.3619 4.0569 5.6502 4.1289 0.47126 0.11782 1.2952 0.63117 2.5032 0 0.6862-0.35854 3.3434-2.2824 5.5561-3.9082-0.03248-0.10391-0.06687-0.20666-0.10387-0.3085-0.17534-0.48298-0.40058-0.94246-0.67023-1.3709-0.28522-0.45499-0.62043-0.87572-0.99734-1.2547-1.3078-1.3155-3.1189-2.1301-5.1205-2.1301z" enable-background="new" fill="#fafafa" stroke-width=".97659"/>
</svg>
