<?xml version="1.0" encoding="UTF-8"?>
<svg width="64" height="64" version="1.1" viewBox="0 0 64 64" xmlns="http://www.w3.org/2000/svg" xmlns:cc="http://creativecommons.org/ns#" xmlns:dc="http://purl.org/dc/elements/1.1/" xmlns:rdf="http://www.w3.org/1999/02/22-rdf-syntax-ns#" xmlns:xlink="http://www.w3.org/1999/xlink">
 <metadata>
  <rdf:RDF>
   <cc:Work rdf:about="">
    <dc:format>image/svg+xml</dc:format>
    <dc:type rdf:resource="http://purl.org/dc/dcmitype/StillImage"/>
    <dc:title/>
   </cc:Work>
  </rdf:RDF>
 </metadata>
 <defs>
  <linearGradient id="a" x1="32.441" x2="32.441" y1="61.576" y2="2.339" gradientUnits="userSpaceOnUse">
   <stop stop-color="#fafafa" offset="0"/>
   <stop stop-color="#d2d2d2" offset="1"/>
  </linearGradient>
  <filter id="filter1397" x="-.036001" y="-.035999" width="1.072" height="1.072" color-interpolation-filters="sRGB">
   <feGaussianBlur stdDeviation="0.89997751"/>
  </filter>
  <linearGradient id="linearGradient1897" x1="9.7654" x2="54.374" y1="54.508" y2="10.441" gradientUnits="userSpaceOnUse">
   <stop stop-color="#3250e6" offset="0"/>
   <stop stop-color="#0a82f0" offset="1"/>
  </linearGradient>
  <filter id="filter1905" x="-.036001" y="-.035999" width="1.072" height="1.072" color-interpolation-filters="sRGB">
   <feGaussianBlur stdDeviation="0.71998501"/>
  </filter>
 </defs>
 <rect x="2.003" y="2" width="59.997" height="60" rx="29.998" filter="url(#filter1397)" opacity=".25" stroke-opacity=".55" stroke-width="4.1999"/>
 <rect x="2.003" y="2" width="59.997" height="60" rx="29.998" fill="url(#a)" stroke-opacity=".55" stroke-width="4.1999"/>
 <g>
  <rect x="8.0027" y="8.8771" width="47.998" height="48" rx="23.999" filter="url(#filter1905)" opacity=".25" stroke-opacity=".55" stroke-width="4.1999"/>
  <path d="m2.018 31.25c-6e-3 0.2505-0.017999 0.498-0.017999 0.75 0 16.62 13.379 30 29.998 30s29.998-13.38 29.998-30c0-0.252-0.012-0.4995-0.018-0.75-0.39748 16.269-13.619 29.25-29.98 29.25-16.367 0-29.585-12.981-29.98-29.25" fill="#b9b9b9" opacity=".35" stroke-width="1.5"/>
  <rect x="8.0027" y="8" width="47.998" height="48" rx="23.999" fill="url(#linearGradient1897)" stroke-opacity=".55" stroke-width="4.1999"/>
  <rect x="12.502" y="12.5" width="38.998" height="39" rx="19.499" fill="#fff" stroke-opacity=".55" stroke-width="4.1999"/>
  <rect x="30.502" y="12.5" width="2.9998" height="7.5" rx="1.4999" fill="#e6e6e6" stroke-width="1.5"/>
  <ellipse cx="32.002" cy="8" rx="1.4999" ry="1.5" fill="#e6e6e6" stroke-width="1.5"/>
 </g>
 <g fill="#26333a" stroke-width="1.5">
  <ellipse cx="56" cy="32" rx="1.4999" ry="1.5"/>
  <ellipse cx="8.0027" cy="32" rx="1.4999" ry="1.5"/>
  <ellipse cx="14.002" cy="15.5" rx="1.4999" ry="1.5"/>
  <ellipse cx="50.001" cy="15.5" rx="1.4999" ry="1.5"/>
  <ellipse cx="14.002" cy="48.5" rx="1.4999" ry="1.5"/>
  <ellipse cx="50.001" cy="48.5" rx="1.4999" ry="1.5"/>
 </g>
 <g fill="#5e4aa6">
  <g>
   <circle cx="-980.26" cy="-1312" r="0"/>
   <circle cx="-965.86" cy="-1304.2" r="0"/>
   <circle cx="-954.22" cy="-1290.3" r="0"/>
   <circle cx="-965.33" cy="-1312.3" r="0"/>
   <circle cx="-863.81" cy="-1275.5" r="0"/>
   <circle cx="-745.96" cy="-1309.1" r="0"/>
   <circle cx="-748.38" cy="-1317.2" r="0"/>
   <circle cx="-757.61" cy="-1312.3" r="0"/>
   <circle cx="-756.25" cy="-1303.9" r="0"/>
   <circle cx="-767.09" cy="-1361.2" r="0"/>
   <circle cx="-767.36" cy="-1355.5" r="0"/>
   <circle cx="-975.65" cy="-1307.7" r="0"/>
   <circle cx="-958.56" cy="-1316.1" r="0"/>
  </g>
  <g transform="matrix(3.7796 0 0 3.7796 380.74 -65.195)" stroke-width=".26458">
   <circle cx="-330.35" cy="-328.38" r="0"/>
   <circle cx="-299.17" cy="-337.27" r="0"/>
   <circle cx="-299.81" cy="-339.42" r="0"/>
   <circle cx="-302.25" cy="-338.13" r="0"/>
   <circle cx="-301.89" cy="-335.91" r="0"/>
   <circle cx="-304.76" cy="-351.05" r="0"/>
   <circle cx="-304.83" cy="-349.54" r="0"/>
   <circle cx="-359.94" cy="-336.91" r="0"/>
  </g>
  <g transform="matrix(3.7796 0 0 3.7796 382.7 -82.132)" stroke-width=".26458">
   <circle cx="-330.35" cy="-328.38" r="0"/>
   <circle cx="-299.17" cy="-337.27" r="0"/>
   <circle cx="-299.81" cy="-339.42" r="0"/>
   <circle cx="-302.25" cy="-338.13" r="0"/>
   <circle cx="-301.89" cy="-335.91" r="0"/>
   <circle cx="-304.76" cy="-351.05" r="0"/>
   <circle cx="-304.83" cy="-349.54" r="0"/>
   <circle cx="-359.94" cy="-336.91" r="0"/>
  </g>
  <circle cx="-964.52" cy="-1339.4" r="0"/>
  <g transform="matrix(3.7796 0 0 3.7796 374.78 -88.519)" stroke-width=".26458">
   <circle cx="-330.35" cy="-328.38" r="0"/>
   <circle cx="-299.17" cy="-337.27" r="0"/>
   <circle cx="-299.81" cy="-339.42" r="0"/>
   <circle cx="-302.25" cy="-338.13" r="0"/>
   <circle cx="-301.89" cy="-335.91" r="0"/>
   <circle cx="-304.76" cy="-351.05" r="0"/>
   <circle cx="-304.83" cy="-349.54" r="0"/>
   <circle cx="-359.94" cy="-336.91" r="0"/>
  </g>
  <g transform="matrix(3.7796 0 0 3.7796 376.74 -105.46)" stroke-width=".26458">
   <circle cx="-330.35" cy="-328.38" r="0"/>
   <circle cx="-299.17" cy="-337.27" r="0"/>
   <circle cx="-299.81" cy="-339.42" r="0"/>
   <circle cx="-302.25" cy="-338.13" r="0"/>
   <circle cx="-301.89" cy="-335.91" r="0"/>
   <circle cx="-304.76" cy="-351.05" r="0"/>
   <circle cx="-304.83" cy="-349.54" r="0"/>
   <circle cx="-359.94" cy="-336.91" r="0"/>
  </g>
  <circle cx="-894.86" cy="-1350.5" r="0"/>
  <circle cx="-970.76" cy="-1313.4" r="0"/>
  <g transform="matrix(3.7796 0 0 3.7796 368.54 -62.483)" stroke-width=".26458">
   <circle cx="-330.35" cy="-328.38" r="0"/>
   <circle cx="-299.17" cy="-337.27" r="0"/>
   <circle cx="-299.81" cy="-339.42" r="0"/>
   <circle cx="-302.25" cy="-338.13" r="0"/>
   <circle cx="-301.89" cy="-335.91" r="0"/>
   <circle cx="-304.76" cy="-351.05" r="0"/>
   <circle cx="-304.83" cy="-349.54" r="0"/>
   <circle cx="-359.94" cy="-336.91" r="0"/>
  </g>
  <g transform="matrix(3.7796 0 0 3.7796 370.5 -79.42)" stroke-width=".26458">
   <circle cx="-330.35" cy="-328.38" r="0"/>
   <circle cx="-299.17" cy="-337.27" r="0"/>
   <circle cx="-299.81" cy="-339.42" r="0"/>
   <circle cx="-302.25" cy="-338.13" r="0"/>
   <circle cx="-301.89" cy="-335.91" r="0"/>
   <circle cx="-304.76" cy="-351.05" r="0"/>
   <circle cx="-304.83" cy="-349.54" r="0"/>
   <circle cx="-359.94" cy="-336.91" r="0"/>
  </g>
  <circle cx="-901.1" cy="-1324.5" r="0"/>
  <circle cx="-962.62" cy="-1328.6" r="0"/>
  <g transform="matrix(3.7796 0 0 3.7796 376.67 -77.669)" stroke-width=".26458">
   <circle cx="-330.35" cy="-328.38" r="0"/>
   <circle cx="-299.17" cy="-337.27" r="0"/>
   <circle cx="-299.81" cy="-339.42" r="0"/>
   <circle cx="-302.25" cy="-338.13" r="0"/>
   <circle cx="-301.89" cy="-335.91" r="0"/>
   <circle cx="-304.76" cy="-351.05" r="0"/>
   <circle cx="-304.83" cy="-349.54" r="0"/>
   <circle cx="-359.94" cy="-336.91" r="0"/>
  </g>
  <g transform="matrix(3.7796 0 0 3.7796 378.64 -94.607)" stroke-width=".26458">
   <circle cx="-330.35" cy="-328.38" r="0"/>
   <circle cx="-299.17" cy="-337.27" r="0"/>
   <circle cx="-299.81" cy="-339.42" r="0"/>
   <circle cx="-302.25" cy="-338.13" r="0"/>
   <circle cx="-301.89" cy="-335.91" r="0"/>
   <circle cx="-304.76" cy="-351.05" r="0"/>
   <circle cx="-304.83" cy="-349.54" r="0"/>
   <circle cx="-359.94" cy="-336.91" r="0"/>
  </g>
  <circle cx="-892.96" cy="-1339.7" r="0"/>
  <circle cx="-847.99" cy="-1394.5" r="0"/>
  <g transform="matrix(3.7796 0 0 3.7796 360.42 -84.139)" stroke-width=".26458">
   <circle cx="-330.35" cy="-328.38" r="0"/>
   <circle cx="-299.17" cy="-337.27" r="0"/>
   <circle cx="-299.81" cy="-339.42" r="0"/>
   <circle cx="-302.25" cy="-338.13" r="0"/>
   <circle cx="-301.89" cy="-335.91" r="0"/>
   <circle cx="-304.76" cy="-351.05" r="0"/>
   <circle cx="-304.83" cy="-349.54" r="0"/>
   <circle cx="-359.94" cy="-336.91" r="0"/>
  </g>
  <circle cx="-847.23" cy="-1301.6" r="0"/>
  <circle cx="-988.12" cy="-1327" r="0"/>
  <g transform="matrix(3.7796 0 0 3.7796 351.18 -76.042)" stroke-width=".26458">
   <circle cx="-330.35" cy="-328.38" r="0"/>
   <circle cx="-299.17" cy="-337.27" r="0"/>
   <circle cx="-299.81" cy="-339.42" r="0"/>
   <circle cx="-302.25" cy="-338.13" r="0"/>
   <circle cx="-301.89" cy="-335.91" r="0"/>
   <circle cx="-304.76" cy="-351.05" r="0"/>
   <circle cx="-304.83" cy="-349.54" r="0"/>
   <circle cx="-359.94" cy="-336.91" r="0"/>
  </g>
  <g transform="matrix(3.7796 0 0 3.7796 353.14 -92.98)" stroke-width=".26458">
   <circle cx="-330.35" cy="-328.38" r="0"/>
   <circle cx="-299.17" cy="-337.27" r="0"/>
   <circle cx="-299.81" cy="-339.42" r="0"/>
   <circle cx="-302.25" cy="-338.13" r="0"/>
   <circle cx="-301.89" cy="-335.91" r="0"/>
   <circle cx="-304.76" cy="-351.05" r="0"/>
   <circle cx="-304.83" cy="-349.54" r="0"/>
   <circle cx="-359.94" cy="-336.91" r="0"/>
  </g>
  <circle cx="-918.46" cy="-1338.1" r="0"/>
  <circle cx="-873.48" cy="-1392.9" r="0"/>
  <g transform="matrix(3.7796 0 0 3.7796 334.92 -82.512)" stroke-width=".26458">
   <circle cx="-330.35" cy="-328.38" r="0"/>
   <circle cx="-299.17" cy="-337.27" r="0"/>
   <circle cx="-299.81" cy="-339.42" r="0"/>
   <circle cx="-302.25" cy="-338.13" r="0"/>
   <circle cx="-301.89" cy="-335.91" r="0"/>
   <circle cx="-304.76" cy="-351.05" r="0"/>
   <circle cx="-304.83" cy="-349.54" r="0"/>
   <circle cx="-359.94" cy="-336.91" r="0"/>
  </g>
  <g>
   <circle cx="-872.72" cy="-1299.9" r="0"/>
   <circle cx="-1007.8" cy="-1315.3" r="0"/>
   <circle cx="91.772" cy="-49.773" r="0" fill-rule="evenodd"/>
   <circle cx="-919.14" cy="-1330" r="0"/>
   <circle cx="-968.55" cy="-1291.4" r="0"/>
   <circle cx="130.99" cy="-25.892" r="0" fill-rule="evenodd"/>
   <circle cx="-879.92" cy="-1306.1" r="0"/>
  </g>
 </g>
</svg>
