<?xml version="1.0" encoding="UTF-8"?>
<!-- Created with Inkscape (http://www.inkscape.org/) -->
<svg width="64" height="64" version="1.1" viewBox="0 0 16.933 16.933" xmlns="http://www.w3.org/2000/svg" xmlns:cc="http://creativecommons.org/ns#" xmlns:dc="http://purl.org/dc/elements/1.1/" xmlns:rdf="http://www.w3.org/1999/02/22-rdf-syntax-ns#" xmlns:xlink="http://www.w3.org/1999/xlink">
 <defs>
  <filter id="filter11290" x="-.024" y="-.024" width="1.048" height="1.048" color-interpolation-filters="sRGB">
   <feGaussianBlur stdDeviation="0.15875313"/>
  </filter>
  <linearGradient id="linearGradient931">
   <stop stop-color="#1478f0" offset="0"/>
   <stop stop-color="#145af0" offset="1"/>
  </linearGradient>
  <linearGradient id="linearGradient994" x1="13.305" x2="3.4232" y1="-8.6359" y2="-8.6359" gradientTransform="matrix(1.2341 0 0 1.2341 -1.8995 2.4488)" gradientUnits="userSpaceOnUse">
   <stop stop-color="#c8f0ff" offset="0"/>
   <stop stop-color="#faffff" offset="1"/>
  </linearGradient>
  <linearGradient id="linearGradient933" x1="2.3099" x2="14.703" y1="-2.2394" y2="-14.497" gradientTransform="translate(.10685 -.28642)" gradientUnits="userSpaceOnUse" xlink:href="#linearGradient931"/>
  <linearGradient id="k" x1="152.83" x2="152.83" y1="461.99" y2="516.45" gradientTransform="matrix(.012793 0 0 .012793 6.1196 4.6012)" gradientUnits="userSpaceOnUse">
   <stop stop-color="#146400" stop-opacity="0" offset="0"/>
   <stop stop-color="#1464f2" stop-opacity="0" offset=".094771"/>
   <stop stop-color="#1450f0" offset=".6348"/>
   <stop stop-color="#1450f0" offset="1"/>
  </linearGradient>
  <linearGradient id="j" x1="152.83" x2="152.83" y1="122.6" y2="240.29" gradientTransform="matrix(.012793 0 0 .012793 6.1196 4.6012)" gradientUnits="userSpaceOnUse">
   <stop stop-color="#1478f0" offset="0"/>
   <stop stop-color="#1496f0" offset="1"/>
  </linearGradient>
  <linearGradient id="i" x1="185.74" x2="124.56" y1="424.87" y2="317.06" gradientTransform="matrix(.012793 0 0 .012793 6.1196 4.6012)" gradientUnits="userSpaceOnUse" xlink:href="#linearGradient994"/>
  <linearGradient id="c-3" x1="152.83" x2="152.83" y1="197.81" y2="235.65" gradientTransform="matrix(.012793 0 0 .012793 6.1196 4.6012)" gradientUnits="userSpaceOnUse" xlink:href="#linearGradient931"/>
  <linearGradient id="b" x1="49.179" x2="324.43" y1="290.62" y2="455.45" gradientTransform="matrix(.012793 0 0 .012793 6.1196 4.6012)" gradientUnits="userSpaceOnUse" xlink:href="#linearGradient931"/>
  <linearGradient id="linearGradient1391" x1="13.305" x2="3.4232" y1="-8.6359" y2="-8.6359" gradientTransform="matrix(1.2341 0 0 1.2341 -1.7927 2.1624)" gradientUnits="userSpaceOnUse" xlink:href="#linearGradient994"/>
  <linearGradient id="linearGradient1408" x1=".99455" x2="15.964" y1="16.137" y2="1.1683" gradientUnits="userSpaceOnUse">
   <stop stop-color="#3250e6" offset="0"/>
   <stop stop-color="#0a82f0" offset="1"/>
  </linearGradient>
 </defs>
 <metadata>
  <rdf:RDF>
   <cc:Work rdf:about="">
    <dc:format>image/svg+xml</dc:format>
    <dc:type rdf:resource="http://purl.org/dc/dcmitype/StillImage"/>
    <dc:title/>
   </cc:Work>
  </rdf:RDF>
 </metadata>
 <circle cx="8.4937" cy="8.46" r="7.9377" filter="url(#filter11290)" opacity=".25" stroke-width=".14032"/>
 <path d="m16.439 8.46c0 0.95154-0.16749 1.8639-0.47464 2.7094-0.21351 0.58768-0.49439 1.1433-0.83393 1.6572-0.14222 0.21608-0.29514 0.42475-0.45746 0.62529-0.51966 0.64179-1.1372 1.2007-1.8305 1.6543-0.2553 0.16718-0.52065 0.3201-0.79536 0.45712-1.0668 0.53389-2.2711 0.83421-3.5456 0.83421s-2.4788-0.30032-3.5456-0.83424c-0.27474-0.13705-0.5404-0.28997-0.7957-0.45712-0.70207-0.45973-1.327-1.0274-1.8509-1.6798-0.16263-0.20216-0.31524-0.41275-0.45746-0.63078-0.33046-0.5054-0.60421-1.0507-0.8135-1.627-0.30711-0.84529-0.4743-1.7573-0.4743-2.7085 0-4.3838 3.5537-7.9375 7.9375-7.9375 2.2005 0 4.1917 0.89548 5.6295 2.3417 0.41436 0.41662 0.78274 0.87929 1.0963 1.3795 0.29645 0.47107 0.54428 0.97582 0.73704 1.5068 0.30718 0.84559 0.47467 1.7579 0.47467 2.7094z" fill="url(#linearGradient1408)" stroke-width=".031006"/>
 <g fill="#5e4aa6" stroke-width=".26458">
  <circle cx="-330.35" cy="-328.38" r="0"/>
  <g transform="translate(23.999 2.5837)">
   <circle cx="-330.35" cy="-328.38" r="0"/>
   <circle cx="-299.17" cy="-337.27" r="0"/>
   <circle cx="-299.81" cy="-339.42" r="0"/>
   <circle cx="-302.25" cy="-338.13" r="0"/>
   <circle cx="-301.89" cy="-335.91" r="0"/>
   <circle cx="-304.76" cy="-351.05" r="0"/>
   <circle cx="-304.83" cy="-349.54" r="0"/>
   <circle cx="-359.94" cy="-336.91" r="0"/>
  </g>
  <g transform="translate(24.518 -1.8976)">
   <circle cx="-330.35" cy="-328.38" r="0"/>
   <circle cx="-299.17" cy="-337.27" r="0"/>
   <circle cx="-299.81" cy="-339.42" r="0"/>
   <circle cx="-302.25" cy="-338.13" r="0"/>
   <circle cx="-301.89" cy="-335.91" r="0"/>
   <circle cx="-304.76" cy="-351.05" r="0"/>
   <circle cx="-304.83" cy="-349.54" r="0"/>
   <circle cx="-359.94" cy="-336.91" r="0"/>
  </g>
  <circle cx="-311.92" cy="-331.32" r="0"/>
  <circle cx="-300.02" cy="-345.82" r="0"/>
  <g transform="translate(19.697 .87184)">
   <circle cx="-330.35" cy="-328.38" r="0"/>
   <circle cx="-299.17" cy="-337.27" r="0"/>
   <circle cx="-299.81" cy="-339.42" r="0"/>
   <circle cx="-302.25" cy="-338.13" r="0"/>
   <circle cx="-301.89" cy="-335.91" r="0"/>
   <circle cx="-304.76" cy="-351.05" r="0"/>
   <circle cx="-304.83" cy="-349.54" r="0"/>
   <circle cx="-359.94" cy="-336.91" r="0"/>
  </g>
  <circle cx="-299.82" cy="-321.23" r="0"/>
 </g>
 <g transform="translate(22.816 -2.1556)" fill="#5e4aa6" stroke-width=".26458">
  <circle cx="-305.77" cy="-331.46" r="0"/>
  <circle cx="-301.96" cy="-329.38" r="0"/>
  <circle cx="-298.88" cy="-325.72" r="0"/>
  <circle cx="-301.82" cy="-331.53" r="0"/>
  <g transform="translate(55.39,6.5931)">
   <circle cx="-330.35" cy="-328.38" r="0"/>
   <circle cx="-299.17" cy="-337.27" r="0"/>
   <circle cx="-299.81" cy="-339.42" r="0"/>
   <circle cx="-302.25" cy="-338.13" r="0"/>
   <circle cx="-301.89" cy="-335.91" r="0"/>
   <circle cx="-304.76" cy="-351.05" r="0"/>
   <circle cx="-304.83" cy="-349.54" r="0"/>
   <circle cx="-359.94" cy="-336.91" r="0"/>
  </g>
  <g transform="translate(30.323,-4.155)">
   <circle cx="-330.35" cy="-328.38" r="0"/>
   <g transform="translate(23.999,2.5837)">
    <circle cx="-330.35" cy="-328.38" r="0"/>
    <circle cx="-299.17" cy="-337.27" r="0"/>
    <circle cx="-299.81" cy="-339.42" r="0"/>
    <circle cx="-302.25" cy="-338.13" r="0"/>
    <circle cx="-301.89" cy="-335.91" r="0"/>
    <circle cx="-304.76" cy="-351.05" r="0"/>
    <circle cx="-304.83" cy="-349.54" r="0"/>
    <circle cx="-359.94" cy="-336.91" r="0"/>
   </g>
   <g transform="translate(24.518,-1.8976)">
    <circle cx="-330.35" cy="-328.38" r="0"/>
    <circle cx="-299.17" cy="-337.27" r="0"/>
    <circle cx="-299.81" cy="-339.42" r="0"/>
    <circle cx="-302.25" cy="-338.13" r="0"/>
    <circle cx="-301.89" cy="-335.91" r="0"/>
    <circle cx="-304.76" cy="-351.05" r="0"/>
    <circle cx="-304.83" cy="-349.54" r="0"/>
    <circle cx="-359.94" cy="-336.91" r="0"/>
   </g>
  </g>
  <g transform="translate(28.745,-10.326)">
   <circle cx="-330.35" cy="-328.38" r="0"/>
   <g transform="translate(23.999,2.5837)">
    <circle cx="-330.35" cy="-328.38" r="0"/>
    <circle cx="-299.17" cy="-337.27" r="0"/>
    <circle cx="-299.81" cy="-339.42" r="0"/>
    <circle cx="-302.25" cy="-338.13" r="0"/>
    <circle cx="-301.89" cy="-335.91" r="0"/>
    <circle cx="-304.76" cy="-351.05" r="0"/>
    <circle cx="-304.83" cy="-349.54" r="0"/>
    <circle cx="-359.94" cy="-336.91" r="0"/>
   </g>
   <g transform="translate(24.518,-1.8976)">
    <circle cx="-330.35" cy="-328.38" r="0"/>
    <circle cx="-299.17" cy="-337.27" r="0"/>
    <circle cx="-299.81" cy="-339.42" r="0"/>
    <circle cx="-302.25" cy="-338.13" r="0"/>
    <circle cx="-301.89" cy="-335.91" r="0"/>
    <circle cx="-304.76" cy="-351.05" r="0"/>
    <circle cx="-304.83" cy="-349.54" r="0"/>
    <circle cx="-359.94" cy="-336.91" r="0"/>
   </g>
   <circle cx="-311.92" cy="-331.32" r="0"/>
  </g>
  <g transform="translate(27.094,-3.4375)">
   <circle cx="-330.35" cy="-328.38" r="0"/>
   <g transform="translate(23.999,2.5837)">
    <circle cx="-330.35" cy="-328.38" r="0"/>
    <circle cx="-299.17" cy="-337.27" r="0"/>
    <circle cx="-299.81" cy="-339.42" r="0"/>
    <circle cx="-302.25" cy="-338.13" r="0"/>
    <circle cx="-301.89" cy="-335.91" r="0"/>
    <circle cx="-304.76" cy="-351.05" r="0"/>
    <circle cx="-304.83" cy="-349.54" r="0"/>
    <circle cx="-359.94" cy="-336.91" r="0"/>
   </g>
   <g transform="translate(24.518,-1.8976)">
    <circle cx="-330.35" cy="-328.38" r="0"/>
    <circle cx="-299.17" cy="-337.27" r="0"/>
    <circle cx="-299.81" cy="-339.42" r="0"/>
    <circle cx="-302.25" cy="-338.13" r="0"/>
    <circle cx="-301.89" cy="-335.91" r="0"/>
    <circle cx="-304.76" cy="-351.05" r="0"/>
    <circle cx="-304.83" cy="-349.54" r="0"/>
    <circle cx="-359.94" cy="-336.91" r="0"/>
   </g>
   <circle cx="-311.92" cy="-331.32" r="0"/>
  </g>
  <g transform="translate(29.247,-7.4555)">
   <circle cx="-330.35" cy="-328.38" r="0"/>
   <g transform="translate(23.999,2.5837)">
    <circle cx="-330.35" cy="-328.38" r="0"/>
    <circle cx="-299.17" cy="-337.27" r="0"/>
    <circle cx="-299.81" cy="-339.42" r="0"/>
    <circle cx="-302.25" cy="-338.13" r="0"/>
    <circle cx="-301.89" cy="-335.91" r="0"/>
    <circle cx="-304.76" cy="-351.05" r="0"/>
    <circle cx="-304.83" cy="-349.54" r="0"/>
    <circle cx="-359.94" cy="-336.91" r="0"/>
   </g>
   <g transform="translate(24.518,-1.8976)">
    <circle cx="-330.35" cy="-328.38" r="0"/>
    <circle cx="-299.17" cy="-337.27" r="0"/>
    <circle cx="-299.81" cy="-339.42" r="0"/>
    <circle cx="-302.25" cy="-338.13" r="0"/>
    <circle cx="-301.89" cy="-335.91" r="0"/>
    <circle cx="-304.76" cy="-351.05" r="0"/>
    <circle cx="-304.83" cy="-349.54" r="0"/>
    <circle cx="-359.94" cy="-336.91" r="0"/>
   </g>
   <circle cx="-311.92" cy="-331.32" r="0"/>
   <circle cx="-300.02" cy="-345.82" r="0"/>
   <g transform="translate(19.697 .87184)">
    <circle cx="-330.35" cy="-328.38" r="0"/>
    <circle cx="-299.17" cy="-337.27" r="0"/>
    <circle cx="-299.81" cy="-339.42" r="0"/>
    <circle cx="-302.25" cy="-338.13" r="0"/>
    <circle cx="-301.89" cy="-335.91" r="0"/>
    <circle cx="-304.76" cy="-351.05" r="0"/>
    <circle cx="-304.83" cy="-349.54" r="0"/>
    <circle cx="-359.94" cy="-336.91" r="0"/>
   </g>
   <circle cx="-299.82" cy="-321.23" r="0"/>
  </g>
  <g transform="translate(22.502,-7.025)">
   <circle cx="-330.35" cy="-328.38" r="0"/>
   <g transform="translate(23.999,2.5837)">
    <circle cx="-330.35" cy="-328.38" r="0"/>
    <circle cx="-299.17" cy="-337.27" r="0"/>
    <circle cx="-299.81" cy="-339.42" r="0"/>
    <circle cx="-302.25" cy="-338.13" r="0"/>
    <circle cx="-301.89" cy="-335.91" r="0"/>
    <circle cx="-304.76" cy="-351.05" r="0"/>
    <circle cx="-304.83" cy="-349.54" r="0"/>
    <circle cx="-359.94" cy="-336.91" r="0"/>
   </g>
   <g transform="translate(24.518,-1.8976)">
    <circle cx="-330.35" cy="-328.38" r="0"/>
    <circle cx="-299.17" cy="-337.27" r="0"/>
    <circle cx="-299.81" cy="-339.42" r="0"/>
    <circle cx="-302.25" cy="-338.13" r="0"/>
    <circle cx="-301.89" cy="-335.91" r="0"/>
    <circle cx="-304.76" cy="-351.05" r="0"/>
    <circle cx="-304.83" cy="-349.54" r="0"/>
    <circle cx="-359.94" cy="-336.91" r="0"/>
   </g>
   <circle cx="-311.92" cy="-331.32" r="0"/>
   <circle cx="-300.02" cy="-345.82" r="0"/>
   <g transform="translate(19.697 .87184)">
    <circle cx="-330.35" cy="-328.38" r="0"/>
    <circle cx="-299.17" cy="-337.27" r="0"/>
    <circle cx="-299.81" cy="-339.42" r="0"/>
    <circle cx="-302.25" cy="-338.13" r="0"/>
    <circle cx="-301.89" cy="-335.91" r="0"/>
    <circle cx="-304.76" cy="-351.05" r="0"/>
    <circle cx="-304.83" cy="-349.54" r="0"/>
    <circle cx="-359.94" cy="-336.91" r="0"/>
   </g>
   <circle cx="-299.82" cy="-321.23" r="0"/>
  </g>
 </g>
 <g transform="translate(-.072695 -.15237)">
  <circle transform="scale(1,-1)" cx="8.5743" cy="-8.6124" r="5.8377" color="#000000" fill="url(#linearGradient1391)" stroke="url(#linearGradient933)" stroke-width=".65303"/>
  <g transform="translate(.4995 .73629)" stroke-width=".012793">
   <path d="m9.8144 10.915c-1.1524 0.31458-2.3271 0.31458-3.4794 0-0.12733-0.03478-0.21543-0.15086-0.21543-0.28289v-3.0385c0-0.13198 0.0881-0.24806 0.21543-0.28284 1.1523-0.31457 2.3271-0.31457 3.4794 0 0.12733 0.034778 0.21543 0.15087 0.21543 0.28284v3.0385c0 0.13198-0.0881 0.24806-0.21543 0.28284z" fill="url(#b)"/>
   <path d="m9.7546 7.2952c-0.023535-0.00619-0.047071-0.01235-0.070606-0.018285-0.01585-0.00399-0.031684-0.00782-0.047519-0.011682-0.0229-0.00562-0.045776-0.011096-0.068709-0.016485-0.016038-0.00374-0.032083-0.00741-0.048121-0.011047-0.022941-0.00521-0.045874-0.010192-0.068807-0.015142-0.01585-0.00342-0.031684-0.00676-0.047527-0.010103-0.023633-0.00488-0.047323-0.00961-0.071013-0.014239-0.015044-0.00293-0.030032-0.00594-0.045076-0.0088-0.025986-0.00488-0.051972-0.00956-0.077909-0.014149-0.0127-0.00236-0.025383-0.00456-0.038075-0.00676-0.038629-0.00659-0.077257-0.012895-0.11589-0.018732-7.099e-4 -1.091e-4 -0.00138-2.173e-4 -0.00212-4.73e-4 -0.037977-0.00578-0.075955-0.011145-0.11394-0.016249-0.012798-0.00163-0.025587-0.00326-0.038327-0.00488-0.025986-0.00334-0.051972-0.00659-0.077958-0.00966-0.015093-0.00163-0.030178-0.00334-0.045272-0.00497-0.023739-0.00261-0.047527-0.00513-0.071258-0.00749-0.015899-0.00163-0.031782-0.00301-0.047722-0.00448-0.023039-0.00212-0.046127-0.00407-0.069214-0.00586-0.016135-0.00122-0.032336-0.00252-0.048471-0.00366-0.02299-0.00163-0.046029-0.00317-0.069059-0.00456-0.015989-9.769e-4 -0.031978-0.00187-0.047926-0.00285-0.023788-0.00122-0.047576-0.00236-0.071306-0.00342-0.015093-7.099e-4 -0.030235-0.00138-0.045272-0.00187-0.026132-9.769e-4 -0.052224-0.00163-0.078308-0.00236-0.012749-2.361e-4 -0.025489-7.091e-4 -0.03823-9.769e-4 -0.038726-7.099e-4 -0.077559-0.00122-0.11628-0.00122h-4.81e-5c-0.038775 0-0.077559 4.729e-4 -0.11628 0.00122-0.012749 2.369e-4 -0.025538 7.099e-4 -0.038279 9.769e-4 -0.026084 7.099e-4 -0.052118 0.00122-0.07821 0.00236-0.015093 4.73e-4 -0.030235 0.00122-0.045329 0.00187-0.023788 9.769e-4 -0.047576 0.00212-0.071306 0.00342-0.01594 9.769e-4 -0.031929 0.00187-0.047869 0.00285-0.023039 0.00138-0.046069 0.00293-0.069108 0.00456-0.016176 0.00122-0.032336 0.00236-0.048471 0.00366-0.023088 0.00187-0.046175 0.00383-0.069214 0.00586-0.015899 0.00138-0.031782 0.00285-0.047722 0.00448-0.023739 0.00236-0.047527 0.00488-0.071258 0.00749-0.015093 0.00163-0.030187 0.00326-0.045272 0.00497-0.025986 0.00301-0.051972 0.00627-0.077958 0.00966-0.012749 0.00163-0.025538 0.00317-0.038279 0.00488-0.037977 0.00505-0.075906 0.010502-0.11384 0.016298-7.098e-4 1.091e-4 -0.00138 2.173e-4 -0.00236 2.361e-4 -0.038629 0.00586-0.077257 0.012187-0.11583 0.018781-0.0127 0.00212-0.025383 0.00456-0.038083 0.00676-0.025986 0.00456-0.051972 0.00925-0.077958 0.014149-0.014996 0.00285-0.029983 0.00586-0.044979 0.0088-0.023739 0.00464-0.047421 0.00935-0.071111 0.014239-0.01585 0.00334-0.031684 0.00668-0.047527 0.010103-0.022949 0.00497-0.045825 0.00993-0.068709 0.015142-0.016086 0.00358-0.032181 0.00733-0.048276 0.011047-0.0229 0.00537-0.045728 0.010835-0.068612 0.016437-0.01585 0.00383-0.031684 0.00773-0.047527 0.011755-0.023535 0.00586-0.047071 0.012089-0.070606 0.018285-0.015044 0.00399-0.030032 0.00782-0.045027 0.011902-0.00668 0.00187-0.013245 0.00366-0.019896 0.00545-0.070614 0.020694-0.12868 0.066463-0.16576 0.12603 1.2638 0.37994 2.5574 0.37994 3.8213 0-0.037131-0.059567-0.095197-0.10534-0.16581-0.12603-0.00659-0.00187-0.013245-0.00366-0.019896-0.00545-0.015044-0.00407-0.030081-0.00798-0.045076-0.011902z" fill="url(#c-3)"/>
   <path d="m8.5953 9.0279c0-0.29983-0.25341-0.54045-0.55774-0.51936-0.25621 0.017739-0.46389 0.22502-0.48218 0.48118-0.013156 0.1848 0.070207 0.35085 0.20478 0.45295 0.091948 0.06981 0.14342 0.18065 0.14342 0.29608v0.21313c0 0.0942 0.073708 0.175 0.16785 0.1767 0.095947 0.0019 0.1743-0.07546 0.1743-0.171v-0.22452c0-0.11254 0.050319-0.22073 0.14042-0.28814 0.12693-0.0949 0.20913-0.24636 0.20913-0.41702z" fill="url(#i)"/>
   <path d="m9.2728 7.5267c-0.13857 0-0.25096-0.11239-0.25096-0.25096v-1.2255c0-0.52226-0.42486-0.94712-0.94712-0.94712-0.52231 0-0.94717 0.42486-0.94717 0.94712v1.2255c0 0.13857-0.11239 0.25096-0.25096 0.25096-0.13862 0-0.25096-0.11239-0.25096-0.25096v-1.2255c0-0.799 0.65004-1.449 1.4491-1.449 0.799 0 1.449 0.65004 1.449 1.449v1.2255c0 0.13857-0.11234 0.25096-0.25096 0.25096z" fill="url(#j)"/>
   <path d="m6.1196 9.7982v0.83418c0 0.13198 0.0881 0.24806 0.21548 0.28284 1.1523 0.31458 2.327 0.31458 3.4793 0 0.12733-0.03478 0.21543-0.15086 0.21543-0.28284v-0.83418z" fill="url(#k)"/>
  </g>
 </g>
</svg>
