<?xml version="1.0" encoding="UTF-8" standalone="no"?>
<svg
   xmlns:dc="http://purl.org/dc/elements/1.1/"
   xmlns:cc="http://creativecommons.org/ns#"
   xmlns:rdf="http://www.w3.org/1999/02/22-rdf-syntax-ns#"
   xmlns:svg="http://www.w3.org/2000/svg"
   xmlns="http://www.w3.org/2000/svg"
   xmlns:sodipodi="http://sodipodi.sourceforge.net/DTD/sodipodi-0.dtd"
   xmlns:inkscape="http://www.inkscape.org/namespaces/inkscape"
   width="64"
   height="64"
   version="1.1"
   viewBox="0 0 16.933 16.933"
   id="svg38"
   sodipodi:docname="preferences-desktop-notification.svg"
   inkscape:version="0.92.4 5da689c313, 2019-01-14">
  <metadata
     id="metadata42">
    <rdf:RDF>
      <cc:Work
         rdf:about="">
        <dc:format>image/svg+xml</dc:format>
        <dc:type
           rdf:resource="http://purl.org/dc/dcmitype/StillImage" />
        <dc:title></dc:title>
      </cc:Work>
    </rdf:RDF>
  </metadata>
  <sodipodi:namedview
     pagecolor="#ffffff"
     bordercolor="#666666"
     borderopacity="1"
     objecttolerance="10"
     gridtolerance="10"
     guidetolerance="10"
     inkscape:pageopacity="0"
     inkscape:pageshadow="2"
     inkscape:window-width="1920"
     inkscape:window-height="1005"
     id="namedview40"
     showgrid="false"
     inkscape:zoom="3.6875"
     inkscape:cx="-20.544936"
     inkscape:cy="38.768939"
     inkscape:window-x="0"
     inkscape:window-y="45"
     inkscape:window-maximized="1"
     inkscape:current-layer="svg38" />
  <defs
     id="defs12">
    <linearGradient
       id="b"
       x1="515.66"
       x2="513.83"
       y1="-5.4857"
       y2="1025.8"
       gradientUnits="userSpaceOnUse">
      <stop
         stop-color="#fff"
         offset="0"
         id="stop2" />
      <stop
         stop-color="#d7d7d7"
         offset="1"
         id="stop4" />
    </linearGradient>
    <linearGradient
       id="a"
       x1="-6.1472"
       x2="-6.1472"
       y1="-137.82"
       y2="-100.78"
       gradientTransform="matrix(0.53033,0,0,0.53033,11.536,352.06)"
       gradientUnits="userSpaceOnUse">
      <stop
         stop-color="#14dc78"
         offset="0"
         id="stop7" />
      <stop
         stop-color="#14a03c"
         offset="1"
         id="stop9" />
    </linearGradient>
    <filter
       color-interpolation-filters="sRGB"
       height="1.048"
       width="1.048"
       y="-.024"
       x="-.024"
       id="filter11290">
      <feGaussianBlur
         id="feGaussianBlur849"
         stdDeviation="0.15875313" />
    </filter>
    <linearGradient
       gradientUnits="userSpaceOnUse"
       y2="16.435"
       y1=".60248"
       x2=".60699"
       x1="16.439"
       id="linearGradient7233"
       gradientTransform="translate(41.075605,-3.1562544)">
      <stop
         id="stop852"
         offset="0"
         stop-color="#0a82f0" />
      <stop
         id="stop854"
         offset="1"
         stop-color="#3250e6" />
    </linearGradient>
    <linearGradient
       gradientUnits="userSpaceOnUse"
       gradientTransform="matrix(0.2399,0,0,0.25621,-39.974395,-129.66625)"
       y2="546.21"
       y1="507.72"
       x2="394.95"
       x1="352.61"
       id="c">
      <stop
         id="stop857"
         offset="0"
         stop-color="#fafdfc" />
      <stop
         id="stop859"
         offset="1"
         stop-color="#c6efff" />
    </linearGradient>
    <linearGradient
       gradientUnits="userSpaceOnUse"
       gradientTransform="matrix(0.93636,0,0,1,41.649175,-3.0222744)"
       y2="8.326"
       y1="8.326"
       x2="14.354"
       x1="2.5804"
       id="linearGradient981">
      <stop
         id="stop862"
         offset="0"
         stop-color="#1478f0" />
      <stop
         id="stop864"
         offset="1"
         stop-color="#145af0" />
    </linearGradient>
  </defs>
  <g
     style="fill:#5e4aa6;stroke-width:0.26458001"
     id="g891"
     transform="translate(41.075605,-3.1562544)">
    <circle
       cx="-330.35001"
       cy="-328.38"
       r="0"
       id="circle875" />
    <circle
       cx="-299.17001"
       cy="-337.26999"
       r="0"
       id="circle877" />
    <circle
       cx="-299.81"
       cy="-339.42001"
       r="0"
       id="circle879" />
    <circle
       cx="-302.25"
       cy="-338.13"
       r="0"
       id="circle881" />
    <circle
       cx="-301.89001"
       cy="-335.91"
       r="0"
       id="circle883" />
    <circle
       cx="-304.76001"
       cy="-351.04999"
       r="0"
       id="circle885" />
    <circle
       cx="-304.82999"
       cy="-349.54001"
       r="0"
       id="circle887" />
    <circle
       cx="-359.94"
       cy="-336.91"
       r="0"
       id="circle889" />
  </g>
  <g
     id="g943"
     transform="translate(-41.102805,3.1627544)">
    <circle
       id="circle871"
       r="7.9376998"
       cy="5.3037457"
       cx="49.569305"
       style="opacity:0.25;stroke-width:0.14032;filter:url(#filter11290)" />
    <path
       id="path873"
       d="m 57.514605,5.3037456 c 0,0.95154 -0.16749,1.8639 -0.47464,2.7094 -0.21351,0.58768 -0.49439,1.1433 -0.83393,1.6572 -0.14222,0.21608 -0.29514,0.4247504 -0.45746,0.6252904 -0.51966,0.64179 -1.1372,1.2007 -1.8305,1.6543 -0.2553,0.16718 -0.52065,0.3201 -0.79536,0.45712 -1.0668,0.53389 -2.2711,0.83421 -3.5456,0.83421 -1.2745,0 -2.4788,-0.30032 -3.5456,-0.83424 -0.27474,-0.13705 -0.5404,-0.28997 -0.7957,-0.45712 -0.70207,-0.45973 -1.327,-1.0274 -1.8509,-1.6798 -0.16263,-0.20216 -0.31524,-0.4127504 -0.45746,-0.6307804 -0.33046,-0.5054 -0.60421,-1.0507 -0.8135,-1.627 -0.30711,-0.84529 -0.4743,-1.7573 -0.4743,-2.7085 0,-4.3838 3.5537,-7.9375 7.9375,-7.9375 2.2005,0 4.1917,0.89548 5.6295,2.3417 0.41436,0.41662 0.78274,0.87929 1.0963,1.3795 0.29645,0.47107 0.54428,0.97582 0.73704,1.5068 0.30718,0.84559 0.47467,1.7579 0.47467,2.7094 z"
       inkscape:connector-curvature="0"
       style="fill:url(#linearGradient7233);stroke-width:0.031006" />
    <path
       id="path895"
       d="m 53.245605,1.7212456 c -0.98108,-0.85268 -2.2837,-1.3223 -3.6681,-1.3223 -1.3843,0 -2.687,0.4696 -3.6681,1.3223 -0.9896,0.86009 -1.5346,2.0064 -1.5346,3.2276 0,1.1657 0.4968,2.2628 1.4024,3.108 -0.01633,0.03922 -0.02929,0.08049 -0.03756,0.12388 l -0.29756,1.5632 c -0.03538,0.18578 0.01217,0.2965704 0.05824,0.3568104 0.05327,0.0696 0.13222,0.10795 0.22234,0.10795 0.06804,0 0.14117,-0.02144 0.21737,-0.06374 l 1.7308,-0.9602904 c 0.59924,0.20599 1.2435,0.314 1.9065,0.314 1.3843,0 2.687,-0.4696 3.6681,-1.3223 0.98958,-0.86006 1.5346,-2.0063 1.5346,-3.2276 0,-1.2214 -0.54498,-2.3676 -1.5346,-3.2279 z"
       inkscape:connector-curvature="0"
       style="fill:url(#c);stroke:url(#linearGradient981);stroke-width:0.64004999" />
  </g>
</svg>
