<?xml version="1.0" encoding="UTF-8"?>
<!-- Created with Inkscape (http://www.inkscape.org/) -->
<svg width="64" height="64" version="1.1" viewBox="0 0 16.933 16.933" xmlns="http://www.w3.org/2000/svg" xmlns:cc="http://creativecommons.org/ns#" xmlns:dc="http://purl.org/dc/elements/1.1/" xmlns:rdf="http://www.w3.org/1999/02/22-rdf-syntax-ns#" xmlns:xlink="http://www.w3.org/1999/xlink">
 <defs>
  <filter id="filter11290" x="-.024" y="-.024" width="1.048" height="1.048" color-interpolation-filters="sRGB">
   <feGaussianBlur stdDeviation="0.15875313"/>
  </filter>
  <linearGradient id="linearGradient994-1" x1="13.131" x2="3.7382" y1="-4.101" y2="-13.46" gradientTransform="matrix(1.2341 0 0 1.2341 6.2837 2.6817)" gradientUnits="userSpaceOnUse">
   <stop stop-color="#0a82f0" offset="0"/>
   <stop stop-color="#3250e6" offset="1"/>
  </linearGradient>
 </defs>
 <metadata>
  <rdf:RDF>
   <cc:Work rdf:about="">
    <dc:format>image/svg+xml</dc:format>
    <dc:type rdf:resource="http://purl.org/dc/dcmitype/StillImage"/>
    <dc:title/>
   </cc:Work>
  </rdf:RDF>
 </metadata>
 <circle cx="8.4937" cy="8.46" r="7.9377" filter="url(#filter11290)" opacity=".25" stroke-width=".14032"/>
 <path d="m16.439 8.46c0 0.95154-0.16749 1.8639-0.47464 2.7094-0.21351 0.58768-0.49439 1.1433-0.83393 1.6572-0.14222 0.21608-0.29514 0.42475-0.45746 0.62529-0.51966 0.64179-1.1372 1.2007-1.8305 1.6543-0.2553 0.16718-0.52065 0.3201-0.79536 0.45712-1.0668 0.53389-2.2711 0.83421-3.5456 0.83421s-2.4788-0.30032-3.5456-0.83424c-0.27474-0.13705-0.5404-0.28997-0.7957-0.45712-0.70207-0.45973-1.327-1.0274-1.8509-1.6798-0.16263-0.20216-0.31524-0.41275-0.45746-0.63078-0.33046-0.5054-0.60421-1.0507-0.8135-1.627-0.30711-0.84529-0.4743-1.7573-0.4743-2.7085 0-4.3838 3.5537-7.9375 7.9375-7.9375 2.2005 0 4.1917 0.89548 5.6295 2.3417 0.41436 0.41662 0.78274 0.87929 1.0963 1.3795 0.29645 0.47107 0.54428 0.97582 0.73704 1.5068 0.30718 0.84559 0.47467 1.7579 0.47467 2.7094z" fill="#fafafa" stroke-width=".031006"/>
 <g fill="#5e4aa6">
  <circle cx="-330.35" cy="-328.38" r="0" stroke-width=".26458"/>
  <g stroke-width=".26458">
   <circle cx="-299.17" cy="-337.27" r="0"/>
   <circle cx="-299.81" cy="-339.42" r="0"/>
   <circle cx="-302.25" cy="-338.13" r="0"/>
   <circle cx="-301.89" cy="-335.91" r="0"/>
   <circle cx="-304.76" cy="-351.05" r="0"/>
   <circle cx="-304.83" cy="-349.54" r="0"/>
   <circle cx="-359.94" cy="-336.91" r="0"/>
  </g>
 </g>
 <circle cx="40.465" cy="-9.1299" r="7.9373" fill-opacity="0" stroke-width=".41578"/>
 <g transform="translate(-8.1491 .36687)">
  <circle transform="scale(1,-1)" cx="16.651" cy="-8.0932" r="5.8377" color="#000000" fill="url(#linearGradient994-1)" stroke="#e6e6e6" stroke-width=".65303"/>
  <path d="m19.237 3.8115c-0.30796-0.18222-0.42289-0.23346-0.68282 0.1161l-0.09305 0.12282c-0.17854 0.22092-0.24939 0.32674-0.51368 0.25354-0.01732-0.00555-0.03477-0.01086-0.05221-0.01608-4e-3 -0.00148-0.0076-0.00259-0.01208-0.00346l3.87e-4 3.838e-4c-0.06613-0.019507-0.13252-0.03713-0.19917-0.053037l9.4e-4 -3.234e-4c-0.01141-0.00222-0.02161-0.00457-0.03213-0.00703-0.01014-0.00234-0.02029-0.00469-0.03033-0.00703-0.26844-0.068612-0.27664-0.19556-0.32098-0.47721l-0.01926-0.15295c-0.02516-0.21632-0.06892-0.32772-0.15123-0.38459-0.01042-0.00691-0.02135-0.013217-0.03276-0.018919-0.08066-0.038602-0.19269-0.040022-0.34924-0.038257-0.35781-0.00395-0.48289 0.00926-0.53322 0.44184l-0.01928 0.15285c-0.04755 0.30212-0.05325 0.42636-0.38347 0.49135l0.0066 0.0021c-0.0702 0.016808-0.13989 0.035579-0.20909 0.056114l0.0047-0.00531c-0.31847 0.10884-0.38552 0.00407-0.57776-0.23378l-0.09305-0.12283c-0.08123-0.1092-0.14831-0.17929-0.21153-0.21848-0.13897-0.086436-0.2595-0.022917-0.47117 0.10244-0.31186 0.17546-0.41372 0.24947-0.24098 0.64932l0.05979 0.14209c0.10244 0.2661 0.15883 0.38014-0.03937 0.57376-0.0077 0.00703-0.01517 0.014155-0.02276 0.021288-8e-3 0.0074-0.0155 0.014587-0.0242 0.022226l9.38e-4 -3.258e-4c-0.04973 0.047118-0.09844 0.095568-0.14596 0.14553l1.38e-4 -5.035e-4c-3e-3 0.00358-0.0056 0.00592-0.0085 0.00913-0.01251 0.013217-0.02484 0.026632-0.03718 0.040034-0.19229 0.19553-0.30654 0.13931-0.57163 0.037259l-0.14198-0.059853c-0.39985-0.17272-0.47393-0.070985-0.64938 0.24087-0.18236 0.30788-0.23342 0.42291 0.11609 0.68282l0.12283 0.093038c0.22093 0.17853 0.32672 0.24942 0.25354 0.51368-0.0054 0.017391-0.01089 0.034776-0.01608 0.052217-0.0012 0.00374-0.0024 0.00776-0.0037 0.011934l3.64e-4 -3.651e-4c-0.01952 0.066155-0.03711 0.13253-0.05305 0.19917l-2.88e-4 -0.00103c-0.0022 0.011366-0.0047 0.021554-7e-3 0.032136-0.0023 0.010157-0.0048 0.020243-7e-3 0.030353-0.06859 0.26845-0.19555 0.27664-0.47721 0.32098l-0.15295 0.019267c-0.43264 0.05033-0.44575 0.17543-0.44177 0.53324-4e-3 0.35781 0.0092 0.48289 0.44184 0.53322l0.15283 0.019295c0.30212 0.047548 0.42635 0.053254 0.49134 0.38348l0.0021-0.00676c0.01679 0.07023 0.03558 0.13989 0.05612 0.20908l-0.0051-0.00465c0.10882 0.31848 0.0041 0.38552-0.23378 0.57777l-0.12284 0.09305c-0.34952 0.25991-0.29845 0.37494-0.1161 0.68282 0.17546 0.31186 0.24953 0.4136 0.64938 0.24087l0.14209-0.05979c0.2661-0.10244 0.38015-0.15882 0.57376 0.03938 7e-3 0.0077 0.01411 0.01528 0.0213 0.02271 0.0074 0.0079 0.01457 0.01554 0.02216 0.02434l-1.89e-4 -9.78e-4c0.04715 0.0497 0.09557 0.09846 0.14553 0.14597l-5.22e-4 -1.62e-4c0.0033 0.0028 0.0062 0.0053 9e-3 0.0088 0.01342 0.01222 0.02664 0.02478 0.04001 0.03721 0.19554 0.19227 0.13931 0.30654 0.03726 0.57163l-0.05984 0.14199c-0.17274 0.39985-0.07099 0.47393 0.24087 0.64939 0.30796 0.18222 0.42289 0.23347 0.68282-0.11609l0.09305-0.12282c0.17854-0.22092 0.24938-0.32674 0.51368-0.25354 0.01732 0.0056 0.0348 0.01086 0.05223 0.01604 4e-3 0.0015 0.0076 0.0027 0.01209 0.0035l-3.87e-4 -3.82e-4c0.06613 0.01951 0.13252 0.03713 0.19917 0.05305l-9.41e-4 3.25e-4c0.01141 0.0022 0.02161 0.0044 0.03215 7e-3 0.01016 0.0023 0.02031 0.0046 0.03031 0.0072 0.26843 0.06862 0.27664 0.19556 0.32098 0.4772l0.01926 0.15295c0.05033 0.43264 0.17543 0.44575 0.53324 0.44176 0.35781 0.0039 0.48289-0.0093 0.53322-0.44184l0.01927-0.15284c0.04754-0.30212 0.05325-0.42635 0.38347-0.49134l-0.0066-0.0021c0.0702-0.01681 0.13988-0.03558 0.20909-0.05611l-0.0047 0.0052c0.31848-0.10882 0.38553-0.0041 0.57777 0.23378l0.09305 0.12283c0.25991 0.34952 0.37484 0.29835 0.6827 0.11603 0.31186-0.17546 0.41372-0.24947 0.24099-0.64931l-0.05979-0.1421c-0.10238-0.26603-0.15876-0.38009 0.03944-0.5737 0.0077-7e-3 0.01517-0.01417 0.02271-0.02131 0.0079-0.0074 0.01543-0.01462 0.02423-0.0222l-9.41e-4 3.25e-4c0.04973-0.04712 0.09844-0.09557 0.14596-0.14554l-1.38e-4 5.04e-4c0.0031-0.0036 0.0056-0.0059 0.0084-0.0091 0.01249-0.01323 0.02479-0.02666 0.03721-0.04002 0.19228-0.19554 0.30654-0.13931 0.57163-0.03726l0.14198 0.05985c0.39985 0.17272 0.47393 0.07099 0.64938-0.24087 0.18233-0.3079 0.23347-0.42289-0.11609-0.68282l-0.12283-0.09304c-0.22089-0.17867-0.32671-0.2495-0.2535-0.51382 0.0054-0.017372 0.01086-0.034806 0.01606-0.052234 0.0011-0.00375 0.0023-0.00776 0.0037-0.011909l-3.65e-4 3.647e-4c0.01952-0.066155 0.03711-0.13253 0.05307-0.19917l2.94e-4 0.00104c0.0022-0.011341 0.0046-0.021513 7e-3 -0.032142 0.0023-0.010169 0.0048-0.020152 0.0072-0.030322 0.06858-0.26845 0.19554-0.27664 0.4772-0.32098l0.15295-0.019263c0.43264-0.05033 0.44574-0.17543 0.44176-0.53324 0.0027-0.24599-0.0026-0.38202-0.1468-0.45938-0.06554-0.035189-0.15983-0.058122-0.29504-0.073842l-0.15283-0.019301c-0.30216-0.047555-0.42639-0.053257-0.49138-0.38348l-0.0021 0.00678c-0.01676-0.070225-0.03554-0.13988-0.05609-0.20908l0.0051 0.00471c-0.10898-0.31866-0.0043-0.38571 0.23362-0.57796l0.12285-0.093051c0.34956-0.2599 0.29843-0.37482 0.11608-0.6827-0.08773-0.15593-0.15011-0.25939-0.24052-0.30224-0.09042-0.042823-0.20887-0.025114-0.40879 0.06126l-0.14209 0.059792c-0.2661 0.10243-0.38015 0.15882-0.57377-0.03938-7e-3 -0.00765-0.01413-0.015241-0.02129-0.022732-0.0075-0.0079-0.01459-0.0155-0.02221-0.024238l1.86e-4 9.824e-4c-0.04711-0.049759-0.09557-0.098444-0.14553-0.14596l5.22e-4 1.506e-4c-0.0033-0.00284-0.0062-0.00531-9e-3 -0.00876-0.01342-0.012218-0.02662-0.02483-0.04002-0.037171-0.19554-0.19228-0.13931-0.30655-0.03726-0.57164l0.05984-0.14199c0.17273-0.39984 0.07099-0.47392-0.24087-0.64938zm-1.0287 1.7802c2.39e-4 1.382e-4 4.56e-4 2.628e-4 6.7e-4 3.862e-4 0.29099 0.16803 0.54324 0.38063 0.75277 0.62462a0.79605 0.79605 0 0 0 0.08579 0.57646 0.79605 0.79605 0 0 0 0.45527 0.36174c0.20849 0.59459 0.22639 1.257 0.01529 1.8893-0.05316 0.15928-0.23903 0.22976-0.38444 0.14579l-0.71117-0.41059c-0.10165-0.058671-0.15268-0.17715-0.12549-0.29132 0.16324-0.68529-0.14137-1.3935-0.75091-1.7465-0.10755-0.061227-0.22178-0.10999-0.34052-0.14483-0.11303-0.033135-0.19067-0.13681-0.19067-0.25461l-7.5e-5 -0.81976c3.9e-5 -0.16762 0.15355-0.29322 0.31786-0.26007 0.30771 0.062026 0.60334 0.17324 0.87562 0.32944zm-1.8462-0.29256c0.07589 0.049129 0.1221 0.13297 0.12208 0.22338l7.6e-5 0.81976c7e-6 0.11747-0.07721 0.22096-0.18982 0.25441-0.38952 0.11572-0.71989 0.37579-0.92377 0.72727-0.20287 0.35234-0.26335 0.76865-0.16896 1.1641 0.02729 0.1142-0.02369 0.23275-0.12535 0.29149l-0.70812 0.40893c-0.14534 0.08392-0.33111 0.013549-0.38435-0.14563-0.2069-0.6179-0.19856-1.2819 0.01271-1.8878a0.79605 0.79605 0 0 0 0.45494-0.36197 0.79605 0.79605 0 0 0 0.08575-0.5748c0.41898-0.48628 0.98984-0.82589 1.6286-0.95587 0.06767-0.01376 0.13808-6.306e-4 0.19622 0.036653zm1.7956 3.9402 0.70825 0.40891c0.14543 0.083937 0.17732 0.28014 0.06596 0.40582-0.44174 0.49866-1.024 0.81434-1.6428 0.93122a0.79605 0.79605 0 0 0-0.15793-0.11436 0.79605 0.79605 0 0 0-0.38161-0.09751 0.79605 0.79605 0 0 0-0.54087 0.21331c-0.31635-0.05913-0.62696-0.17106-0.91835-0.33886-3.47e-4 -2.01e-4 -7.17e-4 -4.14e-4 -0.0011-6.54e-4 -0.27099-0.15817-0.51493-0.35861-0.72215-0.59422-0.11064-0.12574-0.07856-0.32127 0.06646-0.40508l0.70896-0.40935c0.102-0.05887 0.23061-0.043468 0.31583 0.037829 0.08962 0.085457 0.18902 0.1601 0.29592 0.22262 0.61057 0.35165 1.3764 0.26147 1.8884-0.22269 0.08528-0.08064 0.2134-0.095684 0.31504-0.036987z" color="#000000" fill="#fff"/>
  <path d="m18.475 5.1325c-1.4138-0.81625-3.1661-0.51637-4.2376 0.62461a0.79605 0.79605 0 0 1 0.30058 0.46124c0.41898-0.48628 0.98984-0.82589 1.6286-0.95588 0.06767-0.01376 0.13808-6.294e-4 0.19622 0.036652 0.07589 0.049129 0.1221 0.13297 0.12208 0.22338l7.6e-5 0.81976c6e-6 0.11746-0.07721 0.22096-0.18982 0.25441-0.38952 0.11572-0.71989 0.37579-0.92377 0.72727-0.20287 0.35234-0.26335 0.76865-0.16896 1.1641 0.02729 0.1142-0.02369 0.23275-0.12535 0.29149l-0.70812 0.40893c-0.14534 0.083921-0.33111 0.013549-0.38435-0.14563-0.2069-0.6179-0.19856-1.2819 0.01271-1.8878a0.79605 0.79605 0 0 1-0.54973-0.029694c-0.4522 1.4984 0.16418 3.1657 1.5779 3.9819 0.29964 0.173 0.61456 0.29535 0.93496 0.37074a0.79605 0.79605 0 0 1 0.24897-0.49135c-0.31636-0.05913-0.62697-0.17105-0.91835-0.33886-3.48e-4 -2e-4 -7.17e-4 -4.13e-4 -0.0011-6.54e-4 -0.27099-0.15817-0.51492-0.35862-0.72215-0.59422-0.11064-0.12574-0.07856-0.32127 0.06646-0.40508l0.70896-0.40935c0.102-0.05887 0.23061-0.043467 0.31583 0.03783 0.08962 0.085456 0.18902 0.1601 0.29592 0.22262 0.61057 0.35165 1.3764 0.26147 1.8884-0.22269 0.08528-0.080641 0.2134-0.095684 0.31504-0.036987l0.70825 0.40891c0.14543 0.083937 0.17732 0.28014 0.06596 0.40582-0.44174 0.49865-1.024 0.81434-1.6428 0.93122a0.79605 0.79605 0 0 1 0.25054 0.49116c0.89376-0.21059 1.7022-0.77423 2.1973-1.6317 0.49517-0.85766 0.57902-1.8399 0.31432-2.7193a0.79605 0.79605 0 0 1-0.54846 0.029539c0.20849 0.59459 0.22639 1.257 0.01529 1.8893-0.05316 0.15928-0.23903 0.22976-0.38444 0.14579l-0.71116-0.41059c-0.10165-0.058671-0.15269-0.17715-0.12549-0.29132 0.16324-0.68529-0.14137-1.3935-0.75091-1.7465-0.10755-0.061227-0.22178-0.10999-0.34052-0.14483-0.11303-0.033135-0.19067-0.13681-0.19067-0.25461l-7.5e-5 -0.81976c3.8e-5 -0.16762 0.15355-0.29322 0.31786-0.26007 0.30771 0.062025 0.60334 0.17324 0.87562 0.32944 2.39e-4 1.37e-4 4.56e-4 2.629e-4 6.7e-4 3.863e-4 0.29099 0.16803 0.54324 0.38063 0.75277 0.62462a0.79605 0.79605 0 0 1 0.30085-0.4602c-0.22543-0.23964-0.48876-0.4511-0.78827-0.62402zm-1.1941 2.0682a1.0614 1.0614 0 0 1 0.3885 1.4499 1.0614 1.0614 0 0 1-1.4499 0.3885 1.0614 1.0614 0 0 1-0.3885-1.4499 1.0614 1.0614 0 0 1 1.4499-0.3885z" color="#000000" opacity=".1"/>
  <path d="m19.92 6.0414a0.39803 0.39803 0 0 0-0.38151 0.00913 0.39803 0.39803 0 0 0-0.14571 0.54364 0.39803 0.39803 0 0 0 0.54364 0.14571 0.39803 0.39803 0 0 0 0.14577-0.54375 0.39803 0.39803 0 0 0-0.16218-0.15469zm-5.9584 0.00901a0.39803 0.39803 0 0 0-0.54371 0.14568 0.39803 0.39803 0 0 0 0.14569 0.54372 0.39803 0.39803 0 0 0 0.54372-0.14569 0.39803 0.39803 0 0 0-0.14569-0.54371zm2.9793 5.1698a0.39803 0.39803 0 0 0-0.1909-0.04872 0.39803 0.39803 0 0 0-0.39795 0.39801 0.39803 0.39803 0 0 0 0.39801 0.39795 0.39803 0.39803 0 0 0 0.39795-0.398 0.39803 0.39803 0 0 0-0.20711-0.34923z" enable-background="new" fill="#e6e6e6"/>
 </g>
</svg>
