<?xml version="1.0" encoding="UTF-8"?>
<!-- Created with Inkscape (http://www.inkscape.org/) -->
<svg width="64" height="64" version="1.1" viewBox="0 0 16.933 16.933" xmlns="http://www.w3.org/2000/svg" xmlns:cc="http://creativecommons.org/ns#" xmlns:dc="http://purl.org/dc/elements/1.1/" xmlns:rdf="http://www.w3.org/1999/02/22-rdf-syntax-ns#" xmlns:xlink="http://www.w3.org/1999/xlink">
 <defs>
  <filter id="filter11290" x="-.024" y="-.024" width="1.048" height="1.048" color-interpolation-filters="sRGB">
   <feGaussianBlur stdDeviation="0.15875313"/>
  </filter>
  <linearGradient id="linearGradient994-3" x1="3.8078" x2="13.213" y1="-13.348" y2="-3.9852" gradientTransform="matrix(1.2341,0,0,1.2341,-1.8996,2.4489)" gradientUnits="userSpaceOnUse">
   <stop stop-color="#0a82f0" offset="0"/>
   <stop stop-color="#3250e6" offset="1"/>
  </linearGradient>
 </defs>
 <metadata>
  <rdf:RDF>
   <cc:Work rdf:about="">
    <dc:format>image/svg+xml</dc:format>
    <dc:type rdf:resource="http://purl.org/dc/dcmitype/StillImage"/>
    <dc:title/>
   </cc:Work>
  </rdf:RDF>
 </metadata>
 <circle cx="8.4937" cy="8.46" r="7.9377" filter="url(#filter11290)" opacity=".25" stroke-width=".14032"/>
 <path d="m16.439 8.46c0 0.95154-0.16749 1.8639-0.47464 2.7094-0.21351 0.58768-0.49439 1.1433-0.83393 1.6572-0.14222 0.21608-0.29514 0.42475-0.45746 0.62529-0.51966 0.64179-1.1372 1.2007-1.8305 1.6543-0.2553 0.16718-0.52065 0.3201-0.79536 0.45712-1.0668 0.53389-2.2711 0.83421-3.5456 0.83421s-2.4788-0.30032-3.5456-0.83424c-0.27474-0.13705-0.5404-0.28997-0.7957-0.45712-0.70207-0.45973-1.327-1.0274-1.8509-1.6798-0.16263-0.20216-0.31524-0.41275-0.45746-0.63078-0.33046-0.5054-0.60421-1.0507-0.8135-1.627-0.30711-0.84529-0.4743-1.7573-0.4743-2.7085 0-4.3838 3.5537-7.9375 7.9375-7.9375 2.2005 0 4.1917 0.89548 5.6295 2.3417 0.41436 0.41662 0.78274 0.87929 1.0963 1.3795 0.29645 0.47107 0.54428 0.97582 0.73704 1.5068 0.30718 0.84559 0.47467 1.7579 0.47467 2.7094z" fill="#fafafa" stroke-width=".031006"/>
 <g fill="#5e4aa6">
  <circle cx="-330.35" cy="-328.38" r="0" stroke-width=".26458"/>
  <g stroke-width=".26458">
   <circle cx="-299.17" cy="-337.27" r="0"/>
   <circle cx="-299.81" cy="-339.42" r="0"/>
   <circle cx="-302.25" cy="-338.13" r="0"/>
   <circle cx="-301.89" cy="-335.91" r="0"/>
   <circle cx="-304.76" cy="-351.05" r="0"/>
   <circle cx="-304.83" cy="-349.54" r="0"/>
   <circle cx="-359.94" cy="-336.91" r="0"/>
  </g>
 </g>
 <circle cx="40.465" cy="-9.1299" r="7.9373" fill-opacity="0" stroke-width=".41578"/>
 <g transform="translate(.034155 .13405)">
  <circle transform="scale(1,-1)" cx="8.4674" cy="-8.326" r="5.8377" color="#000000" fill="url(#linearGradient994-3)" stroke="#e6e6e6" stroke-width=".65303"/>
  <g transform="matrix(.72047 0 0 .72047 2.6154 -199.95)" fill-rule="evenodd">
   <path d="m5.5732 284.56a0.31668 0.29398 59.395 0 0-0.092061 0.4218 0.31668 0.29398 59.395 0 0 2.545e-4 4.3e-4l1.2576 2.126 0.031972 0.054 1.2576 2.126a0.31668 0.29398 59.395 0 0 2.546e-4 4.3e-4 0.31668 0.29398 59.395 0 0 0.41399 0.12246 0.31668 0.29398 59.395 0 0 0.092062-0.4218 0.31668 0.29398 59.395 0 0-2.545e-4 -4.3e-4l-1.2576-2.126-0.031972-0.054-1.2576-2.126a0.31668 0.29398 59.395 0 0-2.546e-4 -4.3e-4 0.31668 0.29398 59.395 0 0-0.41399-0.12246z" fill="#fff"/>
   <path d="m12.244 288.68a0.29396 0.2496 84.747 0 0-0.27507-0.26989 0.29396 0.2496 84.747 0 0-3.91e-4 3e-5l-1.9387 0.17823-0.049329 5e-3 -1.9387 0.17823a0.29396 0.2496 84.747 0 0-3.894e-4 4e-5 0.29396 0.2496 84.747 0 0-0.22125 0.31553 0.29396 0.2496 84.747 0 0 0.27507 0.26989 0.29396 0.2496 84.747 0 0 3.896e-4 -3e-5l1.9387-0.17823 0.04933-5e-3 1.9387-0.17823a0.29396 0.2496 84.747 0 0 3.91e-4 -4e-5 0.29396 0.2496 84.747 0 0 0.22125-0.31553z" fill="#fff"/>
   <path d="m8.2587 288.37c-0.36531 0-0.66146 0.29614-0.66146 0.66146 1.87e-4 0.0173 0.0011 0.0345 0.0026 0.0517-0.40497 0.75612-3.6654 3.5166-3.6654 3.5166l0.22943 0.231s3.2071-2.797 4.0349-3.1404c0.01993 2e-3 0.03993 3e-3 0.05995 3e-3 0.36531 0 0.66146-0.29614 0.66146-0.66145 0-0.36532-0.29614-0.66146-0.66146-0.66146z" fill="#ea4348"/>
   <circle cx="8.2649" cy="289.03" r=".39687" fill="#fff"/>
  </g>
  <g transform="translate(73.801,2.3755)" fill="#fff">
   <rect x="-65.48" y="1.0425" width=".29232" height=".71911"/>
   <rect x="-65.48" y="10.139" width=".29232" height=".71911"/>
   <rect transform="rotate(30)" x="-53.751" y="32.912" width=".29232" height=".71911"/>
   <rect transform="rotate(30)" x="-53.751" y="42.009" width=".29232" height=".71911"/>
   <rect transform="rotate(60)" x="-27.66" y="54.648" width=".29232" height=".71911"/>
   <rect transform="rotate(60)" x="-27.66" y="63.745" width=".29232" height=".71911"/>
   <rect transform="rotate(90)" x="5.8044" y="60.426" width=".29232" height=".71911"/>
   <rect transform="rotate(90)" x="5.8044" y="69.523" width=".29232" height=".71911"/>
   <rect transform="rotate(120)" x="37.674" y="48.697" width=".29232" height=".71911"/>
   <rect transform="rotate(120)" x="37.674" y="57.794" width=".29232" height=".71911"/>
   <rect transform="rotate(150)" x="59.41" y="22.605" width=".29232" height=".71911"/>
   <rect transform="rotate(150)" x="59.41" y="31.702" width=".29232" height=".71911"/>
  </g>
 </g>
</svg>
