<?xml version="1.0" encoding="UTF-8"?>
<!-- Created with Inkscape (http://www.inkscape.org/) -->
<svg width="64" height="64" version="1.1" viewBox="0 0 16.933 16.933" xmlns="http://www.w3.org/2000/svg" xmlns:cc="http://creativecommons.org/ns#" xmlns:dc="http://purl.org/dc/elements/1.1/" xmlns:rdf="http://www.w3.org/1999/02/22-rdf-syntax-ns#" xmlns:xlink="http://www.w3.org/1999/xlink">
 <defs>
  <filter id="filter11290" x="-.024" y="-.024" width="1.048" height="1.048" color-interpolation-filters="sRGB">
   <feGaussianBlur stdDeviation="0.15875313"/>
  </filter>
  <linearGradient id="linearGradient963" x1="-235.3" x2="-205.74" y1="103.72" y2="128.35" gradientTransform="matrix(.26458 0 0 .26458 66.805 -21.4)" gradientUnits="userSpaceOnUse">
   <stop stop-color="#d43e73" offset="0"/>
   <stop stop-color="#e5514f" offset="1"/>
  </linearGradient>
  <filter id="filter990" x="-.061519" y="-.058554" width="1.123" height="1.1171" color-interpolation-filters="sRGB">
   <feGaussianBlur stdDeviation="0.20345708"/>
  </filter>
  <linearGradient id="linearGradient994-19" x1="-235.3" x2="-205.74" y1="103.72" y2="128.35" gradientTransform="matrix(.32303 0 0 .3389 78.1 -30.099)" gradientUnits="userSpaceOnUse">
   <stop stop-color="#c83278" offset="0"/>
   <stop stop-color="#fa5050" offset="1"/>
  </linearGradient>
 </defs>
 <metadata>
  <rdf:RDF>
   <cc:Work rdf:about="">
    <dc:format>image/svg+xml</dc:format>
    <dc:type rdf:resource="http://purl.org/dc/dcmitype/StillImage"/>
    <dc:title/>
   </cc:Work>
  </rdf:RDF>
 </metadata>
 <circle cx="8.4937" cy="8.46" r="7.9377" filter="url(#filter11290)" opacity=".25" stroke-width=".14032"/>
 <path d="m16.439 8.46c0 0.95154-0.16749 1.8639-0.47464 2.7094-0.21351 0.58768-0.49439 1.1433-0.83393 1.6572-0.14222 0.21608-0.29514 0.42475-0.45746 0.62529-0.51966 0.64179-1.1372 1.2007-1.8305 1.6543-0.2553 0.16718-0.52065 0.3201-0.79536 0.45712-1.0668 0.53389-2.2711 0.83421-3.5456 0.83421s-2.4788-0.30032-3.5456-0.83424c-0.27474-0.13705-0.5404-0.28997-0.7957-0.45712-0.70207-0.45973-1.327-1.0274-1.8509-1.6798-0.16263-0.20216-0.31524-0.41275-0.45746-0.63078-0.33046-0.5054-0.60421-1.0507-0.8135-1.627-0.30711-0.84529-0.4743-1.7573-0.4743-2.7085 0-4.3838 3.5537-7.9375 7.9375-7.9375 2.2005 0 4.1917 0.89548 5.6295 2.3417 0.41436 0.41662 0.78274 0.87929 1.0963 1.3795 0.29645 0.47107 0.54428 0.97582 0.73704 1.5068 0.30718 0.84559 0.47467 1.7579 0.47467 2.7094z" fill="#fafafa" stroke-width=".031006"/>
 <g fill="#5e4aa6">
  <circle cx="-330.35" cy="-328.38" r="0" stroke-width=".26458"/>
  <g stroke-width=".26458">
   <circle cx="-299.17" cy="-337.27" r="0"/>
   <circle cx="-299.81" cy="-339.42" r="0"/>
   <circle cx="-302.25" cy="-338.13" r="0"/>
   <circle cx="-301.89" cy="-335.91" r="0"/>
   <circle cx="-304.76" cy="-351.05" r="0"/>
   <circle cx="-304.83" cy="-349.54" r="0"/>
   <circle cx="-359.94" cy="-336.91" r="0"/>
  </g>
 </g>
 <circle cx="40.465" cy="-9.1299" r="7.9373" fill-opacity="0" stroke-width=".41578"/>
 <g transform="translate(1.6265 .50729)">
  <g transform="matrix(1.2209 0 0 1.2209 -3.4625 -2.3301)" filter="url(#filter990)">
   <path d="m4.7633 5.9776c-0.00619-4.5e-5 -0.012409 1.27e-4 -0.0186 5.291e-4 -0.00884 5.292e-4 -0.017621 0.00159-0.026352 0.0031-0.0087 0.00159-0.01733 0.0037-0.025849 0.00619-0.00857 0.00238-0.017012 0.00508-0.02532 0.00825-0.0081 0.00323-0.016033 0.00685-0.023759 0.010848-0.00796 0.00392-0.015716 0.00823-0.023256 0.012911-0.0073 0.00482-0.014393 0.00997-0.021193 0.015504-0.00701 0.0055-0.013732 0.011377-0.020161 0.017568-0.00635 0.00606-0.012382 0.012462-0.018097 0.019129-0.00569 0.0068-0.011033 0.013864-0.016033 0.021193-0.00484 0.00736-0.00934 0.014949-0.013441 0.022727-0.00437 0.00773-0.00833 0.015663-0.01188 0.023759-0.00333 0.00812-0.00627 0.016404-0.00878 0.024791-0.00265 0.00833-0.00489 0.016774-0.00672 0.02532-0.00159 0.0087-0.00286 0.017515-0.00362 0.026352-0.00106 0.00876-0.00159 0.017542-0.00159 0.026352v6.0853c-4.5e-5 0.0062 1.27e-4 0.01241 5.292e-4 0.0186 5.291e-4 0.0088 0.00159 0.01762 0.0031 0.02635 0.00159 0.0087 0.0037 0.01733 0.00619 0.02585 0.00238 0.0086 0.00508 0.01701 0.00825 0.02532 0.00323 0.0081 0.00685 0.01603 0.010848 0.02376 0.00392 8e-3 0.00823 0.01572 0.012911 0.02326 0.00482 0.0073 0.00997 0.01439 0.015504 0.02119 0.0055 7e-3 0.011377 0.01373 0.017568 0.02016 0.00606 0.0063 0.012435 0.01238 0.019129 0.0181 0.0068 0.0057 0.013864 0.01103 0.021193 0.01603 0.00736 0.0048 0.014949 0.0093 0.022727 0.01344 0.00773 0.0044 0.015663 0.0083 0.023759 0.01188 0.00812 0.0033 0.016404 0.0063 0.024791 0.0088 0.00833 0.0026 0.016774 0.0049 0.02532 0.0067 0.0087 0.0016 0.017515 0.0029 0.026352 0.0036 0.00876 0.0011 0.017542 0.0016 0.026352 0.0016h7.4082c0.0062 4.5e-5 0.01241-1.27e-4 0.0186-5.29e-4 0.0088-5.29e-4 0.01762-0.0016 0.02635-0.0031 0.0087-0.0016 0.01733-0.0037 0.02585-0.0062 0.0086-0.0024 0.01701-0.0051 0.02532-0.0083 0.0081-0.0032 0.01603-0.0069 0.02376-0.01085 8e-3 -0.0039 0.01572-0.0082 0.02326-0.01291 0.0073-0.0048 0.01439-0.01 0.02119-0.0155 7e-3 -0.0055 0.01373-0.01138 0.02016-0.01757 0.0063-0.0061 0.01238-0.01246 0.0181-0.01913 0.0057-0.0068 0.01103-0.01386 0.01601-0.02119 0.0048-0.0074 0.0093-0.01495 0.01344-0.02273 0.0044-0.0077 0.0083-0.01566 0.01188-0.02376 0.0033-0.0081 0.0063-0.0164 0.0088-0.02479 0.0026-0.0083 0.0049-0.01677 0.0067-0.02532 0.0016-0.0087 0.0029-0.01752 0.0036-0.02635 0.0011-0.0088 0.0016-0.01754 0.0016-0.02635v-6.0852c4.5e-5 -0.00619-1.27e-4 -0.012409-5.29e-4 -0.0186-5.29e-4 -0.00884-0.0016-0.017621-0.0031-0.026352-0.0016-0.0087-0.0037-0.01733-0.0062-0.025849-0.0024-0.00857-0.0051-0.017012-0.0083-0.02532-0.0032-0.0081-0.0069-0.016033-0.01085-0.023759-0.0039-0.00796-0.0082-0.015716-0.01291-0.023256-0.0048-0.0073-0.01-0.014393-0.01551-0.021193-0.0055-0.00701-0.01138-0.013732-0.01757-0.020161-0.0061-0.00635-0.01246-0.012382-0.01913-0.018097-0.0068-0.00569-0.01386-0.011033-0.02119-0.016007-0.0074-0.00484-0.01495-0.00934-0.02273-0.01344-0.0077-0.00437-0.01566-0.00833-0.02378-0.01188-0.0081-0.00333-0.0164-0.00627-0.02479-0.00878-0.0083-0.00265-0.01678-0.00489-0.02532-0.00672-0.0087-0.00159-0.01751-0.00286-0.02635-0.00362-0.0088-0.00106-0.01754-0.00159-0.02635-0.00159h-1.8517v0.50693h-0.64105v-0.50693h-2.5804v0.50693h-0.64157v-0.50693z" fill="url(#linearGradient963)"/>
   <path d="m8.2401 4.2529a1.6178 1.6178 0 0 0-0.1142 0.0036 1.6178 1.6178 0 0 0-0.16071 0.01964 1.6178 1.6178 0 0 0-0.15761 0.03566 1.6178 1.6178 0 0 0-0.15348 0.05064 1.6178 1.6178 0 0 0-0.14779 0.06614 1.6178 1.6178 0 0 0-0.14004 0.08061 1.6178 1.6178 0 0 0-0.13177 0.09405 1.6178 1.6178 0 0 0-0.12144 0.10645 1.6178 1.6178 0 0 0-0.11007 0.11834 1.6178 1.6178 0 0 0-0.09819 0.12919 1.6178 1.6178 0 0 0-0.08423 0.13746 1.6178 1.6178 0 0 0-0.07028 0.14572 1.6178 1.6178 0 0 0-0.05581 0.15193 1.6178 1.6178 0 0 0-0.03979 0.15658 1.6178 1.6178 0 0 0-0.02429 0.16019 1.6178 1.6178 0 0 0-0.0077 0.15089v2.3729h3.2349v-2.3771a1.6178 1.6178 0 0 0-0.0036-0.09973 1.6178 1.6178 0 0 0-0.01964-0.16071 1.6178 1.6178 0 0 0-0.03514-0.15761 1.6178 1.6178 0 0 0-0.05116-0.15348 1.6178 1.6178 0 0 0-0.06614-0.14779 1.6178 1.6178 0 0 0-0.08061-0.14004 1.6178 1.6178 0 0 0-0.09405-0.13177 1.6178 1.6178 0 0 0-0.10645-0.12144 1.6178 1.6178 0 0 0-0.11834-0.11007 1.6178 1.6178 0 0 0-0.12867-0.09818 1.6178 1.6178 0 0 0-0.13797-0.08423 1.6178 1.6178 0 0 0-0.14572-0.07028 1.6178 1.6178 0 0 0-0.15193-0.05581 1.6178 1.6178 0 0 0-0.15658-0.03979 1.6178 1.6178 0 0 0-0.15968-0.02429 1.6178 1.6178 0 0 0-0.16174-0.0078z" fill="none" stroke="#da4465" stroke-dashoffset="1.0224" stroke-width=".38546"/>
   <text x="5.3288102" y="10.127344" fill="#ffffff" font-family="sans-serif" font-size="2.235px" letter-spacing="0px" stroke-width=".055874" word-spacing="0px" style="line-height:1.25" xml:space="preserve"><tspan x="5.3288102" y="10.127344" fill="#ffffff" stroke-width=".055874">SHOP</tspan></text>
  </g>
  <path d="m6.6914 2.8623a1.9751 1.9751 0 0 0-0.13943 0.0044 1.9751 1.9751 0 0 0-0.19622 0.023979 1.9751 1.9751 0 0 0-0.19243 0.043538 1.9751 1.9751 0 0 0-0.18738 0.061827 1.9751 1.9751 0 0 0-0.18044 0.080745 1.9751 1.9751 0 0 0-0.17098 0.098417 1.9751 1.9751 0 0 0-0.16088 0.11483 1.9751 1.9751 0 0 0-0.14826 0.12997 1.9751 1.9751 0 0 0-0.13438 0.14448 1.9751 1.9751 0 0 0-0.11988 0.15773 1.9751 1.9751 0 0 0-0.10284 0.16782 1.9751 1.9751 0 0 0-0.08581 0.17792 1.9751 1.9751 0 0 0-0.06814 0.18549 1.9751 1.9751 0 0 0-0.04858 0.19116 1.9751 1.9751 0 0 0-0.02966 0.19558 1.9751 1.9751 0 0 0-0.0094 0.18423v2.8971h3.9495v-2.9022a1.9751 1.9751 0 0 0-0.0044-0.12176 1.9751 1.9751 0 0 0-0.02398-0.19621 1.9751 1.9751 0 0 0-0.0429-0.19243 1.9751 1.9751 0 0 0-0.06246-0.18738 1.9751 1.9751 0 0 0-0.08075-0.18044 1.9751 1.9751 0 0 0-0.09842-0.17098 1.9751 1.9751 0 0 0-0.11483-0.16088 1.9751 1.9751 0 0 0-0.12997-0.14826 1.9751 1.9751 0 0 0-0.14448-0.13438 1.9751 1.9751 0 0 0-0.1571-0.11987 1.9751 1.9751 0 0 0-0.16845-0.10284 1.9751 1.9751 0 0 0-0.17792-0.085805 1.9751 1.9751 0 0 0-0.18549-0.068139 1.9751 1.9751 0 0 0-0.19117-0.04858 1.9751 1.9751 0 0 0-0.19495-0.029656 1.9751 1.9751 0 0 0-0.19747-0.00952z" fill="none" stroke="#da4465" stroke-dashoffset="1.0224" stroke-width=".47061"/>
  <path d="m2.3531 4.968c-0.0076-5.76e-5 -0.01515 1.627e-4 -0.02271 6.778e-4 -0.01079 6.778e-4 -0.02151 0.00204-0.03217 0.00397-0.01062 0.00204-0.02116 0.00474-0.03156 0.00793-0.01046 0.00305-0.02077 0.0065-0.03091 0.010567-0.0099 0.00413-0.01957 0.00877-0.02901 0.013895-0.0097 0.00503-0.01919 0.010542-0.02839 0.016538-0.0089 0.00617-0.01757 0.012771-0.02587 0.019859-0.0086 0.00704-0.01676 0.014573-0.02462 0.022503-0.0078 0.00776-0.01512 0.015963-0.0221 0.024503-0.0069 0.00871-0.01347 0.017759-0.01957 0.027146-0.0059 0.00943-0.0114 0.019148-0.01641 0.029112-0.0053 0.0099-0.01017 0.020063-0.0145 0.030434-0.0041 0.010397-0.0077 0.021012-0.01072 0.031756-0.0032 0.01067-6e-3 0.021485-0.0082 0.032432-0.0019 0.011144-0.0035 0.022435-0.0044 0.033754-0.0013 0.011221-0.0019 0.022469-0.0019 0.033754v7.7947c-5.5e-5 8e-3 1.55e-4 0.01589 6.46e-4 0.02383 6.46e-4 0.01127 0.0019 0.02257 0.0038 0.03375 0.0019 0.01114 0.0045 0.0222 0.0076 0.03311 0.0029 0.01102 0.0062 0.02179 0.01007 0.03243 0.0039 0.01039 0.0084 0.02053 0.01324 0.03044 0.0048 0.01028 0.01005 0.02013 0.01576 0.0298 0.0059 0.0093 0.01217 0.01843 0.01893 0.02714 0.0067 0.0089 0.01389 0.01758 0.02145 0.02582 0.0074 0.0081 0.01518 0.01585 0.02335 0.02319 0.0083 0.0073 0.01693 0.01413 0.02587 0.02053 9e-3 0.0062 0.01825 0.01191 0.02775 0.01722 0.0094 0.0057 0.01912 0.01063 0.02901 0.01521 0.0099 0.0042 0.02003 0.0081 0.03027 0.01127 0.01017 0.0034 0.02048 0.0063 0.03091 0.0086 0.01062 0.0021 0.02138 0.0037 0.03217 0.0046 0.0107 0.0014 0.02142 0.0021 0.03217 0.0021h9.0447c0.0076 5.7e-5 0.01515-1.63e-4 0.02271-6.78e-4 0.01074-6.78e-4 0.02151-0.0021 0.03217-4e-3 0.01062-0.0021 0.02116-0.0047 0.03156-8e-3 0.0105-3e-3 0.02077-0.0065 0.03091-0.01063 0.0099-0.0041 0.01957-0.0088 0.02901-0.0139 0.0098-5e-3 0.01919-0.0105 0.0284-0.01653 0.0089-0.0062 0.01757-0.01281 0.02587-0.01985 0.0085-7e-3 0.01676-0.01457 0.02461-0.0225 0.0077-0.0078 0.01511-0.01596 0.0221-0.02451 7e-3 -0.0087 0.01347-0.01775 0.01955-0.02714 0.0059-0.0094 0.01136-0.01915 0.01641-0.02911 0.0054-0.0099 0.01013-0.02006 0.0145-0.03043 4e-3 -0.01039 0.0077-0.021 0.01074-0.03176 0.0032-0.01063 6e-3 -0.02148 0.0082-0.03243 2e-3 -0.01114 0.0035-0.02244 0.0044-0.03375 0.0013-0.01127 2e-3 -0.02247 2e-3 -0.03375v-7.7946c5.5e-5 -0.00793-1.55e-4 -0.015895-6.46e-4 -0.023825-6.45e-4 -0.011323-2e-3 -0.022571-0.0038-0.033754-2e-3 -0.011144-0.0045-0.022198-0.0076-0.03311-0.0029-0.010977-0.0062-0.021791-0.01013-0.032432-0.0039-0.010376-0.0084-0.020537-0.01325-0.030434-0.0048-0.010198-0.01001-0.020131-0.01576-0.029788-0.0059-0.00935-0.01221-0.018436-0.01894-0.027147-0.0067-0.00898-0.01389-0.017589-0.02145-0.025825-0.0074-0.00813-0.01521-0.01586-0.02336-0.023181-0.0083-0.00729-0.01692-0.014132-0.02587-0.020503-9e-3 -0.0062-0.01825-0.011963-0.02775-0.017215-0.0094-0.0056-0.01912-0.01067-0.02903-0.015217-0.0099-0.00427-0.02002-0.00804-0.03027-0.011247-0.01013-0.0034-0.02049-0.00626-0.03091-0.0086-0.01062-0.00204-0.02138-0.00366-0.03217-0.00464-0.01074-0.00135-0.02141-0.00204-0.03217-0.00204h-2.2608v0.64932h-0.78266v-0.64933h-3.1504v0.64934h-0.78329v-0.64934z" fill="url(#linearGradient994-19)"/>
  <text x="3.0435095" y="10.198195" fill="#ffffff" font-family="sans-serif" font-size="2.7287px" letter-spacing="0px" stroke-width=".068217" word-spacing="0px" style="line-height:1.25" xml:space="preserve"><tspan x="3.0435095" y="10.198195" fill="#ffffff" stroke-width=".068217">SHOP</tspan></text>
 </g>
</svg>
