<?xml version="1.0" encoding="UTF-8"?>
<svg width="64" height="64" version="1.1" xmlns="http://www.w3.org/2000/svg" xmlns:cc="http://creativecommons.org/ns#" xmlns:dc="http://purl.org/dc/elements/1.1/" xmlns:rdf="http://www.w3.org/1999/02/22-rdf-syntax-ns#" xmlns:xlink="http://www.w3.org/1999/xlink">
 <metadata>
  <rdf:RDF>
   <cc:Work rdf:about="">
    <dc:format>image/svg+xml</dc:format>
    <dc:type rdf:resource="http://purl.org/dc/dcmitype/StillImage"/>
    <dc:title/>
   </cc:Work>
  </rdf:RDF>
 </metadata>
 <defs>
  <filter id="filter11290-3" x="-.024" y="-.024" width="1.048" height="1.048" color-interpolation-filters="sRGB">
   <feGaussianBlur stdDeviation="0.15875313"/>
  </filter>
  <linearGradient id="linearGradient1011" x1="16.944" x2="46.481" y1="51.368" y2="12.632" gradientUnits="userSpaceOnUse">
   <stop stop-color="#16a085" offset="0"/>
   <stop stop-color="#2ecc85" offset="1"/>
  </linearGradient>
 </defs>
 <circle cx="-1015.2" cy="-1304.3" r="0" fill="#5e4aa6"/>
 <circle transform="matrix(3.7796 0 0 3.7796 -.1028 .024568)" cx="8.4937" cy="8.46" r="7.9377" filter="url(#filter11290-3)" opacity=".25" stroke-width=".14032"/>
 <path d="m62.03 32c0 3.5964-0.63304 7.0448-1.7939 10.24-0.80698 2.2212-1.8686 4.3212-3.1519 6.2636-0.53753 0.8167-1.1155 1.6054-1.729 2.3633-1.9641 2.4257-4.2982 4.5382-6.9186 6.2526-0.96493 0.63187-1.9678 1.2098-3.0061 1.7277-4.0321 2.0179-8.5838 3.153-13.401 3.153s-9.3689-1.1351-13.401-3.1531c-1.0384-0.51799-2.0425-1.096-3.0074-1.7277-2.6535-1.7376-5.0155-3.8832-6.9957-6.349-0.61468-0.76408-1.1915-1.56-1.729-2.3841-1.249-1.9102-2.2837-3.9712-3.0747-6.1494-1.1608-3.1949-1.7927-6.6419-1.7927-10.237 0-16.569 13.432-30.001 30.001-30.001 8.317 0 15.843 3.3846 21.277 8.8507 1.5661 1.5747 2.9584 3.3234 4.1436 5.214 1.1205 1.7805 2.0572 3.6882 2.7857 5.6951 1.161 3.196 1.7941 6.6442 1.7941 10.24z" fill="#fafafa" stroke-width=".11719"/>
 <circle cx="-1248.7" cy="-1241.1" r="0" fill="#5e4aa6"/>
 <g transform="translate(112.18 -3.6186)">
  <g transform="translate(1,1)">
   <g opacity=".1">
    <!-- color: #e3e3e3 --></g>
  </g>
 </g>
 <g transform="translate(112.18 -3.6186)">
  <!-- color: #e3e3e3 --></g>
 <path d="m30.462 12v4.6938c-6.1169 0.62308-11.275 4.8262-13.118 10.691h3.2569c1.88-4.6462 6.3877-7.6892 11.4-7.6923 5.0123 0.0031 9.5231 3.0446 11.403 7.6923h3.2692c-1.8508-5.8631-7.0154-10.062-13.134-10.675v-4.7092m-1.5385 10.769c-5.0985 0-9.2308 4.1323-9.2308 9.2308 0.0031 0.51538 0.04923 1.0308 0.13846 1.5385h15.042c-0.7 2.7138-3.1462 4.6108-5.9492 4.6154-1.5138-0.0015-2.94-0.56923-4.0446-1.5385h-3.9185c1.6262 2.8092 4.6308 4.6108 7.9631 4.6154 5.0985 0 9.2308-4.1323 9.2308-9.2308-0.0031-0.51538-0.04923-1.0308-0.13846-1.5385h-15.042c0.7-2.7138 3.1462-4.6108 5.9492-4.6154 1.5138 0.0015 2.94 0.56923 4.0446 1.5385h3.9185c-1.6262-2.8092-4.6308-4.6108-7.9631-4.6154m-14.672 13.846c1.8508 5.8631 7.0154 10.062 13.134 10.675v4.7092h3.0769v-4.6938c6.1169-0.62308 11.275-4.8262 13.118-10.691h-3.2569c-1.88 4.6462-6.3877 7.6892-11.4 7.6923-5.0123-0.0031-9.5231-3.0446-11.403-7.6923" fill="url(#linearGradient1011)"/>
</svg>
