<?xml version="1.0" encoding="UTF-8"?>
<!-- Created with Inkscape (http://www.inkscape.org/) -->
<svg width="64" height="64" version="1.1" viewBox="0 0 16.933 16.933" xmlns="http://www.w3.org/2000/svg" xmlns:cc="http://creativecommons.org/ns#" xmlns:dc="http://purl.org/dc/elements/1.1/" xmlns:rdf="http://www.w3.org/1999/02/22-rdf-syntax-ns#" xmlns:xlink="http://www.w3.org/1999/xlink">
 <defs>
  <filter id="filter11290" x="-.024" y="-.024" width="1.048" height="1.048" color-interpolation-filters="sRGB">
   <feGaussianBlur stdDeviation="0.15875313"/>
  </filter>
  <linearGradient id="e" x2="0" y1="510.8" y2="527.14" gradientUnits="userSpaceOnUse">
   <stop stop-color="#7cbaf8" offset="0"/>
   <stop stop-color="#f4fcff" offset="1"/>
  </linearGradient>
  <linearGradient id="d" x1="408.57" x2="387.57" y1="542.8" y2="521.8" gradientTransform="translate(-384.57,-499.8)" gradientUnits="userSpaceOnUse">
   <stop stop-color="#197cf1" offset="0"/>
   <stop stop-color="#20bcfa" offset="1"/>
  </linearGradient>
 </defs>
 <metadata>
  <rdf:RDF>
   <cc:Work rdf:about="">
    <dc:format>image/svg+xml</dc:format>
    <dc:type rdf:resource="http://purl.org/dc/dcmitype/StillImage"/>
    <dc:title/>
   </cc:Work>
  </rdf:RDF>
 </metadata>
 <circle cx="8.4937" cy="8.46" r="7.9377" filter="url(#filter11290)" opacity=".25" stroke-width=".14032"/>
 <path d="m16.439 8.46c0 0.95154-0.16749 1.8639-0.47464 2.7094-0.21351 0.58768-0.49439 1.1433-0.83393 1.6572-0.14222 0.21608-0.29514 0.42475-0.45746 0.62529-0.51966 0.64179-1.1372 1.2007-1.8305 1.6543-0.2553 0.16718-0.52065 0.3201-0.79536 0.45712-1.0668 0.53389-2.2711 0.83421-3.5456 0.83421s-2.4788-0.30032-3.5456-0.83424c-0.27474-0.13705-0.5404-0.28997-0.7957-0.45712-0.70207-0.45973-1.327-1.0274-1.8509-1.6798-0.16263-0.20216-0.31524-0.41275-0.45746-0.63078-0.33046-0.5054-0.60421-1.0507-0.8135-1.627-0.30711-0.84529-0.4743-1.7573-0.4743-2.7085 0-4.3838 3.5537-7.9375 7.9375-7.9375 2.2005 0 4.1917 0.89548 5.6295 2.3417 0.41436 0.41662 0.78274 0.87929 1.0963 1.3795 0.29645 0.47107 0.54428 0.97582 0.73704 1.5068 0.30718 0.84559 0.47467 1.7579 0.47467 2.7094z" fill="#fafafa" stroke-width=".031006"/>
 <g fill="#5e4aa6">
  <circle cx="-330.35" cy="-328.38" r="0" stroke-width=".26458"/>
  <g stroke-width=".26458">
   <circle cx="-299.17" cy="-337.27" r="0"/>
   <circle cx="-299.81" cy="-339.42" r="0"/>
   <circle cx="-302.25" cy="-338.13" r="0"/>
   <circle cx="-301.89" cy="-335.91" r="0"/>
   <circle cx="-304.76" cy="-351.05" r="0"/>
   <circle cx="-304.83" cy="-349.54" r="0"/>
   <circle cx="-359.94" cy="-336.91" r="0"/>
  </g>
 </g>
 <circle cx="40.465" cy="-9.1299" r="7.9373" fill-opacity="0" stroke-width=".41578"/>
 <g transform="matrix(.26458 0 0 .26458 -99.465 -129.8)">
  <path transform="matrix(2.1053,0,0,2.1053,-451.16,-571.57)" d="m404.57 510.8v12.35h7.6v-12.35z" fill="url(#e)" stroke-opacity=".55" stroke-width="2.8"/>
  <g fill-rule="evenodd">
   <path transform="translate(384.57,499.8)" d="m25.5 14c-0.828 0-1.5 0.672-1.5 1.5s0.672 1.5 1.5 1.5 1.5-0.672 1.5-1.5-0.672-1.5-1.5-1.5m17.5 9c-0.552 0-1 0.448-1 1s0.448 1 1 1 1-0.448 1-1-0.448-1-1-1m-35.5-6c-0.828 0-1.5 0.672-1.5 1.5s0.672 1.5 1.5 1.5 1.5-0.672 1.5-1.5-0.672-1.5-1.5-1.5m11.775 1.1c-0.067 8e-3 -0.132 0.027-0.195 0.055-0.506 0.222-0.677 0.944-0.012 2.461 0.666 1.517 1.615 2.568 2.121 2.346s0.376-1.631-0.289-3.148c-0.582-1.328-1.153-1.771-1.625-1.713m-5.988 0.635c-0.395-0.034-0.937 0.359-0.445 0.918 0.655 0.746 1 2.074 0.416 2.34-0.587 0.266-0.544-0.99-0.596-1.658-0.051-0.668-1.677-1.07-2.277-0.242s4e-3 1.72 0.598 1.9c0.594 0.181 0.686 0.861 1.039 1.568 0.354 0.707 2.076 0.53 2.496 0s0.681-1.515-0.137-2.424-0.57-1.753-0.791-2.217c-0.055-0.116-0.171-0.174-0.303-0.186m19.494 0.078c-0.531-0.125-0.75 0.875-0.875 1.813s-0.594 1.906-0.188 2.094c0.563 0.25 0.85-1.288 1.486-1.863 0.636-0.576 0.107-1.918-0.424-2.043m-16.781 0.188c-0.552 0-1 0.448-1 1s0.448 1 1 1 1-0.448 1-1-0.448-1-1-1m12.152 0.236c-0.65 0.048-1.297 1.157-1.615 1.926-0.364 0.878 0.076 2.59-0.781 3.232-0.857 0.643-1.484 0.661-1.912 0.404s0.367-0.224-0.111-1.203c-0.479-0.979-1.624-0.673-1.924 0.09s0.322 0.728 0.107 1.178c-0.214 0.45-2.036 0.936-2.443-0.414s-1.853-2.819-2.303-2.455 0.054 1.706 1.232 2.777-0.302 1.648-1.326 0.842c-1.024-0.807-2.228 0.613-3.16 1.563-0.933 0.949-1.766 1.014-2.43 0.445-0.663-0.568-0.08-2.114-0.846-3.668-0.765-1.554-2.286-0.78-2.5 0.27s1.92 1.757 1.506 2.34-2.069 0.451-2.557-0.648c-0.487-1.099-1.549-0.743-1.57 0.156-0.021 0.9 0.822 0.272 1.48 0.93l17 17 17-17c2-2-0.29-1.143-0.762-0.693-0.471 0.45-1.928 0.815-2.1 0.322-0.171-0.493 1.632-1.32 2.146-1.877s1.017-2.139 0.186-2.719-2.01 0.467-2.521 1.238c-0.514 0.771-0.068 2.736-0.754 3.336s-1.063 0.235-1.191-0.279c-0.129-0.514 1.48-1.237 0.805-2.516-0.676-1.279-1.924-0.699-2.502-0.1-0.578 0.6 0.348 1.524 0.563 2.467 0.214 0.943-1.979 0.919-2.836 0.576s-1.136-2.498-1.5-2.627-1.292 0.714-2.471 0.35c-1.178-0.364-0.2-1.09 0.164-1.947s0.939-2.922 0.203-3.246c-0.092-0.041-0.185-0.056-0.277-0.049m10.348-1.236c-0.828 0-1.5 0.672-1.5 1.5s0.672 1.5 1.5 1.5 1.5-0.672 1.5-1.5-0.672-1.5-1.5-1.5m-34.5 4c-0.552 0-1 0.448-1 1s0.448 1 1 1 1-0.448 1-1-0.448-1-1-1" fill="url(#d)"/>
  </g>
 </g>
</svg>
