<?xml version="1.0" encoding="UTF-8"?>
<!-- Created with Inkscape (http://www.inkscape.org/) -->
<svg width="64" height="64" version="1.1" viewBox="0 0 16.933 16.933" xmlns="http://www.w3.org/2000/svg" xmlns:cc="http://creativecommons.org/ns#" xmlns:dc="http://purl.org/dc/elements/1.1/" xmlns:rdf="http://www.w3.org/1999/02/22-rdf-syntax-ns#" xmlns:xlink="http://www.w3.org/1999/xlink">
 <defs>
  <filter id="filter11290" x="-.024" y="-.024" width="1.048" height="1.048" color-interpolation-filters="sRGB">
   <feGaussianBlur stdDeviation="0.15875313"/>
  </filter>
  <linearGradient id="linearGradient4756" x1="-11.629" x2="-5.4248" y1="7.1071" y2="7.1071" gradientUnits="userSpaceOnUse">
   <stop stop-color="#e6e6fa" offset="0"/>
   <stop stop-color="#c8b4fa" offset="1"/>
  </linearGradient>
  <filter id="filter866" x="-.070253" y="-.052359" width="1.1405" height="1.1047" color-interpolation-filters="sRGB">
   <feGaussianBlur stdDeviation="0.18306885"/>
  </filter>
  <linearGradient id="linearGradient913" x1="-11.629" x2="-5.4248" y1="7.1071" y2="7.1071" gradientUnits="userSpaceOnUse" xlink:href="#linearGradient4756"/>
  <linearGradient id="linearGradient943" x1="16.495" x2=".66552" y1=".64687" y2="16.476" gradientUnits="userSpaceOnUse">
   <stop stop-color="#643cfa" offset="0"/>
   <stop stop-color="#32b4fa" offset=".35757"/>
   <stop stop-color="#f03c8c" offset=".61077"/>
   <stop stop-color="#ff7832" offset="1"/>
  </linearGradient>
 </defs>
 <metadata>
  <rdf:RDF>
   <cc:Work rdf:about="">
    <dc:format>image/svg+xml</dc:format>
    <dc:type rdf:resource="http://purl.org/dc/dcmitype/StillImage"/>
    <dc:title/>
   </cc:Work>
  </rdf:RDF>
 </metadata>
 <circle cx="8.4937" cy="8.46" r="7.9377" filter="url(#filter11290)" opacity=".25" stroke-width=".14032"/>
 <path d="m16.439 8.46c0 0.95154-0.16749 1.8639-0.47464 2.7094-0.21351 0.58768-0.49439 1.1433-0.83393 1.6572-0.14222 0.21608-0.29514 0.42475-0.45746 0.62529-0.51966 0.64179-1.1372 1.2007-1.8305 1.6543-0.2553 0.16718-0.52065 0.3201-0.79536 0.45712-1.0668 0.53389-2.2711 0.83421-3.5456 0.83421s-2.4788-0.30032-3.5456-0.83424c-0.27474-0.13705-0.5404-0.28997-0.7957-0.45712-0.70207-0.45973-1.327-1.0274-1.8509-1.6798-0.16263-0.20216-0.31524-0.41275-0.45746-0.63078-0.33046-0.5054-0.60421-1.0507-0.8135-1.627-0.30711-0.84529-0.4743-1.7573-0.4743-2.7085 0-4.3838 3.5537-7.9375 7.9375-7.9375 2.2005 0 4.1917 0.89548 5.6295 2.3417 0.41436 0.41662 0.78274 0.87929 1.0963 1.3795 0.29645 0.47107 0.54428 0.97582 0.73704 1.5068 0.30718 0.84559 0.47467 1.7579 0.47467 2.7094z" fill="url(#linearGradient943)" stroke-width=".031006"/>
 <circle cx="-330.35" cy="-328.38" r="0" fill="#5e4aa6" stroke-width=".26458"/>
 <g transform="translate(-.61044 -.42645)">
  <g transform="matrix(1.283 0 0 1.283 20.021 -3.2707)" filter="url(#filter866)">
   <path d="m-11.16 8.5384v1.4257s0.07392 0.56532 0.58368 0.56532 1.6683-0.26935 1.9 0.49297c0.23171 0.76232-1.0775 2.9177 0.40799 3.0049 1.4438-0.11413 0.17681-2.2425 0.40852-3.0049 0.23171-0.76233 1.3903-0.49297 1.9-0.49297 0.50976 0 0.58421-0.56532 0.58421-0.56532v-1.4257h-2.8922z" fill="#fff"/>
   <path d="m-10.939 8.5785-0.68403-2.6893s-0.07016-0.22801 0.24555-0.24555c0.31571-0.017539 5.6184 0 5.6184 0s0.35078-0.040925 0.33325 0.30986c-0.01754 0.35078-0.22216 2.625-0.22216 2.625z" fill="url(#linearGradient913)"/>
   <path d="m-8.4488 5.6373c-1.3651-0.00219-2.7701-0.00257-2.9279 0.0062-0.31571 0.017539-0.24546 0.24546-0.24546 0.24546l0.07235 0.28473c0.13328 0.08006 0.32311 0.14098 0.5767 0.083714 0.54372-0.12277 1.5933-0.19605 1.3942 0.6139-0.02191 0.089125-0.15318 0.083189-0.23357 0.22789-0.05212 0.093819-0.24102 0.61976 0.29765 0.68935 0.48253 0.062341 0.5844-0.72245 0.30592-0.85161-0.25018-0.11603-0.043411-0.67798 0.16329-0.71519 0.2067-0.037206 1.9409-0.32245 2.528-0.074413 0.49345 0.2085 0.86218 0.21702 1.0661 0.13384 0.00623-0.083192 0.024881-0.28782 0.026871-0.32762 0.017539-0.35078-0.33331-0.31005-0.33331-0.31005s-1.3256-0.00401-2.6907-0.0062z" fill="#f2a638"/>
  </g>
  <g transform="matrix(1.283 0 0 1.283 20.021 -3.2707)">
   <path d="m-11.16 8.5384v1.4257s0.07392 0.56532 0.58368 0.56532 1.6683-0.26935 1.9 0.49297c0.23171 0.76232-1.0775 2.9177 0.40799 3.0049 1.4438-0.11413 0.17681-2.2425 0.40852-3.0049 0.23171-0.76233 1.3903-0.49297 1.9-0.49297 0.50976 0 0.58421-0.56532 0.58421-0.56532v-1.4257h-2.8922z" fill="#fff"/>
   <path d="m-10.939 8.5785-0.68403-2.6893s-0.07016-0.22801 0.24555-0.24555c0.31571-0.017539 5.6184 0 5.6184 0s0.35078-0.040925 0.33325 0.30986c-0.01754 0.35078-0.22216 2.625-0.22216 2.625z" fill="url(#linearGradient913)"/>
   <path d="m-8.4488 5.6373c-1.3651-0.00219-2.7701-0.00257-2.9279 0.0062-0.31571 0.017539-0.24546 0.24546-0.24546 0.24546l0.07235 0.28473c0.13328 0.08006 0.32311 0.14098 0.5767 0.083714 0.54372-0.12277 1.5933-0.19605 1.3942 0.6139-0.02191 0.089125-0.15318 0.083189-0.23357 0.22789-0.05212 0.093819-0.24102 0.61976 0.29765 0.68935 0.48253 0.062341 0.5844-0.72245 0.30592-0.85161-0.25018-0.11603-0.043411-0.67798 0.16329-0.71519 0.2067-0.037206 1.9409-0.32245 2.528-0.074413 0.49345 0.2085 0.86218 0.21702 1.0661 0.13384 0.00623-0.083192 0.024881-0.28782 0.026871-0.32762 0.017539-0.35078-0.33331-0.31005-0.33331-0.31005s-1.3256-0.00401-2.6907-0.0062z" fill="#f2a638"/>
  </g>
 </g>
</svg>
