<?xml version="1.0" encoding="UTF-8"?>
<!-- Created with Inkscape (http://www.inkscape.org/) -->
<svg width="64" height="64" version="1.1" viewBox="0 0 16.933 16.933" xmlns="http://www.w3.org/2000/svg" xmlns:cc="http://creativecommons.org/ns#" xmlns:dc="http://purl.org/dc/elements/1.1/" xmlns:rdf="http://www.w3.org/1999/02/22-rdf-syntax-ns#" xmlns:xlink="http://www.w3.org/1999/xlink">
 <defs>
  <filter id="filter11290" x="-.024" y="-.024" width="1.048" height="1.048" color-interpolation-filters="sRGB">
   <feGaussianBlur stdDeviation="0.15875313"/>
  </filter>
  <linearGradient id="linearGradient1307" x1="16.393" x2=".60977" y1=".69761" y2="16.375" gradientUnits="userSpaceOnUse">
   <stop stop-color="#ffdc32" offset="0"/>
   <stop stop-color="#ff7832" offset="1"/>
  </linearGradient>
  <linearGradient id="linearGradient1056" x1="42.137" x2="45.252" y1="45.492" y2="42.441" gradientTransform="matrix(.26458 0 0 .26458 .31705 -.43674)" gradientUnits="userSpaceOnUse">
   <stop stop-color="#ffc85a" offset="0"/>
   <stop stop-color="#fce4a7" offset="1"/>
  </linearGradient>
  <filter id="filter1262" x="-.36" y="-.36" width="1.72" height="1.72" color-interpolation-filters="sRGB">
   <feGaussianBlur stdDeviation="1.0799994"/>
  </filter>
  <filter id="filter1025" x="-.192" y="-.192" width="1.384" height="1.384" color-interpolation-filters="sRGB">
   <feGaussianBlur stdDeviation="0.598736"/>
  </filter>
  <filter id="filter1029" x="-.072" y="-.072" width="1.144" height="1.144" color-interpolation-filters="sRGB">
   <feGaussianBlur stdDeviation="0.79199999"/>
  </filter>
 </defs>
 <metadata>
  <rdf:RDF>
   <cc:Work rdf:about="">
    <dc:format>image/svg+xml</dc:format>
    <dc:type rdf:resource="http://purl.org/dc/dcmitype/StillImage"/>
    <dc:title/>
   </cc:Work>
  </rdf:RDF>
 </metadata>
 <circle cx="8.4937" cy="8.46" r="7.9377" filter="url(#filter11290)" opacity=".25" stroke-width=".14032"/>
 <path d="m16.439 8.46c0 0.95154-0.16749 1.8639-0.47464 2.7094-0.21351 0.58768-0.49439 1.1433-0.83393 1.6572-0.14222 0.21608-0.29514 0.42475-0.45746 0.62529-0.51966 0.64179-1.1372 1.2007-1.8305 1.6543-0.2553 0.16718-0.52065 0.3201-0.79536 0.45712-1.0668 0.53389-2.2711 0.83421-3.5456 0.83421s-2.4788-0.30032-3.5456-0.83424c-0.27474-0.13705-0.5404-0.28997-0.7957-0.45712-0.70207-0.45973-1.327-1.0274-1.8509-1.6798-0.16263-0.20216-0.31524-0.41275-0.45746-0.63078-0.33046-0.5054-0.60421-1.0507-0.8135-1.627-0.30711-0.84529-0.4743-1.7573-0.4743-2.7085 0-4.3838 3.5537-7.9375 7.9375-7.9375 2.2005 0 4.1917 0.89548 5.6295 2.3417 0.41436 0.41662 0.78274 0.87929 1.0963 1.3795 0.29645 0.47107 0.54428 0.97582 0.73704 1.5068 0.30718 0.84559 0.47467 1.7579 0.47467 2.7094z" fill="url(#linearGradient1307)" stroke-width=".031006"/>
 <circle cx="-330.35" cy="-328.38" r="0" fill="#5e4aa6" stroke-width=".26458"/>
 <g transform="translate(-1.0366 .30414)">
  <g transform="translate(.84732 .19711)">
   <path d="m4.0211 3.6838v0.31749h9.5248v-0.31749zm0 0.95248v0.31749h9.5248v-0.31749zm0 0.95248v0.31749h9.5248v-0.31749zm0 0.95248v0.31749h9.5248v-0.31749zm0 0.95248v0.31749h9.5248v-0.31749zm0 0.95248v0.31749h9.5248v-0.31749zm0 0.95248v0.31749h9.5248v-0.31749zm0 0.95248v0.31749h9.5248v-0.31749zm0 0.95248v0.31749h9.5248v-0.31749zm0 0.95248v0.31749h9.5248v-0.31749z" enable-background="new" fill="#fff" image-rendering="optimizeSpeed" opacity=".2" stroke-width=".26458"/>
   <g fill="none">
    <path transform="matrix(.26458 0 0 .26458 .31705 -.43674)" d="m47.979 48.353-7.4842-7.4842" color="#000000" filter="url(#filter1025)" image-rendering="optimizeSpeed" opacity=".6" stroke="#fa7846" stroke-width="3.6"/>
    <circle transform="matrix(.26458 0 0 .26458 .31705 -.43674)" cx="28.4" cy="28.774" r="13.2" color="#000000" filter="url(#filter1029)" image-rendering="optimizeSpeed" opacity=".6" stroke="#fa7846" stroke-width="2.4"/>
    <path d="m11.163 10.508-0.79207-0.79207" color="#000000" image-rendering="optimizeSpeed" stroke="#faf6c6" stroke-width=".63499"/>
   </g>
   <circle cx="7.8311" cy="7.1762" r="3.4924" color="#000000" fill="#fff" fill-opacity=".5098" image-rendering="optimizeSpeed" stroke="#fafafa" stroke-width=".63499"/>
   <path d="m13.011 12.356-1.9802-1.9802" color="#000000" fill="none" image-rendering="optimizeSpeed" stroke="url(#linearGradient1056)" stroke-width=".95248"/>
   <circle transform="matrix(.26458 0 0 .26458 .31705 -.43674)" cx="24.8" cy="25.174" r="3.6" color="#000000" fill="#fff" fill-opacity=".3937" filter="url(#filter1262)" image-rendering="optimizeSpeed"/>
  </g>
 </g>
</svg>
