<?xml version="1.0" encoding="UTF-8"?>
<!-- Created with Inkscape (http://www.inkscape.org/) -->
<svg width="64" height="64" version="1.1" viewBox="0 0 16.933 16.933" xmlns="http://www.w3.org/2000/svg" xmlns:cc="http://creativecommons.org/ns#" xmlns:dc="http://purl.org/dc/elements/1.1/" xmlns:rdf="http://www.w3.org/1999/02/22-rdf-syntax-ns#" xmlns:xlink="http://www.w3.org/1999/xlink">
 <defs>
  <filter id="filter11290" x="-.024" y="-.024" width="1.048" height="1.048" color-interpolation-filters="sRGB">
   <feGaussianBlur stdDeviation="0.15875313"/>
  </filter>
  <linearGradient id="linearGradient1007" x1="4.2276" x2="7.3041" y1="5.5261" y2="5.5261" gradientTransform="translate(2.0025 -9.265)" gradientUnits="userSpaceOnUse">
   <stop stop-color="#0a82f0" offset="0"/>
   <stop stop-color="#3250e6" offset="1"/>
  </linearGradient>
  <linearGradient id="linearGradient904" x1="4.2276" x2="7.3041" y1="5.5261" y2="5.5261" gradientTransform="translate(2.0025 -18.826)" gradientUnits="userSpaceOnUse" xlink:href="#linearGradient1007"/>
  <linearGradient id="linearGradient910" x1="4.2276" x2="7.3041" y1="5.5261" y2="5.5261" gradientTransform="translate(2.0025 -9.265)" gradientUnits="userSpaceOnUse" xlink:href="#linearGradient1007"/>
 </defs>
 <metadata>
  <rdf:RDF>
   <cc:Work rdf:about="">
    <dc:format>image/svg+xml</dc:format>
    <dc:type rdf:resource="http://purl.org/dc/dcmitype/StillImage"/>
    <dc:title/>
   </cc:Work>
  </rdf:RDF>
 </metadata>
 <circle cx="8.4937" cy="8.46" r="7.9377" filter="url(#filter11290)" opacity=".25" stroke-width=".14032"/>
 <path d="m16.439 8.46c0 0.95154-0.16749 1.8639-0.47464 2.7094-0.21351 0.58768-0.49439 1.1433-0.83393 1.6572-0.14222 0.21608-0.29514 0.42475-0.45746 0.62529-0.51966 0.64179-1.1372 1.2007-1.8305 1.6543-0.2553 0.16718-0.52065 0.3201-0.79536 0.45712-1.0668 0.53389-2.2711 0.83421-3.5456 0.83421s-2.4788-0.30032-3.5456-0.83424c-0.27474-0.13705-0.5404-0.28997-0.7957-0.45712-0.70207-0.45973-1.327-1.0274-1.8509-1.6798-0.16263-0.20216-0.31524-0.41275-0.45746-0.63078-0.33046-0.5054-0.60421-1.0507-0.8135-1.627-0.30711-0.84529-0.4743-1.7573-0.4743-2.7085 0-4.3838 3.5537-7.9375 7.9375-7.9375 2.2005 0 4.1917 0.89548 5.6295 2.3417 0.41436 0.41662 0.78274 0.87929 1.0963 1.3795 0.29645 0.47107 0.54428 0.97582 0.73704 1.5068 0.30718 0.84559 0.47467 1.7579 0.47467 2.7094z" fill="#fafafa" stroke-width=".031006"/>
 <g fill="#5e4aa6" stroke-width=".26458">
  <circle cx="-330.35" cy="-328.38" r="0"/>
  <g transform="translate(23.999 2.5837)">
   <circle cx="-330.35" cy="-328.38" r="0"/>
   <circle cx="-299.17" cy="-337.27" r="0"/>
   <circle cx="-299.81" cy="-339.42" r="0"/>
   <circle cx="-302.25" cy="-338.13" r="0"/>
   <circle cx="-301.89" cy="-335.91" r="0"/>
   <circle cx="-304.76" cy="-351.05" r="0"/>
   <circle cx="-304.83" cy="-349.54" r="0"/>
   <circle cx="-359.94" cy="-336.91" r="0"/>
  </g>
  <g transform="translate(24.518 -1.8976)">
   <circle cx="-330.35" cy="-328.38" r="0"/>
   <circle cx="-299.17" cy="-337.27" r="0"/>
   <circle cx="-299.81" cy="-339.42" r="0"/>
   <circle cx="-302.25" cy="-338.13" r="0"/>
   <circle cx="-301.89" cy="-335.91" r="0"/>
   <circle cx="-304.76" cy="-351.05" r="0"/>
   <circle cx="-304.83" cy="-349.54" r="0"/>
   <circle cx="-359.94" cy="-336.91" r="0"/>
  </g>
 </g>
 <g transform="translate(-6.5019e-5 -.082179)">
  <rect x="3.21" y="5.3696" width="10.583" height="6.3468" ry=".39668" fill="#e6e6e6" stroke-width=".20091" style="paint-order:markers stroke fill"/>
  <g transform="matrix(.20352 0 0 .20352 1.8871 2.2982)" fill="#fff">
   <rect x="11" y="20" width="6" height="5" ry="1" fill="#fff" style="paint-order:markers stroke fill"/>
   <rect x="20" y="20" width="6" height="5" ry="1" fill="#fff" style="paint-order:markers stroke fill"/>
   <rect x="29" y="20" width="6" height="5" ry="1" style="paint-order:markers stroke fill"/>
   <rect x="39" y="20" width="6" height="5" ry="1" style="paint-order:markers stroke fill"/>
   <rect x="48" y="20" width="6" height="5" ry="1" style="paint-order:markers stroke fill"/>
   <rect x="11" y="29" width="6" height="5" ry="1" style="paint-order:markers stroke fill"/>
   <rect x="20" y="29" width="6" height="5" ry="1" style="paint-order:markers stroke fill"/>
   <rect x="29" y="29" width="6" height="5" ry="1" style="paint-order:markers stroke fill"/>
   <rect x="39" y="29" width="6" height="5" ry="1" style="paint-order:markers stroke fill"/>
   <rect x="48" y="29" width="6" height="5" ry="1" style="paint-order:markers stroke fill"/>
   <rect x="20" y="37.975" width="24" height="5" ry="1.025" style="paint-order:markers stroke fill"/>
  </g>
  <g transform="translate(-.017756)">
   <rect transform="rotate(90)" x="6.2301" y="-3.8719" width="3.0765" height=".26607" ry=".1303" fill="url(#linearGradient910)"/>
   <rect transform="rotate(90)" x="6.2301" y="-13.433" width="3.0765" height=".26607" ry=".1303" fill="url(#linearGradient904)"/>
  </g>
  <path d="m12.032 5.3681a8.1408 7.9352 0 0 1-6.2448 6.3482h7.599c0.2255 0 0.40704-0.17695 0.40704-0.39676v-5.5547c0-0.2198-0.18154-0.39677-0.40704-0.39677z" opacity=".05" stroke-width=".20093" style="paint-order:markers stroke fill"/>
 </g>
</svg>
