<?xml version="1.0" encoding="UTF-8"?>
<!-- Created with Inkscape (http://www.inkscape.org/) -->
<svg width="64" height="64" version="1.1" viewBox="0 0 16.933 16.933" xmlns="http://www.w3.org/2000/svg" xmlns:cc="http://creativecommons.org/ns#" xmlns:dc="http://purl.org/dc/elements/1.1/" xmlns:rdf="http://www.w3.org/1999/02/22-rdf-syntax-ns#" xmlns:xlink="http://www.w3.org/1999/xlink">
 <defs>
  <filter id="filter11290" x="-.024" y="-.024" width="1.048" height="1.048" color-interpolation-filters="sRGB">
   <feGaussianBlur stdDeviation="0.15875313"/>
  </filter>
  <linearGradient id="linearGradient1784" x1="3.21" x2="13.793" y1="8.46" y2="8.46" gradientUnits="userSpaceOnUse">
   <stop stop-color="#c83278" offset="0"/>
   <stop stop-color="#fa5050" offset="1"/>
  </linearGradient>
 </defs>
 <metadata>
  <rdf:RDF>
   <cc:Work rdf:about="">
    <dc:format>image/svg+xml</dc:format>
    <dc:type rdf:resource="http://purl.org/dc/dcmitype/StillImage"/>
    <dc:title/>
   </cc:Work>
  </rdf:RDF>
 </metadata>
 <circle cx="8.4937" cy="8.46" r="7.9377" filter="url(#filter11290)" opacity=".25" stroke-width=".14032"/>
 <path d="m16.439 8.46c0 0.95154-0.16749 1.8639-0.47464 2.7094-0.21351 0.58768-0.49439 1.1433-0.83393 1.6572-0.14222 0.21608-0.29514 0.42475-0.45746 0.62529-0.51966 0.64179-1.1372 1.2007-1.8305 1.6543-0.2553 0.16718-0.52065 0.3201-0.79536 0.45712-1.0668 0.53389-2.2711 0.83421-3.5456 0.83421s-2.4788-0.30032-3.5456-0.83424c-0.27474-0.13705-0.5404-0.28997-0.7957-0.45712-0.70207-0.45973-1.327-1.0274-1.8509-1.6798-0.16263-0.20216-0.31524-0.41275-0.45746-0.63078-0.33046-0.5054-0.60421-1.0507-0.8135-1.627-0.30711-0.84529-0.4743-1.7573-0.4743-2.7085 0-4.3838 3.5537-7.9375 7.9375-7.9375 2.2005 0 4.1917 0.89548 5.6295 2.3417 0.41436 0.41662 0.78274 0.87929 1.0963 1.3795 0.29645 0.47107 0.54428 0.97582 0.73704 1.5068 0.30718 0.84559 0.47467 1.7579 0.47467 2.7094z" fill="#fafafa" stroke-width=".031006"/>
 <g fill="#5e4aa6">
  <circle cx="-330.35" cy="-328.38" r="0" stroke-width=".26458"/>
  <g transform="translate(23.999 2.5837)" stroke-width=".26458">
   <circle cx="-330.35" cy="-328.38" r="0"/>
   <circle cx="-299.17" cy="-337.27" r="0"/>
   <circle cx="-299.81" cy="-339.42" r="0"/>
   <circle cx="-302.25" cy="-338.13" r="0"/>
   <circle cx="-301.89" cy="-335.91" r="0"/>
   <circle cx="-304.76" cy="-351.05" r="0"/>
   <circle cx="-304.83" cy="-349.54" r="0"/>
   <circle cx="-359.94" cy="-336.91" r="0"/>
  </g>
  <g transform="translate(24.518 -1.8976)" stroke-width=".26458">
   <circle cx="-330.35" cy="-328.38" r="0"/>
   <circle cx="-299.17" cy="-337.27" r="0"/>
   <circle cx="-299.81" cy="-339.42" r="0"/>
   <circle cx="-302.25" cy="-338.13" r="0"/>
   <circle cx="-301.89" cy="-335.91" r="0"/>
   <circle cx="-304.76" cy="-351.05" r="0"/>
   <circle cx="-304.83" cy="-349.54" r="0"/>
   <circle cx="-359.94" cy="-336.91" r="0"/>
  </g>
  <circle cx="-311.92" cy="-331.32" r="0" stroke-width=".26458"/>
  <circle cx="-300.02" cy="-345.82" r="0" stroke-width=".26458"/>
 </g>
 <g stroke-width=".20352">
  <path d="m8.5016 3.1685a5.2915 5.2915 0 0 0-5.2915 5.2915 5.2915 5.2915 0 0 0 5.2915 5.2915 5.2915 5.2915 0 0 0 5.2915-5.2915 5.2915 5.2915 0 0 0-5.2915-5.2915zm0 3.0237a2.2678 2.2678 0 0 1 2.2678 2.2678 2.2678 2.2678 0 0 1-2.2678 2.2678 2.2678 2.2678 0 0 1-2.2678-2.2678 2.2678 2.2678 0 0 1 2.2678-2.2678z" fill="url(#linearGradient1784)"/>
  <path d="m8.5016 3.7791a4.681 4.681 0 0 0-4.681 4.681 4.681 4.681 0 0 0 4.681 4.681 4.681 4.681 0 0 0 4.681-4.681 4.681 4.681 0 0 0-4.681-4.681zm0 2.6749a2.0061 2.0061 0 0 1 2.0061 2.0061 2.0061 2.0061 0 0 1-2.0061 2.0061 2.0061 2.0061 0 0 1-2.0061-2.0061 2.0061 2.0061 0 0 1 2.0061-2.0061z" fill="#fff" opacity=".15"/>
  <path d="m8.5016 5.4072a3.0528 3.0528 0 0 0-3.0528 3.0528 3.0528 3.0528 0 0 0 3.0528 3.0528 3.0528 3.0528 0 0 0 3.0528-3.0528 3.0528 3.0528 0 0 0-3.0528-3.0528zm0 1.8317a1.2211 1.2211 0 0 1 1.2211 1.2211 1.2211 1.2211 0 0 1-1.2211 1.2211 1.2211 1.2211 0 0 1-1.2211-1.2211 1.2211 1.2211 0 0 1 1.2211-1.2211z" fill="#fa5050" opacity=".55"/>
 </g>
 <g transform="translate(19.697 .87184)" fill="#5e4aa6" stroke-width=".26458">
  <circle cx="-330.35" cy="-328.38" r="0"/>
  <circle cx="-299.17" cy="-337.27" r="0"/>
  <circle cx="-299.81" cy="-339.42" r="0"/>
  <circle cx="-302.25" cy="-338.13" r="0"/>
  <circle cx="-301.89" cy="-335.91" r="0"/>
  <circle cx="-304.76" cy="-351.05" r="0"/>
  <circle cx="-304.83" cy="-349.54" r="0"/>
  <circle cx="-359.94" cy="-336.91" r="0"/>
 </g>
</svg>
