<?xml version="1.0" encoding="UTF-8"?>
<!-- Created with Inkscape (http://www.inkscape.org/) -->
<svg width="64" height="64" version="1.1" viewBox="0 0 16.933 16.933" xmlns="http://www.w3.org/2000/svg" xmlns:cc="http://creativecommons.org/ns#" xmlns:dc="http://purl.org/dc/elements/1.1/" xmlns:rdf="http://www.w3.org/1999/02/22-rdf-syntax-ns#" xmlns:xlink="http://www.w3.org/1999/xlink">
 <defs>
  <linearGradient id="linearGradient1055">
   <stop stop-color="#0a82f0" offset="0"/>
   <stop stop-color="#3250e6" offset="1"/>
  </linearGradient>
  <filter id="filter11290" x="-.024" y="-.024" width="1.048" height="1.048" color-interpolation-filters="sRGB">
   <feGaussianBlur stdDeviation="0.15875313"/>
  </filter>
  <linearGradient id="linearGradient1057" x1="51" x2="55" y1="26" y2="26" gradientUnits="userSpaceOnUse" xlink:href="#linearGradient1055"/>
  <linearGradient id="linearGradient1065" x1="12" x2="15" y1="27.5" y2="27.5" gradientUnits="userSpaceOnUse" xlink:href="#linearGradient1055"/>
  <linearGradient id="linearGradient937" x1="6.591" x2="57.409" y1="44.034" y2="20.426" gradientUnits="userSpaceOnUse">
   <stop stop-color="#dcdcdc" offset="0"/>
   <stop stop-color="#fafafa" offset="1"/>
  </linearGradient>
 </defs>
 <metadata>
  <rdf:RDF>
   <cc:Work rdf:about="">
    <dc:format>image/svg+xml</dc:format>
    <dc:type rdf:resource="http://purl.org/dc/dcmitype/StillImage"/>
    <dc:title/>
   </cc:Work>
  </rdf:RDF>
 </metadata>
 <circle cx="8.4937" cy="8.46" r="7.9377" filter="url(#filter11290)" opacity=".25" stroke-width=".14032"/>
 <path d="m16.439 8.46c0 0.95154-0.16749 1.8639-0.47464 2.7094-0.21351 0.58768-0.49439 1.1433-0.83393 1.6572-0.14222 0.21608-0.29514 0.42475-0.45746 0.62529-0.51966 0.64179-1.1372 1.2007-1.8305 1.6543-0.2553 0.16718-0.52065 0.3201-0.79536 0.45712-1.0668 0.53389-2.2711 0.83421-3.5456 0.83421s-2.4788-0.30032-3.5456-0.83424c-0.27474-0.13705-0.5404-0.28997-0.7957-0.45712-0.70207-0.45973-1.327-1.0274-1.8509-1.6798-0.16263-0.20216-0.31524-0.41275-0.45746-0.63078-0.33046-0.5054-0.60421-1.0507-0.8135-1.627-0.30711-0.84529-0.4743-1.7573-0.4743-2.7085 0-4.3838 3.5537-7.9375 7.9375-7.9375 2.2005 0 4.1917 0.89548 5.6295 2.3417 0.41436 0.41662 0.78274 0.87929 1.0963 1.3795 0.29645 0.47107 0.54428 0.97582 0.73704 1.5068 0.30718 0.84559 0.47467 1.7579 0.47467 2.7094z" fill="#fafafa" stroke-width=".031006"/>
 <g fill="#5e4aa6" stroke-width=".26458">
  <circle cx="-330.35" cy="-328.38" r="0"/>
  <g transform="translate(23.999 2.5837)">
   <circle cx="-330.35" cy="-328.38" r="0"/>
   <circle cx="-299.17" cy="-337.27" r="0"/>
   <circle cx="-299.81" cy="-339.42" r="0"/>
   <circle cx="-302.25" cy="-338.13" r="0"/>
   <circle cx="-301.89" cy="-335.91" r="0"/>
   <circle cx="-304.76" cy="-351.05" r="0"/>
   <circle cx="-304.83" cy="-349.54" r="0"/>
   <circle cx="-359.94" cy="-336.91" r="0"/>
  </g>
  <g transform="translate(24.518 -1.8976)">
   <circle cx="-330.35" cy="-328.38" r="0"/>
   <circle cx="-299.17" cy="-337.27" r="0"/>
   <circle cx="-299.81" cy="-339.42" r="0"/>
   <circle cx="-302.25" cy="-338.13" r="0"/>
   <circle cx="-301.89" cy="-335.91" r="0"/>
   <circle cx="-304.76" cy="-351.05" r="0"/>
   <circle cx="-304.83" cy="-349.54" r="0"/>
   <circle cx="-359.94" cy="-336.91" r="0"/>
  </g>
  <circle cx="-311.92" cy="-331.32" r="0"/>
  <circle cx="-300.02" cy="-345.82" r="0"/>
  <g transform="translate(19.697 .87184)">
   <circle cx="-330.35" cy="-328.38" r="0"/>
   <circle cx="-299.17" cy="-337.27" r="0"/>
   <circle cx="-299.81" cy="-339.42" r="0"/>
   <circle cx="-302.25" cy="-338.13" r="0"/>
   <circle cx="-301.89" cy="-335.91" r="0"/>
   <circle cx="-304.76" cy="-351.05" r="0"/>
   <circle cx="-304.83" cy="-349.54" r="0"/>
   <circle cx="-359.94" cy="-336.91" r="0"/>
  </g>
  <circle cx="-299.82" cy="-321.23" r="0"/>
 </g>
 <g transform="matrix(.20352 0 0 .20352 1.9889 1.9474)">
  <path d="m20.183 10.514v6.335l-2.364 4e-3v3.573h28.363v-3.573h-2.364v-6.399z" color="#000000" fill="#c8c8c8" overflow="visible" style="isolation:auto;mix-blend-mode:normal"/>
  <path d="m21.364 9.863h21.273v10.563h-21.272z" color="#000000" fill="#f0f0f0" overflow="visible" stroke="#000" stroke-linecap="round" stroke-linejoin="round" stroke-opacity=".059" stroke-width=".882" style="isolation:auto;mix-blend-mode:normal;paint-order:markers stroke fill"/>
  <path d="m16.637 39.898h31.387l4.658 6.5h-40.772z" color="#000000" fill="#c8c8c8" overflow="visible" style="isolation:auto;mix-blend-mode:normal"/>
  <path d="m18.41 40.489h27.18l7.464 13.648h-41.516z" color="#000000" fill="#f0f0f0" overflow="visible" stroke="#828282" stroke-linecap="round" stroke-linejoin="round" stroke-opacity=".059" stroke-width=".882" style="isolation:auto;mix-blend-mode:normal;paint-order:markers stroke fill"/>
  <path d="m6 21.016 0.592-0.59h50.817l0.591 0.59v22.427l-0.59 0.59h-4.137l-4.727-5.317h-33.091l-4.732 5.318h-4.132l-0.591-0.591z" color="#000000" display="block" fill="url(#linearGradient937)" overflow="visible" style="isolation:auto;mix-blend-mode:normal;paint-order:fill markers stroke"/>
  <path d="m15 27.5a1.5 1.5 0 1 1-3 0 1.5 1.5 0 0 1 3 0z" color="#000000" display="block" fill="url(#linearGradient1065)" overflow="visible" style="isolation:auto;mix-blend-mode:normal;paint-order:fill markers stroke"/>
  <circle cx="55.5" cy="22.5" r=".5" color="#000000" display="block" fill="#fff" overflow="visible" style="isolation:auto;mix-blend-mode:normal;paint-order:fill markers stroke"/>
  <path d="m16.637 37.534h30.726c0.69 0 1.182 0.492 1.182 1.182h-33.09c0-0.69 0.493-1.182 1.182-1.182z" color="#000000" display="block" fill="#c8c8c8" overflow="visible" style="isolation:auto;mix-blend-mode:normal;paint-order:fill markers stroke"/>
  <rect x="48.273" y="25" width="6" height="2" ry="1" fill="#0e7def" opacity=".5" style="paint-order:markers stroke fill"/>
  <circle cx="53" cy="26" r="2" fill="url(#linearGradient1057)" style="paint-order:markers stroke fill"/>
  <g fill="#fff">
   <path d="m14 27.5a0.5 0.5 0 1 1-1 0 0.5 0.5 0 0 1 1 0z" color="#000000" display="block" fill-opacity=".924" overflow="visible" style="isolation:auto;mix-blend-mode:normal;paint-order:fill markers stroke"/>
   <circle cx="55.5" cy="42.5" r=".5" color="#000000" display="block" overflow="visible" style="isolation:auto;mix-blend-mode:normal;paint-order:fill markers stroke"/>
   <circle cx="8.5" cy="22.5" r=".5" color="#000000" display="block" overflow="visible" style="isolation:auto;mix-blend-mode:normal;paint-order:fill markers stroke"/>
   <circle cx="8.5" cy="42.5" r=".5" color="#000000" display="block" overflow="visible" style="isolation:auto;mix-blend-mode:normal;paint-order:fill markers stroke"/>
   <rect x="49" y="31" width="6" height="2" ry="1" opacity=".5" style="paint-order:markers stroke fill"/>
   <circle cx="50.273" cy="32" r="2" style="paint-order:markers stroke fill"/>
  </g>
 </g>
</svg>
