<?xml version="1.0" encoding="UTF-8" standalone="no"?>
<!-- Created with Inkscape (http://www.inkscape.org/) -->

<svg
   xmlns:dc="http://purl.org/dc/elements/1.1/"
   xmlns:cc="http://creativecommons.org/ns#"
   xmlns:rdf="http://www.w3.org/1999/02/22-rdf-syntax-ns#"
   xmlns:svg="http://www.w3.org/2000/svg"
   xmlns="http://www.w3.org/2000/svg"
   xmlns:sodipodi="http://sodipodi.sourceforge.net/DTD/sodipodi-0.dtd"
   xmlns:inkscape="http://www.inkscape.org/namespaces/inkscape"
   width="64"
   height="64"
   version="1.1"
   viewBox="0 0 16.933 16.933"
   id="svg358"
   sodipodi:docname="black-default-folder-templates.svg"
   inkscape:version="0.92.4 5da689c313, 2019-01-14">
  <sodipodi:namedview
     pagecolor="#ffffff"
     bordercolor="#666666"
     borderopacity="1"
     objecttolerance="10"
     gridtolerance="10"
     guidetolerance="10"
     inkscape:pageopacity="0"
     inkscape:pageshadow="2"
     inkscape:window-width="1920"
     inkscape:window-height="1018"
     id="namedview360"
     showgrid="false"
     inkscape:zoom="3.6875"
     inkscape:cx="32"
     inkscape:cy="32"
     inkscape:window-x="0"
     inkscape:window-y="36"
     inkscape:window-maximized="1"
     inkscape:current-layer="svg358" />
  <defs
     id="defs20">
    <filter
       id="filter11290"
       x="-.024"
       y="-.024"
       width="1.048"
       height="1.048"
       color-interpolation-filters="sRGB">
      <feGaussianBlur
         stdDeviation="0.15875313"
         id="feGaussianBlur2" />
    </filter>
    <linearGradient
       id="linearGradient677348-3"
       x1="-6.1738"
       x2="-6.1738"
       y1="-126.08"
       y2="-126.7"
       gradientTransform="matrix(.52936 0 0 .54035 11.537 75.528)"
       gradientUnits="userSpaceOnUse">
      <stop
         stop-color="#6e4b41"
         offset="0"
         id="stop5" />
      <stop
         stop-color="#4b322d"
         offset="1"
         id="stop7" />
    </linearGradient>
    <linearGradient
       id="linearGradient1032"
       x1="-7.519"
       x2="-7.519"
       y1="267.55"
       y2="286.91"
       gradientTransform="translate(15.958,-263.09)"
       gradientUnits="userSpaceOnUse">
      <stop
         stop-color="#785546"
         offset="0"
         id="stop10" />
      <stop
         stop-color="#64463c"
         offset="1"
         id="stop12" />
    </linearGradient>
    <linearGradient
       id="linearGradient11339"
       x1="8.5328"
       x2="8.5328"
       y1="277.25"
       y2="296.44"
       gradientTransform="translate(0 -280.07)"
       gradientUnits="userSpaceOnUse">
      <stop
         stop-color="#785546"
         offset="0"
         id="stop15" />
      <stop
         stop-color="#64463c"
         offset="1"
         id="stop17" />
    </linearGradient>
    <linearGradient
       id="linearGradient677348"
       x1="-6.1738"
       x2="-6.1738"
       y1="-126.08"
       y2="-126.7"
       gradientTransform="matrix(0.52935999,0,0,0.54034998,11.537,75.528)"
       gradientUnits="userSpaceOnUse">
      <stop
         stop-color="#3c3c3c"
         offset="0"
         id="stop15-3" />
      <stop
         stop-color="#141414"
         offset="1"
         id="stop17-6" />
    </linearGradient>
    <linearGradient
       id="linearGradient1032-7"
       x1="-7.5190001"
       x2="-7.5190001"
       y1="267.54999"
       y2="286.91"
       gradientTransform="translate(15.958,-263.09)"
       gradientUnits="userSpaceOnUse">
      <stop
         stop-color="#464646"
         offset="0"
         id="stop10-5" />
      <stop
         stop-color="#212121"
         offset="1"
         id="stop12-3" />
    </linearGradient>
    <linearGradient
       id="linearGradient11339-5"
       x1="8.5327997"
       x2="8.5327997"
       y1="277.25"
       y2="296.44"
       gradientTransform="translate(0,-280.07001)"
       gradientUnits="userSpaceOnUse">
      <stop
         stop-color="#464646"
         offset="0"
         id="stop5-6" />
      <stop
         stop-color="#212121"
         offset="1"
         id="stop7-2" />
    </linearGradient>
    <filter
       style="color-interpolation-filters:sRGB"
       id="filter11290-9"
       x="-0.024"
       y="-0.024"
       width="1.048"
       height="1.048">
      <feGaussianBlur
         stdDeviation="0.15875313"
         id="feGaussianBlur2-1" />
    </filter>
  </defs>
  <metadata
     id="metadata22">
    <rdf:RDF>
      <cc:Work
         rdf:about="">
        <dc:format>image/svg+xml</dc:format>
        <dc:type
           rdf:resource="http://purl.org/dc/dcmitype/StillImage" />
        <dc:title></dc:title>
      </cc:Work>
    </rdf:RDF>
  </metadata>
  <circle
     cx="8.4937"
     cy="8.46"
     r="7.9377"
     filter="url(#filter11290)"
     opacity=".25"
     stroke-width=".14032"
     id="circle24" />
  <path
     inkscape:connector-curvature="0"
     style="fill:url(#linearGradient11339-5);stroke-width:0.031006"
     d="m 16.439,8.46 c 0,0.95154 -0.167489,1.863901 -0.474639,2.7094 -0.213511,0.587681 -0.49439,1.1433 -0.83393,1.657201 -0.14222,0.216079 -0.29514,0.42475 -0.45746,0.62529 -0.51966,0.64179 -1.137201,1.200699 -1.830501,1.6543 -0.255299,0.167179 -0.520649,0.320099 -0.79536,0.457119 -1.066799,0.533891 -2.2711,0.834211 -3.5456,0.834211 -1.2745,0 -2.4788,-0.30032 -3.5456,-0.83424 C 4.68117,15.42623 4.41551,15.273311 4.16021,15.10616 3.45814,14.646431 2.83321,14.07876 2.30931,13.426361 2.14668,13.2242 1.99407,13.01361 1.85185,12.79558 c -0.33046,-0.5054 -0.60421,-1.050699 -0.8135,-1.627 -0.30711,-0.84529 -0.4743,-1.7573 -0.4743,-2.7085 0,-4.3838 3.5537,-7.9375 7.9375,-7.9375 2.200501,0 4.1917,0.89548 5.629501,2.3417 0.41436,0.41662 0.78274,0.87929 1.0963,1.3795 0.29645,0.47107 0.544279,0.97582 0.737039,1.5068 0.307181,0.84559 0.474671,1.7579 0.474671,2.7094 z"
     id="path26-7" />
  <path
     d="m15.749 3.9623v3.3469h-14.496v-0.82618c0-0.75555 0.59458-1.3678 1.3283-1.3678h4.0557c0.51072 0 0.97417-0.30649 1.1869-0.78436l0.34924-0.78469c0.15814-0.35514 0.50271-0.58279 0.88191-0.58279h5.7233c0.53568 0 0.97014 0.44738 0.97014 0.99898z"
     fill="#fafafa"
     stroke-width=".030556"
     id="path28" />
  <path
     inkscape:connector-curvature="0"
     style="fill:url(#linearGradient1032-7);stroke-width:0.031006"
     d="m 15.981,5.2 v 5.9612 c -0.213509,0.58768 -0.494389,1.1433 -0.833929,1.657201 -0.14222,0.216079 -0.295141,0.42475 -0.457461,0.625289 -0.51966,0.641791 -1.137199,1.2007 -1.830499,1.654301 -0.255301,0.16718 -0.52065,0.320099 -0.795361,0.457119 -1.0668,0.53389 -2.2711,0.83421 -3.5456,0.83421 -1.2745,0 -2.4788,-0.30032 -3.5456,-0.83424 -0.27474,-0.137049 -0.5404,-0.289969 -0.7957,-0.45712 -0.70207,-0.459729 -1.327,-1.0274 -1.8509,-1.679799 -0.16263,-0.20216 -0.31524,-0.412751 -0.45746,-0.63078 -0.33046,-0.5054 -0.60421,-1.0507 -0.8135,-1.627001 v -3.4397 c 0,-0.75552 0.61233,-1.3679 1.3679,-1.3679 h 5.2164 c 0.52583,0 1.003,-0.30649 1.2221,-0.78435 L 9.221,4.78376 C 9.38363,4.42868 9.7387,4.20092 10.1291,4.20092 h 4.853201 c 0.09072,0 0.1785,0.012 0.26178,0.0347 0.42472,0.115 0.73704,0.50347 0.73704,0.9645 z"
     id="path30-9" />
  <g
     id="Artboard"
     transform="matrix(.083278 0 0 .083278 4.5875 7.1158)"
     display="none">
    <rect
       x="-315"
       y="-207"
       width="1412"
       height="743"
       display="inline"
       fill="#8c8c8c"
       id="rect32" />
  </g>
  <g
     id="R-Multicolor"
     transform="matrix(.083278 0 0 .083278 4.5875 7.1158)"
     display="none">
    <circle
       cx="55"
       cy="55"
       r="55"
       display="inline"
       fill="#32bea6"
       id="circle35" />
    <g
       display="inline"
       id="g69">
      <path
         d="m23 26.84c0-2.121 1.719-3.84 3.84-3.84h28.16l16 13.44v46.72c0 2.121-1.719 3.84-3.84 3.84h-40.32c-2.121 0-3.84-1.719-3.84-3.84z"
         fill="#fff"
         id="path37" />
      <path
         d="m55 23v9.6c0 2.121 1.719 3.84 3.84 3.84h12.16z"
         fill="#f0f1f1"
         id="path39" />
      <path
         d="m52 70h10c0.551 0 1-0.448 1-1v-5c0-0.552-0.449-1-1-1h-10c-0.551 0-1 0.448-1 1v5c0 0.552 0.449 1 1 1z"
         fill="#e2e4e5"
         id="path41" />
      <path
         d="m62 72h-10c-1.654 0-3-1.346-3-3v-5c0-1.654 1.346-3 3-3h10c1.654 0 3 1.346 3 3v5c0 1.654-1.346 3-3 3zm-10-9c-0.551 0-1 0.448-1 1v5c0 0.552 0.449 1 1 1h10c0.551 0 1-0.448 1-1v-5c0-0.552-0.449-1-1-1z"
         fill="#b6bcbd"
         id="path43" />
      <path
         d="m30 70h10c0.551 0 1-0.448 1-1v-5c0-0.552-0.449-1-1-1h-10c-0.551 0-1 0.448-1 1v5c0 0.552 0.449 1 1 1z"
         fill="#e2e4e5"
         id="path45" />
      <path
         d="m40 72h-10c-1.654 0-3-1.346-3-3v-5c0-1.654 1.346-3 3-3h10c1.654 0 3 1.346 3 3v5c0 1.654-1.346 3-3 3zm-10-9c-0.551 0-1 0.448-1 1v5c0 0.552 0.449 1 1 1h10c0.551 0 1-0.448 1-1v-5c0-0.552-0.449-1-1-1z"
         fill="#b6bcbd"
         id="path47" />
      <path
         d="m41 50h10c0.551 0 1-0.448 1-1v-5c0-0.552-0.449-1-1-1h-10c-0.551 0-1 0.448-1 1v5c0 0.552 0.449 1 1 1z"
         fill="#9ce5f4"
         id="path49" />
      <polygon
         points="50.272 52 48.014 52 52.728 61 54.986 61"
         fill="#cfd3d4"
         id="polygon51" />
      <polygon
         points="41.728 52 37.014 61 39.272 61 43.986 52"
         fill="#cfd3d4"
         id="polygon53" />
      <path
         d="m51 52h-10c-1.654 0-3-1.346-3-3v-5c0-1.654 1.346-3 3-3h10c1.654 0 3 1.346 3 3v5c0 1.654-1.346 3-3 3zm-10-9c-0.551 0-1 0.448-1 1v5c0 0.552 0.449 1 1 1h10c0.551 0 1-0.448 1-1v-5c0-0.552-0.449-1-1-1z"
         fill="#40c9e7"
         id="path55" />
      <path
         d="m84.144 57.498-21.203 23.968-5.877 1.21c-0.17-0.818-0.593-1.593-1.267-2.189s-1.495-0.922-2.328-0.991l0.484-5.981 21.203-23.967z"
         fill="#f4d0a1"
         id="path57" />
      <path
         d="m84.115 57.473c0.016 0.014 0.017 0.038 3e-3 0.054l-20.721 23.423c-0.033 0.038-0.086-2e-3 -0.062-0.047 0.651-1.2 0.414-2.728-0.653-3.672-1.126-0.996-2.785-0.995-3.905-0.062-0.032 0.027-0.075-0.011-0.052-0.046 0.79-1.225 0.589-2.871-0.537-3.868-1.079-0.955-2.648-0.993-3.762-0.173-0.036 0.027-0.077-0.015-0.047-0.049l20.752-23.458c0.014-0.016 0.038-0.017 0.054-3e-3z"
         fill="#059bbf"
         id="path59" />
      <rect
         transform="matrix(.749 .6626 -.6626 .749 55.127 -39.967)"
         x="74.313"
         y="51.774"
         width="12"
         height="2"
         fill="#facb1b"
         id="rect61" />
      <path
         d="m84.996 47.571-0.09-0.08c-2.457-2.174-6.211-1.944-8.385 0.513l-0.04 0.045 8.988 7.951 0.04-0.045c2.174-2.457 1.944-6.211-0.513-8.384z"
         fill="#f79392"
         id="path63" />
      <path
         d="m84.119 57.527-20.748 23.452c-0.03 0.034-0.077-2e-3 -0.055-0.042 0.674-1.205 0.444-2.753-0.634-3.707-1.124-0.994-2.777-0.995-3.897-0.068-0.019 0.015-0.041-8e-3 -0.025-0.026l20.865-23.586c0.014-0.016 0.038-0.017 0.053-3e-3l4.437 3.925c0.016 0.015 0.018 0.039 4e-3 0.055z"
         fill="#0484ab"
         id="path65" />
      <path
         d="m57.064 82.675-3.918 0.807 0.323-3.987c0.833 0.069 1.654 0.395 2.328 0.991s1.097 1.371 1.267 2.189z"
         fill="#3e3e3f"
         id="path67" />
    </g>
  </g>
  <path
     transform="scale(.26458)"
     d="m25.787 34.135c-0.6676 0-1.209 0.54138-1.209 1.209v17.727c0 0.6676 0.54138 1.209 1.209 1.209h12.691c0.6676 0 1.209-0.54138 1.209-1.209v-14.705h-3.8281c-0.6676 0-1.209-0.54138-1.209-1.209v-3.0215h-8.8633zm2.2363 6.2617h8.2188v0.83984h-8.2188v-0.83984zm0 3.3906h8.2188v0.83984h-8.2188v-0.83984zm0 3.3906h8.2188v0.83984h-8.2188v-0.83984z"
     fill="#fff"
     stroke-width=".31476"
     id="path72" />
  <path
     d="m9.1678 9.0312v0.79947c0 0.17663 0.14315 0.31979 0.31979 0.31979h1.0127z"
     fill="#fff"
     opacity=".2"
     stroke-width=".083278"
     id="path74" />
  <g
     id="Blue"
     transform="matrix(.083278 0 0 .083278 4.5875 7.1158)"
     display="none">
    <g
       display="inline"
       id="g104">
      <path
         d="m23 26.84c0-2.121 1.719-3.84 3.84-3.84h28.16l16 13.44v46.72c0 2.121-1.719 3.84-3.84 3.84h-40.32c-2.121 0-3.84-1.719-3.84-3.84z"
         fill="#fff"
         id="path76" />
      <g
         fill="#bbe7f2"
         id="g90">
        <path
           d="m55 23v9.6c0 2.121 1.719 3.84 3.84 3.84h12.16z"
           id="path78" />
        <path
           d="m62 72h-10c-1.654 0-3-1.346-3-3v-5c0-1.654 1.346-3 3-3h10c1.654 0 3 1.346 3 3v5c0 1.654-1.346 3-3 3zm-10-9c-0.551 0-1 0.449-1 1v5c0 0.552 0.449 1 1 1h10c0.551 0 1-0.448 1-1v-5c0-0.551-0.449-1-1-1z"
           id="path80" />
        <path
           d="m40 72h-10c-1.654 0-3-1.346-3-3v-5c0-1.654 1.346-3 3-3h10c1.654 0 3 1.346 3 3v5c0 1.654-1.346 3-3 3zm-10-9c-0.551 0-1 0.449-1 1v5c0 0.552 0.449 1 1 1h10c0.551 0 1-0.448 1-1v-5c0-0.551-0.449-1-1-1z"
           id="path82" />
        <polygon
           points="50.271 52 48.014 52 52.728 61 54.986 61"
           id="polygon84" />
        <polygon
           points="41.728 52 37.014 61 39.271 61 43.986 52"
           id="polygon86" />
        <path
           d="m51 52h-10c-1.654 0-3-1.346-3-3v-5c0-1.654 1.346-3 3-3h10c1.654 0 3 1.346 3 3v5c0 1.654-1.346 3-3 3zm-10-9c-0.551 0-1 0.449-1 1v5c0 0.552 0.449 1 1 1h10c0.551 0 1-0.448 1-1v-5c0-0.551-0.449-1-1-1z"
           id="path88" />
      </g>
      <path
         d="m84.144 57.499-21.203 23.967-5.877 1.209c-0.17-0.818-0.593-1.593-1.267-2.189s-1.495-0.921-2.328-0.991l0.484-5.98 21.203-23.967z"
         fill="#e1f5fa"
         id="path92" />
      <path
         d="m84.115 57.473c0.016 0.014 0.018 0.038 4e-3 0.054l-20.722 23.423c-0.034 0.038-0.087-2e-3 -0.063-0.047 0.651-1.2 0.415-2.728-0.652-3.672-1.126-0.996-2.785-0.995-3.905-0.062-0.032 0.026-0.075-0.011-0.052-0.046 0.79-1.225 0.589-2.872-0.538-3.868-1.079-0.955-2.647-0.993-3.761-0.174-0.036 0.027-0.077-0.015-0.047-0.048l20.752-23.458c0.014-0.016 0.038-0.018 0.054-3e-3z"
         fill="#009fc7"
         id="path94" />
      <rect
         transform="matrix(.749 .6626 -.6626 .749 55.127 -39.967)"
         x="74.313"
         y="51.774"
         width="12"
         height="2"
         fill="#53bad4"
         id="rect96" />
      <path
         d="m84.996 47.571-0.09-0.08c-2.457-2.174-6.211-1.944-8.385 0.513l-0.04 0.045 8.988 7.951 0.04-0.045c2.174-2.456 1.944-6.21-0.513-8.384z"
         fill="#fff"
         id="path98" />
      <path
         d="m84.119 57.527-20.748 23.452c-0.03 0.034-0.077-2e-3 -0.055-0.042 0.674-1.205 0.444-2.753-0.634-3.706-1.124-0.994-2.778-0.995-3.897-0.068-0.019 0.016-0.041-8e-3 -0.025-0.025l20.865-23.586c0.014-0.016 0.038-0.018 0.054-3e-3l4.438 3.925c0.014 0.013 0.016 0.037 2e-3 0.053z"
         fill="#0081a1"
         id="path100" />
      <path
         d="m57.064 82.675-3.917 0.807 0.323-3.987c0.833 0.069 1.653 0.395 2.328 0.991 0.673 0.597 1.096 1.371 1.266 2.189z"
         fill="#0c333d"
         id="path102" />
    </g>
  </g>
  <g
     id="R-Blue"
     transform="matrix(.083278 0 0 .083278 4.5875 7.1158)"
     display="none">
    <g
       display="inline"
       id="g109">
      <circle
         cx="55"
         cy="55"
         r="55"
         fill="#81d2eb"
         id="circle107" />
    </g>
    <g
       display="inline"
       id="g139">
      <path
         d="m23 26.84c0-2.121 1.719-3.84 3.84-3.84h28.16l16 13.44v46.72c0 2.121-1.719 3.84-3.84 3.84h-40.32c-2.121 0-3.84-1.719-3.84-3.84z"
         fill="#fff"
         id="path111" />
      <g
         fill="#bbe7f2"
         id="g125">
        <path
           d="m55 23v9.6c0 2.121 1.719 3.84 3.84 3.84h12.16z"
           id="path113" />
        <path
           d="m62 72h-10c-1.654 0-3-1.346-3-3v-5c0-1.654 1.346-3 3-3h10c1.654 0 3 1.346 3 3v5c0 1.654-1.346 3-3 3zm-10-9c-0.551 0-1 0.449-1 1v5c0 0.552 0.449 1 1 1h10c0.551 0 1-0.448 1-1v-5c0-0.551-0.449-1-1-1z"
           id="path115" />
        <path
           d="m40 72h-10c-1.654 0-3-1.346-3-3v-5c0-1.654 1.346-3 3-3h10c1.654 0 3 1.346 3 3v5c0 1.654-1.346 3-3 3zm-10-9c-0.551 0-1 0.449-1 1v5c0 0.552 0.449 1 1 1h10c0.551 0 1-0.448 1-1v-5c0-0.551-0.449-1-1-1z"
           id="path117" />
        <polygon
           points="50.271 52 48.014 52 52.728 61 54.986 61"
           id="polygon119" />
        <polygon
           points="41.728 52 37.014 61 39.271 61 43.986 52"
           id="polygon121" />
        <path
           d="m51 52h-10c-1.654 0-3-1.346-3-3v-5c0-1.654 1.346-3 3-3h10c1.654 0 3 1.346 3 3v5c0 1.654-1.346 3-3 3zm-10-9c-0.551 0-1 0.449-1 1v5c0 0.552 0.449 1 1 1h10c0.551 0 1-0.448 1-1v-5c0-0.551-0.449-1-1-1z"
           id="path123" />
      </g>
      <path
         d="m84.144 57.499-21.203 23.967-5.877 1.209c-0.17-0.818-0.593-1.593-1.267-2.189s-1.495-0.921-2.328-0.991l0.484-5.98 21.203-23.967z"
         fill="#e1f5fa"
         id="path127" />
      <path
         d="m84.115 57.473c0.016 0.014 0.018 0.038 4e-3 0.054l-20.722 23.423c-0.034 0.038-0.087-2e-3 -0.063-0.047 0.651-1.2 0.415-2.728-0.652-3.672-1.126-0.996-2.785-0.995-3.905-0.062-0.032 0.026-0.075-0.011-0.052-0.046 0.79-1.225 0.589-2.872-0.538-3.868-1.079-0.955-2.647-0.993-3.761-0.174-0.036 0.027-0.077-0.015-0.047-0.048l20.752-23.458c0.014-0.016 0.038-0.018 0.054-3e-3z"
         fill="#009fc7"
         id="path129" />
      <rect
         transform="matrix(.749 .6626 -.6626 .749 55.127 -39.967)"
         x="74.313"
         y="51.774"
         width="12"
         height="2"
         fill="#53bad4"
         id="rect131" />
      <path
         d="m84.996 47.571-0.09-0.08c-2.457-2.174-6.211-1.944-8.385 0.513l-0.04 0.045 8.988 7.951 0.04-0.045c2.174-2.456 1.944-6.21-0.513-8.384z"
         fill="#fff"
         id="path133" />
      <path
         d="m84.119 57.527-20.748 23.452c-0.03 0.034-0.077-2e-3 -0.055-0.042 0.674-1.205 0.444-2.753-0.634-3.706-1.124-0.994-2.778-0.995-3.897-0.068-0.019 0.016-0.041-8e-3 -0.025-0.025l20.865-23.586c0.014-0.016 0.038-0.018 0.054-3e-3l4.438 3.925c0.014 0.013 0.016 0.037 2e-3 0.053z"
         fill="#0081a1"
         id="path135" />
      <path
         d="m57.064 82.675-3.917 0.807 0.323-3.987c0.833 0.069 1.653 0.395 2.328 0.991 0.673 0.597 1.096 1.371 1.266 2.189z"
         fill="#0c333d"
         id="path137" />
    </g>
  </g>
  <g
     id="Green"
     transform="matrix(.083278 0 0 .083278 4.5875 7.1158)"
     display="none">
    <g
       display="inline"
       id="g170">
      <path
         d="m23 26.84c0-2.121 1.719-3.84 3.84-3.84h28.16l16 13.44v46.72c0 2.121-1.719 3.84-3.84 3.84h-40.32c-2.121 0-3.84-1.719-3.84-3.84z"
         fill="#fff"
         id="path142" />
      <g
         fill="#aaf0e9"
         id="g156">
        <path
           d="m55 23v9.6c0 2.121 1.719 3.84 3.84 3.84h12.16z"
           id="path144" />
        <path
           d="m62 72h-10c-1.654 0-3-1.346-3-3v-5c0-1.654 1.346-3 3-3h10c1.654 0 3 1.346 3 3v5c0 1.654-1.346 3-3 3zm-10-9c-0.551 0-1 0.449-1 1v5c0 0.552 0.449 1 1 1h10c0.551 0 1-0.448 1-1v-5c0-0.551-0.449-1-1-1z"
           id="path146" />
        <path
           d="m40 72h-10c-1.654 0-3-1.346-3-3v-5c0-1.654 1.346-3 3-3h10c1.654 0 3 1.346 3 3v5c0 1.654-1.346 3-3 3zm-10-9c-0.551 0-1 0.449-1 1v5c0 0.552 0.449 1 1 1h10c0.551 0 1-0.448 1-1v-5c0-0.551-0.449-1-1-1z"
           id="path148" />
        <polygon
           points="50.271 52 48.014 52 52.727 61 54.986 61"
           id="polygon150" />
        <polygon
           points="41.727 52 37.014 61 39.271 61 43.986 52"
           id="polygon152" />
        <path
           d="m51 52h-10c-1.654 0-3-1.346-3-3v-5c0-1.654 1.346-3 3-3h10c1.654 0 3 1.346 3 3v5c0 1.654-1.346 3-3 3zm-10-9c-0.551 0-1 0.449-1 1v5c0 0.552 0.449 1 1 1h10c0.551 0 1-0.448 1-1v-5c0-0.551-0.449-1-1-1z"
           id="path154" />
      </g>
      <path
         d="m84.144 57.499-21.203 23.967-5.877 1.209c-0.17-0.818-0.593-1.593-1.267-2.189s-1.495-0.921-2.328-0.991l0.484-5.98 21.203-23.967z"
         fill="#d7fcf9"
         id="path158" />
      <path
         d="m84.115 57.473c0.016 0.014 0.018 0.038 4e-3 0.054l-20.722 23.423c-0.034 0.038-0.087-2e-3 -0.063-0.047 0.651-1.2 0.415-2.728-0.652-3.672-1.126-0.996-2.785-0.995-3.905-0.062-0.032 0.026-0.075-0.011-0.052-0.046 0.79-1.225 0.589-2.872-0.538-3.868-1.079-0.955-2.647-0.993-3.761-0.174-0.036 0.027-0.077-0.015-0.047-0.048l20.752-23.458c0.014-0.016 0.038-0.018 0.054-3e-3z"
         fill="#00b8a5"
         id="path160" />
      <rect
         transform="matrix(.749 .6626 -.6626 .749 55.127 -39.967)"
         x="74.313"
         y="51.774"
         width="12"
         height="2"
         fill="#5dcfc3"
         id="rect162" />
      <path
         d="m84.996 47.571-0.09-0.08c-2.457-2.174-6.211-1.944-8.385 0.513l-0.04 0.045 8.988 7.951 0.04-0.045c2.174-2.456 1.944-6.21-0.513-8.384z"
         fill="#fff"
         id="path164" />
      <path
         d="m84.119 57.527-20.748 23.452c-0.03 0.034-0.077-2e-3 -0.055-0.042 0.674-1.205 0.444-2.753-0.634-3.706-1.124-0.994-2.778-0.995-3.897-0.068-0.019 0.016-0.041-8e-3 -0.025-0.025l20.865-23.586c0.014-0.016 0.038-0.018 0.054-3e-3l4.438 3.925c0.014 0.013 0.016 0.037 2e-3 0.053z"
         fill="#009687"
         id="path166" />
      <path
         d="m57.064 82.675-3.917 0.807 0.323-3.987c0.833 0.069 1.653 0.395 2.328 0.991 0.673 0.597 1.096 1.371 1.266 2.189z"
         fill="#0a3631"
         id="path168" />
    </g>
  </g>
  <g
     id="R-Green"
     transform="matrix(.083278 0 0 .083278 4.5875 7.1158)"
     display="none">
    <g
       display="inline"
       id="g175">
      <circle
         cx="55"
         cy="55"
         r="55"
         fill="#87e0c8"
         id="circle173" />
    </g>
    <g
       display="inline"
       id="g205">
      <path
         d="m23 26.84c0-2.121 1.719-3.84 3.84-3.84h28.16l16 13.44v46.72c0 2.121-1.72 3.84-3.84 3.84h-40.32c-2.121 0-3.84-1.719-3.84-3.84z"
         fill="#fff"
         id="path177" />
      <g
         fill="#aaf0e9"
         id="g191">
        <path
           d="m55 23v9.6c0 2.121 1.719 3.84 3.84 3.84h12.16z"
           id="path179" />
        <path
           d="m62 72h-10c-1.654 0-3-1.346-3-3v-5c0-1.654 1.346-3 3-3h10c1.654 0 3 1.346 3 3v5c0 1.654-1.346 3-3 3zm-10-9c-0.551 0-1 0.449-1 1v5c0 0.552 0.449 1 1 1h10c0.551 0 1-0.448 1-1v-5c0-0.551-0.449-1-1-1z"
           id="path181" />
        <path
           d="m40 72h-10c-1.654 0-3-1.346-3-3v-5c0-1.654 1.346-3 3-3h10c1.654 0 3 1.346 3 3v5c0 1.654-1.346 3-3 3zm-10-9c-0.551 0-1 0.449-1 1v5c0 0.552 0.449 1 1 1h10c0.551 0 1-0.448 1-1v-5c0-0.551-0.449-1-1-1z"
           id="path183" />
        <polygon
           points="50.271 52 48.014 52 52.727 61 54.986 61"
           id="polygon185" />
        <polygon
           points="41.727 52 37.013 61 39.271 61 43.985 52"
           id="polygon187" />
        <path
           d="m51 52h-10c-1.654 0-3-1.346-3-3v-5c0-1.654 1.346-3 3-3h10c1.654 0 3 1.346 3 3v5c0 1.654-1.346 3-3 3zm-10-9c-0.551 0-1 0.449-1 1v5c0 0.552 0.449 1 1 1h10c0.551 0 1-0.448 1-1v-5c0-0.551-0.449-1-1-1z"
           id="path189" />
      </g>
      <path
         d="m84.144 57.499-21.203 23.967-5.877 1.209c-0.17-0.818-0.593-1.593-1.267-2.189s-1.495-0.921-2.328-0.991l0.484-5.98 21.203-23.967z"
         fill="#d7fcf9"
         id="path193" />
      <path
         d="m84.115 57.473c0.016 0.014 0.018 0.038 4e-3 0.054l-20.722 23.423c-0.034 0.038-0.087-2e-3 -0.063-0.047 0.651-1.2 0.415-2.728-0.652-3.672-1.126-0.996-2.785-0.995-3.905-0.062-0.032 0.026-0.075-0.011-0.052-0.046 0.79-1.225 0.589-2.872-0.538-3.868-1.079-0.955-2.647-0.993-3.761-0.174-0.036 0.027-0.077-0.015-0.047-0.048l20.752-23.458c0.014-0.016 0.038-0.018 0.054-3e-3z"
         fill="#00b8a5"
         id="path195" />
      <rect
         transform="matrix(.749 .6626 -.6626 .749 55.127 -39.967)"
         x="74.312"
         y="51.774"
         width="12"
         height="2"
         fill="#5dcfc3"
         id="rect197" />
      <path
         d="m84.995 47.571-0.09-0.08c-2.457-2.174-6.211-1.944-8.385 0.513l-0.04 0.045 8.988 7.951 0.04-0.045c2.174-2.456 1.944-6.21-0.513-8.384z"
         fill="#fff"
         id="path199" />
      <path
         d="m84.118 57.527-20.747 23.452c-0.03 0.034-0.077-2e-3 -0.055-0.042 0.674-1.205 0.444-2.753-0.634-3.706-1.124-0.994-2.778-0.995-3.897-0.068-0.019 0.016-0.041-8e-3 -0.025-0.025l20.865-23.586c0.014-0.016 0.038-0.018 0.054-3e-3l4.438 3.925c0.014 0.013 0.015 0.037 1e-3 0.053z"
         fill="#009687"
         id="path201" />
      <path
         d="m57.064 82.675-3.917 0.807 0.323-3.987c0.833 0.069 1.653 0.395 2.328 0.991 0.672 0.597 1.095 1.371 1.266 2.189z"
         fill="#0a3631"
         id="path203" />
    </g>
  </g>
  <g
     id="Red"
     transform="matrix(.083278 0 0 .083278 4.5875 7.1158)"
     display="none">
    <g
       display="inline"
       id="g236">
      <path
         d="m22.896 26.84c0-2.121 1.719-3.84 3.84-3.84h28.16l16 13.44v46.72c0 2.121-1.719 3.84-3.84 3.84h-40.32c-2.121 0-3.84-1.719-3.84-3.84z"
         fill="#fff"
         id="path208" />
      <g
         fill="#ffd7d4"
         id="g222">
        <path
           d="m54.896 23v9.6c0 2.121 1.719 3.84 3.84 3.84h12.16z"
           id="path210" />
        <path
           d="m61.896 72h-10c-1.654 0-3-1.346-3-3v-5c0-1.654 1.346-3 3-3h10c1.654 0 3 1.346 3 3v5c0 1.654-1.346 3-3 3zm-10-9c-0.551 0-1 0.449-1 1v5c0 0.552 0.449 1 1 1h10c0.551 0 1-0.448 1-1v-5c0-0.551-0.449-1-1-1z"
           id="path212" />
        <path
           d="m39.896 72h-10c-1.654 0-3-1.346-3-3v-5c0-1.654 1.346-3 3-3h10c1.654 0 3 1.346 3 3v5c0 1.654-1.346 3-3 3zm-10-9c-0.551 0-1 0.449-1 1v5c0 0.552 0.449 1 1 1h10c0.551 0 1-0.448 1-1v-5c0-0.551-0.449-1-1-1z"
           id="path214" />
        <polygon
           points="50.167 52 47.91 52 52.624 61 54.882 61"
           id="polygon216" />
        <polygon
           points="41.624 52 36.91 61 39.167 61 43.882 52"
           id="polygon218" />
        <path
           d="m50.896 52h-10c-1.654 0-3-1.346-3-3v-5c0-1.654 1.346-3 3-3h10c1.654 0 3 1.346 3 3v5c0 1.654-1.346 3-3 3zm-10-9c-0.551 0-1 0.449-1 1v5c0 0.552 0.449 1 1 1h10c0.551 0 1-0.448 1-1v-5c0-0.551-0.449-1-1-1z"
           id="path220" />
      </g>
      <path
         d="m84.04 57.499-21.203 23.967-5.877 1.209c-0.17-0.818-0.593-1.593-1.267-2.189s-1.495-0.921-2.328-0.991l0.484-5.98 21.203-23.967z"
         fill="#ffefed"
         id="path224" />
      <path
         d="m84.011 57.473c0.016 0.014 0.018 0.038 4e-3 0.054l-20.722 23.423c-0.034 0.038-0.087-2e-3 -0.063-0.047 0.651-1.2 0.415-2.728-0.652-3.672-1.126-0.996-2.785-0.995-3.905-0.062-0.032 0.026-0.075-0.011-0.052-0.046 0.79-1.225 0.589-2.872-0.538-3.868-1.079-0.955-2.647-0.993-3.761-0.174-0.036 0.027-0.077-0.015-0.047-0.048l20.752-23.458c0.014-0.016 0.038-0.018 0.054-3e-3z"
         fill="#e54b44"
         id="path226" />
      <rect
         transform="matrix(.749 .6626 -.6626 .749 55.101 -39.898)"
         x="74.209"
         y="51.774"
         width="12"
         height="2"
         fill="#e8a099"
         id="rect228" />
      <path
         d="m84.892 47.571-0.09-0.08c-2.457-2.174-6.211-1.944-8.385 0.513l-0.04 0.045 8.988 7.951 0.04-0.045c2.174-2.456 1.944-6.21-0.513-8.384z"
         fill="#fff"
         id="path230" />
      <path
         d="m84.015 57.527-20.748 23.452c-0.03 0.034-0.077-2e-3 -0.055-0.042 0.674-1.205 0.444-2.753-0.634-3.706-1.124-0.994-2.778-0.995-3.897-0.068-0.019 0.016-0.041-8e-3 -0.025-0.025l20.865-23.586c0.014-0.016 0.038-0.018 0.054-3e-3l4.438 3.925c0.014 0.013 0.016 0.037 2e-3 0.053z"
         fill="#c23023"
         id="path232" />
      <path
         d="m56.96 82.675-3.917 0.807 0.323-3.987c0.833 0.069 1.653 0.395 2.328 0.991 0.673 0.597 1.096 1.371 1.266 2.189z"
         fill="#4a1410"
         id="path234" />
    </g>
  </g>
  <g
     id="R-Red"
     transform="matrix(.083278 0 0 .083278 4.5875 7.1158)"
     display="none">
    <g
       display="inline"
       id="g241">
      <circle
         cx="55"
         cy="55"
         r="55"
         fill="#fabbaf"
         id="circle239" />
    </g>
    <g
       display="inline"
       id="g271">
      <path
         d="m23 26.84c0-2.121 1.719-3.84 3.84-3.84h28.16l16 13.44v46.72c0 2.121-1.719 3.84-3.84 3.84h-40.32c-2.121 0-3.84-1.719-3.84-3.84z"
         fill="#fff"
         id="path243" />
      <g
         fill="#ffd7d4"
         id="g257">
        <path
           d="m55 23v9.6c0 2.121 1.719 3.84 3.84 3.84h12.16z"
           id="path245" />
        <path
           d="m62 72h-10c-1.654 0-3-1.346-3-3v-5c0-1.654 1.346-3 3-3h10c1.654 0 3 1.346 3 3v5c0 1.654-1.346 3-3 3zm-10-9c-0.551 0-1 0.449-1 1v5c0 0.552 0.449 1 1 1h10c0.551 0 1-0.448 1-1v-5c0-0.551-0.449-1-1-1z"
           id="path247" />
        <path
           d="m40 72h-10c-1.654 0-3-1.346-3-3v-5c0-1.654 1.346-3 3-3h10c1.654 0 3 1.346 3 3v5c0 1.654-1.346 3-3 3zm-10-9c-0.551 0-1 0.449-1 1v5c0 0.552 0.449 1 1 1h10c0.551 0 1-0.448 1-1v-5c0-0.551-0.449-1-1-1z"
           id="path249" />
        <polygon
           points="50.271 52 48.014 52 52.728 61 54.986 61"
           id="polygon251" />
        <polygon
           points="41.728 52 37.014 61 39.271 61 43.986 52"
           id="polygon253" />
        <path
           d="m51 52h-10c-1.654 0-3-1.346-3-3v-5c0-1.654 1.346-3 3-3h10c1.654 0 3 1.346 3 3v5c0 1.654-1.346 3-3 3zm-10-9c-0.551 0-1 0.449-1 1v5c0 0.552 0.449 1 1 1h10c0.551 0 1-0.448 1-1v-5c0-0.551-0.449-1-1-1z"
           id="path255" />
      </g>
      <path
         d="m84.144 57.499-21.203 23.967-5.877 1.209c-0.17-0.818-0.593-1.593-1.267-2.189s-1.495-0.921-2.328-0.991l0.484-5.98 21.203-23.967z"
         fill="#ffefed"
         id="path259" />
      <path
         d="m84.115 57.473c0.016 0.014 0.018 0.038 4e-3 0.054l-20.722 23.423c-0.034 0.038-0.087-2e-3 -0.063-0.047 0.651-1.2 0.415-2.728-0.652-3.672-1.126-0.996-2.785-0.995-3.905-0.062-0.032 0.026-0.075-0.011-0.052-0.046 0.79-1.225 0.589-2.872-0.538-3.868-1.079-0.955-2.647-0.993-3.761-0.174-0.036 0.027-0.077-0.015-0.047-0.048l20.752-23.458c0.014-0.016 0.038-0.018 0.054-3e-3z"
         fill="#e54b44"
         id="path261" />
      <rect
         transform="matrix(.749 .6626 -.6626 .749 55.127 -39.967)"
         x="74.313"
         y="51.774"
         width="12"
         height="2"
         fill="#e8a099"
         id="rect263" />
      <path
         d="m84.996 47.571-0.09-0.08c-2.457-2.174-6.211-1.944-8.385 0.513l-0.04 0.045 8.988 7.951 0.04-0.045c2.174-2.456 1.944-6.21-0.513-8.384z"
         fill="#fff"
         id="path265" />
      <path
         d="m84.119 57.527-20.748 23.452c-0.03 0.034-0.077-2e-3 -0.055-0.042 0.674-1.205 0.444-2.753-0.634-3.706-1.124-0.994-2.778-0.995-3.897-0.068-0.019 0.016-0.041-8e-3 -0.025-0.025l20.865-23.586c0.014-0.016 0.038-0.018 0.054-3e-3l4.438 3.925c0.014 0.013 0.016 0.037 2e-3 0.053z"
         fill="#c23023"
         id="path267" />
      <path
         d="m57.064 82.675-3.917 0.807 0.323-3.987c0.833 0.069 1.653 0.395 2.328 0.991 0.673 0.597 1.096 1.371 1.266 2.189z"
         fill="#4a1410"
         id="path269" />
    </g>
  </g>
  <g
     id="Yellow"
     transform="matrix(.083278 0 0 .083278 4.5875 7.1158)"
     display="none">
    <g
       display="inline"
       id="g302">
      <path
         d="m22.896 26.84c0-2.121 1.719-3.84 3.84-3.84h28.16l16 13.44v46.72c0 2.121-1.719 3.84-3.84 3.84h-40.32c-2.121 0-3.84-1.719-3.84-3.84z"
         fill="#fff"
         id="path274" />
      <g
         fill="#ffe9a1"
         id="g288">
        <path
           d="m54.896 23v9.6c0 2.121 1.719 3.84 3.84 3.84h12.16z"
           id="path276" />
        <path
           d="m61.896 72h-10c-1.654 0-3-1.346-3-3v-5c0-1.654 1.346-3 3-3h10c1.654 0 3 1.346 3 3v5c0 1.654-1.346 3-3 3zm-10-9c-0.551 0-1 0.449-1 1v5c0 0.552 0.449 1 1 1h10c0.551 0 1-0.448 1-1v-5c0-0.551-0.449-1-1-1z"
           id="path278" />
        <path
           d="m39.896 72h-10c-1.654 0-3-1.346-3-3v-5c0-1.654 1.346-3 3-3h10c1.654 0 3 1.346 3 3v5c0 1.654-1.346 3-3 3zm-10-9c-0.551 0-1 0.449-1 1v5c0 0.552 0.449 1 1 1h10c0.551 0 1-0.448 1-1v-5c0-0.551-0.449-1-1-1z"
           id="path280" />
        <polygon
           points="50.167 52 47.91 52 52.624 61 54.882 61"
           id="polygon282" />
        <polygon
           points="41.624 52 36.91 61 39.167 61 43.882 52"
           id="polygon284" />
        <path
           d="m50.896 52h-10c-1.654 0-3-1.346-3-3v-5c0-1.654 1.346-3 3-3h10c1.654 0 3 1.346 3 3v5c0 1.654-1.346 3-3 3zm-10-9c-0.551 0-1 0.449-1 1v5c0 0.552 0.449 1 1 1h10c0.551 0 1-0.448 1-1v-5c0-0.551-0.449-1-1-1z"
           id="path286" />
      </g>
      <path
         d="m84.04 57.499-21.203 23.967-5.877 1.209c-0.17-0.818-0.593-1.593-1.267-2.189s-1.495-0.921-2.328-0.991l0.484-5.98 21.203-23.967z"
         fill="#fff5d9"
         id="path290" />
      <path
         d="m84.011 57.473c0.016 0.014 0.018 0.038 4e-3 0.054l-20.722 23.423c-0.034 0.038-0.087-2e-3 -0.063-0.047 0.651-1.2 0.415-2.728-0.652-3.672-1.126-0.996-2.785-0.995-3.905-0.062-0.032 0.026-0.075-0.011-0.052-0.046 0.79-1.225 0.589-2.872-0.538-3.868-1.079-0.955-2.647-0.993-3.761-0.174-0.036 0.027-0.077-0.015-0.047-0.048l20.752-23.458c0.014-0.016 0.038-0.018 0.054-3e-3z"
         fill="#fa9200"
         id="path292" />
      <rect
         transform="matrix(.749 .6626 -.6626 .749 55.101 -39.898)"
         x="74.209"
         y="51.774"
         width="12"
         height="2"
         fill="#f5c43d"
         id="rect294" />
      <path
         d="m84.892 47.571-0.09-0.08c-2.457-2.174-6.211-1.944-8.385 0.513l-0.04 0.045 8.988 7.951 0.04-0.045c2.174-2.456 1.944-6.21-0.513-8.384z"
         fill="#fff"
         id="path296" />
      <path
         d="m84.015 57.527-20.748 23.452c-0.03 0.034-0.077-2e-3 -0.055-0.042 0.674-1.205 0.444-2.753-0.634-3.706-1.124-0.994-2.778-0.995-3.897-0.068-0.019 0.016-0.041-8e-3 -0.025-0.025l20.865-23.586c0.014-0.016 0.038-0.018 0.054-3e-3l4.438 3.925c0.014 0.013 0.016 0.037 2e-3 0.053z"
         fill="#e07000"
         id="path298" />
      <path
         d="m56.96 82.675-3.917 0.807 0.323-3.987c0.833 0.069 1.653 0.395 2.328 0.991 0.673 0.597 1.096 1.371 1.266 2.189z"
         fill="#3d320c"
         id="path300" />
    </g>
  </g>
  <g
     id="R-Yellow"
     transform="matrix(.083278 0 0 .083278 4.5875 7.1158)"
     display="none">
    <g
       display="inline"
       id="g307">
      <circle
         cx="55"
         cy="55"
         r="55"
         fill="#ffd75e"
         id="circle305" />
    </g>
    <g
       display="inline"
       id="g337">
      <path
         d="m23 26.84c0-2.121 1.719-3.84 3.84-3.84h28.16l16 13.44v46.72c0 2.121-1.719 3.84-3.84 3.84h-40.32c-2.121 0-3.84-1.719-3.84-3.84z"
         fill="#fff"
         id="path309" />
      <g
         fill="#ffe9a1"
         id="g323">
        <path
           d="m55 23v9.6c0 2.121 1.719 3.84 3.84 3.84h12.16z"
           id="path311" />
        <path
           d="m62 72h-10c-1.654 0-3-1.346-3-3v-5c0-1.654 1.346-3 3-3h10c1.654 0 3 1.346 3 3v5c0 1.654-1.346 3-3 3zm-10-9c-0.551 0-1 0.449-1 1v5c0 0.552 0.449 1 1 1h10c0.551 0 1-0.448 1-1v-5c0-0.551-0.449-1-1-1z"
           id="path313" />
        <path
           d="m40 72h-10c-1.654 0-3-1.346-3-3v-5c0-1.654 1.346-3 3-3h10c1.654 0 3 1.346 3 3v5c0 1.654-1.346 3-3 3zm-10-9c-0.551 0-1 0.449-1 1v5c0 0.552 0.449 1 1 1h10c0.551 0 1-0.448 1-1v-5c0-0.551-0.449-1-1-1z"
           id="path315" />
        <polygon
           points="50.271 52 48.014 52 52.728 61 54.986 61"
           id="polygon317" />
        <polygon
           points="41.728 52 37.014 61 39.271 61 43.986 52"
           id="polygon319" />
        <path
           d="m51 52h-10c-1.654 0-3-1.346-3-3v-5c0-1.654 1.346-3 3-3h10c1.654 0 3 1.346 3 3v5c0 1.654-1.346 3-3 3zm-10-9c-0.551 0-1 0.449-1 1v5c0 0.552 0.449 1 1 1h10c0.551 0 1-0.448 1-1v-5c0-0.551-0.449-1-1-1z"
           id="path321" />
      </g>
      <path
         d="m84.144 57.499-21.203 23.967-5.877 1.209c-0.17-0.818-0.593-1.593-1.267-2.189s-1.495-0.921-2.328-0.991l0.484-5.98 21.203-23.967z"
         fill="#fff5d9"
         id="path325" />
      <path
         d="m84.115 57.473c0.016 0.014 0.018 0.038 4e-3 0.054l-20.722 23.423c-0.034 0.038-0.087-2e-3 -0.063-0.047 0.651-1.2 0.415-2.728-0.652-3.672-1.126-0.996-2.785-0.995-3.905-0.062-0.032 0.026-0.075-0.011-0.052-0.046 0.79-1.225 0.589-2.872-0.538-3.868-1.079-0.955-2.647-0.993-3.761-0.174-0.036 0.027-0.077-0.015-0.047-0.048l20.752-23.458c0.014-0.016 0.038-0.018 0.054-3e-3z"
         fill="#fa9200"
         id="path327" />
      <rect
         transform="matrix(.749 .6626 -.6626 .749 55.127 -39.967)"
         x="74.313"
         y="51.774"
         width="12"
         height="2"
         fill="#f5c43d"
         id="rect329" />
      <path
         d="m84.996 47.571-0.09-0.08c-2.457-2.174-6.211-1.944-8.385 0.513l-0.04 0.045 8.988 7.951 0.04-0.045c2.174-2.456 1.944-6.21-0.513-8.384z"
         fill="#fff"
         id="path331" />
      <path
         d="m84.119 57.527-20.748 23.452c-0.03 0.034-0.077-2e-3 -0.055-0.042 0.674-1.205 0.444-2.753-0.634-3.706-1.124-0.994-2.778-0.995-3.897-0.068-0.019 0.016-0.041-8e-3 -0.025-0.025l20.865-23.586c0.014-0.016 0.038-0.018 0.054-3e-3l4.438 3.925c0.014 0.013 0.016 0.037 2e-3 0.053z"
         fill="#e07000"
         id="path333" />
      <path
         d="m57.064 82.675-3.917 0.807 0.323-3.987c0.833 0.069 1.653 0.395 2.328 0.991 0.673 0.597 1.096 1.371 1.266 2.189z"
         fill="#3d320c"
         id="path335" />
    </g>
  </g>
  <circle
     cx="-330.35"
     cy="-328.38"
     r="0"
     fill="#5e4aa6"
     stroke-width=".26458"
     id="circle340" />
  <path
     inkscape:connector-curvature="0"
     style="fill:url(#linearGradient677348);stroke-width:0.1415"
     d="M 1.4566,7.1007 C 1.41144,7.1917 1.36686,7.28346 1.32508,7.37607 H 15.678081 C 15.638111,7.28347 15.590301,7.19169 15.54706,7.1007 Z"
     id="path34" />
  <g
     stroke-width=".009826"
     id="g356">
    <path
       d="m10.093 13.321-0.20152 0.24908-0.57619 0.48984c-0.046791 0.03979-0.11544 0.04051-0.16335 0.0017-0.047923-0.03878-0.061522-0.10604-0.032396-0.16012l0.35873-0.66574 0.20152-0.24908z"
       fill="#fafafa"
       id="path344" />
    <path
       d="m10.093 13.321-0.20152 0.24908-0.57619 0.48984c-0.046791 0.03979-0.11544 0.04051-0.16335 0.0017l0.73447-0.90783z"
       fill="#f0f0f0"
       id="path346" />
    <path
       d="m9.8913 13.571-0.41389-0.33488c-0.045451-0.03677-0.052486-0.10344-0.015714-0.14888l2.2318-2.7587c0.12871-0.1591 0.36204-0.18372 0.52114-0.055l0.0024 2e-3c0.15908 0.12872 0.1837 0.36202 0.055 0.52111l-2.2318 2.7587c-0.03678 0.04547-0.10344 0.05251-0.14891 0.01572z"
       fill="#fff"
       id="path348" />
    <path
       d="m12.216 10.274-2.5315 3.129-0.2066-0.16716c-0.045638-0.03694-0.052807-0.10373-0.016026-0.14922l2.2317-2.7585c0.12877-0.15917 0.36266-0.18343 0.52241-0.05418z"
       fill="#e6e6e6"
       id="path350" />
    <path
       d="m11.415 11.942-0.0021-0.0017c-0.13636-0.11032-0.15746-0.3103-0.04714-0.44666l0.59973-0.74129c0.07355-0.09091 0.20688-0.10498 0.29778-0.03143l0.16665 0.13483c0.09091 0.07356 0.10498 0.20687 0.03143 0.29778l-0.59971 0.74128c-0.11033 0.13637-0.31033 0.15748-0.44669 0.04715z"
       fill="#fafafa"
       id="path352" />
    <path
       d="m12.272 10.797c0.01129-0.01399 0.02137-0.02857 0.03032-0.04358l0.12695 0.10271c0.09129 0.07386 0.10563 0.20746 0.03205 0.29841l-0.59956 0.74109c-0.11038 0.13643-0.31085 0.15722-0.44778 0.04643-0.01408-0.01141-0.02688-0.02379-0.03851-0.03692z"
       fill="#fff"
       id="path354" />
  </g>
</svg>
