<?xml version="1.0" encoding="UTF-8"?>
<!-- Created with Inkscape (http://www.inkscape.org/) -->
<svg width="64" height="64" version="1.1" viewBox="0 0 16.933 16.933" xmlns="http://www.w3.org/2000/svg" xmlns:cc="http://creativecommons.org/ns#" xmlns:dc="http://purl.org/dc/elements/1.1/" xmlns:rdf="http://www.w3.org/1999/02/22-rdf-syntax-ns#">
 <defs>
  <filter id="filter11290" x="-.024" y="-.024" width="1.048" height="1.048" color-interpolation-filters="sRGB">
   <feGaussianBlur stdDeviation="0.15875313"/>
  </filter>
  <linearGradient id="linearGradient677348" x1="-6.1738" x2="-6.1738" y1="-126.08" y2="-126.7" gradientTransform="matrix(.52936 0 0 .54035 11.537 75.528)" gradientUnits="userSpaceOnUse">
   <stop stop-color="#f05a8c" offset="0"/>
   <stop stop-color="#c85078" offset="1"/>
  </linearGradient>
  <linearGradient id="linearGradient1032-7" x1="-7.519" x2="-7.519" y1="267.55" y2="286.91" gradientTransform="translate(15.958 -263.05)" gradientUnits="userSpaceOnUse">
   <stop stop-color="#ff6ea0" offset="0"/>
   <stop stop-color="#dc5a8c" offset="1"/>
  </linearGradient>
  <linearGradient id="linearGradient11339-5" x1="8.5328" x2="8.5328" y1="277.25" y2="296.44" gradientTransform="translate(0 -280.07)" gradientUnits="userSpaceOnUse">
   <stop stop-color="#ff6ea0" offset="0"/>
   <stop stop-color="#dc5a8c" offset="1"/>
  </linearGradient>
 </defs>
 <metadata>
  <rdf:RDF>
   <cc:Work rdf:about="">
    <dc:format>image/svg+xml</dc:format>
    <dc:type rdf:resource="http://purl.org/dc/dcmitype/StillImage"/>
    <dc:title/>
   </cc:Work>
  </rdf:RDF>
 </metadata>
 <circle cx="8.4937" cy="8.46" r="7.9377" filter="url(#filter11290)" opacity=".25" stroke-width=".14032"/>
 <path d="m16.439 8.46c0 0.95154-0.16749 1.8639-0.47464 2.7094-0.21351 0.58768-0.49439 1.1433-0.83393 1.6572-0.14222 0.21608-0.29514 0.42475-0.45746 0.62529-0.51966 0.64179-1.1372 1.2007-1.8305 1.6543-0.2553 0.16718-0.52065 0.3201-0.79536 0.45712-1.0668 0.53389-2.2711 0.83421-3.5456 0.83421s-2.4788-0.30032-3.5456-0.83424c-0.27474-0.13705-0.5404-0.28997-0.7957-0.45712-0.70207-0.45973-1.327-1.0274-1.8509-1.6798-0.16263-0.20216-0.31524-0.41275-0.45746-0.63078-0.33046-0.5054-0.60421-1.0507-0.8135-1.627-0.30711-0.84529-0.4743-1.7573-0.4743-2.7085 0-4.3838 3.5537-7.9375 7.9375-7.9375 2.2005 0 4.1917 0.89548 5.6295 2.3417 0.41436 0.41662 0.78274 0.87929 1.0963 1.3795 0.29645 0.47107 0.54428 0.97582 0.73704 1.5068 0.30718 0.84559 0.47467 1.7579 0.47467 2.7094z" fill="url(#linearGradient11339-5)" stroke-width=".031006"/>
 <path d="m15.749 3.9623v3.3469h-14.496v-0.82618c0-0.75555 0.59458-1.3678 1.3283-1.3678h4.0557c0.51072 0 0.97417-0.30649 1.1869-0.78436l0.34924-0.78469c0.15814-0.35514 0.50271-0.58279 0.88191-0.58279h5.7233c0.53568 0 0.97014 0.44738 0.97014 0.99898z" fill="#fafafa" stroke-width=".030556"/>
 <path d="m15.981 5.2409v5.9612c-0.21351 0.58768-0.49439 1.1433-0.83393 1.6572-0.14222 0.21608-0.29514 0.42475-0.45746 0.62529-0.51966 0.64179-1.1372 1.2007-1.8305 1.6543-0.2553 0.16718-0.52065 0.3201-0.79536 0.45712-1.0668 0.53389-2.2711 0.83421-3.5456 0.83421s-2.4788-0.30032-3.5456-0.83424c-0.27474-0.13705-0.5404-0.28997-0.7957-0.45712-0.70207-0.45973-1.327-1.0274-1.8509-1.6798-0.16263-0.20216-0.31524-0.41275-0.45746-0.63078-0.33046-0.5054-0.60421-1.0507-0.8135-1.627v-3.4397c0-0.75552 0.61233-1.3679 1.3679-1.3679h5.2164c0.52583 0 1.003-0.30649 1.2221-0.78435l0.35961-0.78467c0.16263-0.35508 0.5177-0.58284 0.9081-0.58284h4.8532c0.09072 0 0.1785 0.012 0.26178 0.0347 0.42472 0.115 0.73704 0.50347 0.73704 0.9645z" fill="url(#linearGradient1032-7)" stroke-width=".031006"/>
 <circle cx="-330.35" cy="-328.38" r="0" fill="#5e4aa6" stroke-width=".26458"/>
 <path d="m1.4566 7.1007c-0.04516 0.091-0.08974 0.18276-0.13152 0.27537h14.353c-0.03997-0.0926-0.08778-0.18438-0.13102-0.27537z" fill="url(#linearGradient677348)" stroke-width=".1415"/>
 <g transform="matrix(.10058 0 0 .10058 5.4679 8.779)">
  <path d="m20.505 45.22 5.946-3.243c-0.034-0.033-5e-3 -0.043 0.065-0.036l2.91-1.587c1.171-0.639 1.899-1.865 1.899-3.199v-3.655s-1.062-1.275-2.092-3.323c0-1e-3 -1e-3 -2e-3 -1e-3 -3e-3 -0.135-0.268-0.268-0.551-0.399-0.844-0.018-0.041-0.036-0.08-0.054-0.121-0.133-0.303-0.263-0.616-0.386-0.944-8e-3 -0.021-0.015-0.044-0.023-0.065-0.108-0.29-0.209-0.589-0.306-0.896-0.026-0.084-0.052-0.167-0.077-0.251-0.101-0.338-0.196-0.682-0.278-1.038-0.83-0.534-1.384-1.461-1.384-2.515v-4c0-0.88 0.391-1.667 1-2.217v-5.648c-1.413-1.096-3.603-2.135-7-2.135-9.563 0-10 8-10 8v4.995c-0.526 0.475-1 1.154-1 1.914v3.455c0 0.911 0.479 1.711 1.194 2.174 0.863 3.758 3.76 6.463 3.76 6.463v3.157c0 1.151-0.629 2.211-1.64 2.762l-6.704 4.202c-2.225 1.214-3.61 3.546-3.61 6.081v2.797h14v-3.239c0-2.935 1.603-5.636 4.18-7.041z" fill="#e6e6e6"/>
  <path d="m53.566 45.283-9.552-4.776c-1.234-0.617-2.014-1.879-2.014-3.259v-3.748c0.268-0.305 0.576-0.698 0.904-1.162 1.302-1.838 2.286-3.861 2.969-5.984 1.225-0.377 2.127-1.509 2.127-2.854v-4c0-0.88-0.391-1.667-1-2.217v-5.783s1.187-9-11-9c-12.188 0-11 9-11 9v5.783c-0.609 0.55-1 1.337-1 2.217v4c0 1.054 0.554 1.981 1.383 2.517 0.999 4.352 3.617 7.483 3.617 7.483v3.655c0 1.333-0.728 2.56-1.899 3.198l-8.921 4.867c-2.577 1.405-4.18 4.106-4.18 7.041v3.239h44v-3.043c0-3.038-1.717-5.815-4.434-7.174z" fill="#fff"/>
 </g>
</svg>
