<?xml version="1.0" encoding="UTF-8" standalone="no"?>
<!-- Created with Inkscape (http://www.inkscape.org/) -->

<svg
   xmlns:dc="http://purl.org/dc/elements/1.1/"
   xmlns:cc="http://creativecommons.org/ns#"
   xmlns:rdf="http://www.w3.org/1999/02/22-rdf-syntax-ns#"
   xmlns:svg="http://www.w3.org/2000/svg"
   xmlns="http://www.w3.org/2000/svg"
   xmlns:sodipodi="http://sodipodi.sourceforge.net/DTD/sodipodi-0.dtd"
   xmlns:inkscape="http://www.inkscape.org/namespaces/inkscape"
   width="64"
   height="64"
   version="1.1"
   viewBox="0 0 16.933 16.933"
   id="svg40"
   sodipodi:docname="orange-folder-html.svg"
   inkscape:version="0.92.4 5da689c313, 2019-01-14">
  <sodipodi:namedview
     pagecolor="#ffffff"
     bordercolor="#666666"
     borderopacity="1"
     objecttolerance="10"
     gridtolerance="10"
     guidetolerance="10"
     inkscape:pageopacity="0"
     inkscape:pageshadow="2"
     inkscape:window-width="1920"
     inkscape:window-height="1018"
     id="namedview42"
     showgrid="false"
     inkscape:zoom="3.6875"
     inkscape:cx="32"
     inkscape:cy="32"
     inkscape:window-x="0"
     inkscape:window-y="36"
     inkscape:window-maximized="1"
     inkscape:current-layer="svg40" />
  <defs
     id="defs20">
    <filter
       id="filter11290"
       x="-.024"
       y="-.024"
       width="1.048"
       height="1.048"
       color-interpolation-filters="sRGB">
      <feGaussianBlur
         stdDeviation="0.15875313"
         id="feGaussianBlur2" />
    </filter>
    <linearGradient
       id="linearGradient677348-3"
       x1="-6.1738"
       x2="-6.1738"
       y1="-126.08"
       y2="-126.7"
       gradientTransform="matrix(.52936 0 0 .54035 11.537 75.528)"
       gradientUnits="userSpaceOnUse">
      <stop
         stop-color="#e14b4b"
         offset="0"
         id="stop5" />
      <stop
         stop-color="#a03232"
         offset="1"
         id="stop7" />
    </linearGradient>
    <linearGradient
       id="linearGradient1032"
       x1="-7.519"
       x2="-7.519"
       y1="267.55"
       y2="286.91"
       gradientTransform="translate(15.958 -263.05)"
       gradientUnits="userSpaceOnUse">
      <stop
         stop-color="#f05050"
         offset="0"
         id="stop10" />
      <stop
         stop-color="#c84641"
         offset="1"
         id="stop12" />
    </linearGradient>
    <linearGradient
       id="linearGradient11339"
       x1="8.5328"
       x2="8.5328"
       y1="277.25"
       y2="296.44"
       gradientTransform="translate(0 -280.07)"
       gradientUnits="userSpaceOnUse">
      <stop
         stop-color="#f05050"
         offset="0"
         id="stop15" />
      <stop
         stop-color="#c84641"
         offset="1"
         id="stop17" />
    </linearGradient>
    <linearGradient
       id="linearGradient677348"
       x1="-6.1738"
       x2="-6.1738"
       y1="-126.08"
       y2="-126.7"
       gradientTransform="matrix(0.52935999,0,0,0.54034998,11.537,75.528001)"
       gradientUnits="userSpaceOnUse">
      <stop
         stop-color="#ff820a"
         offset="0"
         id="stop15-3" />
      <stop
         stop-color="#e65000"
         offset="1"
         id="stop17-6" />
    </linearGradient>
    <linearGradient
       id="linearGradient1032-7"
       x1="-7.5190001"
       x2="-7.5190001"
       y1="267.54999"
       y2="286.91"
       gradientTransform="translate(15.958,-263.0491)"
       gradientUnits="userSpaceOnUse">
      <stop
         stop-color="#ff820a"
         offset="0"
         id="stop10-5" />
      <stop
         stop-color="#e65a0a"
         offset="1"
         id="stop12-3" />
    </linearGradient>
    <linearGradient
       id="linearGradient11339-5"
       x1="8.5327997"
       x2="8.5327997"
       y1="277.25"
       y2="296.44"
       gradientTransform="translate(0,-280.07)"
       gradientUnits="userSpaceOnUse">
      <stop
         stop-color="#ff820a"
         offset="0"
         id="stop5-6" />
      <stop
         stop-color="#e65a0a"
         offset="1"
         id="stop7-2" />
    </linearGradient>
  </defs>
  <metadata
     id="metadata22">
    <rdf:RDF>
      <cc:Work
         rdf:about="">
        <dc:format>image/svg+xml</dc:format>
        <dc:type
           rdf:resource="http://purl.org/dc/dcmitype/StillImage" />
        <dc:title></dc:title>
      </cc:Work>
    </rdf:RDF>
  </metadata>
  <circle
     cx="8.4937"
     cy="8.46"
     r="7.9377"
     filter="url(#filter11290)"
     opacity=".25"
     stroke-width=".14032"
     id="circle24" />
  <path
     inkscape:connector-curvature="0"
     style="fill:url(#linearGradient11339-5);stroke-width:0.031006"
     d="m 16.439,8.46 c 0,0.95154 -0.16749,1.8639 -0.47464,2.7094 -0.21351,0.58768 -0.49439,1.1433 -0.83393,1.6572 -0.14222,0.21608 -0.29514,0.42475 -0.45746,0.62529 -0.51966,0.64179 -1.1372,1.2007 -1.8305,1.6543 -0.2553,0.16718 -0.52065,0.3201 -0.79536,0.45712 -1.0668,0.53389 -2.2711,0.83421 -3.5456,0.83421 -1.2745,0 -2.4788,-0.30032 -3.5456,-0.83424 -0.27474,-0.13705 -0.5404,-0.28997 -0.7957,-0.45712 -0.70207,-0.45973 -1.327,-1.0274 -1.8509,-1.6798 -0.16263,-0.20216 -0.31524,-0.41275 -0.45746,-0.63078 -0.33046,-0.5054 -0.60421,-1.0507 -0.8135,-1.627 -0.30711,-0.84529 -0.4743,-1.7573 -0.4743,-2.7085 0,-4.3838 3.5537,-7.9375 7.9375,-7.9375 2.2005,0 4.1917,0.89548 5.6295,2.3417 0.41436,0.41662 0.78274,0.87929 1.0963,1.3795 0.29645,0.47107 0.54428,0.97582 0.73704,1.5068 0.30718,0.84559 0.47467,1.7579 0.47467,2.7094 z"
     id="path26-9" />
  <path
     d="m15.749 3.9623v3.3469h-14.496v-0.82618c0-0.75555 0.59458-1.3678 1.3283-1.3678h4.0557c0.51072 0 0.97417-0.30649 1.1869-0.78436l0.34924-0.78469c0.15814-0.35514 0.50271-0.58279 0.88191-0.58279h5.7233c0.53568 0 0.97014 0.44738 0.97014 0.99898z"
     fill="#fafafa"
     stroke-width=".030556"
     id="path28" />
  <path
     inkscape:connector-curvature="0"
     style="fill:url(#linearGradient1032-7);stroke-width:0.031006"
     d="m 15.981,5.2409 v 5.9612 c -0.21351,0.58768 -0.49439,1.1433 -0.83393,1.6572 -0.14222,0.21608 -0.29514,0.42475 -0.45746,0.62529 -0.51966,0.64179 -1.1372,1.2007 -1.8305,1.6543 -0.2553,0.16718 -0.52065,0.3201 -0.79536,0.45712 -1.0668,0.53389 -2.2711,0.83421 -3.5456,0.83421 -1.2745,0 -2.4788,-0.30032 -3.5456,-0.83424 -0.27474,-0.13705 -0.5404,-0.28997 -0.7957,-0.45712 -0.70207,-0.45973 -1.327,-1.0274 -1.8509,-1.6798 -0.16263,-0.20216 -0.31524,-0.41275 -0.45746,-0.63078 -0.33046,-0.5054 -0.60421,-1.0507 -0.8135,-1.627 v -3.4397 c 0,-0.75552 0.61233,-1.3679 1.3679,-1.3679 h 5.2164 c 0.52583,0 1.003,-0.30649 1.2221,-0.78435 L 9.221,4.82466 C 9.38363,4.46958 9.7387,4.24182 10.1291,4.24182 h 4.8532 c 0.09072,0 0.1785,0.012 0.26178,0.0347 0.42472,0.115 0.73704,0.50347 0.73704,0.9645 z"
     id="path30-2" />
  <circle
     cx="-330.35"
     cy="-328.38"
     r="0"
     fill="#5e4aa6"
     stroke-width=".26458"
     id="circle32" />
  <path
     inkscape:connector-curvature="0"
     style="fill:url(#linearGradient677348);stroke-width:0.1415"
     d="M 1.4566,7.1007 C 1.41144,7.1917 1.36686,7.28346 1.32508,7.37607 h 14.353 C 15.63811,7.28347 15.5903,7.19169 15.54706,7.1007 Z"
     id="path34-7" />
  <path
     transform="scale(.26458)"
     d="m32.129 34.395a9.7753 9.7753 0 0 0-0.3418 0.011719c0.22084-0.007577 0.44369-0.003449 0.66797 0.003906a9.7753 9.7753 0 0 0-0.32617-0.015625zm-0.58008 0.021485a9.7753 9.7753 0 0 0-0.48438 0.048828c0.16119-0.01752 0.32095-0.039264 0.48438-0.048828zm1.0723 0.003906c-5.108 0.32202-9.1523 4.561-9.1523 9.75 0 5.2038 4.0667 9.4574 9.1953 9.7578a9.7753 9.7753 0 0 0 9.2402-9.7578 9.7753 9.7753 0 0 0-9.2832-9.75zm-2.0918 0.10938a9.7753 9.7753 0 0 0-0.36524 0.076172c0.12195-0.024972 0.24169-0.055799 0.36524-0.076172zm-0.98633 0.2168a9.7753 9.7753 0 0 0-0.22656 0.072265c0.075981-0.022854 0.14982-0.051226 0.22656-0.072265zm-0.92774 0.30273a9.7753 9.7753 0 0 0-0.24414 0.10742c0.082096-0.034298 0.16093-0.07532 0.24414-0.10742zm-0.89453 0.39844a9.7753 9.7753 0 0 0-0.22266 0.125c0.07505-0.040537 0.14645-0.086388 0.22266-0.125zm-0.84375 0.48047a9.7753 9.7753 0 0 0-0.30078 0.21094c0.10064-0.069756 0.19745-0.14492 0.30078-0.21094zm-0.77734 0.55274a9.7753 9.7753 0 0 0-0.42578 0.36523c0.14019-0.12368 0.27863-0.24965 0.42578-0.36523zm-0.72266 0.62695a9.7753 9.7753 0 0 0-0.43164 0.45117c0.1411-0.15326 0.28113-0.30721 0.43164-0.45117zm-0.66797 0.70508a9.7753 9.7753 0 0 0-0.33789 0.43164c0.111-0.14508 0.21912-0.29313 0.33789-0.43164zm-0.60938 0.78906a9.7753 9.7753 0 0 0-0.21875 0.34375c0.072905-0.11484 0.14126-0.23223 0.21875-0.34375zm-0.52148 0.83984a9.7753 9.7753 0 0 0-0.17188 0.34375c0.057663-0.11448 0.1099-0.23191 0.17188-0.34375zm-0.42969 0.875a9.7753 9.7753 0 0 0-0.13867 0.36914c0.046955-0.1228 0.086965-0.24878 0.13867-0.36914zm-0.3418 0.91992a9.7753 9.7753 0 0 0-0.11914 0.44727c0.039218-0.14926 0.073134-0.3009 0.11914-0.44727zm-0.24609 0.94727a9.7753 9.7753 0 0 0-0.12305 0.77734c0.032375-0.26176 0.070404-0.52245 0.12305-0.77734zm-0.15039 0.96484a9.7753 9.7753 0 0 0-0.05664 1.0215 9.7753 9.7753 0 0 0 0.048828 0.88477c-0.026197-0.29172-0.046875-0.58619-0.046875-0.88477 0-0.34545 0.019743-0.68534 0.054687-1.0215zm0.042969 2.332a9.7753 9.7753 0 0 0 0.085937 0.54492c-0.034596-0.17983-0.061343-0.36172-0.085937-0.54492zm0.19531 1.0234a9.7753 9.7753 0 0 0 0.12109 0.45703c-0.044795-0.15045-0.083443-0.30363-0.12109-0.45703zm0.29297 0.97656a9.7753 9.7753 0 0 0 0.14648 0.38672c-0.052153-0.1274-0.099621-0.25669-0.14648-0.38672zm0.38281 0.91211a9.7753 9.7753 0 0 0 0.18359 0.36719c-0.06428-0.12051-0.12428-0.24373-0.18359-0.36719zm0.45508 0.83984a9.7753 9.7753 0 0 0 0.24219 0.38281c-0.08433-0.12532-0.1636-0.25346-0.24219-0.38281zm0.52734 0.78125a9.7753 9.7753 0 0 0 0.3125 0.40039c-0.10816-0.12997-0.21108-0.26484-0.3125-0.40039zm0.60156 0.72852a9.7753 9.7753 0 0 0 0.37695 0.39453c-0.12981-0.12758-0.25439-0.25991-0.37695-0.39453zm0.68945 0.6875a9.7753 9.7753 0 0 0 0.40625 0.34766c-0.13879-0.11195-0.27385-0.22842-0.40625-0.34766zm0.76953 0.625a9.7753 9.7753 0 0 0 0.4043 0.2832c-0.13758-0.090498-0.27167-0.18606-0.4043-0.2832zm0.86328 0.56445a9.7753 9.7753 0 0 0 0.35938 0.19922c-0.12154-0.063977-0.24091-0.13033-0.35938-0.19922zm0.86719 0.44531a9.7753 9.7753 0 0 0 0.38477 0.16797c-0.13003-0.05243-0.25757-0.11017-0.38477-0.16797zm0.90039 0.35742a9.7753 9.7753 0 0 0 0.42188 0.13281c-0.14226-0.041037-0.28235-0.085558-0.42188-0.13281zm0.95312 0.26758a9.7753 9.7753 0 0 0 0.42383 0.089844c-0.14273-0.025907-0.28332-0.057798-0.42383-0.089844zm0.95312 0.16992a9.7753 9.7753 0 0 0 0.49219 0.048828c-0.16506-0.012259-0.32949-0.028452-0.49219-0.048828zm1.6738 0.070313c-0.23611 0.010654-0.46878 0.009791-0.70117 0.003906a9.7753 9.7753 0 0 0 0.25195 0.011718 9.7753 9.7753 0 0 0 0.44922-0.015624z"
     fill="#fff"
     opacity=".2"
     stroke-width=".039348"
     id="path36" />
  <path
     d="m10.385 13.58c1.0415-1.0414 1.0415-2.727 0-3.7686-1.0415-1.0415-2.7289-1.0397-3.7686 1.06e-5 -0.50332 0.50332-0.7805 1.1725-0.7805 1.8843 0 0.71178 0.27718 1.381 0.7805 1.8843 0.51571 0.51571 1.1912 0.78051 1.8843 0.78051 0.69316 0 1.3686-0.26483 1.8843-0.78051zm-4.3909-1.8059h1.0207c0.00534 0.33295 0.044234 0.65559 0.11381 0.95485-0.27336 0.09082-0.51777 0.20883-0.71871 0.34993-0.25256-0.38058-0.4011-0.82845-0.41574-1.3048zm1.891-2.509c-0.36148 0.29185-0.59351 0.79221-0.71807 1.2451-0.2538-0.085297-0.48042-0.19501-0.66648-0.32568 0.34568-0.45639 0.83137-0.77877 1.3845-0.9194zm2.6156 0.9194c-0.18605 0.13067-0.41268 0.2404-0.66648 0.32568-0.12442-0.4523-0.3563-0.95298-0.71809-1.2451 0.55267 0.14049 1.0386 0.46256 1.3845 0.9194zm0.44856 2.0533c-0.06436 0.29098-0.18145 0.57531-0.35788 0.84107-0.20093-0.1411-0.44535-0.25913-0.71871-0.34993 0.069561-0.2993 0.10851-0.62193 0.11381-0.95485h1.0207c-0.0048 0.15581-0.02359 0.30887-0.05786 0.46375zm-4.4487 0.96892c0.18605-0.13066 0.41265-0.24038 0.66644-0.32566 0.068314 0.24837 0.15861 0.47806 0.26904 0.6809 0.13077 0.24019 0.2828 0.42998 0.44904 0.56418-0.54422-0.13834-1.0323-0.45474-1.3845-0.9194zm0.81622-0.37237c0.33717-0.09672 0.71476-0.1522 1.1054-0.15876v1.5233c-0.58095-0.064868-0.94995-0.79634-1.1054-1.3646zm1.1054-3.6421v1.5233c-0.39061-0.006591-0.76821-0.062054-1.1054-0.15876 0.15497-0.56651 0.51964-1.2991 1.1054-1.3646zm0.15694 2.5818h1.2504c-0.00517 0.31714-0.041776 0.62399-0.10704 0.90845-0.35035-0.10004-0.74071-0.15737-1.1434-0.16397zm0-0.15694v-0.74452c0.40267-0.0066 0.79305-0.06392 1.1434-0.16397 0.065242 0.28448 0.10183 0.59135 0.10704 0.90845zm0-0.9015v-1.5233c0.58141 0.065001 0.94977 0.79567 1.1054 1.3646-0.33716 0.09671-0.71475 0.1522-1.1054 0.15876zm-0.15694 0.157v0.74452h-1.2504c0.00517-0.31715 0.041776-0.624 0.10704-0.90845 0.35035 0.10004 0.74072 0.15736 1.1434 0.16397zm0 0.90142v0.7445c-0.40268 0.0066-0.79306 0.06392-1.1434 0.16397-0.065242-0.28448-0.10183-0.59134-0.10704-0.90845zm0.15694 0.9015c0.39061 0.0066 0.76821 0.06205 1.1054 0.15876-0.065242 0.23852-0.15154 0.45866-0.2571 0.65253-0.23248 0.42702-0.5312 0.67657-0.84827 0.71202v-1.5233zm0.98611 0.88636c0.11043-0.20284 0.20073-0.43252 0.26904-0.6809 0.25379 0.08529 0.48039 0.195 0.66644 0.32567-0.34624 0.45677-0.83073 0.77865-1.3845 0.9194 0.16623-0.13421 0.31827-0.32401 0.44904-0.56419zm0.42127-1.9448c-0.00525-0.33295-0.044234-0.65559-0.11381-0.95494 0.27336-0.09082 0.51777-0.20883 0.71871-0.34993 0.24985 0.37638 0.40088 0.82373 0.41574 1.3048h-1.0207zm-3.5766-1.3048c0.20093 0.1411 0.44535 0.25912 0.71871 0.34993-0.069561 0.2993-0.1085 0.62194-0.11381 0.95494h-1.0207c0.014863-0.4811 0.16589-0.92849 0.41574-1.3048z"
     fill="#fafafa"
     stroke-width=".010411"
     id="path38" />
</svg>
